<svg version="1" xmlns="http://www.w3.org/2000/svg" width="1333.333" height="1333.333" viewBox="0 0 1000.000000 1000.000000"><path d="M270.9 110.4c-.2.2-3.3.6-6.9 1-3.6.3-7.6.8-9 1.1-11 2.1-14.9 3.2-25.3 6.6-34.1 11.4-62.3 31.7-84.4 60.7-15.2 20-26 43.9-31.9 70.7-2.9 12.8-3.9 44.7-2 57.6 10 65.2 51.3 117.3 111.3 140.4 8.8 3.3 24.8 7.8 32.3 9 1.9.3 5.1.8 7 1.1 6.5 1 35.4 1.2 43 .3 59.3-7.4 110-43 136.4-95.6 9-17.9 14.8-37.2 17.3-57.3 1-7.4.9-36.1-.1-43.5-6.5-50.7-36.3-97.5-79.5-125-20.5-13-41.9-21-70.1-26-4-.7-37.4-1.7-38.1-1.1zM700.9 110.4c-.2.2-3.6.7-7.4 1-3.9.3-8.5 1-10.3 1.5-1.8.5-3.5 1-3.7 1-.3 0-1.8.2-3.3.5-1.5.4-3.6.8-4.7 1-12.2 2.5-40.2 15-53.2 23.8-35.5 23.9-62 60.9-72.4 100.8-2.7 10.7-3.1 12.5-4.8 25-.9 6.6-.7 38.4.2 43 .3 1.4.8 4.1 1.1 6 .8 5.3 3.3 15.9 5.7 23.6 1.9 6.4 9.4 24.7 10.9 26.9.4.5 2.2 3.7 4 7 7.2 13.3 21.2 30.9 33.3 41.9 23 21 49.8 35.3 79.4 42.1 6.5 1.5 8.3 1.9 16.3 3.1 8.3 1.2 35 1.2 45-.1 24.4-3.2 48.5-11.5 69.2-24.1 24.5-14.9 45.3-36.5 61.5-63.9 9.8-16.6 18.6-43.7 21.1-65 .9-7.6.8-35.2-.1-42.5-3.3-25.9-13.8-54-28-75-13.1-19.4-32.2-38.1-51.7-50.5-20.4-13-41.8-21-70-26-4-.7-37.5-1.7-38.1-1.1zM269.8 540.5c-.1.1-3.4.6-7.3 1-3.8.4-7.2.8-7.5 1-.3.2-2.1.6-4 .9-20.9 3.4-51.2 16.7-69.5 30.5-12.2 9.2-24.1 20.7-32.4 31.1-2.8 3.6-5.6 7-6.1 7.7-6.2 7.6-17.3 28.7-22.1 41.5-2.9 8-7.4 24.3-8.3 30.8-1.7 11-2.1 16.9-2.1 30 0 16.7.7 23.9 3.4 36.8 13 60 57.3 109.6 115.6 129 19.9 6.7 33.2 8.7 56 8.6 18.7 0 28.2-1.1 43-4.8 44.9-11.3 85.8-42.7 108.8-83.8 5.3-9.3 14.3-30 15.2-34.9.3-1.2.9-3.6 1.4-5.3.6-1.7 1.3-4.3 1.6-5.9 1.4-7.2 1.6-8.3 2-9.7 2.6-9.1 2.7-47.3.1-58.6-.2-1.2-.7-3.9-1-6-.4-2.2-1.6-7.3-2.7-11.4-10.7-38.1-33.6-71.4-65.3-94.8-3.9-2.9-7.6-5.7-8.3-6.2-.7-.6-1.5-1-1.9-1-.3 0-1.8-.9-3.4-2-5.2-3.7-22.6-11.8-33.1-15.4-9.1-3.1-19.2-5.6-32.9-8.1-3.6-.7-38.6-1.6-39.2-1zM699.9 540.5c-.2.1-3.2.6-6.6 1-5.2.5-16.2 2.7-26.1 5-1.2.3-5.3 1.7-9 3.1-3.7 1.4-7.1 2.6-7.7 2.8-5.9 1.8-21.9 10-31.5 16.4-4.7 3.1-8.7 5.8-9 6.1-.3.3-2.7 2.4-5.5 4.6-7.1 5.6-21.2 19.9-27.2 27.5-10 12.8-19.5 29.5-25.7 45.3-2.9 7.3-8.1 26.4-9.1 33.7-.4 2.5-1.1 7-1.5 10-.8 5.5-.5 35.8.4 41.5 1.9 12.5 3.8 20.9 7.2 31.8 1.4 4.5 3 8.6 3.5 9.1.5.6.9 1.6.9 2.4 0 2.1 9.2 20.2 14.5 28.4 28.3 43.9 75.8 73.7 127 79.6 12.3 1.4 40.1.7 50.5-1.3 75.7-14.4 131.5-72 143.5-148 .3-2.2.8-11.4 1-20.5.7-30.2-4.9-55.8-17.6-81.1-3.6-7.3-9.8-18.3-12.1-21.4-15.5-21.2-28.7-34.1-47.9-47-8.2-5.6-26.9-15.5-31.9-17-1.4-.4-3.8-1.3-5.5-2-5.5-2.5-23.6-7.2-30.9-8.1-2.2-.3-4.8-.8-5.6-1.1-1.7-.6-37.5-1.4-38.1-.8z"/></svg>