<?xml version="1.0" standalone="no"?>
<!DOCTYPE svg PUBLIC "-//W3C//DTD SVG 20010904//EN"
 "http://www.w3.org/TR/2001/REC-SVG-20010904/DTD/svg10.dtd">
<svg version="1.0" xmlns="http://www.w3.org/2000/svg"
 width="601.000000pt" height="601.000000pt" viewBox="0 0 601.000000 601.000000"
 preserveAspectRatio="xMidYMid meet">
<metadata>
Created by potrace 1.14, written by Peter Selinger 2001-2017
</metadata>
<g transform="translate(0.000000,601.000000) scale(0.100000,-0.100000)"
fill="#000000" stroke="none">
<path d="M2795 6004 c-275 -28 -428 -55 -630 -114 -275 -81 -577 -221 -811
-376 -372 -247 -696 -583 -919 -954 -461 -767 -559 -1686 -269 -2531 146 -427
383 -806 709 -1134 496 -499 1098 -789 1820 -876 129 -16 491 -16 620 0 241
29 444 74 650 143 925 312 1633 1046 1919 1992 171 562 162 1214 -23 1782
-126 387 -339 758 -604 1055 -497 556 -1127 892 -1867 994 -109 15 -507 28
-595 19z m1475 -1102 c198 -36 371 -101 443 -168 25 -23 28 -31 22 -63 -19
-107 -18 -130 9 -175 38 -65 97 -130 224 -245 117 -107 131 -131 95 -163 -10
-9 -29 -19 -43 -23 -56 -16 -159 -79 -228 -138 -214 -183 -474 -531 -547 -732
-16 -43 -34 -77 -44 -79 -9 -3 -63 -15 -121 -27 -668 -135 -1277 -405 -1811
-800 -58 -44 -114 -79 -123 -79 -10 0 -70 13 -134 29 -250 63 -383 83 -597 88
-248 6 -347 -10 -492 -82 -105 -51 -153 -58 -177 -23 -22 31 -20 83 9 228 46
235 25 349 -75 390 -52 22 -61 77 -34 208 22 105 62 198 141 324 140 223 340
441 578 631 140 112 410 294 640 432 99 59 190 113 202 121 l22 14 -50 104
c-27 58 -49 114 -49 125 0 24 26 51 49 51 27 0 45 -25 96 -135 25 -54 47 -100
49 -102 2 -2 38 13 82 33 254 116 660 218 1019 258 204 23 226 24 490 21 188
-2 265 -7 355 -23z m-607 -3151 c136 -291 247 -538 247 -550 0 -11 -11 -28
-25 -37 -22 -14 -28 -15 -47 -2 -13 9 -105 195 -255 514 -128 274 -236 507
-239 517 -3 11 6 30 27 52 19 19 36 35 39 35 3 0 117 -238 253 -529z"/>
<path d="M3618 4819 c-148 -10 -318 -33 -478 -65 -139 -27 -433 -105 -426
-112 3 -2 62 2 133 9 179 18 565 16 732 -5 369 -45 713 -147 1068 -316 l143
-68 -61 71 c-90 108 -112 158 -108 254 l4 78 -53 31 c-174 104 -539 151 -954
123z"/>
<path d="M2286 4338 c-72 -234 -126 -487 -158 -748 -17 -140 -17 -794 0 -945
28 -248 35 -295 42 -295 5 0 58 36 119 79 451 323 996 570 1561 706 107 26
201 49 209 51 15 5 2 20 -263 298 -417 438 -743 684 -1117 845 -116 49 -320
121 -345 121 -8 0 -27 -43 -48 -112z"/>
<path d="M1810 4197 c-256 -176 -446 -334 -641 -533 -238 -244 -366 -432 -409
-600 -29 -114 -27 -129 24 -179 25 -24 58 -68 73 -100 l29 -56 38 103 c46 127
167 378 237 496 173 288 348 509 623 790 82 83 145 152 140 152 -5 -1 -56 -33
-114 -73z"/>
</g>
</svg>
