<svg version="1" xmlns="http://www.w3.org/2000/svg" width="1333.333" height="1333.333" viewBox="0 0 1000.000000 1000.000000"><path d="M476.9 104.4c-.2.2-4.5.7-9.6 1-5 .4-10 .8-11 1-1 .2-4.5.7-7.8 1-3.3.4-9.6 1.4-14 2.1-4.4.8-9.6 1.7-11.5 2-9.2 1.5-44.7 10.9-50.5 13.4-1.1.5-4.2 1.7-7 2.6-8 2.8-16.5 6.7-16.5 7.6 0 .5-.4.9-1 .9-1.2 0-6 4.8-6 6 0 .6-.4 1-.8 1-.5 0-1.7 1.8-2.7 4-1 2.2-2.1 4-2.5 4-.4 0-.7.6-.8 1.2 0 .7-.3 3.3-.6 5.8-1 8.2-1.1 11.8-.3 11.3.4-.2.7.7.7 2 0 1.4 1.1 4.9 2.4 7.8 1.4 2.9 2.2 5.7 1.9 6.2-.3.6-.2.7.4.4.5-.3 2.9 1.5 5.3 4 4.7 4.8 12.8 9.3 16.7 9.3 1.4 0 2.2.3 1.9.8-.2.4 2.4.6 5.8.5 4.6-.1 11.1-1.8 24.7-6.4 10.1-3.3 19.1-6.2 19.9-6.4.8-.2 4.2-1 7.5-1.8 13.4-3.4 35.2-7.1 50-8.4 18-1.6 55.3-.8 71.5 1.7 3.6.5 8.3 1.2 10.5 1.5 2.2.4 8.3 1.5 13.5 2.6 12.2 2.6 11.8 2.5 16.5 3.8 2.2.6 4.2 1 4.5 1 .3 0 1.9.5 3.5 1.1 1.7.7 3.7 1.3 4.5 1.5 4.6.9 29.2 10.5 39.5 15.3 44.6 21 77.3 45.8 112.1 85.3 8.2 9.3 31.4 42.1 31.4 44.4 0 .4.8 1.9 1.9 3.3 2.1 3 11.4 21.2 16 31.3 7.2 16.1 16.1 43.9 20 62.9 6.2 30.1 7.3 48.6 6 101l-.4 13.5 3.3 6.7c3.3 6.8 9.7 13.5 15.2 16 1.6.7 2.6 1.6 2.3 2.2-.3.5-.2.7.3.3.5-.3 3.4 0 6.4.7 5.8 1.3 12.1 1.4 16.7.1 1.5-.5 3-.9 3.3-1 .3 0 1.5-.6 2.8-1.3 1.2-.7 2.8-1 3.4-.6.6.4.8.3.5-.3-.3-.5 1.2-2 3.3-3.4 2.2-1.3 4-2.7 4-3.1 0-.4.6-1.3 1.3-2 5.6-5.9 8.2-14.3 9.5-30.2 1.4-17 .5-73.6-1.2-76.5-.2-.3-.6-3.3-1-6.6-.3-3.3-.8-7.1-1.1-8.5-3.9-22.5-6.8-35.3-11.4-51-22.4-76.1-66-142.5-127.1-193.4-9.7-8.2-15.7-12.7-30.5-23.1-38-26.9-90.4-49.2-140.5-59.9-10.6-2.3-13.3-2.8-23-4.2-1.9-.3-4.5-.7-5.8-.9-1.3-.2-5.6-.7-9.5-1-4-.4-8.3-.9-9.7-1.2-2.8-.5-56.6-1.4-57.1-.9zM327 154.4c0 .2.8 1 1.8 1.7 1.5 1.3 1.6 1.2.3-.4s-2.1-2.1-2.1-1.3zM311.6 175.8c-.3.5.1.9.9.9s1.2-.4.9-.9c-.3-.4-.7-.8-.9-.8-.2 0-.6.4-.9.8zM326.4 175.8c.4.3 1.4.7 2.2.8.9.1 1.3 0 1-.4-.4-.3-1.4-.7-2.2-.8-.9-.1-1.3 0-1 .4zM246 206.1c-3.6.4-7.8 1.3-9.5 2-1.6.7-3.3 1.2-3.7 1.1-.5-.1-.8.2-.8.8 0 .5-.6 1-1.3 1-2.6 0-26 24.4-38.9 40.5-24.3 30.3-47.4 69.4-58.5 99-.8 2.2-2.1 5.3-2.8 7-2 4.4-9.4 26.8-11.6 35-2.6 9.5-2.9 10.6-3.5 13.5-.3 1.4-.9 3.8-1.4 5.5-2.6 8.7-7.4 39.8-8.7 56.5-1.5 19.6-.9 58.9 1.2 76.1 1.3 11.6 1.7 14.5 2 14.9.2.3.6 2.7 1 5.5 1.1 8.8 4.5 24.7 7.6 36.5 3.1 11.5 11.9 38.8 14.4 44.5.7 1.6 3.7 8.4 6.5 15 4.8 10.9 6.9 15.2 16.3 32.5 12 22.3 34.8 54 52.8 73.4 15.1 16.4 36.7 36.3 51.3 47.2 6 4.6 13.7 7.4 20.6 7.7 2.2.1 4 .6 4 1.2s.3.5.8-.2c.4-.6 2.1-1.3 3.7-1.6 4.1-.8 9.7-2.9 11.3-4.4.7-.7 1.7-1.3 2.1-1.3 1.7 0 11.2-10.4 11.5-12.6.3-2.3 1.5-2.7 3.3-1.3 1.7 1.3 1.7 1.3.1-.7-1.6-1.8-1.6-2.4-.3-6.6.7-2.5 1.1-4.9.8-5.2-.3-.3-.1-1.2.5-1.9.7-.8.9-1.6.6-1.9-.3-.4-.8-2.1-1.1-4-.3-1.8-1.1-5.2-1.9-7.6-.8-2.3-1.2-4.7-.9-5.2.4-.6.2-.9-.3-.8-.5.2-2.5-1.6-4.3-3.8-1.9-2.3-8.8-8.6-15.4-14.1-40.8-33.9-70.8-74-91.5-122.3-7-16.4-15.2-41.4-17.6-53.5-.2-1.1-.6-3.1-.9-4.5-5.7-28.2-6.9-39.9-6.9-67.5-.1-29.4 1.5-45 6.8-70 3.7-17.6 12.8-46.2 19.3-60.5 17.5-38.9 36.8-67.2 67.6-99.4 4.7-4.9 9.5-10.8 10.6-13 3.2-6.6 4.7-14.4 3.9-20.6-.4-3-.5-6.1-.3-6.8.3-.7 0-1-.5-.7-.6.3-1 .3-1.1-.2-.2-2.8-.9-4.5-2.3-5.9-.9-.8-1.6-2-1.6-2.5 0-1.1-10.1-10.9-11.3-10.9-.4 0-.5-.4-.2-1s-.1-.7-1-.4c-.8.4-2.6-.1-4-1-1.3-.9-3.4-1.6-4.5-1.6-1.4 0-1.9-.4-1.4-1.3.6-.9.5-.9-.7 0-.9.7-2 .9-2.5.5-.5-.5-3.8-.5-7.4-.1z"/><path d="M474.9 285.5c-14.7 1.8-29.2 5-42.9 9.5-13.3 4.5-33.9 13.8-42 19-13.9 9-17.9 11.8-20.6 14-1.7 1.4-5.1 4.1-7.5 6-12.3 9.7-35.5 35.4-38.7 42.9-2 4.8-3.8 12.1-3.6 14.6.5 5.3 1.7 11.3 3 14.3.8 1.9 1.1 3.8.8 4.3-.3.5 0 .8.8.7.7-.2 1.2.5 1.2 1.4-.1 1 .2 1.5.7 1.3.4-.3 1.3.3 1.8 1.4.6 1.1.8 2.1.3 2.4-.4.2-.2.3.4.1.6-.1 2.6 1.1 4.5 2.7 4.1 3.5 8.9 5.9 13.4 6.6 1.9.3 3.3.9 3.1 1.2-.3.4 2.3.6 5.7.4 6.8-.3 16.3-2.8 18.9-5.1.9-.7 2.2-1.1 2.9-.6.7.4 1 .3.6-.3-.4-.5.4-1.9 1.6-2.9 1.2-1.1 4.2-4.4 6.7-7.4 18.4-22.7 42.9-40 68.2-48.5 25.1-8.3 54.6-9.5 81.3-3.1 2.8.6 12.7 3.9 21.5 7.1 6.8 2.5 8.3 2.7 16.5 2.1 11.5-.8 11.6-.8 11-1.4-.2-.3 1.2-1.4 3.3-2.4 7.9-4.2 17.2-16.4 17.2-22.7 0-1.1.4-2.2.8-2.5 1.8-1.1 0-16.8-2.4-20.3-.8-1.3-1.2-2.3-.9-2.3.4 0-.4-1.5-1.7-3.3-2.6-3.6-8.4-9.7-9.4-9.7-.3 0-1.8-.8-3.2-1.8-7.2-5-36.1-13.7-55.7-16.8-12.9-2-43.8-2.5-57.6-.9zM606.5 344.1c-.3.4.2.6 1 .5 2.1-.3 2.8-1.3 1-1.3-.9 0-1.8.4-2 .8zM656.6 381.2c-5.3.5-9.4 1.6-12.6 3.2-2.6 1.4-5.1 2.2-5.5 1.8-.5-.4-.5-.2-.1.5.8 1.4-2.7 3.6-3.9 2.5-.5-.4-.5-.2-.2.4.3.6-.6 2.3-2.1 3.9-8.3 9-10.9 24.4-5.9 36 1.4 3.3 4.3 10.4 6.6 15.7 8 18.8 11.1 35.7 10.6 58.3-.2 8.2-.6 16.3-.9 18-.4 1.6-.9 4.1-1.1 5.5-.3 1.4-.8 3.8-1.1 5.3-1.2 6.9-8 25-12.5 33.6-5.7 10.6-9.1 15.8-16.5 25.1-5.4 6.8-10.6 15.9-9.8 17.2.3.4.1.8-.4.8s-.7 3.9-.5 8.7c.5 11.1.7 13.2 1.3 12.8.3-.2 1.2 1.1 1.9 2.8.8 1.8 2 4 2.8 4.9.8.9 1.2 2.1.8 2.7-.3.6 0 .8.9.5.8-.3 1.7.2 2 1.3 1 3 12.5 9.2 18.8 10.1 2.2.3 3.5.9 3.1 1.5-.4.6-.1.7.7.2.7-.5 3.4-.9 5.9-1 8.7-.4 19-5.5 24.4-12.2 1-1.3 2.4-2.9 3-3.6 3.1-3.1 13.7-18 18-25.2 11.8-19.5 19-36.7 25.1-60 2.4-9.1 2.8-10.9 5.1-27 1.3-9.2 1.3-43.9 0-52.5-2.7-18.1-8.9-41.7-14.2-54-8.5-19.9-15.2-29.8-22.7-33.4-5.4-2.6-9.1-3.9-10-3.7-.4.1-1.3-.2-2-.7-.6-.4-4.6-.5-9 0zM318.9 463.4c-.5.5-8.5 1.9-11.6 2-1.1.1-1.9.4-1.7.8.3.4-1.1 1.4-2.9 2.3-1.9.9-5.3 3.5-7.8 5.8-2.4 2.3-4.6 4.1-5 4-.4-.1-.6.5-.5 1.5 0 .9-.4 1.6-1 1.5-.7-.1-1 .6-.7 1.7.3 1.1.1 2-.4 2s-1 .6-1.1 1.2c0 .7-.6 3.3-1.2 5.8-1.3 5-.8 24.5 1 37 9.7 70.2 52.2 130.3 115.1 162.9 9.5 5 24.5 11.2 32.4 13.5 3.3 1 7.1 2.2 8.5 2.7 6.3 2.2 18.9 4.6 33 6.4 10.5 1.3 42 1.4 51 .1 10.7-1.6 20.6-3.9 24.9-5.8 4.4-2 14.1-10.9 14.1-12.9 0-.6.5-.7 1.2-.3.7.4.8.3.4-.5-.4-.6-.3-1.7.2-2.4 1.9-2.3 3.6-10.3 3.7-17.7 0-4.1-.2-7.7-.5-8-.3-.3-1.6-2.9-3-5.8-4.1-9-12.1-15.9-22.3-19.2-4.9-1.5-13-1.4-23.7.4-19.2 3.1-46.9.7-66.4-5.8-47.6-16-84.9-57.2-95.1-105.1-2.1-9.8-2.3-11.8-3-23-.3-5-.8-11.3-1.1-14-.4-2.8-.7-5.8-.7-6.7-.1-.9-.4-1.5-.7-1.3-.5.3-3.6-5.7-3.2-6.2.1-.2-1.7-2.2-4.1-4.5-2.3-2.3-4-4.6-3.9-5.2.2-.6.1-.8-.3-.4-.4.3-3.3-.7-6.5-2.3-3.2-1.6-7.5-3.1-9.6-3.4-2-.2-4.4-.7-5.3-1-1-.3-1.9-.3-2.2-.1zM871 590.4c0 .2.8 1 1.8 1.7 1.5 1.3 1.6 1.2.3-.4s-2.1-2.1-2.1-1.3zM832 600c-.9.6-1 1-.3 1 .6 0 1.5-.5 1.8-1 .8-1.2.4-1.2-1.5 0zM862.4 599.8c.4.3 1.4.7 2.2.8.9.1 1.3 0 1-.4-.4-.3-1.4-.7-2.2-.8-.9-.1-1.3 0-1 .4zM817.7 618.2c.2.5-.4.8-1.3.8-3.2 0-10.4 4.2-15.4 8.9-3.6 3.4-6.7 8-11.6 17.6-25.1 48.7-58.3 87.5-101.9 118.7-18 12.9-32.6 21.1-58.1 32.8-15.6 7.2-50.3 18.1-65.4 20.6-1.4.3-4.7.9-7.5 1.4-5.8 1.2-18 2.8-28 3.7-14.5 1.4-58.4.7-68-1.1-1.1-.2-4.2-.7-7-1-10.7-1.5-21.2-3.6-35-6.8-10.2-2.4-12.9-2.6-20-1.5-10.9 1.9-23.8 13.2-27 23.7-.4 1.3-1.9 9.6-1.8 10 .1.3.3 3 .6 6 .6 6.1 3.9 14.5 6.9 17.3 1 1 1.5 2.3 1.2 2.9-.4.6-.3.8.4.4.6-.3 1.9.5 2.9 1.8 3.9 4.9 17.8 9.5 43.3 14.5 10.6 2 12.5 2.3 26 4 16 2.1 23.3 2.5 47 2.5 25.5.1 39.6-.7 55-3 1.9-.3 5.3-.7 7.5-1 26.6-3.6 68.2-15.5 94-26.8 1.7-.8 5.9-2.6 9.5-4.2 57.3-25.1 113.2-70.1 153.1-123.4 18.3-24.4 40-61.7 43.7-75 .8-3.1.7-12.7-.1-17-.7-3.1-3.9-9.5-6.5-12.9-1.5-2-2.6-4-2.4-4.4.1-.5-.2-.6-.8-.2-.5.3-1.3-.1-1.6-.9-.3-.9-1.3-1.6-2.1-1.6s-1.1-.5-.7-1.3c.4-.6.4-.9 0-.5-.4.3-2.9-.5-5.6-1.8-2.6-1.3-5.5-2.4-6.5-2.4-.9 0-1.4-.3-1.2-.8.3-.4-3.2-.7-7.8-.7s-8.1.3-7.8.7zM598.9 655.7c-1.3 1.6-1.2 1.7.4.4 1.6-1.3 2.1-2.1 1.3-2.1-.2 0-1 .8-1.7 1.7zM575.6 664.2c.3.5 1 .6 1.5.3 1.3-.9 1.1-1.2-.6-1.2-.8 0-1.2.4-.9.9zM606.5 664.1c-.3.4.2.6 1 .5 2.1-.3 2.8-1.3 1-1.3-.9 0-1.8.4-2 .8zM391.6 808.7c-.6 1.4-.5 1.5.5.6.7-.7 1-1.5.7-1.8-.3-.3-.9.2-1.2 1.2zM319 820.1c0 .5.5.7 1 .4.6-.3 1-.8 1-1.1 0-.2-.4-.4-1-.4-.5 0-1 .5-1 1.1zM319.5 843.1c-.4.6-.5 1.2-.2 1.5.2.3.7-.2 1-1.1.7-1.7.1-2-.8-.4zM367.6 871.3c.3 1 .9 1.5 1.2 1.2.3-.3 0-1.1-.7-1.8-1-.9-1.1-.8-.5.6z"/></svg>