<?xml version="1.0" standalone="no"?>
<!DOCTYPE svg PUBLIC "-//W3C//DTD SVG 20010904//EN"
 "http://www.w3.org/TR/2001/REC-SVG-20010904/DTD/svg10.dtd">
<svg version="1.0" xmlns="http://www.w3.org/2000/svg"
 width="1200.000000pt" height="1200.000000pt" viewBox="0 0 1200.000000 1200.000000"
 preserveAspectRatio="xMidYMid meet">
<metadata>
Created by potrace 1.14, written by Peter Selinger 2001-2017
</metadata>
<g transform="translate(0.000000,1200.000000) scale(0.100000,-0.100000)"
fill="#000000" stroke="none">
<path d="M5672 11990 c-1209 -72 -2326 -480 -3277 -1197 -1271 -958 -2110
-2376 -2334 -3948 -49 -339 -71 -871 -50 -1200 127 -2040 1251 -3844 3030
-4865 603 -346 1344 -604 2041 -709 1069 -162 2167 -37 3148 359 1180 477
2165 1297 2844 2370 450 709 746 1517 865 2355 87 609 77 1252 -29 1870 -297
1737 -1355 3259 -2895 4160 -196 115 -588 306 -795 389 -559 221 -1125 353
-1745 406 -169 14 -633 20 -803 10z m2373 -2545 c458 -49 804 -158 1015 -320
78 -60 87 -97 46 -200 -8 -22 -15 -65 -16 -96 -1 -129 130 -308 407 -556 94
-84 187 -171 208 -194 33 -37 37 -46 32 -81 -7 -53 -38 -84 -104 -103 -70 -20
-205 -90 -285 -147 -228 -163 -563 -527 -809 -878 -139 -198 -270 -434 -304
-548 -27 -92 -37 -113 -59 -127 -12 -8 -102 -30 -201 -50 -563 -114 -1242
-323 -1669 -514 -22 -10 -92 -40 -155 -66 -148 -62 -458 -219 -652 -330 -302
-173 -559 -343 -859 -565 -116 -86 -170 -120 -190 -120 -15 0 -115 22 -221 50
-784 201 -1388 232 -1809 91 -51 -17 -148 -61 -217 -96 -140 -73 -190 -82
-251 -45 -74 46 -78 131 -18 427 19 94 40 219 47 276 26 222 -34 367 -181 442
-65 33 -80 66 -80 173 0 272 127 582 394 962 161 230 408 508 622 702 406 367
796 643 1514 1072 184 110 337 201 339 202 2 2 -38 90 -88 196 -50 106 -91
201 -91 211 0 31 29 76 59 92 37 18 82 11 110 -19 11 -12 59 -105 107 -206 47
-102 87 -186 88 -188 2 -1 41 15 87 37 744 343 1845 553 2809 535 129 -2 298
-11 375 -19z m-1492 -4357 c192 -404 230 -485 660 -1404 235 -501 427 -921
427 -933 0 -30 -26 -78 -49 -91 -11 -5 -32 -10 -48 -10 -70 0 -61 -16 -450
815 -200 429 -430 922 -510 1095 -80 173 -174 377 -209 453 l-63 138 39 42
c22 23 40 48 40 54 0 7 4 13 8 13 5 0 14 11 20 25 6 14 15 25 20 25 5 0 56
-100 115 -222z"/>
<path d="M7145 9254 c-429 -33 -744 -80 -1109 -164 -182 -43 -539 -140 -533
-146 2 -2 66 3 143 11 237 24 449 35 699 35 956 0 1799 -203 2704 -648 l139
-69 -74 84 c-184 207 -248 369 -214 547 15 79 20 72 -112 141 -165 86 -405
152 -698 191 -95 13 -218 17 -510 19 -212 1 -407 1 -435 -1z"/>
<path d="M4722 8428 c-186 -588 -284 -1119 -323 -1753 -15 -243 -6 -913 15
-1165 19 -220 65 -639 74 -675 7 -24 10 -22 147 76 916 659 1900 1101 3035
1361 127 29 229 56 228 60 -8 19 -486 525 -698 738 -468 469 -829 763 -1242
1013 -185 112 -482 261 -671 337 -127 50 -423 152 -483 164 l-30 7 -52 -163z"/>
<path d="M3905 8169 c-721 -491 -1251 -976 -1659 -1519 -195 -260 -298 -496
-313 -721 l-6 -86 48 -34 c26 -18 67 -61 92 -94 46 -61 103 -168 103 -194 0
-29 17 5 50 99 54 154 155 393 245 575 317 645 748 1227 1371 1853 122 122
221 222 220 222 -2 0 -69 -45 -151 -101z"/>
</g>
</svg>
