<svg width="24" height="25" viewBox="0 0 24 25" fill="none" xmlns="http://www.w3.org/2000/svg">
<circle cx="12" cy="12.5" r="8" fill="#DCDACD"/>
<path d="M12 4.5C7.58744 4.5 4 8.08963 4 12.5C4 16.9126 7.58963 20.5 12 20.5C16.4126 20.5 20 16.9104 20 12.5C20 8.08744 16.4125 4.5 12 4.5V4.5ZM6.28446 12.5C6.28446 9.34971 8.84757 6.78446 12 6.78446C12.1264 6.78446 12.2507 6.79518 12.375 6.80375C14.2159 8.03173 15.4289 10.1212 15.4289 12.5001C15.4289 14.879 14.2159 16.9683 12.375 18.1964C12.2507 18.205 12.1264 18.2157 12 18.2157C8.84971 18.2157 6.28446 15.6505 6.28446 12.5002V12.5Z" fill="black"/>
</svg>
