<svg width="24" height="25" viewBox="0 0 24 25" fill="none" xmlns="http://www.w3.org/2000/svg">
<circle cx="12" cy="12.5" r="8" fill="#DCDACD"/>
<path d="M12 4.5C7.58744 4.5 4 8.08963 4 12.5C4 16.9126 7.58963 20.5 12 20.5C16.4126 20.5 20 16.9104 20 12.5C20 8.08744 16.4125 4.5 12 4.5V4.5ZM12 18.2155C11.8736 18.2155 11.7493 18.2048 11.625 18.1963C9.78407 16.9683 8.57112 14.8788 8.57112 12.4999C8.57112 10.121 9.78407 8.03167 11.625 6.80358C11.7493 6.795 11.8736 6.78429 12 6.78429C15.1503 6.78429 17.7155 9.34739 17.7155 12.4998C17.7155 15.6501 15.1503 18.2154 12 18.2154V18.2155Z" fill="black"/>
</svg>
