<svg width="25" height="25" viewBox="0 0 25 25" fill="none" xmlns="http://www.w3.org/2000/svg">
<path d="M18.432 9.91706C18.8171 9.52121 18.8085 8.8881 18.4126 8.50298C18.0168 8.11785 17.3837 8.12655 16.9985 8.5224L10.8974 14.7934L7.8315 12.0089C7.42266 11.6376 6.79023 11.668 6.41892 12.0768C6.04761 12.4857 6.07804 13.1181 6.48687 13.4894L10.2681 16.9235C10.667 17.2858 11.2813 17.2669 11.6571 16.8806L18.432 9.91706Z" fill="black"/>
<path fill-rule="evenodd" clip-rule="evenodd" d="M12.4366 1.89453C6.59551 1.89453 1.86035 6.62969 1.86035 12.4708C1.86035 18.3119 6.59551 23.0471 12.4366 23.0471C18.2777 23.0471 23.0129 18.3119 23.0129 12.4708C23.0129 6.62969 18.2777 1.89453 12.4366 1.89453ZM3.66035 12.4708C3.66035 7.6238 7.58962 3.69453 12.4366 3.69453C17.2836 3.69453 21.2129 7.6238 21.2129 12.4708C21.2129 17.3178 17.2836 21.2471 12.4366 21.2471C7.58962 21.2471 3.66035 17.3178 3.66035 12.4708Z" fill="black"/>
</svg>
