<svg width="25" height="25" viewBox="0 0 25 25" fill="none" xmlns="http://www.w3.org/2000/svg">
<path fill-rule="evenodd" clip-rule="evenodd" d="M1.86035 12.4708C1.86035 6.62969 6.59551 1.89453 12.4366 1.89453C18.2777 1.89453 23.0129 6.62969 23.0129 12.4708C23.0129 18.3119 18.2777 23.0471 12.4366 23.0471C6.59551 23.0471 1.86035 18.3119 1.86035 12.4708ZM18.432 9.91706C18.8171 9.52121 18.8084 8.8881 18.4126 8.50298C18.0167 8.11785 17.3836 8.12655 16.9985 8.5224L10.8974 14.7934L7.83149 12.0089C7.42265 11.6376 6.79022 11.668 6.41891 12.0768C6.0476 12.4857 6.07803 13.1181 6.48687 13.4894L10.2681 16.9235C10.667 17.2858 11.2813 17.2669 11.6571 16.8806L18.432 9.91706Z" fill="black"/>
</svg>
