<svg width="25" height="25" viewBox="0 0 25 25" fill="none" xmlns="http://www.w3.org/2000/svg">
<path d="M22.015 12.4727C22.015 17.7627 17.7266 22.0512 12.4365 22.0512C7.14646 22.0512 2.85801 17.7627 2.85801 12.4727C2.85801 7.18259 7.14646 2.89414 12.4365 2.89414C17.7266 2.89414 22.015 7.18259 22.015 12.4727ZM7.55689 14.6641C6.81489 15.4061 6.81489 16.6091 7.55689 17.3511C8.29888 18.0931 9.5019 18.0931 10.2439 17.3511L12.4375 15.1575L14.6316 17.3516C15.3727 18.0927 16.5741 18.0927 17.3152 17.3516C18.0562 16.6106 18.0562 15.4091 17.3152 14.6681L15.1211 12.4739L17.315 10.28C18.057 9.53803 18.057 8.33502 17.315 7.59302C16.573 6.85102 15.37 6.85103 14.628 7.59302L12.434 9.78693L10.2407 7.59355C9.49963 6.85251 8.29816 6.85251 7.55711 7.59355C6.81607 8.33459 6.81607 9.53606 7.55711 10.2771L9.75049 12.4705L7.55689 14.6641Z" fill="black" stroke="black" stroke-width="1.8"/>
</svg>
