<svg width="25" height="25" viewBox="0 0 25 25" fill="none" xmlns="http://www.w3.org/2000/svg">
<path d="M8.19366 9.64093C7.80409 9.25136 7.80409 8.61974 8.19366 8.23017C8.58323 7.8406 9.21485 7.8406 9.60442 8.23017L12.4342 11.0599L15.2645 8.22964C15.655 7.83911 16.2882 7.83911 16.6787 8.22964C17.0692 8.62016 17.0692 9.25333 16.6787 9.64385L13.8484 12.4742L16.6789 15.3047C17.0685 15.6943 17.0685 16.3259 16.6789 16.7154C16.2894 17.105 15.6578 17.105 15.2682 16.7154L12.4377 13.8849L9.60765 16.7149C9.21712 17.1054 8.58396 17.1054 8.19343 16.7149C7.80291 16.3244 7.80291 15.6912 8.19343 15.3007L11.0234 12.4707L8.19366 9.64093Z" fill="black"/>
<path fill-rule="evenodd" clip-rule="evenodd" d="M12.4365 22.9512C18.2236 22.9512 22.915 18.2598 22.915 12.4727C22.915 6.68553 18.2236 1.99414 12.4365 1.99414C6.6494 1.99414 1.95801 6.68553 1.95801 12.4727C1.95801 18.2598 6.6494 22.9512 12.4365 22.9512ZM12.4365 21.1512C17.2295 21.1512 21.115 17.2657 21.115 12.4727C21.115 7.67964 17.2295 3.79414 12.4365 3.79414C7.64351 3.79414 3.75801 7.67964 3.75801 12.4727C3.75801 17.2657 7.64351 21.1512 12.4365 21.1512Z" fill="black"/>
</svg>
