<svg width="25" height="25" viewBox="0 0 25 25" fill="none" xmlns="http://www.w3.org/2000/svg">
<path d="M11.4365 7.66602C11.4365 7.11373 11.8842 6.66602 12.4365 6.66602C12.9888 6.66602 13.4365 7.11373 13.4365 7.66602V13.2676C13.4365 13.8199 12.9888 14.2676 12.4365 14.2676C11.8842 14.2676 11.4365 13.8199 11.4365 13.2676V7.66602Z" fill="black"/>
<path d="M13.6209 17.1386C13.6209 17.7938 13.0897 18.325 12.4345 18.325C11.7792 18.325 11.248 17.7938 11.248 17.1386C11.248 16.4833 11.7792 15.9521 12.4345 15.9521C13.0897 15.9521 13.6209 16.4833 13.6209 17.1386Z" fill="black"/>
<path fill-rule="evenodd" clip-rule="evenodd" d="M12.4349 2.06641C6.68751 2.06641 2.02832 6.7256 2.02832 12.473C2.02832 18.2204 6.68751 22.8796 12.4349 22.8796C18.1823 22.8796 22.8415 18.2204 22.8415 12.473C22.8415 6.7256 18.1823 2.06641 12.4349 2.06641ZM3.82832 12.473C3.82832 7.71971 7.68162 3.86641 12.4349 3.86641C17.1882 3.86641 21.0415 7.71971 21.0415 12.473C21.0415 17.2263 17.1882 21.0796 12.4349 21.0796C7.68162 21.0796 3.82832 17.2263 3.82832 12.473Z" fill="black"/>
</svg>
