<svg width="25" height="25" viewBox="0 0 25 25" fill="none" xmlns="http://www.w3.org/2000/svg">
<path d="M13.6209 7.83018C13.6209 7.17493 13.0897 6.64375 12.4345 6.64375C11.7792 6.64375 11.248 7.17493 11.248 7.83018C11.248 8.48542 11.7792 9.0166 12.4345 9.0166C13.0897 9.0166 13.6209 8.48542 13.6209 7.83018Z" fill="black"/>
<path d="M12.4365 18.3027C11.8842 18.3027 11.4365 17.855 11.4365 17.3027V11.7012C11.4365 11.1489 11.8842 10.7012 12.4365 10.7012C12.9888 10.7012 13.4365 11.1489 13.4365 11.7012V17.3027C13.4365 17.855 12.9888 18.3027 12.4365 18.3027Z" fill="black"/>
<path fill-rule="evenodd" clip-rule="evenodd" d="M2.04785 12.473C2.04785 6.73638 6.6983 2.08594 12.4349 2.08594C18.1715 2.08594 22.822 6.73638 22.822 12.473C22.822 18.2096 18.1715 22.8601 12.4349 22.8601C6.6983 22.8601 2.04785 18.2096 2.04785 12.473ZM12.4349 3.88594C7.69241 3.88594 3.84785 7.73049 3.84785 12.473C3.84785 17.2155 7.69241 21.0601 12.4349 21.0601C17.1774 21.0601 21.022 17.2155 21.022 12.473C21.022 7.73049 17.1774 3.88594 12.4349 3.88594Z" fill="black"/>
</svg>
