<svg width="25" height="25" viewBox="0 0 25 25" fill="none" xmlns="http://www.w3.org/2000/svg">
<path d="M13.3281 13.15C14.925 12.1282 15.8424 10.991 16.0877 9.80923C16.3666 8.46554 15.7248 7.33893 14.8028 6.67377C13.8986 6.02154 12.6544 5.74666 11.4884 6.05779C10.2756 6.38138 9.2363 7.31423 8.76048 8.88696C8.61654 9.36272 8.88554 9.86508 9.3613 10.009C9.83706 10.153 10.3394 9.88396 10.4834 9.4082C10.7912 8.39079 11.3823 7.94907 11.9524 7.79694C12.5693 7.63235 13.2604 7.78059 13.7497 8.13358C14.2211 8.47365 14.4309 8.93437 14.3253 9.44336C14.208 10.008 13.6529 10.8909 11.9754 11.8671C11.6985 12.0283 11.5281 12.3246 11.5281 12.645V14.5095C11.5281 15.0066 11.931 15.4095 12.4281 15.4095C12.9251 15.4095 13.3281 15.0066 13.3281 14.5095V13.15Z" fill="black"/>
<path d="M13.5439 17.7476C13.5439 18.3584 13.0488 18.8535 12.438 18.8535C11.8272 18.8535 11.332 18.3584 11.332 17.7476C11.332 17.1368 11.8272 16.6416 12.438 16.6416C13.0488 16.6416 13.5439 17.1368 13.5439 17.7476Z" fill="black"/>
<path fill-rule="evenodd" clip-rule="evenodd" d="M12.4349 1.86719C6.57748 1.86719 1.8291 6.61557 1.8291 12.473C1.8291 18.3304 6.57748 23.0788 12.4349 23.0788C18.2923 23.0788 23.0407 18.3304 23.0407 12.473C23.0407 6.61557 18.2923 1.86719 12.4349 1.86719ZM3.6291 12.473C3.6291 7.60968 7.5716 3.66719 12.4349 3.66719C17.2982 3.66719 21.2407 7.60968 21.2407 12.473C21.2407 17.3363 17.2982 21.2788 12.4349 21.2788C7.5716 21.2788 3.6291 17.3363 3.6291 12.473Z" fill="black"/>
</svg>
