<svg width="25" height="25" viewBox="0 0 25 25" fill="none" xmlns="http://www.w3.org/2000/svg">
<path fill-rule="evenodd" clip-rule="evenodd" d="M10.6576 2.88647C11.2185 1.90414 12.4695 1.56249 13.4519 2.12339C13.7699 2.30496 14.0334 2.56847 14.2149 2.88647L23.4556 19.0702C24.0165 20.0525 23.6748 21.3036 22.6925 21.8645C22.3832 22.0411 22.0331 22.134 21.6769 22.134H3.19565C2.06447 22.134 1.14746 21.217 1.14746 20.0858C1.14746 19.7296 1.24036 19.3795 1.41698 19.0702L10.6576 2.88647ZM11.4385 8.81152C11.4385 8.25924 11.8862 7.81152 12.4385 7.81152C12.9908 7.81152 13.4385 8.25924 13.4385 8.81152V14.4131C13.4385 14.9654 12.9908 15.4131 12.4385 15.4131C11.8862 15.4131 11.4385 14.9654 11.4385 14.4131V8.81152ZM13.6229 17.9462C13.6229 18.6014 13.0917 19.1326 12.4364 19.1326C11.7812 19.1326 11.25 18.6014 11.25 17.9462C11.25 17.2909 11.7812 16.7598 12.4364 16.7598C13.0917 16.7598 13.6229 17.2909 13.6229 17.9462Z" fill="black"/>
</svg>
