<svg width="24" height="24" viewBox="0 0 24 24" fill="none" xmlns="http://www.w3.org/2000/svg">
<path fill-rule="evenodd" clip-rule="evenodd" d="M12 20C7.58172 20 4 16.4183 4 12C4 7.58172 7.58172 4 12 4C16.4183 4 20 7.58172 20 12C20 16.4183 16.4183 20 12 20ZM12 19C15.866 19 19 15.866 19 12C19 8.13401 15.866 5 12 5C8.13401 5 5 8.13401 5 12C5 15.866 8.13401 19 12 19ZM14.8572 8.20593L11.9974 11.0648L9.14323 8.20636C8.51844 7.58064 7.58127 8.51921 8.20605 9.14493L11.0594 12.0026L8.20647 14.8546C7.58113 15.4798 8.51746 16.4192 9.14281 15.7941L11.9966 12.9411L14.8448 15.7936C15.4696 16.4194 16.4068 15.4808 15.782 14.8551L12.9346 12.0034L15.7935 9.14535C16.4189 8.5202 15.4826 7.58078 14.8572 8.20593Z" fill="black"/>
</svg>
