<svg version="1" xmlns="http://www.w3.org/2000/svg" width="600" height="600" viewBox="0 0 450.000000 450.000000"><path d="M204 .6c-1.4.2-6.5.9-11.5 1.5-27.2 3.4-62.7 16.4-86.5 31.5-20.2 12.9-44 34.1-57.4 51.1C24.5 115.4 9 151 2.3 190.8c-2.5 15.1-2.5 53.3 0 68.4 5.5 32.7 16.8 62.2 33.6 88.1 10.2 15.6 16.8 23.6 31 37.7 33.9 33.7 74 54.1 122.6 62.7 14.2 2.5 56.8 2.5 71 0 48.6-8.6 88.7-29 122.6-62.7 14.2-14.1 20.8-22.1 31-37.7 16.8-25.9 28.1-55.4 33.6-88.1 2.5-15.1 2.5-53.3 0-68.4-5.5-32.7-16.8-62.2-33.6-88.1-10.2-15.6-16.8-23.6-31-37.7C349.3 31.5 308.7 10.7 261 2.4c-9-1.5-50.8-2.9-57-1.8z"/></svg>