<svg version="1" xmlns="http://www.w3.org/2000/svg" width="933.333" height="933.333" viewBox="0 0 700.000000 700.000000"><path d="M330.8.5c-.2.2-4.1.5-8.8.9-13.9.9-30.1 3.2-44 6.2-1.4.3-3.6.7-5 1-10.8 2.1-42.2 11.8-52 16.1-1.9.8-4.4 1.9-5.5 2.3-40.7 16.4-83.2 45.4-116 79.1-47.1 48.4-77.6 105.6-92.1 172.4-2.1 9.6-4.9 29.9-6.1 43C0 336.8.6 379.6 2.4 390c.2 1.4.7 4.7 1 7.5 1 7.8 1.6 11.2 3.8 22 2.6 13.2 2.3 11.9 4.8 20.9 16.4 61 48.7 115.9 94.2 160.4 4.6 4.4 9.4 9 10.8 10.2 1.4 1.2 3.9 3.4 5.5 4.9 4.2 3.8 22.8 18 30 22.8 20.6 14 38.6 23.8 63 34.3 24.2 10.5 61.2 20.5 87 23.6 2.8.3 6.1.8 7.5 1 14.5 2.4 66.8 2.4 79.9-.1.9-.1 4.3-.6 7.6-1 5.1-.5 16.1-2.5 29-5 1.7-.3 7.3-1.7 12.5-3.1 52.5-14.1 101.3-40 141-74.7 7.5-6.6 25.9-24.9 30.8-30.7 2.6-3 6.3-7.2 8.3-9.5 16.6-18.7 37.1-51.6 50-80 10.9-24.1 21.7-58.8 25.3-81.5 4.1-25.4 5-37 5-62 0-17.7-.7-33.5-1.9-41.5-.3-1.7-.7-4.8-1-7C686.2 225.4 649.3 153 593.4 99 578.6 84.8 577 83.4 564 73.3 515.3 35.9 460.3 12.6 399 3.5c-3.6-.5-9.9-1.2-18-2.1-5-.5-49.8-1.3-50.2-.9zm42.7 58.9c10.9.9 16.9 1.7 22 2.6 2.8.5 6.4 1.2 8 1.5 26.1 4.4 56.4 14.9 82.4 28.6 9.6 5 33.2 19.9 38.9 24.4 37.9 30.3 63.4 60.3 83 97.5 5.6 10.7 15.2 31.9 15.6 34.4.1.6.4 1.5.7 2.1.7 1.1 4 11.5 6 18.5.7 2.5 1.4 4.9 1.5 5.5 2.2 7.6 4.1 16.5 5.9 27.5 2.5 15.7 3.1 22 3.9 40.7l.4 8.1-3.8 4.6c-4.9 5.9-19.8 20.7-27.5 27.2-19.4 16.5-39.1 28-59.7 34.8-10.9 3.7-11.7 3.9-24.3 6-7.6 1.3-32.4 1.5-38.5.3-19.6-3.9-38.4-11-62.5-23.6-16-8.4-15.8-8.3-41.2-23.4-50.4-30-53.8-32-72.3-41.2-23.4-11.8-45.4-19.8-64.5-23.6-7.6-1.5-40.4-1.9-51-.7-3.3.4-8.5 1-11.5 1.3-4.6.5-17.9 2.7-29 4.9-14.6 2.9-40.7 11.1-59.7 18.9-8.6 3.6-32.7 14.7-37.5 17.4-.9.5.5-30.6 1.8-39.9 7.1-50.1 23.2-91.4 51.2-131.8 15.2-21.8 35.1-42.8 58.2-61.3 6-4.8 21.6-15.9 24-17 .8-.4 3.5-2 6-3.6 8.2-5.4 29.6-15.9 43.7-21.5 18.2-7.3 49.1-15.4 65.3-17.1 3-.4 6.1-.8 6.8-1.1.7-.2 6.4-.7 12.5-1 6.2-.4 11.3-.8 11.4-.9.5-.3 27.8.4 33.8.9z"/></svg>