<svg xmlns="http://www.w3.org/2000/svg" width="30" height="31" viewBox="0 0 30 31">
  <path d="M14,0.234902912 C15.0677347,0.234902912 16.0543628,0.804530904 16.5882329,1.72921467 L16.5882329,1.72921467 L27.5949053,20.7934222 C28.1287632,21.7180911 28.1287549,22.8573321 27.5948836,23.7819933 C27.0610122,24.7066544 26.0743881,25.2762222 25.0066724,25.2762222 L25.0066724,25.2762222 L2.99332756,25.2762222 C1.92561187,25.2762222 0.938987758,24.7066544 0.405116442,23.7819933 C-0.128754875,22.8573321 -0.128763176,21.7180911 0.405094667,20.7934222 L0.405094667,20.7934222 L11.4117671,1.72921467 C11.9456372,0.804530904 12.9322653,0.234902912 14,0.234902912 Z M13.9999527,1.78172 C13.5870184,1.78172 13.2054533,2.00202411 12.9989965,2.3596417 L12.9989965,2.3596417 L1.66212417,21.995791 C1.45568427,22.3533884 1.45569874,22.7939557 1.66216211,23.1515395 C1.86862549,23.5091234 2.25017202,23.7294579 2.66308043,23.7294579 L2.66308043,23.7294579 L25.336825,23.7294579 C25.7509095,23.7337331 26.1345061,23.5122562 26.3377813,23.1514738 C26.5485355,22.7950652 26.5485355,22.3521868 26.3377813,21.9957846 L26.3377813,21.9957846 L15.000909,2.3596417 C14.7944522,2.00202411 14.412887,1.78172 13.9999527,1.78172 Z M14,18.9519556 C14.2619515,18.9519556 14.5131762,19.0560046 14.6984057,19.2412305 C14.8836351,19.4264564 14.9876938,19.6776792 14.9876938,19.9396307 C14.9876938,20.4851137 14.5455017,20.9273244 14.0000187,20.9273244 C13.4545356,20.9273244 13.0123249,20.4851324 13.0123249,19.9396493 C13.0123249,19.3941663 13.4545169,18.9519556 14,18.9519556 Z M14,6.97797956 C14.5154039,6.97797956 14.9332213,7.39579698 14.9332213,7.91120089 L14.9332213,7.91120089 L14.9332213,16.1419036 C14.9331956,16.6572968 14.5153932,17.0751249 14,17.0751249 C13.4846068,17.0751249 13.0668044,16.6572968 13.0667787,16.1419036 L13.0667787,16.1419036 L13.0667787,7.91120089 C13.0667787,7.39579698 13.4845961,6.97797956 14,6.97797956 Z" transform="translate(1 2)"/>
</svg>
