<svg xmlns="http://www.w3.org/2000/svg" width="30" height="31" viewBox="0 0 30 31">
  <path fill="#0A0A0A" d="M13.9732969,2.6124895 L3.56389704,13.0248034 C3.02351372,13.6386831 3.0820759,14.5561573 3.6840768,15.0859181 L4.27527115,15.6061691 L4.39401799,15.7002657 C4.96475589,16.1062271 5.75566044,16.0483836 6.26119099,15.5428531 L13.152,8.651 L13.1525424,26.5480226 C13.1525424,27.3499276 13.8026148,28 14.6045198,28 L15.3954802,28 L15.5353153,27.9933533 C16.2716149,27.9229955 16.8474576,27.3027567 16.8474576,26.5480226 L16.847,8.651 L23.738809,15.5428531 C24.2804489,16.084493 25.1496865,16.1122064 25.7247289,15.6061691 L26.3834095,15.0226021 C26.9504419,14.4555696 26.9504419,13.5362284 26.3834095,12.9691959 L16.0267031,2.6124895 C15.4596706,2.04545706 14.5403294,2.04545706 13.9732969,2.6124895 Z"/>
</svg>
