<svg xmlns="http://www.w3.org/2000/svg" width="30" height="31" viewBox="0 0 30 31">
  <path d="M11.2291022,5.2 C11.2291022,2.876 12.9134365,1 15,1 C17.0865635,1 18.7708978,2.876 18.7708978,5.2 L21.9133127,5.2 C23.9998762,5.2 25.6842105,7.076 25.6842105,9.4 L25.6842105,24.8 C25.6842105,27.124 23.9998762,29 21.9133127,29 L8.08668731,29 C6.00012384,29 4.31578947,27.124 4.31578947,24.8 L4.31578947,9.4 C4.31578947,7.076 6.00012384,5.2 8.08668731,5.2 L11.2291022,5.2 Z M5.57275542,9.4 L5.57275542,24.8 C5.57275542,26.34 6.70402477,27.6 8.08668731,27.6 L21.9133127,27.6 C23.2959752,27.6 24.4272446,26.34 24.4272446,24.8 L24.4272446,9.4 C24.4272446,7.86 23.2959752,6.6 21.9133127,6.6 L20.6563467,6.6 L20.6563467,10.8 L9.34365325,10.8 L9.34365325,6.6 L8.08668731,6.6 C6.70402477,6.6 5.57275542,7.86 5.57275542,9.4 Z M19.3993808,9.4 L19.3993808,6.6 L10.6006192,6.6 L10.6006192,9.4 L19.3993808,9.4 Z M15,2.4 C13.6173375,2.4 12.4860681,3.66 12.4860681,5.2 L17.5139319,5.2 C17.5139319,3.66 16.3826625,2.4 15,2.4 Z"/>
</svg>
