<svg xmlns="http://www.w3.org/2000/svg" xmlns:xlink="http://www.w3.org/1999/xlink" width="21" height="21" viewBox="0 0 21 21">
  <defs>
    <path id="cloud-a" d="M11.0920043,4.81410566 C9.14121371,4.90490516 7.48062344,6.20854801 6.89684048,8.02573777 L6.877,8.09 L6.72776985,8.04864875 C6.41034034,7.97089127 6.08313187,7.93086957 5.75104348,7.93086957 C3.46881724,7.93086957 1.61886957,9.78081724 1.61886957,12.0630435 C1.61886957,14.3452697 3.46881724,16.1952174 5.75104348,16.1952174 L16.268913,16.1952174 C18.5511393,16.1952174 20.401087,14.3452697 20.401087,12.0630435 C20.401087,9.78087563 18.5511977,7.93126087 16.268913,7.93126087 L16.0100351,7.93987013 L15.880806,7.95056227 L15.705,7.972 L15.6527869,7.82019817 C14.9868537,6.04003047 13.2741739,4.80904348 11.309913,4.80904348 L11.0920043,4.81410566 Z"/>
  </defs>
  <g fill="none" fill-rule="evenodd" transform="translate(-.5)">
    <mask id="cloud-b" fill="#fff">
      <use xlink:href="#cloud-a"/>
    </mask>
    <use fill="#000" fill-rule="nonzero" xlink:href="#cloud-a"/>
    <g mask="url(#cloud-b)">
      <rect width="21" height="21" fill="#000" transform="translate(.5)"/>
    </g>
  </g>
</svg>
