<svg xmlns="http://www.w3.org/2000/svg" xmlns:xlink="http://www.w3.org/1999/xlink" width="21" height="21" viewBox="0 0 21 21">
  <defs>
    <path id="fog-a" d="M7.87565217,16.0626116 C8.17580693,16.0626116 8.41913043,16.3059351 8.41913043,16.6060898 C8.41913043,16.8762291 8.2220384,17.1003351 7.96380717,17.1424549 L7.87565217,17.1495681 L1.43478261,17.1495681 C1.13462785,17.1495681 0.891304348,16.9062446 0.891304348,16.6060898 C0.891304348,16.3359506 1.08839639,16.1118446 1.34662761,16.0697248 L1.43478261,16.0626116 L7.87565217,16.0626116 Z M19.7343478,15.5191333 C20.0345026,15.5191333 20.2778261,15.7624568 20.2778261,16.0626116 C20.2778261,16.3327509 20.080734,16.5568568 19.8225028,16.5989766 L19.7343478,16.6060898 L10.4978261,16.6060898 C10.1976713,16.6060898 9.95434783,16.3627663 9.95434783,16.0626116 C9.95434783,15.7924723 10.1514399,15.5683663 10.4096711,15.5262465 L10.4978261,15.5191333 L19.7343478,15.5191333 Z M6.61233018,13.4230288 C6.91248493,13.4230288 7.15580844,13.6663523 7.15580844,13.9665071 C7.15580844,14.2366464 6.9587164,14.4607523 6.70048517,14.5028721 L6.61233018,14.5099853 L3.65059105,14.5099853 C3.35043629,14.5099853 3.10711279,14.2666618 3.10711279,13.9665071 C3.10711279,13.6963678 3.30420483,13.4722618 3.56243605,13.430142 L3.65059105,13.4230288 L6.61233018,13.4230288 Z M19.1791304,12.9004523 C19.4792852,12.9004523 19.7226087,13.1437758 19.7226087,13.4439306 C19.7226087,13.7140699 19.5255167,13.9381758 19.2672854,13.9802956 L19.1791304,13.9874089 L10.9452174,13.9874089 C10.6450626,13.9874089 10.4017391,13.7440853 10.4017391,13.4439306 C10.4017391,13.1737913 10.5988312,12.9496853 10.8570624,12.9075655 L10.9452174,12.9004523 L19.1791304,12.9004523 Z M19.0567391,10.5495828 C19.3568939,10.5495828 19.6002174,10.7929063 19.6002174,11.093061 C19.6002174,11.3632003 19.4031254,11.5873063 19.1448941,11.6294261 L19.0567391,11.6365393 L1.74673913,11.6365393 C1.44658438,11.6365393 1.20326087,11.3932158 1.20326087,11.093061 C1.20326087,10.8229217 1.40035291,10.5988158 1.65858413,10.556696 L1.74673913,10.5495828 L19.0567391,10.5495828 Z M10.9730435,8.21716858 C11.2731982,8.21716858 11.5165217,8.46049208 11.5165217,8.76064684 C11.5165217,9.03078612 11.3194297,9.25489209 11.0611985,9.29701189 L10.9730435,9.3041251 L2.30434783,9.3041251 C2.00419307,9.3041251 1.76086957,9.0608016 1.76086957,8.76064684 C1.76086957,8.49050756 1.9579616,8.26640159 2.21619283,8.22428179 L2.30434783,8.21716858 L10.9730435,8.21716858 Z M20.2591304,7.54347826 C20.5592852,7.54347826 20.8026087,7.78680177 20.8026087,8.08695652 C20.8026087,8.3570958 20.6055167,8.58120177 20.3472854,8.62332157 L20.2591304,8.63043478 L13.6086957,8.63043478 C13.3085409,8.63043478 13.0652174,8.38711128 13.0652174,8.08695652 C13.0652174,7.81681724 13.2623094,7.59271127 13.5205407,7.55059147 L13.6086957,7.54347826 L20.2591304,7.54347826 Z M9.25841713,5.88475439 C9.55857189,5.88475439 9.80189539,6.1280779 9.80189539,6.42823265 C9.80189539,6.69837193 9.60480335,6.9224779 9.34657213,6.9645977 L9.25841713,6.97171091 L5.05319974,6.97171091 C4.75304499,6.97171091 4.50972148,6.72838741 4.50972148,6.42823265 C4.50972148,6.15809337 4.70681352,5.9339874 4.96504475,5.8918676 L5.05319974,5.88475439 L9.25841713,5.88475439 Z M15.0217391,5.40302088 C15.3218939,5.40302088 15.5652174,5.64634438 15.5652174,5.94649914 C15.5652174,6.21663842 15.3681254,6.44074438 15.1098941,6.48286418 L15.0217391,6.4899774 L12.06,6.4899774 C11.7598452,6.4899774 11.5165217,6.24665389 11.5165217,5.94649914 C11.5165217,5.67635986 11.7136138,5.45225389 11.971845,5.41013409 L12.06,5.40302088 L15.0217391,5.40302088 Z M19.1791304,3.85778382 C19.4792852,3.85778382 19.7226087,4.10110733 19.7226087,4.40126208 C19.7226087,4.67140136 19.5255167,4.89550733 19.2672854,4.93762713 L19.1791304,4.94474034 L16.2173913,4.94474034 C15.9172365,4.94474034 15.673913,4.70141684 15.673913,4.40126208 C15.673913,4.1311228 15.8710051,3.90701684 16.1292363,3.86489704 L16.2173913,3.85778382 L19.1791304,3.85778382 Z M10.9730435,3.52173913 C11.2731982,3.52173913 11.5165217,3.76506264 11.5165217,4.06521739 C11.5165217,4.33535667 11.3194297,4.55946264 11.0611985,4.60158244 L10.9730435,4.60869565 L2.73913043,4.60869565 C2.43897568,4.60869565 2.19565217,4.36537215 2.19565217,4.06521739 C2.19565217,3.79507811 2.39274421,3.57097214 2.65097544,3.52885234 L2.73913043,3.52173913 L10.9730435,3.52173913 Z M19.7343478,1.52536963 C20.0345026,1.52536963 20.2778261,1.76869314 20.2778261,2.06884789 C20.2778261,2.33898717 20.080734,2.56309314 19.8225028,2.60521294 L19.7343478,2.61232616 L14.1117391,2.61232616 C13.8115844,2.61232616 13.5682609,2.36900265 13.5682609,2.06884789 C13.5682609,1.79870861 13.7653529,1.57460265 14.0235841,1.53248285 L14.1117391,1.52536963 L19.7343478,1.52536963 Z M8.95478261,0.707591428 C9.25493736,0.707591428 9.49826087,0.950914933 9.49826087,1.25106969 C9.49826087,1.52120897 9.30116883,1.74531494 9.04293761,1.78743474 L8.95478261,1.79454795 L2.30434783,1.79454795 C2.00419307,1.79454795 1.76086957,1.55122444 1.76086957,1.25106969 C1.76086957,0.980930409 1.9579616,0.756824441 2.21619283,0.71470464 L2.30434783,0.707591428 L8.95478261,0.707591428 Z"/>
  </defs>
  <g fill="none" fill-rule="evenodd" transform="translate(-.252 2)">
    <mask id="fog-b" fill="#fff">
      <use xlink:href="#fog-a"/>
    </mask>
    <use fill="#000" fill-rule="nonzero" xlink:href="#fog-a"/>
    <g mask="url(#fog-b)">
      <rect width="21" height="21" fill="#000" transform="translate(.252 -2)"/>
    </g>
  </g>
</svg>
