<svg xmlns="http://www.w3.org/2000/svg" xmlns:xlink="http://www.w3.org/1999/xlink" width="21" height="21" viewBox="0 0 21 21">
  <defs>
    <path id="lightning-moon-a" d="M13.3041631,0.911846541 C13.4221302,0.860660933 13.5425407,0.881091129 13.5425407,1.06427373 C13.5425407,3.81102075 15.5328167,5.09662326 17.8556067,4.691566 C18.0011373,4.6661878 18.0534268,4.79282119 18.029665,4.89107311 C17.9226593,5.33352751 17.7312784,5.74105674 17.4741759,6.09668406 C17.1301606,6.57253021 16.6684794,6.95545273 16.133819,7.20478218 C15.4368158,6.59341579 14.5236327,6.22334057 13.5239392,6.22334057 L13.387053,6.22759441 L13.3271298,6.0950995 C12.8810973,5.17202437 12.1345638,4.44694761 11.2318218,4.02447469 C11.2363883,3.54094506 11.3438323,3.07782886 11.5336062,2.65754591 C11.7251526,2.23333771 12.000574,1.85276659 12.3412958,1.53876358 C12.6215246,1.28050979 12.945925,1.06728498 13.3041631,0.911846541 Z M9.06083499,4.19397761 C7.40496585,4.27132431 5.995111,5.34319729 5.49263681,6.83859425 L5.4663571,6.92334673 L5.32223474,6.88521023 C5.0514997,6.82080254 4.77242845,6.78765305 4.48919322,6.78765305 C2.54266477,6.78765305 0.96483071,8.31999019 0.96483071,10.2103904 C0.96483071,12.1007906 2.54266477,13.6331277 4.48919322,13.6331277 L13.5026414,13.6331277 C15.4491698,13.6331277 17.0270039,12.1007906 17.0270039,10.2103904 C17.0270039,8.32003932 15.4492204,6.78797872 13.5026414,6.78797872 L13.281873,6.7951101 C13.2083649,6.79984741 13.1349277,6.80692796 13.0615293,6.81630089 L13.0091412,6.82347618 L12.9523678,6.66803326 C12.3794634,5.20187187 10.9227255,4.18949905 9.25295096,4.18949905 L9.06083499,4.19397761 Z"/>
  </defs>
  <g fill="none" fill-rule="evenodd" transform="translate(1)">
    <path fill="#C8A218" fill-rule="nonzero" d="M10.0232867,14.076709 L7.76967074,14.076709 C7.60940691,14.076709 7.46817626,14.1819806 7.42239288,14.3355656 L6.51891499,17.3663757 L6.50592523,17.4291705 C6.47912719,17.6577505 6.67597654,17.8615702 6.9151551,17.828955 L8.11146474,17.6551554 L7.07275886,19.9252233 C6.94156092,20.3047602 7.43333902,20.5842204 7.69225328,20.2772603 L10.7965928,16.5681455 L10.8342891,16.5147309 C10.9624592,16.2941617 10.823104,16.0001407 10.5549501,15.9738511 L9.5,15.9738511 L10.3212025,14.6454013 C10.4876408,14.4050644 10.3156281,14.076709 10.0232867,14.076709 Z"/>
    <mask id="lightning-moon-b" fill="#fff">
      <use xlink:href="#lightning-moon-a"/>
    </mask>
    <use fill="#000" fill-rule="nonzero" xlink:href="#lightning-moon-a"/>
    <g mask="url(#lightning-moon-b)">
      <rect width="21" height="21" fill="#000" transform="translate(-1)"/>
    </g>
  </g>
</svg>
