<svg xmlns="http://www.w3.org/2000/svg" xmlns:xlink="http://www.w3.org/1999/xlink" width="21" height="21" viewBox="0 0 21 21">
  <defs>
    <path id="moon-a" d="M5.19743172,0.302832894 C4.45602097,0.624528798 3.78464095,1.06581959 3.20467838,1.60030249 C2.49951936,2.25016417 1.92950638,3.03779544 1.53308141,3.91573814 C1.12657695,4.81600342 0.9026,5.81123103 0.9026,6.85025 C0.9026,10.7943424 4.10030763,13.99205 8.0444,13.99205 C10.4094729,13.99205 12.5257518,12.8342665 13.8277042,11.0333899 C14.3598044,10.2973824 14.755887,9.45395859 14.9773463,8.53825349 C15.0265237,8.33491099 14.9183053,8.0728301 14.6171147,8.1253529 C9.80986069,8.96366075 5.69077896,6.30297351 5.69077896,0.618296705 C5.69077896,0.239181391 5.44157701,0.196898989 5.19743172,0.302832894 Z"/>
  </defs>
  <g fill="none" fill-rule="evenodd" transform="translate(2.5 3.5)">
    <mask id="moon-b" fill="#fff">
      <use xlink:href="#moon-a"/>
    </mask>
    <use fill="#000" fill-rule="nonzero" xlink:href="#moon-a"/>
    <g mask="url(#moon-b)">
      <rect width="21" height="21" fill="#000" transform="translate(-2.5 -3.5)"/>
    </g>
  </g>
</svg>
