<svg xmlns="http://www.w3.org/2000/svg" xmlns:xlink="http://www.w3.org/1999/xlink" width="21" height="21" viewBox="0 0 21 21">
  <defs>
    <path id="pressure-a" d="M10.5,2.63891068 C14.8406757,2.63891068 18.3610893,6.15915173 18.3610893,10.5 C18.3610893,14.8394677 14.8394677,18.3610893 10.5,18.3610893 C6.16191297,18.3610893 2.63891068,14.838087 2.63891068,10.5 C2.63891068,6.16053235 6.16053235,2.63891068 10.5,2.63891068 Z M10.5001139,3.86907943 C6.83628816,3.86907943 3.87002171,6.83534589 3.87002171,10.4991716 C3.87002171,14.164378 6.83490754,17.1292638 10.5001139,17.1292638 C14.1639396,17.1292638 17.1302061,14.1629974 17.1302061,10.4991716 C17.1302061,6.83655393 14.1627316,3.86907943 10.5001139,3.86907943 Z M10.5001139,15.1291912 C10.88976,15.1291912 11.2066127,15.4453536 11.2066127,15.83569 C11.2066127,16.2253361 10.8904503,16.5421888 10.5001139,16.5421888 C10.1104678,16.5421888 9.79361509,16.2260264 9.79361509,15.83569 C9.79361509,15.4460439 10.1097775,15.1291912 10.5001139,15.1291912 Z M15.4744779,12.5566954 C15.8122125,12.7515184 15.9281675,13.1836359 15.7326714,13.5213705 L15.7326714,13.5206975 C15.5378484,13.8584321 15.105731,13.9743871 14.7679963,13.7795641 C14.4302616,13.584068 14.3143066,13.1526236 14.5098027,12.814889 C14.7046257,12.4771543 15.1367432,12.3611993 15.4744779,12.5566954 Z M6.49042508,12.8142159 C6.68524811,13.1519506 6.56997307,13.584068 6.2322315,13.7788911 C5.89448993,13.9737141 5.46237939,13.858439 5.26755637,13.5200244 C5.07206029,13.1829628 5.18800838,12.7508454 5.52574995,12.5560223 C5.86348461,12.3611993 6.29560205,12.4764744 6.49042508,12.8142159 Z M9.12219238,7.20860291 C9.31796265,7.5116272 9.6259168,7.98789066 10.5632297,9.47530437 C10.9274087,9.46656084 11.2813478,9.64674182 11.4831088,9.9639149 C11.7954969,10.4542118 11.649686,11.1120281 11.1593891,11.4239572 C10.6686211,11.7363454 10.0112759,11.5905345 9.69886358,11.1002376 C9.49562852,10.780981 9.4834968,10.3822065 9.64807696,10.0547209 C9.55988814,9.91652661 9.47725455,9.78694603 9.39981041,9.66541454 L9.18268054,9.32440266 C9.14896501,9.27140367 9.1164554,9.22027579 9.08510598,9.17094844 L8.91056588,8.89602601 C8.31895126,7.96305954 8.24460575,7.83322564 8.20065308,7.75497437 C7.91159519,7.24034932 8.79803461,6.70685317 9.12219238,7.20860291 Z M15.7326714,7.47907817 C15.9281675,7.81613978 15.8122194,8.24825722 15.4744779,8.44308025 C15.1367432,8.63790328 14.7046257,8.52262824 14.5098027,8.18488667 C14.3149797,7.84715201 14.4302547,7.41503457 14.7679963,7.22021154 C15.1057379,7.02538851 15.5378484,7.14066355 15.7326714,7.47907817 Z M6.2322315,7.21953848 C6.56996617,7.41503457 6.68592116,7.84647895 6.49042508,8.18421362 C6.29560205,8.52194829 5.86348461,8.63790328 5.52574995,8.4424072 C5.21871843,8.26529536 5.0949759,7.89207243 5.22189381,7.57193239 L5.26755637,7.47840512 C5.46237939,7.14067045 5.89449683,7.02471546 6.2322315,7.21953848 Z M10.5001139,4.45691378 C10.88976,4.45691378 11.2066127,4.77307623 11.2066127,5.16341259 C11.2066127,5.55305865 10.8904503,5.86991141 10.5001139,5.86991141 C10.1104678,5.86991141 9.79361509,5.55374896 9.79361509,5.16341259 C9.79361509,4.77376654 10.1097775,4.45691378 10.5001139,4.45691378 Z"/>
  </defs>
  <g fill="none" fill-rule="evenodd">
    <mask id="pressure-b" fill="#fff">
      <use xlink:href="#pressure-a"/>
    </mask>
    <use fill="#000" fill-rule="nonzero" xlink:href="#pressure-a"/>
    <g fill="#000" mask="url(#pressure-b)">
      <rect width="21" height="21"/>
    </g>
  </g>
</svg>
