<svg xmlns="http://www.w3.org/2000/svg" xmlns:xlink="http://www.w3.org/1999/xlink" width="21" height="21" viewBox="0 0 21 21">
  <defs>
    <path id="question-a" d="M10.5581871,16.1039519 C10.8997317,16.1039519 11.1766082,16.3808284 11.1766082,16.722373 L11.1766082,16.722373 L11.1766082,17.4592151 C11.1766082,17.8007596 10.8997317,18.0776361 10.5581871,18.0776361 L10.5581871,18.0776361 L10.2634503,18.0776361 C9.92190578,18.0776361 9.64502924,17.8007596 9.64502924,17.4592151 L9.64502924,17.4592151 L9.64502924,16.722373 C9.64502924,16.3808284 9.92190578,16.1039519 10.2634503,16.1039519 L10.2634503,16.1039519 Z M10.4108458,3.42659547 C12.8872285,3.42659547 14.897688,5.33441896 14.897688,7.70014118 C14.897688,8.68450569 14.4854624,9.40059568 13.3780444,10.4617186 L13.3780444,10.4617186 L12.6991415,11.1076933 C11.5879684,12.198778 11.2134774,12.9134577 11.2134774,13.9826897 L11.2134774,13.9826897 L11.2134774,14.1475096 C11.2134774,14.4890541 10.9366009,14.7659307 10.5950564,14.7659307 L10.5950564,14.7659307 L10.2266353,14.7659307 C9.8850908,14.7659307 9.60821427,14.4890541 9.60821427,14.1475096 L9.60821427,14.1475096 L9.60821427,13.9826897 C9.60821427,12.5745233 10.1509233,11.5607861 11.5789009,10.1403261 L11.5789009,10.1403261 L12.3149761,9.41068195 L12.5386124,9.17385301 C13.0746001,8.58444017 13.2924248,8.15368496 13.2924248,7.70014118 C13.2924248,6.19884828 12.0167789,4.99307747 10.4108458,4.99307747 C8.93732746,4.99307747 7.70867294,6.03529062 7.54142276,7.43792969 L7.54142276,7.43792969 L7.51482821,7.5255451 C7.44603895,7.68238498 7.29060169,7.78532124 7.11707882,7.78532122 L7.11707882,7.78532122 L6.32285749,7.78374473 C6.07786648,7.75845052 5.90084485,7.54765755 5.9264027,7.3055306 C6.15867153,5.10508898 8.09973234,3.42659547 10.4108458,3.42659547 Z"/>
  </defs>
  <g fill="none" fill-rule="evenodd" transform="translate(-.421 -.5)">
    <mask id="question-b" fill="#fff">
      <use xlink:href="#question-a"/>
    </mask>
    <use fill="#000" fill-rule="nonzero" xlink:href="#question-a"/>
    <g mask="url(#question-b)">
      <rect width="21" height="21" fill="#000" transform="translate(.421 .5)"/>
    </g>
  </g>
</svg>
