<svg xmlns="http://www.w3.org/2000/svg" xmlns:xlink="http://www.w3.org/1999/xlink" width="21" height="21" viewBox="0 0 21 21">
  <defs>
    <path id="snowflake-a" d="M3.87055506,12.8084174 C3.67526214,13.0036488 3.35867965,13.0035989 3.16344829,12.8083059 C2.98990931,12.6347122 2.97066663,12.3652848 3.1056934,12.1704379 L3.16355977,12.1011992 L3.72915,11.53555 L2.10215,11.53555 C1.82600763,11.53555 1.60215,11.3116924 1.60215,11.03555 C1.60215,10.7900901 1.77902516,10.5859416 2.01227437,10.5436057 L2.10215,10.53555 L3.74515,10.53555 L3.16350403,9.95401167 C2.98993767,9.78044532 2.97065252,9.51102091 3.10564858,9.31615277 L3.16350403,9.24690489 C3.33707038,9.07333853 3.60649478,9.05405338 3.80136292,9.18904944 L3.87061081,9.24690489 L5.15915,10.53555 L9.64315,10.53555 L6.47515,7.36755 L4.66445,7.3681 C4.38830763,7.3681 4.16445,7.14424237 4.16445,6.8681 C4.16445,6.62264011 4.34132516,6.41849163 4.57457437,6.37615567 L4.66445,6.3681 L5.47515,6.36755 L4.31089661,5.20340339 C4.11563446,5.00814124 4.11563446,4.69155876 4.31089661,4.49629661 C4.48446296,4.32273026 4.75388736,4.30344511 4.9487555,4.43844116 L5.01800339,4.49629661 L6.18115,5.65955 L6.1827,4.84985 C6.1827,4.60439011 6.35957516,4.40024163 6.59282437,4.35790567 L6.6827,4.34985 C6.92815989,4.34985 7.13230837,4.52672516 7.17464433,4.75997437 L7.1827,4.84985 L7.18215,6.66055 L10.34915,9.82755 L10.34915,5.34855 L9.06919661,4.06850339 C8.87393446,3.87324124 8.87393446,3.55665876 9.06919661,3.36139661 C9.24276296,3.18783026 9.51218736,3.16854511 9.7070555,3.30354116 L9.77630339,3.36139661 L10.34915,3.93455 L10.35015,2.28755 C10.35015,2.01140763 10.5740076,1.78755 10.85015,1.78755 C11.0956099,1.78755 11.2997584,1.96442516 11.3420943,2.19767437 L11.35015,2.28755 L11.34915,3.93455 L11.9234909,3.36145235 C12.0970299,3.18785864 12.3664512,3.16853101 12.5613406,3.30349634 L12.6305976,3.36134087 C12.8041914,3.53487986 12.823519,3.80430122 12.6885537,3.99919064 L12.6307091,4.06844765 L11.34915,5.34955 L11.34915,9.82855 L14.51615,6.66155 L14.51715,4.84985 C14.51715,4.57370763 14.7410076,4.34985 15.01715,4.34985 C15.2626099,4.34985 15.4667584,4.52672516 15.5090943,4.75997437 L15.51715,4.84985 L15.51615,5.66155 L16.6822966,4.49629661 C16.8775588,4.30103446 17.1941412,4.30103446 17.3894034,4.49629661 C17.5629697,4.66986296 17.5822549,4.93928736 17.4472588,5.1341555 L17.3894034,5.20340339 L16.22415,6.36755 L17.03585,6.3681 C17.2813099,6.3681 17.4854584,6.54497516 17.5277943,6.77822437 L17.53585,6.8681 C17.53585,7.11355989 17.3589748,7.31770837 17.1257256,7.36004433 L17.03585,7.3681 L15.22415,7.36755 L12.05615,10.53555 L16.53515,10.53555 L17.8171966,9.25459661 C18.0124588,9.05933446 18.3290412,9.05933446 18.5243034,9.25459661 C18.6978697,9.42816296 18.7171549,9.69758736 18.5821588,9.8924555 L18.5243034,9.96170339 L17.94915,10.53555 L19.5977,10.53555 C19.8738424,10.53555 20.0977,10.7594076 20.0977,11.03555 C20.0977,11.2810099 19.9208248,11.4851584 19.6875756,11.5274943 L19.5977,11.53555 L17.95015,11.53555 L18.5243034,12.1093966 C18.6978697,12.282963 18.7171549,12.5523874 18.5821588,12.7472555 L18.5243034,12.8165034 C18.350737,12.9900697 18.0813126,13.0093549 17.8864445,12.8743588 L17.8171966,12.8165034 L16.53615,11.53555 L12.05715,11.53555 L15.22415,14.70255 L17.03585,14.70255 C17.3119924,14.70255 17.53585,14.9264076 17.53585,15.20255 C17.53585,15.4480099 17.3589748,15.6521584 17.1257256,15.6944943 L17.03585,15.70255 L16.22315,15.70155 L17.3894034,16.8676966 C17.5846655,17.0629588 17.5846655,17.3795412 17.3894034,17.5748034 C17.215837,17.7483697 16.9464126,17.7676549 16.7515445,17.6326588 L16.6822966,17.5748034 L15.51615,16.40855 L15.51715,17.22125 C15.51715,17.4667099 15.3402748,17.6708584 15.1070256,17.7131943 L15.01715,17.72125 C14.7716901,17.72125 14.5675416,17.5443748 14.5252057,17.3111256 L14.51715,17.22125 L14.51615,15.40855 L11.34915,12.24155 L11.34915,16.72055 L12.6307091,18.0026524 C12.8259405,18.1979453 12.8258906,18.5145278 12.6305976,18.7097591 C12.4570039,18.8832981 12.1875765,18.9025408 11.9927296,18.767514 L11.9234909,18.7096476 L11.34915,18.13555 L11.35015,19.78355 C11.35015,20.0596924 11.1262924,20.28355 10.85015,20.28355 C10.6046901,20.28355 10.4005416,20.1066748 10.3582057,19.8734256 L10.35015,19.78355 L10.34915,18.13555 L9.77630339,18.7097034 C9.60273704,18.8832697 9.33331264,18.9025549 9.1384445,18.7675588 L9.06919661,18.7097034 C8.89563026,18.536137 8.87634511,18.2667126 9.01134116,18.0718445 L9.06919661,18.0025966 L10.34915,16.72155 L10.34915,12.24255 L7.18715,15.40455 L7.18759155,17.2212626 C7.18754801,17.497405 6.9636551,17.7212273 6.68751273,17.7211838 C6.44205284,17.7211451 6.23793225,17.5442377 6.19563306,17.3109819 L6.18759156,17.221105 L6.18715,16.40455 L5.01800339,17.5748034 C4.82274124,17.7700655 4.50615876,17.7700655 4.31089661,17.5748034 C4.13733026,17.401237 4.11804511,17.1318126 4.25304116,16.9369445 L4.31089661,16.8676966 L5.47515,15.70255 L4.66926131,15.7028535 C4.42380142,15.7028535 4.21965294,15.5259784 4.17731698,15.2927292 L4.16926131,15.2028535 C4.16926131,14.9573937 4.34613647,14.7532452 4.57938568,14.7109092 L4.66926131,14.7028535 L6.47515,14.70255 L9.64215,11.53555 L5.14215,11.53555 L3.87055506,12.8084174 Z"/>
  </defs>
  <g fill="none" fill-rule="evenodd" transform="translate(-.306 -.5)">
    <mask id="snowflake-b" fill="#fff">
      <use xlink:href="#snowflake-a"/>
    </mask>
    <use fill="#000" fill-rule="nonzero" xlink:href="#snowflake-a"/>
    <g mask="url(#snowflake-b)">
      <rect width="21" height="21" fill="#000" transform="translate(.306 .5)"/>
    </g>
  </g>
</svg>
