<svg xmlns="http://www.w3.org/2000/svg" width="21" height="21" viewBox="0 0 21 21">
  <g fill="#A63446" transform="translate(2.055 1.082)">
    <path d="M8.04171121,1.05772518 L0.32634261,15.537347 C-0.0153481264,16.1786064 0.449358496,16.9527826 1.17597131,16.9527826 L16.6067085,16.9527826 C17.3333213,16.9527826 17.7980279,16.1786064 17.4563372,15.537347 L9.74096861,1.05772518 C9.37863682,0.3777282 8.404043,0.3777282 8.04171121,1.05772518 Z M8.891306,1.73785949 L16.4283076,15.8823064 C6.37816537,15.8823064 1.35309424,15.8823064 1.35309424,15.8823064 C1.35309424,15.8823064 3.86583149,11.1674907 8.891306,1.73785949 Z"/>
    <path d="M8.56536461 5.71398569L9.21731521 5.71398569C9.44927481 5.71398569 9.63731522 5.9020261 9.63731522 6.1339857L9.63731522 11.7352826C9.63731522 11.9672422 9.44927481 12.1552826 9.21731521 12.1552826L8.56536461 12.1552826C8.33340501 12.1552826 8.1453646 11.9672422 8.1453646 11.7352826L8.1453646 6.1339857C8.1453646 5.9020261 8.33340501 5.71398569 8.56536461 5.71398569zM8.56536461 13.1505887L9.21731521 13.1505887C9.44927481 13.1505887 9.63731522 13.3386291 9.63731522 13.5705887L9.63731522 14.6170035C9.63731522 14.8489631 9.44927481 15.0370035 9.21731521 15.0370035L8.56536461 15.0370035C8.33340501 15.0370035 8.1453646 14.8489631 8.1453646 14.6170035L8.1453646 13.5705887C8.1453646 13.3386291 8.33340501 13.1505887 8.56536461 13.1505887z"/>
  </g>
</svg>
