<svg xmlns="http://www.w3.org/2000/svg" xmlns:xlink="http://www.w3.org/1999/xlink" width="21" height="21" viewBox="0 0 21 21">
  <defs>
    <path id="wind-a" d="M13.354271,9.90297733 C13.8833246,9.91673851 14.5272382,10.0322984 15.1688917,10.3289787 C16.4538383,10.9230973 17.2476152,12.0723295 17.2652586,13.8260392 C17.2829339,15.5829179 16.5529548,16.7670008 15.341398,17.4214714 C14.6353602,17.8028659 13.9394063,17.9331506 13.4494513,17.9384292 C13.1536014,17.9415663 12.9111992,17.7043011 12.9080307,17.4084513 C12.9048623,17.1126014 13.1421274,16.8701992 13.4379773,16.8670307 C13.5112959,16.8662455 13.6604796,16.8533635 13.8585988,16.816275 C14.1925007,16.7537676 14.5256884,16.6443495 14.8321714,16.4787905 C15.7008949,16.0095149 16.207476,15.1878009 16.1938843,13.8368179 C16.1805376,12.5101957 15.6396077,11.7270359 14.7192356,11.3014851 C14.23917,11.0795179 13.7395263,10.9883583 13.3458208,10.974828 L2.15814286,10.9741429 C1.86227603,10.9741429 1.62242857,10.7342954 1.62242857,10.4384286 C1.62242857,10.1721484 1.81670501,9.95124397 2.07124722,9.90972588 L2.15814286,9.90271429 L13.354271,9.90297733 Z M10.9438571,11.7952857 C11.2311832,11.7952857 11.6316154,11.8463212 12.0458951,12.0047222 C12.80436,12.2947235 13.301,12.8643988 13.301,13.7238571 C13.301,14.5766152 12.8128596,15.155722 12.0627083,15.4720211 C11.6507458,15.6457239 11.2512747,15.7123337 10.9648913,15.7235869 C10.6692526,15.7352038 10.4201728,15.5049586 10.408556,15.2093199 C10.3969391,14.9136812 10.6271843,14.6646014 10.922823,14.6529845 C11.0917968,14.6463449 11.3753613,14.5990619 11.6464345,14.4847646 C12.0346761,14.3210637 12.2295714,14.0898491 12.2295714,13.7238571 C12.2295714,13.3645655 12.0431757,13.1507586 11.6632478,13.0054921 C11.4392844,12.919859 11.2057047,12.8805743 11.0368258,12.869858 L10.9438571,12.8667143 L2.15814286,12.8667143 C1.86227603,12.8667143 1.62242857,12.6268668 1.62242857,12.331 C1.62242857,12.0647199 1.81670501,11.8438154 2.07124722,11.8022973 L2.15814286,11.7952857 L10.9438571,11.7952857 Z M18.32486,7.04555974 C18.6126776,7.04225383 18.9741229,7.08990108 19.3440196,7.24200257 C20.0345079,7.52593137 20.4795714,8.09466322 20.4795714,8.93842857 C20.4795714,9.76960688 20.0955524,10.3248962 19.4786539,10.5666131 C19.2408227,10.6598016 19.0032046,10.6958803 18.7827275,10.6964204 L18.594,10.688 L16.7316333,10.6955675 C16.4653551,10.6965923 16.2437045,10.5031675 16.2012071,10.248787 L16.1938571,10.161919 C16.1928363,9.89564079 16.3862611,9.67399025 16.6406416,9.63149281 L16.7275096,9.62414682 L18.7013197,9.62209667 C18.8183825,9.63091378 18.9639245,9.61755745 19.0877747,9.56902974 C19.2966798,9.48717526 19.4081429,9.32600027 19.4081429,8.93842857 C19.4081429,8.56344392 19.2505278,8.36203292 18.9365519,8.232926 C18.7663256,8.16292896 18.5850351,8.12951906 18.4434967,8.11981508 L18.3455904,8.11678069 C18.0527741,8.12327289 17.8076781,7.88879148 17.8011312,7.5929971 C17.7952389,7.32678215 17.9845797,7.10163285 18.2381408,7.05449244 L18.32486,7.04555974 Z M14.2657143,3.50971429 C15.5472489,3.50971429 16.3770587,4.07752579 16.7604475,5.00076063 C16.927194,5.40230144 16.9889061,5.8083251 16.9880633,6.17230211 L16.9794715,6.39126132 L16.9770294,6.49582704 C16.9605272,6.81599735 16.8718737,7.2094625 16.6536344,7.60691566 C16.2495424,8.34284001 15.5204293,8.80627665 14.4645362,8.86133152 L14.249,8.86685714 L2.15857143,8.86685714 C1.8627046,8.86685714 1.62285714,8.62700969 1.62285714,8.33114286 C1.62285714,8.06486271 1.81713358,7.84395826 2.07167579,7.80244017 L2.15857143,7.79542857 L14.249,7.79542857 C15.0303553,7.79542857 15.4714417,7.53383051 15.7144728,7.09122719 C15.836113,6.86969845 15.890929,6.63928673 15.9048343,6.46858519 L15.9130111,6.2875303 C15.9282727,6.02859669 15.8932291,5.70613819 15.7709454,5.41166794 C15.5517895,4.88392063 15.1093047,4.58114286 14.2657143,4.58114286 C13.4199177,4.58114286 12.9686936,4.88665888 12.7397381,5.41815743 C12.6359904,5.65899808 12.5903364,5.91686733 12.58277,6.14156841 L12.5847019,6.3161638 C12.6119259,6.61237628 12.3951384,6.8732532 12.1005239,6.90044671 C11.8353709,6.92492087 11.5975453,6.75177039 11.5328076,6.50212159 L11.5156377,6.3870784 L11.5138265,6.356481 C11.4935971,5.95102324 11.5506973,5.47022627 11.7557261,4.99427114 C12.1518153,4.07478754 12.9863858,3.50971429 14.2657143,3.50971429 Z"/>
  </defs>
  <g fill="none" fill-rule="evenodd" transform="translate(-.5 -.278)">
    <mask id="wind-b" fill="#fff">
      <use xlink:href="#wind-a"/>
    </mask>
    <use fill="#000" fill-rule="nonzero" xlink:href="#wind-a"/>
    <g mask="url(#wind-b)">
      <rect width="21" height="21" fill="#000" transform="translate(.5 .278)"/>
    </g>
  </g>
</svg>
