<svg width="25" height="25" viewBox="0 0 25 25" fill="none" xmlns="http://www.w3.org/2000/svg">
<path d="M18.7932 14.1625C18.7932 14.8331 18.2496 15.3767 17.579 15.3767C16.9084 15.3767 16.3647 14.8331 16.3647 14.1625C16.3647 13.4919 16.9084 12.9482 17.579 12.9482C18.2496 12.9482 18.7932 13.4919 18.7932 14.1625Z" fill="black"/>
<path d="M8.50806 17.6166C8.50806 18.2872 7.96443 18.8308 7.29382 18.8308C6.62322 18.8308 6.07959 18.2872 6.07959 17.6166C6.07959 16.946 6.62322 16.4023 7.29382 16.4023C7.96443 16.4023 8.50806 16.946 8.50806 17.6166Z" fill="black"/>
<path d="M10.7225 15.3767C11.3931 15.3767 11.9368 14.8331 11.9368 14.1625C11.9368 13.4919 11.3931 12.9482 10.7225 12.9482C10.0519 12.9482 9.5083 13.4919 9.5083 14.1625C9.5083 14.8331 10.0519 15.3767 10.7225 15.3767Z" fill="black"/>
<path d="M11.9368 17.6166C11.9368 18.2872 11.3931 18.8308 10.7225 18.8308C10.0519 18.8308 9.5083 18.2872 9.5083 17.6166C9.5083 16.946 10.0519 16.4023 10.7225 16.4023C11.3931 16.4023 11.9368 16.946 11.9368 17.6166Z" fill="black"/>
<path d="M14.1508 15.3767C14.8214 15.3767 15.365 14.8331 15.365 14.1625C15.365 13.4919 14.8214 12.9482 14.1508 12.9482C13.4802 12.9482 12.9365 13.4919 12.9365 14.1625C12.9365 14.8331 13.4802 15.3767 14.1508 15.3767Z" fill="black"/>
<path d="M15.365 17.6166C15.365 18.2872 14.8214 18.8308 14.1508 18.8308C13.4802 18.8308 12.9365 18.2872 12.9365 17.6166C12.9365 16.946 13.4802 16.4023 14.1508 16.4023C14.8214 16.4023 15.365 16.946 15.365 17.6166Z" fill="black"/>
<path fill-rule="evenodd" clip-rule="evenodd" d="M7.32334 2.92969C6.82628 2.92969 6.42334 3.33263 6.42334 3.82969V4.5293H5.70225C4.10062 4.5293 2.80225 5.82767 2.80225 7.4293V19.9273C2.80225 21.529 4.10062 22.8273 5.70225 22.8273H19.1708C20.7724 22.8273 22.0708 21.529 22.0708 19.9273V7.4293C22.0708 5.82767 20.7724 4.5293 19.1708 4.5293H18.4499V3.82969C18.4499 3.33263 18.047 2.92969 17.5499 2.92969C17.0528 2.92969 16.6499 3.33263 16.6499 3.82969V4.5293H8.22334V3.82969C8.22334 3.33263 7.8204 2.92969 7.32334 2.92969ZM5.70225 6.3293H6.42334V7.02969C6.42334 7.52674 6.82628 7.92969 7.32334 7.92969C7.8204 7.92969 8.22334 7.52674 8.22334 7.02969V6.3293H16.6499V7.02969C16.6499 7.52674 17.0528 7.92969 17.5499 7.92969C18.047 7.92969 18.4499 7.52674 18.4499 7.02969V6.3293H19.1708C19.7783 6.3293 20.2708 6.82178 20.2708 7.4293V9.11194H4.60225V7.4293C4.60225 6.82178 5.09473 6.3293 5.70225 6.3293ZM20.2708 10.9119H4.60225V19.9273C4.60225 20.5349 5.09473 21.0273 5.70225 21.0273H19.1708C19.7783 21.0273 20.2708 20.5349 20.2708 19.9273V10.9119Z" fill="black"/>
</svg>
