<svg width="25" height="25" viewBox="0 0 25 25" fill="none" xmlns="http://www.w3.org/2000/svg">
<path d="M5.01067 5.52532C4.62014 5.91584 4.62014 6.549 5.01067 6.93953L11.0213 12.9502L5.01067 18.9609C4.62014 19.3514 4.62014 19.9845 5.01067 20.3751C5.40119 20.7656 6.03436 20.7656 6.42488 20.3751L12.4355 14.3644L18.4457 20.3746C18.8362 20.7651 19.4694 20.7651 19.8599 20.3746C20.2504 19.984 20.2504 19.3509 19.8599 18.9603L13.8498 12.9502L19.8599 6.94005C20.2504 6.54952 20.2504 5.91636 19.8599 5.52583C19.4694 5.13531 18.8362 5.13531 18.4457 5.52583L12.4355 11.536L6.42488 5.52532C6.03436 5.13479 5.40119 5.13479 5.01067 5.52532Z" fill="black"/>
</svg>
