<svg width="25" height="25" viewBox="0 0 25 25" fill="none" xmlns="http://www.w3.org/2000/svg">
<path fill-rule="evenodd" clip-rule="evenodd" d="M11.9723 3.89191C12.2053 3.78691 12.4721 3.786 12.7059 3.88939L23.0177 8.44948C23.3472 8.5952 23.558 8.92339 23.5536 9.28366C23.5492 9.64394 23.3303 9.96684 22.9973 10.1044L20.2289 11.248V16.4894C20.2289 16.7985 20.0703 17.0859 19.8089 17.2507C17.1314 18.9389 14.7013 19.8584 12.2557 19.8634C9.80089 19.8685 7.46255 18.9524 4.97095 17.2297C4.72786 17.0616 4.58278 16.7849 4.58278 16.4894V11.2438L4.03371 11.0127V20.4537C4.03371 20.9507 3.63076 21.3537 3.13371 21.3537C2.63665 21.3537 2.23371 20.9507 2.23371 20.4537V10.2553L1.86977 10.1021C1.53971 9.96324 1.32338 9.64188 1.31892 9.28381C1.31445 8.92573 1.5227 8.59908 1.8492 8.452L11.9723 3.89191ZM4.47251 9.24449L12.3451 12.5573L20.3646 9.24441L12.3453 5.69807L4.47251 9.24449ZM6.38278 12.0012V16.0113C8.5248 17.423 10.3951 18.0673 12.252 18.0634C14.1187 18.0596 16.0896 17.4007 18.4289 15.9874V11.9916L12.6855 14.3642C12.4636 14.4559 12.2142 14.4551 11.9928 14.3619L6.38278 12.0012Z" fill="black"/>
</svg>
