<svg width="25" height="25" viewBox="0 0 25 25" fill="none" xmlns="http://www.w3.org/2000/svg">
<path d="M13.002 22.8797C13.0019 22.8798 13.0018 22.8799 12.4366 22.1798L13.002 22.8797C12.6847 23.1358 12.2346 23.1468 11.9054 22.9062C11.6723 22.7358 7.65807 19.5048 3.39295 14.2889C0.967148 11.3224 1.60151 7.43899 3.75243 5.31293C4.8443 4.23368 6.34962 3.58394 8.04738 3.75834C9.50494 3.90807 11.0045 4.65386 12.4384 6.07589C13.8747 4.66096 15.3836 3.9166 16.8499 3.75985C18.5564 3.57742 20.0821 4.20582 21.1934 5.27391C23.3932 7.38825 24.0208 11.273 21.4879 14.2971C19.2497 16.9694 17.1344 19.1098 15.5772 20.5834C14.7983 21.3206 14.1581 21.8917 13.711 22.2799C13.4874 22.474 13.312 22.6225 13.1916 22.7231C13.1314 22.7735 13.0849 22.8119 13.053 22.8381L13.0162 22.8682L13.0061 22.8764L13.002 22.8797Z" fill="black"/>
</svg>
