<svg width="25" height="25" viewBox="0 0 25 25" fill="none" xmlns="http://www.w3.org/2000/svg">
<path fill-rule="evenodd" clip-rule="evenodd" d="M4.44862 2.56885C4.71039 1.70883 5.92799 1.7088 6.18976 2.56885L6.74803 4.40305L8.58222 4.96132C9.44224 5.22308 9.44227 6.44068 8.58222 6.70245L6.74803 7.26072L6.18976 9.09492C5.928 9.95494 4.71039 9.95497 4.44862 9.09492L3.89035 7.26072L2.05616 6.70245C1.19614 6.44069 1.19611 5.22309 2.05616 4.96132L3.89035 4.40305L4.44862 2.56885ZM5.31919 5.67842C5.27434 5.73551 5.22281 5.78704 5.16573 5.83189C5.22281 5.87673 5.27434 5.92827 5.31919 5.98535C5.36404 5.92826 5.41557 5.87673 5.47265 5.83189C5.41557 5.78704 5.36404 5.73551 5.31919 5.67842Z" fill="black"/>
<path fill-rule="evenodd" clip-rule="evenodd" d="M9.50803 8.94418C9.82897 8.07068 11.0644 8.0707 11.3853 8.94418L13.0817 13.5611L17.6987 15.2575C18.5722 15.5785 18.5722 16.8139 17.6987 17.1348L13.0817 18.8312L11.3853 23.4482C11.0644 24.3217 9.82897 24.3217 9.50803 23.4482L7.81162 18.8312L3.19467 17.1348C2.32117 16.8139 2.32119 15.5785 3.19467 15.2575L7.81162 13.5611L9.50803 8.94418ZM10.4467 11.6087L9.37355 14.5293C9.27234 14.8048 9.05524 15.0218 8.77979 15.1231L5.85916 16.1962L8.77979 17.2693C9.05524 17.3705 9.27234 17.5876 9.37355 17.8631L10.4467 20.7837L11.5198 17.8631C11.621 17.5876 11.8381 17.3705 12.1136 17.2693L15.0342 16.1962L12.1136 15.1231C11.8381 15.0219 11.621 14.8048 11.5198 14.5293L10.4467 11.6087Z" fill="black"/>
<path fill-rule="evenodd" clip-rule="evenodd" d="M19.7122 3.86964C19.3681 3.05517 18.2139 3.05517 17.8698 3.86964L16.8892 6.19094L14.5679 7.17156C13.7534 7.51563 13.7534 8.66985 14.5679 9.01391L16.8892 9.99453L17.8698 12.3158C18.2139 13.1303 19.3681 13.1303 19.7122 12.3158L20.6928 9.99453L23.0141 9.01391C23.8285 8.66984 23.8285 7.51563 23.0141 7.17156L20.6928 6.19094L19.7122 3.86964ZM18.4209 7.19062L18.791 6.31457L19.1611 7.19062C19.2624 7.43047 19.4533 7.62134 19.6931 7.72265L20.5691 8.09274L19.6931 8.46282C19.4533 8.56414 19.2624 8.75501 19.1611 8.99485L18.791 9.8709L18.4209 8.99485C18.3196 8.75501 18.1287 8.56414 17.8889 8.46282L17.0128 8.09274L17.8889 7.72265C18.1287 7.62133 18.3196 7.43047 18.4209 7.19062Z" fill="black"/>
</svg>
