<svg width="25" height="25" viewBox="0 0 25 25" fill="none" xmlns="http://www.w3.org/2000/svg">
<path d="M16.5416 3.95188C16.0194 3.47058 15.4148 3.0732 14.7472 2.78351C14.5273 2.68812 14.3029 2.72619 14.3029 3.06759C15.1031 8.86172 11.3382 11.2378 6.26482 9.82764C5.9936 9.78034 5.89615 10.0163 5.94043 10.1995C6.13986 11.024 6.49653 11.7835 6.97568 12.4463C8.14808 14.068 10.0538 15.1106 12.1835 15.1106C15.7351 15.1106 18.6146 12.231 18.6146 8.67942C18.6146 7.74379 18.413 6.84759 18.0469 6.03691C17.6899 5.24633 17.1766 4.53707 16.5416 3.95188Z" fill="black"/>
<path d="M9.65691 17.5574C9.27026 17.245 8.7036 17.3052 8.39124 17.6919C8.07889 18.0785 8.13912 18.6452 8.52577 18.9575L12.2031 21.9282C12.5343 22.1958 13.0077 22.1947 13.3376 21.9255L16.9782 18.9548C17.3633 18.6405 17.4208 18.0736 17.1065 17.6885C16.7923 17.3033 16.2253 17.2459 15.8402 17.5601L12.7658 20.0689L9.65691 17.5574Z" fill="black"/>
</svg>
