<svg width="25" height="25" viewBox="0 0 25 25" fill="none" xmlns="http://www.w3.org/2000/svg">
<path fill-rule="evenodd" clip-rule="evenodd" d="M8.39037 21.7941C8.70272 22.1808 9.26938 22.241 9.65603 21.9286L12.7649 19.4171L15.8393 21.9259C16.2244 22.2401 16.7914 22.1827 17.1056 21.7976C17.4199 21.4124 17.3624 20.8455 16.9773 20.5312L13.3368 17.5605C13.0068 17.2913 12.5334 17.2902 12.2022 17.5578L8.52489 20.5285C8.13824 20.8408 8.07801 21.4075 8.39037 21.7941Z" fill="black"/>
<path d="M14.7643 2.51398C15.4319 2.80367 16.0365 3.20105 16.5587 3.68234C17.1937 4.26754 17.707 4.9768 18.064 5.76738C18.43 6.57806 18.6317 7.47426 18.6317 8.40989C18.6317 11.9615 15.7522 14.841 12.2006 14.841C10.0709 14.841 8.16517 13.7985 6.99277 12.1768C6.51362 11.514 6.15695 10.7545 5.95752 9.92992C5.91324 9.74681 6.01069 9.51081 6.28191 9.55811C11.3553 10.9683 15.1202 8.59219 14.32 2.79805C14.32 2.45666 14.5444 2.41859 14.7643 2.51398Z" fill="black"/>
</svg>
