<svg width="25" height="25" viewBox="0 0 25 25" fill="none" xmlns="http://www.w3.org/2000/svg">
<path d="M12.7496 5.89844C12.2526 5.89844 11.8496 5.49549 11.8496 4.99844V2.79844C11.8496 2.30138 12.2526 1.89844 12.7496 1.89844C13.2467 1.89844 13.6496 2.30138 13.6496 2.79844V4.99844C13.6496 5.49549 13.2467 5.89844 12.7496 5.89844Z" fill="black"/>
<path d="M17.457 7.85319C17.1055 7.50172 17.1055 6.93187 17.457 6.5804L19.0126 5.02477C19.3641 4.67329 19.9339 4.67329 20.2854 5.02477C20.6369 5.37624 20.6369 5.94609 20.2854 6.29756L18.7297 7.85319C18.3783 8.20467 17.8084 8.20466 17.457 7.85319Z" fill="black"/>
<path d="M12.7497 6.74219C9.63222 6.74219 7.10498 9.26943 7.10498 12.3869C7.10498 13.6129 7.49682 14.7499 8.16193 15.6762C8.331 15.9117 8.60312 16.0513 8.89299 16.0513H16.6065C16.8963 16.0513 17.1685 15.9117 17.3375 15.6762C18.0026 14.7499 18.3945 13.6129 18.3945 12.3869C18.3945 9.26943 15.8672 6.74219 12.7497 6.74219Z" fill="black"/>
<path d="M2.31787 12.482C2.31787 11.985 2.72081 11.582 3.21787 11.582H5.41787C5.91493 11.582 6.31787 11.985 6.31787 12.482C6.31787 12.9791 5.91493 13.382 5.41787 13.382H3.21787C2.72081 13.382 2.31787 12.9791 2.31787 12.482Z" fill="black"/>
<path d="M20.0809 11.582C19.5839 11.582 19.1809 11.985 19.1809 12.482C19.1809 12.9791 19.5839 13.382 20.0809 13.382H22.2809C22.778 13.382 23.1809 12.9791 23.1809 12.482C23.1809 11.985 22.778 11.582 22.2809 11.582H20.0809Z" fill="black"/>
<path d="M8.04232 6.5804C8.39379 6.93187 8.39379 7.50172 8.04232 7.85319C7.69084 8.20466 7.12099 8.20467 6.76952 7.85319L5.21389 6.29756C4.86242 5.94609 4.86242 5.37624 5.21389 5.02477C5.56536 4.67329 6.13521 4.67329 6.48668 5.02477L8.04232 6.5804Z" fill="black"/>
<path d="M9.65639 22.1806C9.26974 22.4929 8.70308 22.4327 8.39073 22.046C8.07837 21.6594 8.1386 21.0927 8.52525 20.7804L12.2025 17.8097C12.5338 17.5421 13.0072 17.5433 13.3371 17.8125L16.9777 20.7832C17.3628 21.0974 17.4202 21.6644 17.106 22.0495C16.7917 22.4346 16.2248 22.492 15.8397 22.1778L12.7653 19.6691L9.65639 22.1806Z" fill="black"/>
</svg>
