<svg xmlns="http://www.w3.org/2000/svg" width="30" height="31" viewBox="0 0 30 31">
  <path d="M10.1582401,0.616784926 L10.725262,1.19176633 C10.8630749,1.33151377 10.8622945,1.55628271 10.7235145,1.69506984 L2.48495146,9.9340586 C2.45065104,9.96836079 2.43138142,10.0148835 2.43138142,10.0633929 C2.43138142,10.1119021 2.45065152,10.1584246 2.48495258,10.192726 L10.7234214,18.431276 C10.8622388,18.5700948 10.8629847,18.7949319 10.7250914,18.9346687 L10.1582413,19.509097 C10.0196975,19.649493 9.79357209,19.6509945 9.65317611,19.5124507 C9.65261346,19.5118955 9.65205265,19.5113384 9.6514937,19.5107794 L0.456109565,10.3153953 C0.316636603,10.1759223 0.316636603,9.94979197 0.456109565,9.81031901 L9.65140988,0.615018695 C9.79088284,0.475545734 10.0170132,0.475545734 10.1564861,0.615018695 C10.1570729,0.6156054 10.1576575,0.616194147 10.1582401,0.616784926 Z" transform="translate(9.5 5)"/>
</svg>
