<svg xmlns="http://www.w3.org/2000/svg" width="21" height="22" viewBox="0 0 21 22">
  <path d="M5.57102,18.87178 C5.97774458,18.87178 6.30746,19.2014954 6.30746,19.60822 C6.30746,20.0149446 5.97774458,20.34466 5.57102,20.34466 C5.16429542,20.34466 4.83458,20.0149446 4.83458,19.60822 C4.83458,19.2014954 5.16429542,18.87178 5.57102,18.87178 Z M11.11256,18.87178 C11.5192846,18.87178 11.849,19.2014954 11.849,19.60822 C11.849,20.0149446 11.5192846,20.34466 11.11256,20.34466 C10.7058354,20.34466 10.37612,20.0149446 10.37612,19.60822 C10.37612,19.2014954 10.7058354,18.87178 11.11256,18.87178 Z M5.57102,19.39466 C5.45307407,19.39466 5.35746,19.4902741 5.35746,19.60822 C5.35746,19.7261659 5.45307407,19.82178 5.57102,19.82178 C5.68896593,19.82178 5.78458,19.7261659 5.78458,19.60822 C5.78458,19.4902741 5.68896593,19.39466 5.57102,19.39466 Z M11.11256,19.39466 C10.9946141,19.39466 10.899,19.4902741 10.899,19.60822 C10.899,19.7261659 10.9946141,19.82178 11.11256,19.82178 C11.2305059,19.82178 11.32612,19.7261659 11.32612,19.60822 C11.32612,19.4902741 11.2305059,19.39466 11.11256,19.39466 Z M5.57102,12.33388 C5.80420689,12.33388 5.99814795,12.5019114 6.03836711,12.7234981 L6.04602,12.80888 L6.04602,17.84388 C6.04602,18.1062153 5.83335526,18.31888 5.57102,18.31888 C5.33783311,18.31888 5.14389205,18.1508486 5.10367289,17.9292619 L5.09602,17.84388 L5.09602,12.80888 C5.09602,12.5465447 5.30868474,12.33388 5.57102,12.33388 Z M11.11256,12.33388 C11.3457469,12.33388 11.539688,12.5019114 11.5799071,12.7234981 L11.58756,12.80888 L11.58756,17.84388 C11.58756,18.1062153 11.3748953,18.31888 11.11256,18.31888 C10.8793731,18.31888 10.685432,18.1508486 10.6452129,17.9292619 L10.63756,17.84388 L10.63756,12.80888 C10.63756,12.5465447 10.8502247,12.33388 11.11256,12.33388 Z M8.34198,16.47208 C8.74870458,16.47208 9.07842,16.8017954 9.07842,17.20852 C9.07842,17.6152446 8.74870458,17.94496 8.34198,17.94496 C7.93525542,17.94496 7.60554,17.6152446 7.60554,17.20852 C7.60554,16.8017954 7.93525542,16.47208 8.34198,16.47208 Z M13.88352,16.47208 C14.2902446,16.47208 14.61996,16.8017954 14.61996,17.20852 C14.61996,17.6152446 14.2902446,17.94496 13.88352,17.94496 C13.4767954,17.94496 13.14708,17.6152446 13.14708,17.20852 C13.14708,16.8017954 13.4767954,16.47208 13.88352,16.47208 Z M8.34198,16.99496 C8.22403407,16.99496 8.12842,17.0905741 8.12842,17.20852 C8.12842,17.3264659 8.22403407,17.42208 8.34198,17.42208 C8.45992593,17.42208 8.55554,17.3264659 8.55554,17.20852 C8.55554,17.0905741 8.45992593,16.99496 8.34198,16.99496 Z M13.88352,16.99496 C13.7655741,16.99496 13.66996,17.0905741 13.66996,17.20852 C13.66996,17.3264659 13.7655741,17.42208 13.88352,17.42208 C14.0014659,17.42208 14.09708,17.3264659 14.09708,17.20852 C14.09708,17.0905741 14.0014659,16.99496 13.88352,16.99496 Z M8.34198,12.33388 C8.57516689,12.33388 8.76910795,12.5019114 8.80932711,12.7234981 L8.81698,12.80888 L8.81698,15.32638 C8.81698,15.5887153 8.60431526,15.80138 8.34198,15.80138 C8.10879311,15.80138 7.91485205,15.6333486 7.87463289,15.4117619 L7.86698,15.32638 L7.86698,12.80888 C7.86698,12.5465447 8.07964474,12.33388 8.34198,12.33388 Z M13.88352,12.33388 C14.1167069,12.33388 14.310648,12.5019114 14.3508671,12.7234981 L14.35852,12.80888 L14.35852,15.32638 C14.35852,15.5887153 14.1458553,15.80138 13.88352,15.80138 C13.6503331,15.80138 13.456392,15.6333486 13.4161729,15.4117619 L13.40852,15.32638 L13.40852,12.80888 C13.40852,12.5465447 13.6211847,12.33388 13.88352,12.33388 Z M10.01854,0.62532 C11.918747,0.62532 13.5765095,1.81160235 14.228475,3.52963872 L14.228475,3.52963872 L14.287,3.697 L14.3319892,3.69054242 C14.415559,3.67955488 14.4991776,3.67125427 14.5828807,3.66570055 L14.5828807,3.66570055 L14.83428,3.65734 C17.050632,3.65734 18.84708,5.45352145 18.84708,7.66976 C18.84708,9.88605526 17.0505753,11.68256 14.83428,11.68256 L14.83428,11.68256 L4.62026,11.68256 C2.40396474,11.68256 0.60746,9.88605526 0.60746,7.66976 C0.60746,5.45346474 2.40396474,3.65696 4.62026,3.65696 C4.94275473,3.65696 5.2605105,3.69582552 5.56876983,3.77133667 L5.56876983,3.77133667 L5.714,3.811 L5.73929829,3.72950043 C6.31111405,1.97720698 7.91552565,0.721201641 9.79991123,0.630567903 L9.79991123,0.630567903 Z M10.01854,1.57532 C8.28482966,1.57532 6.81413328,2.82674566 6.51967904,4.51782214 C6.46666486,4.82228723 6.14161986,4.99585096 5.85911902,4.87054026 C5.46928716,4.69762005 5.05047265,4.60696 4.62026,4.60696 C2.92863526,4.60696 1.55746,5.97813526 1.55746,7.66976 C1.55746,9.36138474 2.92863526,10.73256 4.62026,10.73256 L4.62026,10.73256 L14.83428,10.73256 C16.5259047,10.73256 17.89708,9.36138474 17.89708,7.66976 C17.89708,5.97822352 16.525993,4.60734 14.83428,4.60734 C14.5811642,4.60734 14.3266335,4.6415943 14.0676536,4.70824864 C13.8078487,4.77511532 13.5442568,4.61370841 13.4857096,4.35190316 C13.1252527,2.74004877 11.6906118,1.57532 10.01854,1.57532 Z" transform="translate(.5)"/>
</svg>
