<svg xmlns="http://www.w3.org/2000/svg" width="21" height="22" viewBox="0 0 21 22">
  <path d="M9.07567857,3.41503571 C10.7752868,3.41503571 12.2589279,4.47170513 12.849469,6.00444631 L12.849469,6.00444631 L12.903,6.155 L13.0366484,6.13904173 L13.1494516,6.12971038 L13.3754464,6.12219643 C15.3674481,6.12219643 16.9820536,7.73656231 16.9820536,9.72846429 C16.9820536,11.7204161 15.3673982,13.3350714 13.3754464,13.3350714 L13.3754464,13.3350714 L11.1871786,13.334605 L10.383,14.496 L11.7878588,14.6346369 C12.1192645,14.6671277 12.2914907,15.030502 12.133088,15.3030989 L12.133088,15.3030989 L12.0865,15.3691129 L7.97266067,20.246345 C7.652674,20.6257106 7.04489581,20.2803316 7.20704058,19.81127 L7.20704058,19.81127 L8.156,17.064 L7.01226141,17.2205361 C6.71666566,17.2608446 6.47338371,17.0089481 6.50650284,16.7264509 L6.50650284,16.7264509 L6.52255661,16.6488441 L7.50917857,13.334605 L4.25578571,13.3350714 C2.32809041,13.3350714 0.753742491,11.8229072 0.654177584,9.92001446 L0.649178571,9.72846429 C0.649178571,7.73651247 2.2638339,6.12185714 4.25578571,6.12185714 C4.50941164,6.12185714 4.75977857,6.14860266 5.00401612,6.20075494 L5.00401612,6.20075494 L5.217,6.254 L5.23852387,6.18423622 C5.75669561,4.62232683 7.18979577,3.50380781 8.87258761,3.4200784 L8.87258761,3.4200784 Z M9.999,13.478 L8.402,13.478 L7.578,16.239 L8.75731001,16.0785711 C9.06053236,16.0372226 9.30601762,16.3023698 9.26081302,16.5898861 L9.26081302,16.5898861 L9.24110228,16.6686407 L8.84,17.827 L10.851,15.443 L9.53751623,15.3140238 C9.22582675,15.283466 9.04946062,14.9561655 9.17205603,14.68548 L9.17205603,14.68548 L9.21302636,14.6133258 L9.999,13.478 Z M9.07567857,4.31075 C7.53932656,4.31075 6.23602859,5.4197352 5.97509352,6.91830816 C5.92510872,7.20537525 5.61863773,7.36902105 5.35227979,7.25087096 C5.00721589,7.09780876 4.63655032,7.01757143 4.25578571,7.01757143 C2.75852324,7.01757143 1.54489286,8.23120181 1.54489286,9.72846429 C1.54489286,11.2257268 2.75852324,12.4393571 4.25578571,12.4393571 L4.25578571,12.4393571 L13.3754464,12.4393571 C14.8727089,12.4393571 16.0863393,11.2257268 16.0863393,9.72846429 C16.0863393,8.23128141 14.8727885,7.01791071 13.3754464,7.01791071 C13.1515132,7.01791071 12.9262329,7.04822853 12.6968783,7.10725814 C12.4519194,7.17030387 12.2033898,7.01812021 12.1481882,6.77127527 C11.8287645,5.34290878 10.557415,4.31075 9.07567857,4.31075 Z M14.3117048,0.749678133 C14.5870201,0.744775544 14.8015098,0.987137756 14.7631742,1.25981515 C14.742331,1.40807119 14.7319107,1.53431114 14.7319107,1.65414286 C14.7319107,3.15443397 15.9032417,4.38133128 17.3812234,4.47015455 L17.551,4.475 L17.603708,4.47231655 C17.8788454,4.4675728 18.0931436,4.709751 18.0549512,4.98226595 C17.9401785,5.80120477 17.5562412,6.55163232 16.9710378,7.12346412 C16.7941293,7.2963304 16.5105807,7.2930535 16.3377145,7.11614495 C16.1648482,6.9392364 16.1681251,6.65568788 16.3450336,6.4828216 C16.6413924,6.1932345 16.8696355,5.84367447 17.0146633,5.45875958 L17.055,5.336 L16.9692021,5.32541737 C15.2572762,5.05528301 13.9337059,3.61636943 13.8413488,1.85153409 L13.837,1.698 L13.7448056,1.71643631 C12.927686,1.90408616 12.232897,2.44793066 11.8553457,3.19997889 L11.7739386,3.37715704 C11.678494,3.60534493 11.416138,3.71295462 11.1879501,3.61751 C10.9597622,3.52206539 10.8521525,3.25970941 10.9475971,3.03152153 C11.5120716,1.68198234 12.8248365,0.776155055 14.3117048,0.749678133 Z" transform="translate(1)"/>
</svg>
