<svg xmlns="http://www.w3.org/2000/svg" width="21" height="22" viewBox="0 0 21 22">
  <path d="M7.97746227,15.3691215 C8.13652585,15.5282005 8.15639782,15.7737528 8.03708555,15.9544383 L7.97743025,16.0274623 L4.43191301,19.5726347 C4.25010838,19.7544216 3.95535916,19.7544073 3.77357222,19.5726027 C3.61450863,19.4135236 3.59463666,19.1679714 3.71394894,18.9872859 L3.77360423,18.9142619 L7.31912147,15.3690895 C7.5009261,15.1873025 7.79567532,15.1873168 7.97746227,15.3691215 Z M11.5226187,15.3691055 C11.68169,15.5281768 11.7015739,15.7737281 11.5822704,15.9544194 L11.5226187,16.0274463 L7.97744626,19.5726187 C7.79565047,19.7544145 7.50090125,19.7544145 7.31910546,19.5726187 C7.16003415,19.4135474 7.14015023,19.1679961 7.25945372,18.9873048 L7.31910546,18.9142779 L10.8642779,15.3691055 C11.0460737,15.1873097 11.3408229,15.1873097 11.5226187,15.3691055 Z M4.68089454,15.3691055 C4.83996585,15.5281768 4.85984977,15.7737281 4.74054628,15.9544194 L4.68089454,16.0274463 L3.08606695,17.6222738 C2.90427116,17.8040696 2.60952194,17.8040696 2.42772615,17.6222738 C2.26865484,17.4632025 2.24877092,17.2176512 2.36807441,17.0369599 L2.42772615,16.9639331 L4.02255374,15.3691055 C4.20434953,15.1873097 4.49909875,15.1873097 4.68089454,15.3691055 Z M14.3143428,15.3691055 C14.4734141,15.5281768 14.493298,15.7737281 14.3739946,15.9544194 L14.3143428,16.0274463 L12.7195152,17.6222738 C12.5377194,17.8040696 12.2429702,17.8040696 12.0611744,17.6222738 C11.9021031,17.4632025 11.8822192,17.2176512 12.0015227,17.0369599 L12.0611744,16.9639331 L13.656002,15.3691055 C13.8377978,15.1873097 14.132547,15.1873097 14.3143428,15.3691055 Z M9.34137931,4.96896552 C11.0730987,4.96896552 12.5847659,6.04559516 13.1864637,7.60729576 L13.1864637,7.60729576 L13.238,7.752 L13.3660523,7.73751309 L13.4810261,7.72800293 L13.7113793,7.72034483 C15.7416312,7.72034483 17.3872414,9.36571086 17.3872414,11.3958621 C17.3872414,13.4260636 15.7415808,15.0717241 13.7113793,15.0717241 L13.7113793,15.0717241 L4.44275862,15.0717241 C2.4125571,15.0717241 0.766896552,13.4260636 0.766896552,11.3958621 C0.766896552,9.36566055 2.4125571,7.72 4.44275862,7.72 C4.70125767,7.72 4.95643602,7.74725959 5.20536561,7.8004134 L5.20536561,7.8004134 L5.412,7.852 L5.43173053,7.79048243 C5.95969167,6.19906302 7.41986435,5.05941456 9.13445109,4.97410347 L9.13445109,4.97410347 Z M9.34137931,5.9 C7.78498683,5.9 6.46467986,7.02345829 6.20034098,8.54157959 C6.14838516,8.83996643 5.82982927,9.01006519 5.55296819,8.88725615 C5.20357487,8.73227352 4.82828178,8.65103448 4.44275862,8.65103448 C2.92675325,8.65103448 1.69793103,9.87985669 1.69793103,11.3958621 C1.69793103,12.9118674 2.92675325,14.1406897 4.44275862,14.1406897 L4.44275862,14.1406897 L13.7113793,14.1406897 C15.2273847,14.1406897 16.4562069,12.9118674 16.4562069,11.3958621 C16.4562069,9.87993794 15.2274659,8.65137931 13.7113793,8.65137931 C13.4846869,8.65137931 13.2565891,8.68207631 13.0243059,8.74185964 C12.7696877,8.80739142 12.511358,8.64920679 12.4539797,8.39262815 C12.1303894,6.94563029 10.8424466,5.9 9.34137931,5.9 Z M14.7517241,3.51689655 C16.7822705,3.51689655 18.4282759,5.16290193 18.4282759,7.19344828 C18.4282759,7.69090393 18.3290675,8.17545633 18.1391134,8.62473196 C18.0389932,8.86153433 17.7658635,8.97233711 17.5290611,8.8722169 C17.2922588,8.77209668 17.181456,8.49896697 17.2815762,8.2621646 C17.4232632,7.92704922 17.4972414,7.56572593 17.4972414,7.19344828 C17.4972414,5.67709807 16.2680743,4.44793103 14.7517241,4.44793103 C13.9291415,4.44793103 13.1666711,4.81124056 12.6479489,5.42927316 C12.4826649,5.62620111 12.1890341,5.6518536 11.9921062,5.4865696 C11.7951782,5.3212856 11.7695257,5.02765479 11.9348097,4.83072684 C12.6286267,4.00407724 13.651063,3.51689655 14.7517241,3.51689655 Z M20.8544828,6.46 C21.1115808,6.46 21.32,6.66841917 21.32,6.92551724 C21.32,7.15404886 21.1553231,7.34411814 20.9381601,7.38353438 L20.8544828,7.39103448 L19.0851724,7.39103448 C18.8280743,7.39103448 18.6196552,7.18261531 18.6196552,6.92551724 C18.6196552,6.69698562 18.784332,6.50691634 19.0014951,6.46750011 L19.0851724,6.46 L20.8544828,6.46 Z M19.8595659,2.92398375 C20.0186127,3.08307956 20.0384588,3.32863391 19.9191275,3.50930684 L19.8594645,3.58232454 L18.7398094,4.70163488 C18.5579856,4.88340267 18.2632364,4.88335728 18.0814686,4.70153349 C17.9224217,4.54243768 17.9025757,4.29688334 18.021907,4.1162104 L18.08157,4.0431927 L19.2012251,2.92388236 C19.3830489,2.74211457 19.6777981,2.74215996 19.8595659,2.92398375 Z M11.3851252,2.14315143 L11.4549853,2.20648246 L12.4894681,3.35337901 C12.6616668,3.54429001 12.6464975,3.83864863 12.4555865,4.01084737 C12.2885394,4.16152127 12.0422902,4.16874152 11.8679783,4.04029685 L11.7981181,3.97696582 L10.7636354,2.83006927 C10.5914366,2.63915826 10.6066059,2.34479965 10.7975169,2.17260091 C10.9645641,2.02192701 11.2108133,2.01470675 11.3851252,2.14315143 Z M15.582069,0.873448276 C15.8106006,0.873448276 16.0006699,1.03812515 16.0400861,1.2552882 L16.0475862,1.33896552 L16.0475862,2.66586207 C16.0475862,2.92296014 15.839167,3.13137931 15.582069,3.13137931 C15.3535373,3.13137931 15.1634681,2.96670244 15.1240518,2.74953938 L15.1165517,2.66586207 L15.1165517,1.33896552 C15.1165517,1.08186744 15.3249709,0.873448276 15.582069,0.873448276 Z" transform="translate(-.5)"/>
</svg>
