<svg xmlns="http://www.w3.org/2000/svg" width="30" height="31" viewBox="0 0 30 31">
  <g stroke="#000" stroke-width=".969" transform="translate(5.5 4.5)">
    <path d="M18.1092935,11.6316786 C18.1209812,13.4152772 17.5973764,15.1754997 16.5969175,16.6552086 C15.6595715,18.041413 14.3271846,19.1424287 12.7961083,19.8109859 C11.4029458,20.4187653 9.85083187,20.6431761 8.34313083,20.4842184 C6.80504202,20.3229231 5.32539123,19.7431952 4.07715501,18.8315262 C2.79853103,17.8988186 1.77937188,16.610794 1.16226633,15.1544612 C0.563860959,13.7472182 0.351146549,12.1880305 0.526460623,10.6685821 C0.701774698,9.1374457 1.29784255,7.66474961 2.21882582,6.43049003 C3.16084678,5.16584148 4.46050846,4.1489799 5.92145908,3.55288862 C7.34500937,2.97082302 8.90179835,2.76745071 10.4281996,2.95913496 C11.9569383,3.15315683 13.427239,3.76561139 14.6521,4.70065653 C14.9629903,4.93675542 15.2528429,5.19856806 15.5310079,5.47206876 C15.7437223,5.68479153 16.0756503,5.35518812 15.8605983,5.14246535 C14.6895003,3.97599655 13.2168621,3.12744308 11.6156602,2.71602322 C10.0612088,2.31629143 8.40858142,2.32564188 6.86114252,2.74407458 C5.26227816,3.17653295 3.79431497,4.04378732 2.6395796,5.22895703 C1.48250671,6.40945151 0.655024278,7.89383567 0.264658272,9.49743808 C-0.114020129,11.049613 -0.0859698774,12.6976301 0.346471507,14.2357793 C0.795275538,15.8323689 1.67885847,17.2933769 2.88034427,18.4364696 C4.07247997,19.5725494 5.56381837,20.3837011 7.16969529,20.7577191 C8.72648427,21.1200491 10.3744366,21.0756345 11.9078503,20.6268128 C13.5230774,20.1522774 14.9957156,19.2335956 16.1317508,17.9946608 C17.4033622,16.6084563 18.2355197,14.8505715 18.4879719,12.987494 C18.5487475,12.5386724 18.5791353,12.0875131 18.5769231,11.6316786 C18.5744602,11.3301265 18.106956,11.3301265 18.1092935,11.6316786 L18.1092935,11.6316786 Z"/>
    <path d="M16.4231691,5.38852407 C16.4424551,5.4756086 16.461741,5.56269314 16.4807042,5.64977775 C16.498404,5.73106067 13.2415936,6.51443054 12.1101315,6.79448255 C11.9514934,6.83413558 11.7928553,6.87378861 11.6342178,6.91096553 C11.3426039,6.98283756 11.466135,7.46069992 11.7577489,7.38882789 C12.8915438,7.10877536 15.2122154,6.46342597 16.3436775,6.18337396 C16.5023156,6.14372093 16.6609537,6.10406789 16.8195912,6.06689097 C16.9455687,6.03467353 17.0109191,5.88856836 16.9829538,5.76229281 C16.7196172,4.55896042 16.2539835,2.68309271 15.9906464,1.48223643 C15.9533593,1.31386903 15.9160723,1.14550164 15.881118,0.977133722 C15.811204,0.665159022 15.3609476,0.79649299 15.4308616,1.10846769 C15.6941982,2.31180008 16.159832,4.18766779 16.4231691,5.38852407 Z" transform="rotate(5 14.229 4.097)"/>
  </g>
</svg>
