<svg xmlns="http://www.w3.org/2000/svg" width="30" height="31" viewBox="0 0 30 31">
  <path d="M16.7903329,0.465895886 C17.1835825,0.387593162 17.5689488,0.634445673 17.6280859,1.07626699 C17.6379588,1.15995275 17.6470964,1.23394129 17.6600482,1.33468766 L17.6600482,1.33468766 L18.3078806,5.93287853 C18.3575617,6.31089121 18.1168126,6.69758239 17.7071395,6.76490189 L17.7071395,6.76490189 L17.1390862,6.85272866 L14.2002481,7.36119347 L12.5548321,7.63981801 C12.1322018,7.70558722 11.8025428,7.41176841 11.7390539,7.0321334 C11.6749555,6.64885412 11.8967445,6.26185248 12.3298704,6.19448211 L12.3298704,6.19448211 L15.9802727,5.6207777 C15.7696177,5.41781786 15.5645207,5.24266754 15.3580406,5.08585924 C14.1940828,4.19730693 12.8026071,3.62207251 11.3678162,3.43997373 C9.92145205,3.25834047 8.44882444,3.45193559 7.10453715,4.00159174 C5.7325139,4.56139922 4.50145988,5.51981819 3.60722862,6.72030952 C2.73070191,7.89499045 2.1722478,9.28861354 2.00788213,10.7241286 C1.84072954,12.1728413 2.04755009,13.6462819 2.60847509,14.9653849 C3.19219754,16.3429356 4.15674232,17.5602699 5.36298319,18.4401768 C6.54960464,19.3068445 7.94962661,19.8508126 9.39394245,20.0022742 C10.8339051,20.1540902 12.3000492,19.9349304 13.6021791,19.3668648 C15.0543274,18.7327722 16.3126931,17.6892503 17.195453,16.383771 C18.1366734,14.9916778 18.6357878,13.3286618 18.6246927,11.635435 C18.6213975,11.2103382 18.9557127,10.9208992 19.3413082,10.9208992 C19.7242074,10.9208992 20.0580782,11.2060239 20.0616512,11.6293268 C20.0638349,12.1037006 20.0325584,12.5772759 19.9681987,13.0525661 C19.7031593,15.0085351 18.8308953,16.8592912 17.4889375,18.3221813 C16.2924883,19.6270023 14.7432562,20.5926879 13.0439831,21.0919149 C11.4319983,21.5637339 9.69934796,21.6113012 8.0597677,21.2297022 C6.37428044,20.8371424 4.80430425,19.9864143 3.54630754,18.7875701 C2.27978928,17.5826055 1.35162456,16.0449152 0.879943161,14.3669409 C0.425084774,12.7490567 0.395276552,11.0163065 0.793793477,9.38281515 C1.20436037,7.69622858 2.07410736,6.13379686 3.29247708,4.89076786 C4.51036999,3.64077603 6.05546446,2.73044221 7.73461123,2.27626917 L7.73461123,2.27626917 L8.08506766,2.18852115 C9.61019591,1.8368426 11.2171092,1.85599956 12.736262,2.24665419 C14.1645484,2.61364439 15.501177,3.31226243 16.630218,4.27219542 L16.3212962,2.13316087 L16.2061788,1.2865839 L16.1993838,1.17939583 C16.2011953,0.820685462 16.4527256,0.533119267 16.7903329,0.465895886 Z" transform="translate(4.5 4.5)"/>
</svg>
