<svg xmlns="http://www.w3.org/2000/svg" width="21" height="22" viewBox="0 0 21 22">
  <path d="M9.9,15.5825217 C10.1431254,15.5825217 10.3448207,15.7599046 10.3827285,15.9923127 L10.3891304,16.0716522 L10.3891304,18.5791304 C10.3891304,18.8492697 10.1701393,19.0682609 9.9,19.0682609 C9.65687465,19.0682609 9.45517928,18.890878 9.41727146,18.6584699 L9.41086957,18.5791304 L9.41086957,16.0716522 C9.41086957,15.8015129 9.62986072,15.5825217 9.9,15.5825217 Z M5.88165006,13.9183499 C6.05144323,14.0881431 6.07030913,14.3517105 5.93824778,14.5423423 L5.88165006,14.6100848 L4.10865006,16.3830848 C3.91763274,16.5741022 3.60793248,16.5741022 3.41691516,16.3830848 C3.24712199,16.2132917 3.22825608,15.9497243 3.36031744,15.7590924 L3.41691516,15.6913499 L5.18991516,13.9183499 C5.38093248,13.7273326 5.69063274,13.7273326 5.88165006,13.9183499 Z M14.5423423,13.8617522 L14.6100848,13.9183499 L16.3830848,15.6913499 C16.5741022,15.8823673 16.5741022,16.1920675 16.3830848,16.3830848 C16.2132917,16.552878 15.9497243,16.5717439 15.7590924,16.4396826 L15.6913499,16.3830848 L13.9183499,14.6100848 C13.7273326,14.4190675 13.7273326,14.1093673 13.9183499,13.9183499 C14.0881431,13.7485568 14.3517105,13.7296909 14.5423423,13.8617522 Z M9.9,4.91047826 C12.6556368,4.91047826 14.8895217,7.14436323 14.8895217,9.9 C14.8895217,12.6556368 12.6556368,14.8895217 9.9,14.8895217 C7.14436323,14.8895217 4.91047826,12.6556368 4.91047826,9.9 C4.91047826,7.14436323 7.14436323,4.91047826 9.9,4.91047826 Z M9.9,5.88873913 C7.68464179,5.88873913 5.88873913,7.68464179 5.88873913,9.9 C5.88873913,12.1153582 7.68464179,13.9112609 9.9,13.9112609 C12.1153582,13.9112609 13.9112609,12.1153582 13.9112609,9.9 C13.9112609,7.68464179 12.1153582,5.88873913 9.9,5.88873913 Z M18.5791304,9.41086957 C18.8492697,9.41086957 19.0682609,9.62986072 19.0682609,9.9 C19.0682609,10.1431254 18.890878,10.3448207 18.6584699,10.3827285 L18.5791304,10.3891304 L16.0716522,10.3891304 C15.8015129,10.3891304 15.5825217,10.1701393 15.5825217,9.9 C15.5825217,9.65687465 15.7599046,9.45517928 15.9923127,9.41727146 L16.0716522,9.41086957 L18.5791304,9.41086957 Z M3.72834783,9.41086957 C3.99848711,9.41086957 4.21747826,9.62986072 4.21747826,9.9 C4.21747826,10.1431254 4.04009543,10.3448207 3.80768732,10.3827285 L3.72834783,10.3891304 L1.22086957,10.3891304 C0.950730285,10.3891304 0.73173913,10.1701393 0.73173913,9.9 C0.73173913,9.65687465 0.909121966,9.45517928 1.14153007,9.41727146 L1.22086957,9.41086957 L3.72834783,9.41086957 Z M16.3830848,3.41691516 C16.552878,3.58670833 16.5717439,3.85027568 16.4396826,4.04090756 L16.3830848,4.10865006 L14.6100848,5.88165006 C14.4190675,6.07266737 14.1093673,6.07266737 13.9183499,5.88165006 C13.7485568,5.71185689 13.7296909,5.44828954 13.8617522,5.25765766 L13.9183499,5.18991516 L15.6913499,3.41691516 C15.8823673,3.22589784 16.1920675,3.22589784 16.3830848,3.41691516 Z M4.04090756,3.36031744 L4.10865006,3.41691516 L5.88165006,5.18991516 C6.07266737,5.38093248 6.07266737,5.69063274 5.88165006,5.88165006 C5.71185689,6.05144323 5.44828954,6.07030913 5.25765766,5.93824778 L5.18991516,5.88165006 L3.41691516,4.10865006 C3.22589784,3.91763274 3.22589784,3.60793248 3.41691516,3.41691516 C3.58670833,3.24712199 3.85027568,3.22825608 4.04090756,3.36031744 Z M9.9,0.73173913 C10.1431254,0.73173913 10.3448207,0.909121966 10.3827285,1.14153007 L10.3891304,1.22086957 L10.3891304,3.72834783 C10.3891304,3.99848711 10.1701393,4.21747826 9.9,4.21747826 C9.65687465,4.21747826 9.45517928,4.04009543 9.41727146,3.80768732 L9.41086957,3.72834783 L9.41086957,1.22086957 C9.41086957,0.950730285 9.62986072,0.73173913 9.9,0.73173913 Z" transform="translate(.6 .6)"/>
</svg>
