<svg width="24" height="24" viewBox="0 0 24 24" fill="none" xmlns="http://www.w3.org/2000/svg">
<path d="M12 4.5C12.2455 4.5 12.4496 4.67688 12.4919 4.91012L12.5 5V11.5H19C19.2761 11.5 19.5 11.7239 19.5 12C19.5 12.2455 19.3231 12.4496 19.0899 12.4919L19 12.5H12.5V19C12.5 19.2761 12.2761 19.5 12 19.5C11.7545 19.5 11.5504 19.3231 11.5081 19.0899L11.5 19V12.5H5C4.72386 12.5 4.5 12.2761 4.5 12C4.5 11.7545 4.67688 11.5504 4.91012 11.5081L5 11.5H11.5V5C11.5 4.72386 11.7239 4.5 12 4.5Z" fill="black"/>
</svg>
