<svg width="24" height="24" viewBox="0 0 24 24" fill="none" xmlns="http://www.w3.org/2000/svg">
<path d="M6.28431 5.58859L6.35355 5.64645L12 11.293L17.6464 5.64645C17.8417 5.45118 18.1583 5.45118 18.3536 5.64645C18.5271 5.82001 18.5464 6.08944 18.4114 6.28431L18.3536 6.35355L12.707 12L18.3536 17.6464C18.5488 17.8417 18.5488 18.1583 18.3536 18.3536C18.18 18.5271 17.9106 18.5464 17.7157 18.4114L17.6464 18.3536L12 12.707L6.35355 18.3536C6.15829 18.5488 5.84171 18.5488 5.64645 18.3536C5.47288 18.18 5.4536 17.9106 5.58859 17.7157L5.64645 17.6464L11.293 12L5.64645 6.35355C5.45118 6.15829 5.45118 5.84171 5.64645 5.64645C5.82001 5.47288 6.08944 5.4536 6.28431 5.58859Z" fill="black"/>
</svg>
