<svg width="24" height="24" viewBox="0 0 24 24" fill="none" xmlns="http://www.w3.org/2000/svg">
<path fill-rule="evenodd" clip-rule="evenodd" d="M14.4919 4.91012C14.4496 4.67688 14.2455 4.5 14 4.5H10L9.91012 4.50806L9.82553 4.53128C9.63542 4.60207 9.5 4.78522 9.5 5V5.5H7L6.91012 5.50806C6.67688 5.55039 6.5 5.75454 6.5 6V8L6.50806 8.08988C6.55039 8.32312 6.75454 8.5 7 8.5H17L17.0899 8.49194C17.3231 8.44961 17.5 8.24546 17.5 8V6L17.4919 5.91012L17.4687 5.82553C17.3979 5.63542 17.2148 5.5 17 5.5H14.5V5L14.4919 4.91012ZM13.5 5.5H10.5V6C10.5 6.21478 10.3646 6.39793 10.1745 6.46872L10.0899 6.49194L10 6.5H7.5V7.5H16.5V6.5H14C13.7852 6.5 13.6021 6.36458 13.5313 6.17447L13.5081 6.08988L13.5 6V5.5Z" fill="black"/>
<path d="M13.9997 11.7782V17.2124H12.9997V11.7782H13.9997Z" fill="black"/>
<path d="M11 11.8105V17.2447H10V11.8105H11Z" fill="black"/>
<path fill-rule="evenodd" clip-rule="evenodd" d="M17 9.5C17.2455 9.5 17.4496 9.67688 17.4919 9.91012L17.5 10V19C17.5 19.2455 17.3231 19.4496 17.0899 19.4919L17 19.5H7C6.75454 19.5 6.55039 19.3231 6.50806 19.0899L6.5 19V10C6.5 9.75454 6.67688 9.55039 6.91012 9.50806L7 9.5H17ZM16.5 10.5H7.5V18.5H16.5V10.5Z" fill="black"/>
</svg>
