<svg width="24" height="24" viewBox="0 0 24 24" fill="none" xmlns="http://www.w3.org/2000/svg">
<path d="M16.5065 4.91012C16.4642 4.67688 16.26 4.5 16.0146 4.5C15.7384 4.5 15.5146 4.72386 15.5146 5V6H5L4.91012 6.00806C4.67688 6.05039 4.5 6.25454 4.5 6.5C4.5 6.77614 4.72386 7 5 7H15.5146V8L15.5226 8.08988C15.565 8.32312 15.7691 8.5 16.0146 8.5C16.2907 8.5 16.5146 8.27614 16.5146 8V7H19L19.0899 6.99194C19.3231 6.94961 19.5 6.74546 19.5 6.5C19.5 6.22386 19.2761 6 19 6H16.5146V5L16.5065 4.91012Z" fill="black"/>
<path d="M9.01843 10.4101C8.9761 10.1769 8.77195 10 8.52649 10C8.25034 10 8.02649 10.2239 8.02649 10.5V11.5H5L4.91012 11.5081C4.67688 11.5504 4.5 11.7545 4.5 12C4.5 12.2761 4.72386 12.5 5 12.5H8.02649V13.5L8.03454 13.5899C8.07688 13.8231 8.28103 14 8.52649 14C8.80263 14 9.02649 13.7761 9.02649 13.5V12.5H19L19.0899 12.4919C19.3231 12.4496 19.5 12.2455 19.5 12C19.5 11.7239 19.2761 11.5 19 11.5H9.02649V10.5L9.01843 10.4101Z" fill="black"/>
<path d="M12.4872 15.5C12.7327 15.5 12.9368 15.6769 12.9791 15.9101L12.9872 16V17H19C19.2761 17 19.5 17.2239 19.5 17.5C19.5 17.7455 19.3231 17.9496 19.0899 17.9919L19 18H12.9872V19C12.9872 19.2761 12.7633 19.5 12.4872 19.5C12.2417 19.5 12.0376 19.3231 11.9953 19.0899L11.9872 19V18H5C4.72386 18 4.5 17.7761 4.5 17.5C4.5 17.2545 4.67688 17.0504 4.91012 17.0081L5 17H11.9872V16C11.9872 15.7239 12.2111 15.5 12.4872 15.5Z" fill="black"/>
</svg>
