<svg width="24" height="24" viewBox="0 0 24 24" fill="none" xmlns="http://www.w3.org/2000/svg">
<path fill-rule="evenodd" clip-rule="evenodd" d="M8.10429 4.5L8.32539 4.50535C9.35657 4.55533 10.3743 4.95513 11.191 5.70476L11.3628 5.87075L12 6.518L12.6372 5.87075C13.4803 5.01403 14.5698 4.5589 15.6746 4.50535L15.8957 4.5C16.9279 4.5 17.96 4.84983 18.8044 5.54948L18.9824 5.70476L19.1542 5.87075C20.8925 7.637 20.9468 10.4633 19.3172 12.2958L19.1542 12.47L12.3825 19.3507C12.2955 19.4392 12.1837 19.4883 12.0692 19.4982H11.9308C11.8449 19.4908 11.7606 19.4613 11.6871 19.4097L11.6175 19.3507L4.84575 12.47C3.05142 10.6467 3.05142 7.69398 4.84575 5.87075C5.6889 5.01403 6.77834 4.5589 7.88318 4.50535L8.10429 4.5ZM8 6.5C8.27614 6.5 8.5 6.72386 8.5 7C8.5 7.27614 8.27614 7.5 8 7.5C7.17157 7.5 6.5 8.17157 6.5 9C6.5 9.24546 6.32312 9.44961 6.08988 9.49194L6 9.5C5.73282 9.5 5.51459 9.29044 5.5007 9.02672L5.5 9C5.5 7.61929 6.61929 6.5 8 6.5ZM10.6501 6.57219L11.6436 7.58173L11.7132 7.64071C11.9093 7.77832 12.1822 7.75866 12.3564 7.58173L13.3499 6.57219L13.4985 6.4294C13.5995 6.33761 13.7044 6.25262 13.8126 6.17442L13.9529 6.07825C13.998 6.04886 14.0436 6.02058 14.0898 5.9929L14.1464 5.96024C14.546 5.73416 14.9788 5.59137 15.4204 5.53187L15.6101 5.51147L15.802 5.50118L16.0034 5.50144L16.1246 5.50736C16.2069 5.51267 16.2892 5.52084 16.3772 5.53231L16.5662 5.56323C16.9874 5.64387 17.3976 5.80162 17.7746 6.03717L17.8142 6.06223L17.9789 6.17442L18.1664 6.3195L18.325 6.45833L18.4595 6.59001L18.5986 6.73963C19.3779 7.62718 19.6559 8.8261 19.4204 9.93978L19.369 10.1566C19.3392 10.2653 19.3043 10.3729 19.2641 10.479L19.2361 10.5515L19.1551 10.7395L19.0621 10.9266L18.947 11.1256L18.847 11.2783L18.7227 11.4478L18.5699 11.6313L18.424 11.7867L11.997 18.316L5.55848 11.7685L5.41267 11.6115C5.18701 11.354 5.0032 11.0719 4.86123 10.7742L4.79432 10.6255L4.71095 10.4102L4.62461 10.1295L4.58796 9.97842L4.55293 9.79885L4.51935 9.55133L4.50273 9.31375L4.50135 9.0696L4.51656 8.81783L4.53995 8.62378L4.57281 8.43435L4.62691 8.20257L4.68845 7.99654L4.74673 7.8332L4.83636 7.61975L4.95497 7.3834L5.05558 7.21106L5.15345 7.06173L5.28695 6.88065C5.37076 6.77398 5.46128 6.67096 5.55848 6.57219C5.9466 6.17782 6.40099 5.89224 6.88508 5.71546L7.06794 5.65426L7.25588 5.60282L7.53462 5.54587C7.69178 5.52039 7.85028 5.50552 8.009 5.50127L8.2052 5.50136C8.31587 5.50445 8.42644 5.51271 8.53678 5.52636L8.58554 5.53247C9.12833 5.60636 9.65806 5.80628 10.1291 6.13313L10.1874 6.17442C10.2956 6.25262 10.4005 6.33761 10.5015 6.4294L10.6501 6.57219Z" fill="black"/>
</svg>
