<svg width="24" height="24" viewBox="0 0 24 24" fill="none" xmlns="http://www.w3.org/2000/svg">
<path d="M8.32539 4.50535L8.10429 4.5L7.88318 4.50535C6.77834 4.5589 5.6889 5.01403 4.84575 5.87075C3.05142 7.69398 3.05142 10.6467 4.84575 12.47L11.6175 19.3507L11.6871 19.4097C11.7606 19.4613 11.8449 19.4908 11.9308 19.4982H12.0692C12.1837 19.4883 12.2955 19.4392 12.3825 19.3507L19.1542 12.47L19.3172 12.2958C20.9468 10.4633 20.8925 7.637 19.1542 5.87075L18.9824 5.70476L18.8044 5.54948C17.96 4.84983 16.9279 4.5 15.8957 4.5L15.6746 4.50535C14.5698 4.5589 13.4803 5.01403 12.6372 5.87075L12 6.518L11.3628 5.87075L11.191 5.70476C10.3743 4.95513 9.35657 4.55533 8.32539 4.50535Z" fill="black"/>
</svg>
