<svg width="24" height="24" viewBox="0 0 24 24" fill="none" xmlns="http://www.w3.org/2000/svg">
<path fill-rule="evenodd" clip-rule="evenodd" d="M7.05191 7.75902L4.14644 4.85355C3.95118 4.65829 3.95118 4.34171 4.14644 4.14645C4.3417 3.95118 4.65829 3.95118 4.85355 4.14645L8.16123 7.45413C8.19222 7.47401 8.22134 7.49754 8.24792 7.5246L9.16193 8.45483L19.3535 18.6464C19.5488 18.8417 19.5488 19.1583 19.3535 19.3536C19.1583 19.5488 18.8417 19.5488 18.6464 19.3536L15.9772 16.6843C14.7062 17.2278 13.3791 17.5 12 17.5C8.50602 17.5 5.36874 15.7571 2.60975 12.3126C2.46342 12.1299 2.46342 11.8701 2.60975 11.6874C3.11644 11.0548 3.63564 10.4798 4.16747 9.96233C4.61992 9.52214 5.08156 9.12361 5.55245 8.76688C6.04429 8.39428 6.56486 8.0432 7.05191 7.75902ZM7.7856 8.49271C7.27705 8.77127 6.69819 9.15346 6.1563 9.56398C5.71879 9.89542 5.28827 10.2671 4.86481 10.6791C4.45167 11.081 4.0453 11.5213 3.64578 12C6.15978 15.0125 8.938 16.5 12 16.5C13.0777 16.5 14.1177 16.3162 15.1225 15.948L14.039 14.8452C13.4856 15.2425 12.8232 15.4734 12.1221 15.4979C10.1903 15.5653 8.56959 14.054 8.50213 12.1221C8.47392 11.3144 8.7229 10.5402 9.19119 9.91143L8.4517 9.15881L7.7856 8.49271ZM9.91412 10.6212C9.63095 11.0485 9.48301 11.5572 9.50152 12.0872C9.5497 13.4671 10.7074 14.5467 12.0872 14.4985C12.5564 14.4821 13.0001 14.337 13.3789 14.086L9.91412 10.6212Z" fill="black"/>
<path d="M17.4917 14.693C17.2657 14.8517 17.2112 15.1636 17.37 15.3895C17.5287 15.6155 17.8406 15.67 18.0665 15.5112C19.2294 14.6943 20.337 13.6276 21.3903 12.3125C21.5367 12.1298 21.5367 11.8701 21.3903 11.6874C18.6313 8.24289 15.4941 6.49996 12.0001 6.49996C11.2141 6.49996 10.5259 6.55592 9.93425 6.66925C9.66304 6.72119 9.48528 6.98317 9.53723 7.25438C9.58918 7.52559 9.85115 7.70334 10.1224 7.6514C10.6471 7.5509 11.2734 7.49996 12.0001 7.49996C15.0621 7.49996 17.8403 8.98748 20.3543 11.9999C19.4358 13.1005 18.4813 13.9978 17.4917 14.693Z" fill="black"/>
</svg>
