<svg width="24" height="24" viewBox="0 0 24 24" fill="none" xmlns="http://www.w3.org/2000/svg">
<path fill-rule="evenodd" clip-rule="evenodd" d="M21.3902 11.6874C18.6313 8.24293 15.494 6.5 12 6.5L11.663 6.50544C8.30401 6.61422 5.27974 8.35405 2.60975 11.6874C2.46342 11.8701 2.46342 12.1299 2.60975 12.3126C5.36874 15.7571 8.50602 17.5 12 17.5L12.337 17.4946C15.696 17.3858 18.7203 15.646 21.3902 12.3126C21.5366 12.1299 21.5366 11.8701 21.3902 11.6874ZM15.5 12C15.5 10.067 13.933 8.5 12 8.5L11.808 8.50518C9.96428 8.60487 8.5 10.1314 8.5 12C8.5 13.933 10.067 15.5 12 15.5L12.192 15.4948C14.0357 15.3951 15.5 13.8686 15.5 12ZM12 9.5C10.6193 9.5 9.5 10.6193 9.5 12C9.5 13.3807 10.6193 14.5 12 14.5C13.3807 14.5 14.5 13.3807 14.5 12C14.5 10.6193 13.3807 9.5 12 9.5ZM9.23184 7.93052L9.53143 7.84007L9.83604 7.75951L10.1393 7.69058L10.2412 7.66992C10.8168 7.55655 11.403 7.5 12 7.5L12.3156 7.5053L12.6292 7.52122C13.0102 7.54709 13.3867 7.59663 13.7589 7.66992C13.9961 7.71666 14.2316 7.77307 14.4686 7.84014C15.17 8.0388 15.8553 8.32473 16.5247 8.6985L16.8107 8.86406L16.9342 8.9393C17.2543 9.13716 17.5708 9.35554 17.8834 9.59439L18.2114 9.85361L18.4859 10.0839L18.7584 10.3251L19.029 10.5771C19.3886 10.9203 19.7432 11.2925 20.0927 11.6937L20.354 12L20.0898 12.3101C19.7407 12.7107 19.3865 13.0824 19.0272 13.4252L18.7794 13.6564C18.6301 13.7925 18.4798 13.9237 18.3286 14.0502L18.2103 14.1479C18.0268 14.2977 17.842 14.4403 17.656 14.5757L17.376 14.7734L17.094 14.9604L16.8102 15.1366L16.5243 15.302L16.2365 15.4567L15.9468 15.6007L15.6819 15.7223C15.5075 15.7991 15.3321 15.8702 15.1559 15.9355L14.9172 16.0202L14.7682 16.0695L14.4686 16.1599L14.164 16.2405L13.8607 16.3094L13.7588 16.3301C13.1832 16.4435 12.597 16.5 12 16.5L11.6844 16.4947L11.3708 16.4788C10.9898 16.4529 10.6133 16.4034 10.2411 16.3301C10.0039 16.2833 9.76838 16.2269 9.53136 16.1599L9.23174 16.0694C9.03264 16.0055 8.83486 15.9345 8.63839 15.8563L8.44426 15.7766C8.21681 15.6802 7.99108 15.5742 7.76304 15.4563C7.66675 15.4065 7.57079 15.3549 7.47515 15.3015L7.34191 15.2259C6.91083 14.9769 6.4862 14.6912 6.06794 14.3685L5.95218 14.2781C5.15992 13.6522 4.39107 12.8932 3.645 12L3.9102 11.6899C4.25934 11.2893 4.61352 10.9176 4.97279 10.5748L5.11842 10.4376C5.25113 10.3143 5.38452 10.1949 5.51858 10.0795L5.67141 9.94984L6.0659 9.63279L6.34399 9.42429L6.61466 9.23291L6.90595 9.03961L7.21627 8.84756L7.47568 8.69797C7.66689 8.59126 7.8594 8.4917 8.05321 8.39929L8.34492 8.26604L8.64244 8.14191L8.93422 8.03167L9.23184 7.93052Z" fill="black"/>
</svg>
