<svg width="24" height="24" viewBox="0 0 24 24" fill="none" xmlns="http://www.w3.org/2000/svg">
<path fill-rule="evenodd" clip-rule="evenodd" d="M5.5 6.61816C5.5 5.78974 6.17157 5.11816 7 5.11816C7.23287 5.11816 7.46254 5.17238 7.67082 5.27652L18.4348 10.6585C19.1757 11.029 19.4761 11.93 19.1056 12.671C18.9604 12.9612 18.725 13.1966 18.4348 13.3418L7.67082 18.7237C6.92985 19.0942 6.02884 18.7939 5.65836 18.0529C5.55422 17.8446 5.5 17.615 5.5 17.3821V6.61816ZM7.22361 6.17095C7.15418 6.13624 7.07762 6.11816 7 6.11816C6.72386 6.11816 6.5 6.34202 6.5 6.61816V17.3821C6.5 17.4597 6.51807 17.5363 6.55279 17.6057C6.67628 17.8527 6.97662 17.9528 7.22361 17.8293L17.9875 12.4473C18.0843 12.399 18.1628 12.3205 18.2111 12.2237C18.3346 11.9767 18.2345 11.6764 17.9875 11.5529L7.22361 6.17095Z" fill="black"/>
</svg>
