<svg width="24" height="24" viewBox="0 0 24 24" fill="none" xmlns="http://www.w3.org/2000/svg">
<path fill-rule="evenodd" clip-rule="evenodd" d="M17.75 11.125C17.75 7.46611 14.7839 4.5 11.125 4.5L10.8924 4.50401C7.34124 4.62653 4.5 7.54396 4.5 11.125C4.5 14.7839 7.46611 17.75 11.125 17.75L11.4183 17.7431C12.8884 17.6739 14.3981 17.0928 15.4838 16.1902L18.6464 19.3536L18.7157 19.4114C18.9106 19.5464 19.18 19.5271 19.3536 19.3536C19.5488 19.1583 19.5488 18.8417 19.3536 18.6464L16.1896 15.4834C17.113 14.3525 17.75 12.5889 17.75 11.125ZM11.3859 16.7435L11.125 16.75C8.0184 16.75 5.5 14.2316 5.5 11.125C5.5 8.0184 8.0184 5.5 11.125 5.5C14.2316 5.5 16.75 8.0184 16.75 11.125C16.75 11.2059 16.7476 11.288 16.7429 11.3712L16.722 11.6237L16.6952 11.833C16.6751 11.9689 16.6498 12.1064 16.6195 12.2443L16.5823 12.4041L16.5121 12.6668L16.4309 12.9283L16.3625 13.1253L16.2781 13.3449L16.2383 13.4415C16.0267 13.9452 15.7602 14.4144 15.46 14.7948L15.1494 15.1435C15.2327 15.0616 15.3141 14.9725 15.3934 14.8771L15.172 15.148L14.8444 15.4212L14.5819 15.6246L14.459 15.7113L14.2629 15.8386L14.0823 15.9466L13.7792 16.1081L13.5131 16.2321C13.369 16.2953 13.2217 16.3534 13.0719 16.4061C12.8698 16.477 12.6637 16.5378 12.4493 16.5892C12.2887 16.6275 12.1269 16.6593 11.9642 16.6843L11.7855 16.709L11.6482 16.7241L11.3859 16.7435ZM15.4362 14.8248C15.422 14.8424 15.4077 14.8598 15.3934 14.8771L15.4362 14.8248Z" fill="black"/>
</svg>
