<svg width="24" height="24" viewBox="0 0 24 24" fill="none" xmlns="http://www.w3.org/2000/svg">
<path fill-rule="evenodd" clip-rule="evenodd" d="M4.36744 9.79114L9.65588 9.53665L11.5323 4.58555C11.6954 4.15508 12.3044 4.15508 12.4674 4.58555L14.3429 9.53665L19.6323 9.79114C20.0615 9.81175 20.254 10.3176 19.9859 10.6192L19.9213 10.6805L15.7909 13.9947L17.1846 19.1033C17.2981 19.5197 16.8722 19.8603 16.5013 19.6933L16.428 19.653L11.9999 16.7497L7.57175 19.653C7.21084 19.8896 6.75528 19.5898 6.79952 19.1854L6.8152 19.1033L8.20788 13.9947L4.07847 10.6805C3.74339 10.4116 3.88498 9.88915 4.27918 9.80273L4.36744 9.79114ZM13.5244 10.198L11.9999 6.17365L10.4754 10.198C10.4048 10.3841 10.2306 10.5107 10.0318 10.5203L5.73388 10.7267L9.08958 13.4201C9.22264 13.5269 9.29055 13.6926 9.27426 13.8587L9.25901 13.9415L8.12688 18.0927L11.7257 15.7337C11.8645 15.6427 12.0371 15.6276 12.1872 15.6882L12.274 15.7337L15.8719 18.0927L14.7407 13.9415C14.6959 13.7769 14.7383 13.6029 14.8492 13.4781L14.9102 13.4201L18.2649 10.7267L13.968 10.5203C13.7975 10.5121 13.6452 10.4179 13.5607 10.2739L13.5244 10.198Z" fill="black"/>
</svg>
