<svg width="25" height="25" viewBox="0 0 25 25" fill="none" xmlns="http://www.w3.org/2000/svg">
<path d="M4.38867 15.2402C5.64803 15.2402 6.66895 14.2193 6.66895 12.96C6.66895 11.7006 5.64803 10.6797 4.38867 10.6797C3.12931 10.6797 2.1084 11.7006 2.1084 12.96C2.1084 14.2193 3.12931 15.2402 4.38867 15.2402Z" fill="black"/>
<path d="M14.7168 12.96C14.7168 14.2193 13.6959 15.2402 12.4365 15.2402C11.1772 15.2402 10.1562 14.2193 10.1562 12.96C10.1562 11.7006 11.1772 10.6797 12.4365 10.6797C13.6959 10.6797 14.7168 11.7006 14.7168 12.96Z" fill="black"/>
<path d="M22.7646 12.96C22.7646 14.2193 21.7437 15.2402 20.4844 15.2402C19.225 15.2402 18.2041 14.2193 18.2041 12.96C18.2041 11.7006 19.225 10.6797 20.4844 10.6797C21.7437 10.6797 22.7646 11.7006 22.7646 12.96Z" fill="black"/>
</svg>
