<svg width="25" height="25" viewBox="0 0 25 25" fill="none" xmlns="http://www.w3.org/2000/svg">
<path fill-rule="evenodd" clip-rule="evenodd" d="M2.70459 3.46055C2.70459 2.96349 3.10753 2.56055 3.60459 2.56055H21.269C21.7661 2.56055 22.169 2.96349 22.169 3.46055V6.96474C22.169 7.19574 22.0802 7.4179 21.921 7.58523L15.9917 13.8147V19.6669C15.9917 19.9687 15.8404 20.2505 15.5887 20.4172L10.1402 24.0264C9.8639 24.2094 9.50934 24.2258 9.21735 24.069C8.92536 23.9122 8.74319 23.6075 8.74319 23.2761V13.8088L2.94569 7.5778C2.79073 7.41126 2.70459 7.19222 2.70459 6.96474V3.46055ZM4.50459 4.36055V6.6108L10.3021 12.8418C10.457 13.0083 10.5432 13.2274 10.5432 13.4549V21.6004L14.1917 19.1835V13.4549C14.1917 13.2239 14.2805 13.0017 14.4398 12.8344L20.369 6.60489V4.36055H4.50459Z" fill="black"/>
</svg>
