<svg width="17" height="17" viewBox="0 0 17 17" fill="none" xmlns="http://www.w3.org/2000/svg">
<path fill-rule="evenodd" clip-rule="evenodd" d="M5.90322 5.26131C5.90323 4.76426 6.30618 4.36132 6.80323 4.36133L13.0649 4.36143C13.3363 4.36144 13.5931 4.48387 13.764 4.69465C13.9349 4.90543 14.0016 5.18206 13.9455 5.44754L12.6277 11.6825C12.5249 12.1688 12.0473 12.4797 11.561 12.3769C11.0747 12.2742 10.7638 11.7966 10.8666 11.3103L11.6604 7.55453L4.02158 13.7312C3.63507 14.0437 3.06838 13.9837 2.75585 13.5972C2.44333 13.2107 2.5033 12.644 2.88981 12.3315L10.5205 6.16139L6.8032 6.16133C6.30615 6.16132 5.90321 5.75837 5.90322 5.26131Z" fill="black"/>
</svg>
