<svg width="25" height="25" viewBox="0 0 25 25" fill="none" xmlns="http://www.w3.org/2000/svg">
<path d="M3.33613 12.9596C3.33613 11.2836 4.69476 9.925 6.3707 9.925H10.0003C10.4974 9.925 10.9003 9.52206 10.9003 9.025C10.9003 8.52794 10.4974 8.125 10.0003 8.125H6.3707C3.70064 8.125 1.53613 10.2895 1.53613 12.9596C1.53613 15.6296 3.70064 17.7941 6.3707 17.7941H10.0003C10.4974 17.7941 10.9003 17.3912 10.9003 16.8941C10.9003 16.3971 10.4974 15.9941 10.0003 15.9941H6.3707C4.69475 15.9941 3.33613 14.6355 3.33613 12.9596Z" fill="black"/>
<path d="M14.8547 8.125C14.3576 8.125 13.9547 8.52794 13.9547 9.025C13.9547 9.52206 14.3576 9.925 14.8547 9.925H18.5016C20.1775 9.925 21.5361 11.2836 21.5361 12.9596C21.5361 14.6355 20.1775 15.9941 18.5016 15.9941H14.8547C14.3576 15.9941 13.9547 16.3971 13.9547 16.8941C13.9547 17.3912 14.3576 17.7941 14.8547 17.7941H18.5016C21.1716 17.7941 23.3361 15.6296 23.3361 12.9596C23.3361 10.2895 21.1716 8.125 18.5016 8.125H14.8547Z" fill="black"/>
<path d="M8.30332 12.0596C7.80626 12.0596 7.40332 12.4625 7.40332 12.9596C7.40332 13.4566 7.80626 13.8596 8.30332 13.8596H16.5694C17.0665 13.8596 17.4694 13.4566 17.4694 12.9596C17.4694 12.4625 17.0665 12.0596 16.5694 12.0596H8.30332Z" fill="black"/>
</svg>
