<svg width="25" height="25" viewBox="0 0 25 25" fill="none" xmlns="http://www.w3.org/2000/svg">
<path d="M13.3084 13.8358C14.9411 12.793 15.8755 11.6342 16.1249 10.4329C16.4078 9.07024 15.7573 7.92738 14.8209 7.25193C13.9025 6.5894 12.6385 6.31019 11.4542 6.62619C10.2232 6.95465 9.16717 7.90157 8.68333 9.50082C8.53939 9.97658 8.80839 10.4789 9.28415 10.6229C9.75991 10.7668 10.2623 10.4978 10.4062 10.0221C10.722 8.97813 11.3298 8.52234 11.9182 8.36535C12.5533 8.19588 13.2643 8.34846 13.7679 8.71174C14.2535 9.0621 14.4721 9.53906 14.3625 10.067C14.2413 10.6507 13.6696 11.5552 11.9557 12.5526C11.6788 12.7138 11.5084 13.01 11.5084 13.3305V15.2332C11.5084 15.7302 11.9113 16.1332 12.4084 16.1332C12.9054 16.1332 13.3084 15.7302 13.3084 15.2332V13.8358Z" fill="black"/>
<path d="M13.6865 18.4326C13.6865 19.123 13.1269 19.6826 12.4365 19.6826C11.7462 19.6826 11.1865 19.123 11.1865 18.4326C11.1865 17.7423 11.7462 17.1826 12.4365 17.1826C13.1269 17.1826 13.6865 17.7423 13.6865 18.4326Z" fill="black"/>
<path fill-rule="evenodd" clip-rule="evenodd" d="M12.4199 2.38281C6.58534 2.38281 1.85547 7.11268 1.85547 12.9473C1.85547 18.7819 6.58534 23.5117 12.4199 23.5117C14.2136 23.5117 15.9051 23.064 17.3864 22.2737L21.8734 23.7036C22.772 23.9899 23.5907 23.0867 23.2177 22.2205L21.5296 18.3002C22.4542 16.7299 22.9844 14.8993 22.9844 12.9473C22.9844 7.11268 18.2545 2.38281 12.4199 2.38281ZM3.65547 12.9473C3.65547 8.1068 7.57945 4.18281 12.4199 4.18281C17.2604 4.18281 21.1844 8.1068 21.1844 12.9473C21.1844 14.6799 20.6826 16.2926 19.8166 17.6511C19.6233 17.9544 19.5867 18.3392 19.7332 18.6795L20.9573 21.5225L17.6462 20.4674C17.348 20.3723 17.0285 20.4101 16.7643 20.5611C15.4846 21.2931 14.0025 21.7117 12.4199 21.7117C7.57945 21.7117 3.65547 17.7878 3.65547 12.9473Z" fill="black"/>
</svg>
