<svg width="25" height="25" viewBox="0 0 25 25" fill="none" xmlns="http://www.w3.org/2000/svg">
<path d="M13.0298 2.94464C12.6818 2.60789 12.1297 2.60687 11.7804 2.94234L6.71892 7.80424C6.36045 8.14857 6.34899 8.71831 6.69332 9.07678C7.03765 9.43525 7.60738 9.44671 7.96585 9.10237L11.5039 5.70386V17.7558C11.5039 18.2529 11.9069 18.6558 12.4039 18.6558C12.901 18.6558 13.3039 18.2529 13.3039 17.7558V5.71469L16.8024 9.10007C17.1596 9.44572 17.7294 9.43636 18.075 9.07916C18.4207 8.72196 18.4113 8.15219 18.0541 7.80654L13.0298 2.94464Z" fill="black"/>
<path d="M4.51973 17.4332C4.51973 16.9361 4.11678 16.5332 3.61973 16.5332C3.12267 16.5332 2.71973 16.9361 2.71973 17.4332V22.3281C2.71973 22.8251 3.12267 23.2281 3.61973 23.2281H21.2532C21.7503 23.2281 22.1532 22.8251 22.1532 22.3281V17.4332C22.1532 16.9361 21.7503 16.5332 21.2532 16.5332C20.7562 16.5332 20.3532 16.9361 20.3532 17.4332V21.4281H4.51973V17.4332Z" fill="black"/>
</svg>
