<svg width="24" height="24" viewBox="0 0 24 24" fill="none" xmlns="http://www.w3.org/2000/svg">
<path fill-rule="evenodd" clip-rule="evenodd" d="M9 3.5C9.24546 3.5 9.44961 3.67688 9.49194 3.91012L9.5 4V11C9.5 11.2455 9.32312 11.4496 9.08988 11.4919L9 11.5H4C3.75454 11.5 3.55039 11.3231 3.50806 11.0899L3.5 11V4C3.5 3.75454 3.67688 3.55039 3.91012 3.50806L4 3.5H9ZM13.4919 13.9101C13.4496 13.6769 13.2455 13.5 13 13.5H4L3.91012 13.5081C3.67688 13.5504 3.5 13.7545 3.5 14V20L3.50806 20.0899C3.55039 20.3231 3.75454 20.5 4 20.5H13L13.0899 20.4919C13.3231 20.4496 13.5 20.2455 13.5 20V14L13.4919 13.9101ZM20.4919 13.9101C20.4496 13.6769 20.2455 13.5 20 13.5H16L15.9101 13.5081C15.6769 13.5504 15.5 13.7545 15.5 14V20L15.5081 20.0899C15.5504 20.3231 15.7545 20.5 16 20.5H20L20.0899 20.4919C20.3231 20.4496 20.5 20.2455 20.5 20V14L20.4919 13.9101ZM4.5 14.5V19.5H12.5V14.5H4.5ZM16.5 14.5H19.5V19.5H16.5V14.5ZM20.4919 3.91012C20.4496 3.67688 20.2455 3.5 20 3.5H12L11.9101 3.50806C11.6769 3.55039 11.5 3.75454 11.5 4V11L11.5081 11.0899C11.5504 11.3231 11.7545 11.5 12 11.5H20L20.0899 11.4919C20.3231 11.4496 20.5 11.2455 20.5 11V4L20.4919 3.91012ZM8.5 4.5H4.5V10.5H8.5V4.5ZM12.5 4.5H19.5V10.5H12.5V4.5Z" fill="black"/>
</svg>
