<svg width="24" height="24" viewBox="0 0 24 24" fill="none" xmlns="http://www.w3.org/2000/svg">
<path fill-rule="evenodd" clip-rule="evenodd" d="M14.5 17V13C14.5 12.7239 14.2762 12.5 14 12.5H10C9.72388 12.5 9.50003 12.7239 9.50003 13V17C9.50003 17.2761 9.72388 17.5 10 17.5H14C14.2762 17.5 14.5 17.2761 14.5 17ZM13.5 13.5V16.5H10.5V13.5H13.5Z" fill="black"/>
<path fill-rule="evenodd" clip-rule="evenodd" d="M2.64647 12.6464L2.59056 12.7122C2.36222 13.0308 2.58427 13.5 3.00003 13.5H5.87503V20C5.87503 20.2761 6.09888 20.5 6.37503 20.5H17.625L17.7149 20.4919C17.9482 20.4496 18.125 20.2455 18.125 20V13.5H21C21.4455 13.5 21.6686 12.9614 21.3536 12.6464L12.3536 3.64645C12.1583 3.45118 11.8417 3.45118 11.6465 3.64645L2.64647 12.6464ZM12 4.707L19.793 12.5H17.625L17.5352 12.5081C17.3019 12.5504 17.125 12.7545 17.125 13V19.5H6.87503V13L6.86697 12.9101C6.82463 12.6769 6.62049 12.5 6.37503 12.5H4.20603L12 4.707Z" fill="black"/>
</svg>
