<svg width="24" height="24" viewBox="0 0 24 24" fill="none" xmlns="http://www.w3.org/2000/svg">
<path fill-rule="evenodd" clip-rule="evenodd" d="M12 7.5C10.6193 7.5 9.5 8.61929 9.5 10C9.5 11.3807 10.6193 12.5 12 12.5C13.3807 12.5 14.5 11.3807 14.5 10C14.5 8.61929 13.3807 7.5 12 7.5ZM12 8.5C12.8284 8.5 13.5 9.17157 13.5 10C13.5 10.8284 12.8284 11.5 12 11.5C11.1716 11.5 10.5 10.8284 10.5 10C10.5 9.17157 11.1716 8.5 12 8.5Z" fill="black"/>
<path fill-rule="evenodd" clip-rule="evenodd" d="M12 3.5C8.41015 3.5 5.5 6.41015 5.5 10C5.5 12.0613 7.04509 14.9077 10.1232 18.5981L10.6997 19.2784C10.7986 19.3934 10.899 19.5091 11.0007 19.6256L11.6279 20.3339C11.8266 20.5554 12.1734 20.5554 12.3721 20.3339L12.9993 19.6256C13.101 19.5091 13.2014 19.3934 13.3003 19.2784L13.8768 18.5981C16.9549 14.9077 18.5 12.0613 18.5 10C18.5 6.41015 15.5899 3.5 12 3.5ZM12 4.5C15.0376 4.5 17.5 6.96243 17.5 10L17.4957 10.1684C17.4076 11.9309 15.9574 14.5344 13.1345 17.9262L12.5516 18.615C12.4514 18.7316 12.3497 18.849 12.2464 18.9673L12 19.247L11.7536 18.9673C8.24599 14.9486 6.5 11.9341 6.5 10C6.5 6.96243 8.96243 4.5 12 4.5Z" fill="black"/>
</svg>
