<svg width="24" height="24" viewBox="0 0 24 24" fill="none" xmlns="http://www.w3.org/2000/svg">
<path fill-rule="evenodd" clip-rule="evenodd" d="M19.5 7C19.5 6.72386 19.2761 6.5 19 6.5H5L4.91012 6.50806C4.67688 6.55039 4.5 6.75454 4.5 7C4.5 7.27614 4.72386 7.5 5 7.5H19L19.0899 7.49194C19.3231 7.44961 19.5 7.24546 19.5 7ZM19 11.5C19.2761 11.5 19.5 11.7239 19.5 12C19.5 12.2455 19.3231 12.4496 19.0899 12.4919L19 12.5H5C4.72386 12.5 4.5 12.2761 4.5 12C4.5 11.7545 4.67688 11.5504 4.91012 11.5081L5 11.5H19ZM19 16.5C19.2761 16.5 19.5 16.7239 19.5 17C19.5 17.2455 19.3231 17.4496 19.0899 17.4919L19 17.5H5C4.72386 17.5 4.5 17.2761 4.5 17C4.5 16.7545 4.67688 16.5504 4.91012 16.5081L5 16.5H19Z" fill="black"/>
</svg>
