<svg width="24" height="24" viewBox="0 0 24 24" fill="none" xmlns="http://www.w3.org/2000/svg">
<path fill-rule="evenodd" clip-rule="evenodd" d="M12 8.5C10.067 8.5 8.5 10.067 8.5 12C8.5 13.933 10.067 15.5 12 15.5C13.933 15.5 15.5 13.933 15.5 12C15.5 10.067 13.933 8.5 12 8.5ZM12 9.5C13.3807 9.5 14.5 10.6193 14.5 12C14.5 13.3807 13.3807 14.5 12 14.5C10.6193 14.5 9.5 13.3807 9.5 12C9.5 10.6193 10.6193 9.5 12 9.5Z" fill="black"/>
<path fill-rule="evenodd" clip-rule="evenodd" d="M11 3.5L10.8555 3.50687C10.1424 3.57501 9.57501 4.14243 9.50687 4.85554L9.503 4.926L9.17993 5.04838C9.06918 5.09335 8.95957 5.14096 8.85119 5.19116L8.549 5.339L8.42558 5.24741C7.84335 4.86299 7.05213 4.92706 6.53956 5.43962L5.43962 6.53956L5.33665 6.65349C4.88816 7.20337 4.88816 7.99708 5.339 8.549L5.19116 8.85119C5.14096 8.95957 5.09335 9.06918 5.04838 9.17993L4.92647 9.50177C4.13219 9.54011 3.5 10.1962 3.5 11V13L3.50687 13.1445C3.57501 13.8576 4.14243 14.425 4.85554 14.4931L4.926 14.496L5.04838 14.8201C5.09335 14.9308 5.14096 15.0404 5.19116 15.1488L5.339 15.45L5.24741 15.5744C4.86299 16.1567 4.92706 16.9479 5.43962 17.4604L6.53956 18.5604L6.65349 18.6634C7.20337 19.1118 7.99708 19.1118 8.549 18.66L8.85119 18.8088C8.95957 18.859 9.06918 18.9066 9.17993 18.9516L9.50172 19.0725C9.53955 19.8673 10.1959 20.5 11 20.5H13L13.1445 20.4931C13.8576 20.425 14.425 19.8576 14.4931 19.1445L14.496 19.073L14.8201 18.9516C14.9308 18.9066 15.0404 18.859 15.1488 18.8088L15.45 18.66L15.5744 18.7526C16.1567 19.137 16.9479 19.0729 17.4604 18.5604L18.5604 17.4604L18.6634 17.3465C19.1118 16.7966 19.1118 16.0029 18.66 15.45L18.8088 15.1488C18.859 15.0404 18.9066 14.9308 18.9516 14.8201L19.0721 14.4983C19.8671 14.4607 20.5 13.8042 20.5 13V11L20.4931 10.8555C20.425 10.1424 19.8576 9.57501 19.1445 9.50687L19.073 9.503L18.9516 9.17993C18.9066 9.06918 18.859 8.95957 18.8088 8.85119L18.66 8.549L18.7526 8.42558C19.137 7.84335 19.0729 7.05213 18.5604 6.53956L17.4604 5.43962L17.3465 5.33665C16.7966 4.88816 16.0029 4.88816 15.45 5.339L15.1488 5.19116C15.0404 5.14096 14.9308 5.09335 14.8201 5.04838L14.4982 4.92685C14.4601 4.1324 13.8039 3.5 13 3.5H11ZM11 4.5H13C13.2761 4.5 13.5 4.72386 13.5 5V5.28988C13.5 5.51109 13.6454 5.70601 13.8574 5.76911C14.355 5.91721 14.8318 6.12458 15.2786 6.38614C15.4749 6.50103 15.724 6.469 15.8848 6.30819L16.0462 6.14673C16.2415 5.95147 16.5581 5.95147 16.7533 6.14673L17.8533 7.24667C18.0485 7.44193 18.0485 7.75852 17.8533 7.95378L17.6918 8.11524C17.531 8.27605 17.499 8.52512 17.6139 8.72139C17.8754 9.16821 18.0828 9.64499 18.2309 10.1426C18.294 10.3546 18.4889 10.5 18.7101 10.5H19C19.2761 10.5 19.5 10.7239 19.5 11V13C19.5 13.2761 19.2761 13.5 19 13.5H18.7101C18.4889 13.5 18.294 13.6454 18.2309 13.8574C18.0828 14.355 17.8754 14.8318 17.6139 15.2786C17.499 15.4749 17.531 15.724 17.6918 15.8848L17.8533 16.0462C18.0485 16.2415 18.0485 16.5581 17.8533 16.7533L16.7533 17.8533C16.5581 18.0485 16.2415 18.0485 16.0462 17.8533L15.8848 17.6918C15.724 17.531 15.4749 17.499 15.2786 17.6139C14.8318 17.8754 14.355 18.0828 13.8574 18.2309C13.6454 18.294 13.5 18.4889 13.5 18.7101V19C13.5 19.2761 13.2761 19.5 13 19.5H11C10.7239 19.5 10.5 19.2761 10.5 19V18.7101C10.5 18.4889 10.3546 18.294 10.1426 18.2309C9.64499 18.0828 9.16821 17.8754 8.72139 17.6139C8.52512 17.499 8.27605 17.531 8.11524 17.6918L7.95378 17.8533C7.75852 18.0485 7.44193 18.0485 7.24667 17.8533L6.14673 16.7533C5.95147 16.5581 5.95147 16.2415 6.14673 16.0462L6.30819 15.8848C6.469 15.724 6.50103 15.4749 6.38614 15.2786C6.12458 14.8318 5.91721 14.355 5.76911 13.8574C5.70601 13.6454 5.51109 13.5 5.28988 13.5H5C4.72386 13.5 4.5 13.2761 4.5 13V11C4.5 10.7239 4.72386 10.5 5 10.5H5.28988C5.51109 10.5 5.70601 10.3546 5.76911 10.1426C5.91721 9.64499 6.12458 9.16821 6.38614 8.72139C6.50103 8.52512 6.469 8.27605 6.30819 8.11524L6.14673 7.95378C5.95147 7.75852 5.95147 7.44193 6.14673 7.24667L7.24667 6.14673C7.44193 5.95147 7.75852 5.95147 7.95378 6.14673L8.11524 6.30819C8.27605 6.469 8.52512 6.50103 8.72139 6.38614C9.16821 6.12458 9.64499 5.91721 10.1426 5.76911C10.3546 5.70601 10.5 5.51109 10.5 5.28988V5C10.5 4.72386 10.7239 4.5 11 4.5Z" fill="black"/>
</svg>
