<svg width="24" height="24" viewBox="0 0 24 24" fill="none" xmlns="http://www.w3.org/2000/svg">
<path d="M11.9982 16.3461H12.0124C12.3256 16.3461 12.584 16.0877 12.584 15.7745V5.96283L16.1879 9.56674C16.3104 9.68917 16.4523 9.74117 16.5851 9.74117C16.7179 9.74117 16.8598 9.68917 16.9822 9.56674C17.2157 9.33326 17.2151 8.97996 16.9826 8.74803L12.4095 4.17494C12.1761 3.94147 11.8228 3.94204 11.5908 4.17455L7.01774 8.74763C6.78427 8.9811 6.78483 9.33441 7.01735 9.56634C7.25082 9.79981 7.60452 9.79964 7.83645 9.56713L11.4407 5.96284V15.7499C11.4407 16.0896 11.698 16.3385 11.9982 16.3461Z" fill="black"/>
<path d="M6.72862 15.8719C6.72862 15.5587 6.47019 15.3003 6.15704 15.3003C5.84388 15.3003 5.58545 15.5587 5.58545 15.8719V19.4284C5.58545 19.7416 5.84388 20 6.15704 20H17.8428C18.156 20 18.4144 19.7416 18.4144 19.4284V15.8719C18.4144 15.5587 18.156 15.3003 17.8428 15.3003C17.5297 15.3003 17.2712 15.5587 17.2712 15.8719V18.8568H6.72862V15.8719Z" fill="black"/>
</svg>
