<svg width="24" height="24" viewBox="0 0 24 24" fill="none" xmlns="http://www.w3.org/2000/svg">
<path d="M11.2101 15.0211C10.0188 15.0211 8.89484 14.577 8.05678 13.7725L5.30058 11.1481C4.4634 10.322 4 9.26367 4 8.12096C4 6.97735 4.46251 5.89831 5.30058 5.09377C7.02067 3.42187 9.84315 3.42187 11.5847 5.09377L14.142 7.59177C14.3625 7.78194 14.3625 8.12096 14.142 8.33263C13.9439 8.54431 13.5908 8.54431 13.3703 8.33263L10.7907 5.85623C9.49023 4.60768 7.37311 4.60768 6.07253 5.85623C5.45585 6.44905 5.1027 7.27429 5.1027 8.12096C5.1027 8.96762 5.43345 9.77216 6.07253 10.3857L8.8735 13.0316C9.49102 13.6237 10.3506 13.9627 11.2326 13.9627C12.1145 13.9627 12.9526 13.6452 13.5917 13.0316C13.9448 12.672 14.2092 12.2701 14.3858 11.8253C14.4961 11.5499 14.8044 11.4019 15.0912 11.5077C15.378 11.6136 15.5322 11.9096 15.422 12.1849C15.1791 12.7778 14.8268 13.3276 14.3634 13.7725C13.5028 14.5762 12.4004 15.0211 11.2101 15.0211Z" fill="black"/>
<path d="M11.585 15.6778L14.1654 18.1551C15.4661 19.4036 17.5829 19.4033 18.8611 18.1333C19.4778 17.5404 19.8309 16.7152 19.8309 15.8685C19.8309 15.0219 19.5002 14.2173 18.8611 13.6038L16.1049 10.9579C15.4874 10.3658 14.6278 10.0268 13.7458 10.0268C12.8639 10.0268 12.0258 10.3443 11.3867 10.9579C11.0336 11.3175 10.7692 11.7194 10.5926 12.1642C10.4823 12.4396 10.174 12.5876 9.88718 12.4818C9.60036 12.3759 9.44619 12.0799 9.55643 11.8046C9.79933 11.2117 10.1516 10.6618 10.615 10.217C11.4756 9.4133 12.578 8.96844 13.7683 8.96844C14.9596 8.96844 16.0836 9.41245 16.9216 10.217L19.6994 12.8407C20.5366 13.6669 21 14.7252 21 15.8679C21 17.0115 20.5375 18.0905 19.6994 18.8951C18.8175 19.7203 17.6925 20.1436 16.5461 20.1436C15.3997 20.1436 14.2524 19.7203 13.3928 18.8951L10.8132 16.4187C10.5927 16.2285 10.5927 15.8895 10.8132 15.6778C11.0113 15.4661 11.3645 15.4661 11.585 15.6778Z" fill="black"/>
</svg>
