<svg width="24" height="24" viewBox="0 0 24 24" fill="none" xmlns="http://www.w3.org/2000/svg">
<path fill-rule="evenodd" clip-rule="evenodd" d="M15.1561 2.28613L16.163 6.26862L20.2628 5.99636L18.737 9.81062L22.2134 11.9996L18.737 14.1876L20.2628 18.0029L16.163 17.7296L15.1561 21.7131L12 19.0836L8.84389 21.7131L7.83599 17.7296L3.7372 18.0029L5.26199 14.1876L1.78662 11.9996L5.26199 9.81062L3.7372 5.99636L7.83599 6.26862L8.84389 2.28613L12 4.91462L15.1561 2.28613ZM14.431 4.51662L12 6.54235L9.56799 4.51662L8.79229 7.5846L5.63399 7.37462L6.80982 10.3132L4.13199 11.9996L6.80982 13.686L5.63399 16.6236L8.79229 16.4147L9.56799 19.4816L12 17.4569L14.431 19.4816L15.2077 16.4147L18.365 16.6236L17.1902 13.686L19.867 11.9996L17.1902 10.3132L18.365 7.37462L15.2077 7.5846L14.431 4.51662Z" fill="black"/>
</svg>
