<svg width="24" height="24" viewBox="0 0 24 24" fill="none" xmlns="http://www.w3.org/2000/svg">
<path d="M11.2299 5.00412C9.75121 5.07524 8.49217 6.06087 8.04345 7.43595L8.01998 7.51389L7.89128 7.47882C7.6495 7.41959 7.40028 7.38911 7.14735 7.38911C5.40905 7.38911 4 8.79816 4 10.5365C4 11.5697 4.49783 12.4866 5.26673 13.0604L15.4306 13.055C15.9544 13.055 16.2471 12.8814 16.4086 12.5873C16.4863 12.4456 16.5232 12.2982 16.5342 12.1864L16.541 12.0496C16.5512 11.8764 16.5277 11.6601 16.446 11.4633C16.3002 11.1123 16.0071 10.9118 15.442 10.9118C14.8753 10.9118 14.5762 11.1143 14.4238 11.468C14.3545 11.629 14.3239 11.8019 14.3188 11.9523L14.32 12.0694C14.3397 12.2824 14.183 12.471 13.97 12.4907C13.7806 12.5082 13.6106 12.3863 13.5613 12.2094L13.5472 12.1202L13.5459 12.099C13.532 11.8198 13.5712 11.4892 13.7124 11.1615C13.9856 10.5273 14.5619 10.1371 15.442 10.1371C16.3237 10.1371 16.8969 10.5293 17.1613 11.1662C17.273 11.4351 17.3162 11.7065 17.318 11.9515L17.3097 12.2075C17.2966 12.426 17.235 12.6916 17.0876 12.9601C17.0552 13.019 17.0198 13.0755 16.9814 13.1292C17.8045 12.5616 18.3439 11.612 18.3439 10.5365C18.3439 8.7982 16.9349 7.38941 15.1966 7.38941L14.9994 7.39597C14.9338 7.40032 14.8682 7.40683 14.8027 7.41545L14.7559 7.42205L14.7052 7.27911C14.1936 5.93092 12.8927 5 11.4015 5L11.2299 5.00412Z" fill="#DFDFDF"/>
<path d="M19.2129 11.8268C18.9577 11.7219 18.7089 11.6891 18.516 11.6913L18.4405 11.6991C18.2606 11.7359 18.1271 11.897 18.1313 12.0871C18.136 12.301 18.3132 12.4705 18.5248 12.4658L18.5898 12.4679C18.6839 12.4743 18.8051 12.4966 18.9183 12.5432C19.1241 12.6278 19.2254 12.7572 19.2254 13.0026C19.2254 13.2572 19.1552 13.3586 19.0216 13.411C18.9409 13.4426 18.845 13.4514 18.7684 13.4456L17.4228 13.4469L17.3532 13.4534C17.1727 13.4869 17.0363 13.6456 17.037 13.8357L17.0435 13.9053C17.077 14.0859 17.2357 14.2223 17.4258 14.2215L18.6917 14.2158L18.8223 14.2221C18.975 14.2218 19.1394 14.1968 19.3042 14.1322C19.7328 13.9642 20 13.5779 20 13.0026C20 12.4183 19.6909 12.0234 19.2129 11.8268Z" fill="#DFDFDF"/>
<path d="M5.75171 13.6517L14.682 13.7465C15.0669 13.7385 15.5635 13.8101 16.0586 14.039C16.9411 14.4471 17.4869 15.2372 17.499 16.4402C17.5111 17.6449 17.0094 18.4586 16.1773 18.9081C15.6928 19.1698 15.2156 19.2592 14.8787 19.2628C14.6648 19.2651 14.4896 19.0935 14.4873 18.8796C14.485 18.6658 14.6566 18.4905 14.8704 18.4882L14.9524 18.4832C15.0047 18.4782 15.0728 18.469 15.1529 18.454C15.3781 18.4119 15.6027 18.3381 15.8092 18.2266C16.3934 17.911 16.7336 17.3592 16.7244 16.448C16.7154 15.5538 16.3525 15.0283 15.7335 14.7421C15.4165 14.5955 15.0863 14.5335 14.8236 14.5224L5.75171 14.4263C5.53781 14.4263 5.3644 14.2529 5.3644 14.039C5.3644 13.8489 5.50141 13.6907 5.68209 13.6579L5.75171 13.6517Z" fill="#DFDFDF"/>
<path d="M13.8883 15.0776C13.6032 14.9686 13.3281 14.9335 13.13 14.9335H7.1484L7.07878 14.9397C6.89811 14.9725 6.7611 15.1307 6.7611 15.3208C6.7611 15.5347 6.9345 15.7081 7.1484 15.7081H13.13L13.2058 15.7112C13.3174 15.7196 13.4678 15.7461 13.6117 15.8011C13.8624 15.897 13.9827 16.035 13.9827 16.2691C13.9827 16.508 13.8562 16.6581 13.5995 16.7663C13.4179 16.8429 13.2273 16.8747 13.1148 16.8791C12.901 16.8875 12.7346 17.0676 12.743 17.2813C12.7514 17.4951 12.9314 17.6615 13.1452 17.6531C13.3426 17.6454 13.617 17.5996 13.9005 17.4801C14.4188 17.2615 14.7574 16.8599 14.7574 16.2691C14.7574 15.6734 14.4127 15.2781 13.8883 15.0776Z" fill="#DFDFDF"/>
</svg>
