<svg width="25" height="25" viewBox="0 0 25 25" fill="none" xmlns="http://www.w3.org/2000/svg">
<path fill-rule="evenodd" clip-rule="evenodd" d="M19.0677 6.7579C18.3203 5.07778 16.6395 3.9375 14.7257 3.9375L14.487 3.94343L14.2415 3.96201C12.3713 4.15223 10.8005 5.43254 10.217 7.19131L10.1834 7.29801L9.90736 7.22944L9.61831 7.17821C9.42419 7.15076 9.22736 7.1368 9.02884 7.1368C6.68997 7.1368 4.79412 9.03266 4.79412 11.3715C4.79412 11.5851 4.80993 11.7951 4.84045 12.0002C4.85929 12.1268 4.90435 12.2359 4.97389 12.319C5.02794 12.3837 5.17282 12.3798 5.27522 12.3771C5.30459 12.3763 5.33046 12.3756 5.3497 12.3767C5.35734 12.3771 5.3666 12.3777 5.37721 12.3784C5.48161 12.3854 5.71726 12.4011 5.84053 12.319C5.94148 12.2519 6.0144 12.1102 6.08418 11.9746C6.10826 11.9278 6.13198 11.8817 6.15634 11.8397C6.21449 11.7394 6.27575 11.6413 6.33997 11.5454C7.21638 10.2374 8.64434 9.35676 10.2554 9.19666L10.534 9.17646L10.7876 9.17035C12.8332 9.17035 14.6732 10.3329 15.5752 12.1306L15.6892 12.3745L15.8696 12.3701C17.8309 12.3701 19.5197 13.5376 20.2789 15.2171C20.3299 15.33 20.3688 15.4125 20.5071 15.4908C20.6246 15.5573 20.7803 15.5072 20.9471 15.4535C20.9766 15.444 21.0065 15.4343 21.0366 15.4252C22.7761 14.8986 24.0425 13.283 24.0425 11.3715C24.0429 9.03343 22.1465 7.1372 19.8077 7.1372L19.5424 7.14603L19.41 7.15698L19.2303 7.17891L19.1599 6.98005L19.0677 6.7579ZM10.5638 10.3781L10.3469 10.3956C8.73445 10.5669 7.36187 11.6707 6.85256 13.2056L6.64885 13.8515L5.84362 13.6511C5.59669 13.5983 5.34481 13.5717 5.09072 13.5717C3.08407 13.5717 1.45752 15.1982 1.45752 17.2049C1.45752 19.2116 3.08407 20.8381 5.09072 20.8381H15.8696C17.8763 20.8381 19.5028 19.2116 19.5028 17.2048C19.5032 15.199 17.8762 13.5721 15.8896 13.5718L15.6539 13.5789L15.5447 13.5875L14.8861 13.6678L14.6604 13.0297C14.047 11.4375 12.5111 10.3724 10.8025 10.3722L10.5638 10.3781Z" fill="white"/>
</svg>
