<svg width="25" height="25" viewBox="0 0 25 25" fill="none" xmlns="http://www.w3.org/2000/svg">
<path d="M12.8477 4.62125C10.5287 4.72919 8.55467 6.27891 7.86069 8.43912L7.8371 8.51552L7.6597 8.46636C7.28235 8.37392 6.89338 8.32635 6.49861 8.32635C3.78558 8.32635 1.58643 10.5255 1.58643 13.2385C1.58643 15.9516 3.78558 18.1507 6.49861 18.1507H19.0019C21.7149 18.1507 23.914 15.9516 23.914 13.2385C23.914 10.5256 21.715 8.32681 19.0019 8.32681L18.6941 8.33705L18.5405 8.34976L18.3315 8.37524L18.2694 8.19479C17.4778 6.07859 15.4418 4.61523 13.1068 4.61523L12.8477 4.62125Z" fill="white"/>
</svg>
