<svg width="24" height="24" viewBox="0 0 24 24" fill="none" xmlns="http://www.w3.org/2000/svg">
<path fill-rule="evenodd" clip-rule="evenodd" d="M16.4757 7.99807C15.9462 6.80782 14.7555 6 13.3997 6L13.2306 6.0042L13.0566 6.01736C11.7317 6.15213 10.6189 7.05914 10.2056 8.30512L10.1817 8.38071L9.98619 8.33213L9.78142 8.29584C9.6439 8.27639 9.50446 8.26651 9.36382 8.26651C7.70688 8.26651 6.36378 9.6096 6.36378 11.2665C6.36378 11.4179 6.37498 11.5666 6.39661 11.7119C6.40995 11.8016 6.44187 11.8789 6.49114 11.9378C6.52943 11.9836 6.63207 11.9809 6.70462 11.9789C6.72542 11.9784 6.74375 11.9779 6.75738 11.9786C6.76279 11.9789 6.76935 11.9793 6.77687 11.9799C6.85083 11.9848 7.01777 11.9959 7.1051 11.9378C7.17662 11.8902 7.22828 11.7898 7.27771 11.6938C7.29477 11.6606 7.31157 11.628 7.32883 11.5982C7.37003 11.5272 7.41343 11.4576 7.45892 11.3897C8.07981 10.4631 9.09143 9.83921 10.2328 9.72579L10.4301 9.71148L10.6098 9.70715C12.0589 9.70715 13.3625 10.5308 14.0015 11.8043L14.0823 11.9771L14.2101 11.9739C15.5995 11.9739 16.796 12.8011 17.3337 13.9909C17.3699 14.0708 17.3974 14.1293 17.4954 14.1848C17.5787 14.2319 17.689 14.1964 17.8071 14.1583C17.8281 14.1516 17.8492 14.1448 17.8706 14.1383C19.1029 13.7653 20 12.6207 20 11.2665C20.0004 9.61015 18.6569 8.26679 17 8.26679L16.812 8.27304L16.7182 8.2808L16.5909 8.29634L16.541 8.15546L16.4757 7.99807ZM10.4513 10.5632L10.2976 10.5756C9.15525 10.6969 8.18286 11.4788 7.82205 12.5663L7.67773 13.0238L7.10728 12.8818C6.93235 12.8445 6.7539 12.8256 6.5739 12.8256C5.15231 12.8256 4 13.9779 4 15.3995C4 16.8211 5.15231 17.9734 6.5739 17.9734H14.2101C15.6317 17.9734 16.784 16.8211 16.784 15.3994C16.7842 13.9784 15.6316 12.8259 14.2242 12.8257L14.0573 12.8307L13.9799 12.8368L13.5133 12.8937L13.3534 12.4416C12.9189 11.3137 11.8308 10.5591 10.6203 10.559L10.4513 10.5632Z" fill="#DFDFDF"/>
</svg>
