<svg width="24" height="24" viewBox="0 0 24 24" fill="none" xmlns="http://www.w3.org/2000/svg">
<path d="M15.4796 6.02319C15.5923 5.97428 15.7074 5.9938 15.7074 6.16883C15.7074 8.79329 17.609 10.0217 19.8284 9.63463C19.9674 9.61038 20.0174 9.73137 19.9947 9.82525C19.8925 10.248 19.7096 10.6374 19.4639 10.9772C19.1352 11.4318 18.6941 11.7977 18.1833 12.0359C17.5173 11.4518 16.6448 11.0982 15.6896 11.0982L15.5588 11.1023L15.5015 10.9757C15.0754 10.0937 14.3621 9.4009 13.4995 8.99724C13.5039 8.53523 13.6065 8.09274 13.7879 7.69117C13.9709 7.28584 14.234 6.92222 14.5596 6.62219C14.8273 6.37544 15.1373 6.17171 15.4796 6.02319Z" fill="#FAF1D0"/>
<path d="M11.7274 9.10352C13.222 9.10352 14.5335 9.99923 15.1086 11.3162L15.1766 11.483L15.2295 11.6322L15.2784 11.6253L15.3811 11.6135L15.4838 11.605L15.6897 11.5981C17.5046 11.5981 18.9756 13.069 18.9756 14.8838C18.9756 16.6419 17.595 18.0774 15.8588 18.1655L15.6897 18.1697H7.28595C5.4711 18.1697 4 16.6986 4 14.8838C4 13.0689 5.4711 11.5978 7.28595 11.5978C7.484 11.5978 7.67988 11.6157 7.87192 11.6508L8.06263 11.6915L8.19701 11.7281L8.22151 11.6467C8.67125 10.2685 9.90067 9.26504 11.3642 9.12127L11.5483 9.10782L11.7274 9.10352Z" fill="#F4F4F4"/>
</svg>
