<svg width="25" height="25" viewBox="0 0 25 25" fill="none" xmlns="http://www.w3.org/2000/svg">
<path d="M16.4724 5.99602C18.8024 5.99602 20.6911 7.88477 20.6911 10.2148C20.6911 10.7856 20.64 11.2416 20.4221 11.7571C20.3147 12.0111 20.0217 12.13 19.7678 12.0226C19.1389 11.4247 18.0949 10.4859 16.2478 10.6868C15.8059 8.9941 14.1758 8.10205 13.4443 7.82725C13.311 7.77719 13.2862 7.80036 13.249 7.70928C13.2118 7.6182 13.3006 7.51017 13.403 7.3973C14.0627 6.67027 15.3791 5.99602 16.4724 5.99602Z" fill="#FFDA17"/>
<path d="M11.9187 4.42863C12.0979 4.267 12.362 4.25921 12.549 4.39695L12.6239 4.46486L13.8222 5.79296C14.0069 5.99769 13.9907 6.31341 13.786 6.49813C13.6068 6.65976 13.3427 6.66754 13.1557 6.52981L13.0808 6.46189L11.8825 5.13379C11.6978 4.92906 11.714 4.61335 11.9187 4.42863Z" fill="#FFDA17"/>
<path d="M17.4342 2.93359C17.6793 2.93359 17.8832 3.11022 17.9254 3.34313L17.9335 3.43288V4.97028C17.9335 5.24603 17.7099 5.46957 17.4342 5.46957C17.1891 5.46957 16.9852 5.29295 16.9429 5.06003L16.9349 4.97028V3.43288C16.9349 3.15713 17.1584 2.93359 17.4342 2.93359Z" fill="#FFDA17"/>
<path d="M21.6546 5.29706C21.8496 5.10208 22.1657 5.10208 22.3607 5.29706C22.5313 5.46767 22.5526 5.73104 22.4247 5.92483L22.3607 6.00316L21.0638 7.30011C20.8688 7.49509 20.5526 7.49509 20.3577 7.30011C20.187 7.12949 20.1657 6.86613 20.2937 6.67233L20.3577 6.59401L21.6546 5.29706Z" fill="#FFDA17"/>
<path d="M23.5415 9.40514C23.8172 9.40514 24.0407 9.62868 24.0407 9.90443C24.0407 10.1495 23.8641 10.3534 23.6312 10.3957L23.5415 10.4037H21.492C21.2162 10.4037 20.9927 10.1802 20.9927 9.90443C20.9927 9.65932 21.1693 9.45546 21.4022 9.41319L21.492 9.40514H23.5415Z" fill="#FFDA17"/>
<path d="M11.114 8.02348C9.1446 8.12147 7.46736 9.43054 6.86092 11.2585L6.82828 11.3645L6.55248 11.2965C6.26685 11.2355 5.97405 11.2042 5.67744 11.2042C3.34783 11.2042 1.45947 13.0926 1.45947 15.4222C1.45947 17.7518 3.34783 19.6402 5.67744 19.6402H16.4137C18.7433 19.6402 20.6317 17.7518 20.6317 15.4222C20.6317 13.0926 18.7434 11.2046 16.4137 11.2046L16.1494 11.2134C16.0615 11.2192 15.9736 11.228 15.8857 11.2395L15.8392 11.247L15.7684 11.0481C15.0773 9.25426 13.3409 8.01758 11.3517 8.01758L11.114 8.02348Z" fill="white"/>
</svg>
