<svg width="24" height="24" viewBox="0 0 24 24" fill="none" xmlns="http://www.w3.org/2000/svg">
<path d="M14.6375 8.16989C16.2884 8.16989 17.6267 9.50817 17.6267 11.1591C17.6267 11.5636 17.5905 11.8867 17.436 12.2519C17.36 12.4319 17.1524 12.5161 16.9724 12.44C16.5269 12.0164 15.7871 11.3512 14.4784 11.4935C14.1652 10.2942 13.0102 9.66212 12.4919 9.46741C12.3975 9.43194 12.3799 9.44836 12.3535 9.38382C12.3272 9.31928 12.3901 9.24274 12.4627 9.16276C12.9301 8.64763 13.8628 8.16989 14.6375 8.16989Z" fill="#F2DD1C"/>
<path d="M11.411 7.05931C11.5379 6.94478 11.725 6.93927 11.8575 7.03686L11.9106 7.08498L12.7597 8.02601C12.8906 8.17107 12.8791 8.39477 12.734 8.52566C12.6071 8.64018 12.4199 8.6457 12.2874 8.5481L12.2344 8.49998L11.3853 7.55896C11.2544 7.41389 11.2659 7.19019 11.411 7.05931Z" fill="#F2DD1C"/>
<path d="M15.319 6C15.4926 6 15.6371 6.12515 15.667 6.29018L15.6727 6.35377V7.4431C15.6727 7.63848 15.5143 7.79687 15.319 7.79687C15.1453 7.79687 15.0009 7.67172 14.9709 7.50669L14.9652 7.4431V6.35377C14.9652 6.15839 15.1236 6 15.319 6Z" fill="#F2DD1C"/>
<path d="M18.3093 7.67464C18.4475 7.53648 18.6715 7.53648 18.8097 7.67464C18.9305 7.79553 18.9457 7.98213 18.855 8.11945L18.8097 8.17495L17.8907 9.0939C17.7525 9.23206 17.5285 9.23206 17.3904 9.0939C17.2695 8.97301 17.2544 8.78641 17.3451 8.64909L17.3904 8.59359L18.3093 7.67464Z" fill="#F2DD1C"/>
<path d="M19.6463 10.5854C19.8417 10.5854 20.0001 10.7438 20.0001 10.9392C20.0001 11.1129 19.8749 11.2573 19.7099 11.2873L19.6463 11.293H18.1941C17.9987 11.293 17.8404 11.1346 17.8404 10.9392C17.8404 10.7655 17.9655 10.6211 18.1305 10.5911L18.1941 10.5854H19.6463Z" fill="#F2DD1C"/>
<path d="M10.8408 9.60672C9.44531 9.67615 8.2569 10.6037 7.82721 11.8989L7.80408 11.974L7.60866 11.9258C7.40628 11.8826 7.19882 11.8604 6.98865 11.8604C5.338 11.8604 4 13.1984 4 14.8491C4 16.4997 5.338 17.8377 6.98865 17.8377H14.5958C16.2465 17.8377 17.5845 16.4997 17.5845 14.8491C17.5845 13.1985 16.2465 11.8607 14.5958 11.8607L14.4086 11.867C14.3463 11.8711 14.284 11.8773 14.2217 11.8855L14.1888 11.8908L14.1386 11.7498C13.6489 10.4788 12.4186 9.60254 11.0092 9.60254L10.8408 9.60672Z" fill="#F4F4F4"/>
</svg>
