<svg width="24" height="24" viewBox="0 0 24 24" fill="none" xmlns="http://www.w3.org/2000/svg">
<path d="M12.0699 7.00431C10.4081 7.08166 8.99345 8.1922 8.49614 9.7402L8.47924 9.79495L8.35212 9.75972C8.08171 9.69348 7.80297 9.65939 7.52007 9.65939C5.57591 9.65939 4 11.2353 4 13.1795C4 15.1236 5.57591 16.6995 7.52007 16.6995H16.4799C18.4241 16.6995 20 15.1236 20 13.1795C20 11.2354 18.4241 9.65972 16.4799 9.65972L16.2594 9.66706L16.1493 9.67616L15.9995 9.69443L15.9551 9.56511C15.3878 8.04864 13.9288 7 12.2555 7L12.0699 7.00431Z" fill="#F4F4F4"/>
</svg>
