<svg width="25" height="25" viewBox="0 0 25 25" fill="none" xmlns="http://www.w3.org/2000/svg">
<path d="M17.5275 2.13341C17.6823 2.06625 17.8403 2.09305 17.8403 2.33339C17.8403 5.93715 20.4515 7.62388 23.4991 7.09244C23.69 7.05914 23.7586 7.22529 23.7274 7.3542C23.587 7.9347 23.336 8.46938 22.9986 8.93597C22.5473 9.56029 21.9415 10.0627 21.2401 10.3898C20.3256 9.58769 19.1275 9.10215 17.8159 9.10215L17.6363 9.10773L17.5577 8.93389C16.9725 7.72281 15.993 6.7715 14.8086 6.21721C14.8146 5.58281 14.9556 4.9752 15.2045 4.42378C15.4558 3.86722 15.8172 3.3679 16.2642 2.95593C16.6319 2.6171 17.0575 2.33734 17.5275 2.13341Z" fill="#FFF5D0"/>
<path d="M12.3756 6.36328C14.4278 6.36328 16.2287 7.59323 17.0184 9.40164L17.1118 9.63066L17.1845 9.83557L17.2515 9.82611L17.3925 9.80985L17.5336 9.79818L17.8163 9.78878C20.3084 9.78878 22.3284 11.8084 22.3284 14.3004C22.3284 16.7146 20.4326 18.6858 18.0485 18.8067L17.8163 18.8125H6.27674C3.78468 18.8125 1.76465 16.7925 1.76465 14.3004C1.76465 11.8084 3.78468 9.78835 6.27674 9.78835C6.5487 9.78835 6.81766 9.81293 7.08137 9.86104L7.34324 9.91695L7.52776 9.96723L7.5614 9.8555C8.17897 7.96302 9.86714 6.58508 11.8768 6.38767L12.1296 6.36919L12.3756 6.36328Z" fill="white"/>
</svg>
