<svg width="25" height="25" viewBox="0 0 25 25" fill="none" xmlns="http://www.w3.org/2000/svg">
<path d="M11.6986 2.82203C9.67938 2.91915 7.96018 4.26502 7.34746 6.14267L7.31541 6.24909L7.13966 6.2012C6.80953 6.12033 6.46922 6.07871 6.12384 6.07871C3.75021 6.07871 1.82617 8.00275 1.82617 10.3764C1.82617 11.7873 2.50596 13.0393 3.55588 13.8228L17.4346 13.8154C18.1497 13.8154 18.5494 13.5783 18.7699 13.1767C18.8761 12.9833 18.9264 12.782 18.9415 12.6294L18.9508 12.4426C18.9647 12.2061 18.9326 11.9107 18.821 11.6419C18.622 11.1627 18.2218 10.8888 17.4501 10.8888C16.6763 10.8888 16.2678 11.1654 16.0598 11.6484C15.9651 11.8682 15.9233 12.1043 15.9164 12.3097L15.9181 12.4697C15.9449 12.7605 15.7309 13.018 15.44 13.0449C15.1815 13.0687 14.9493 12.9023 14.882 12.6607L14.8627 12.539L14.861 12.51C14.842 12.1288 14.8956 11.6774 15.0884 11.2299C15.4614 10.3639 16.2483 9.83112 17.4501 9.83112C18.6541 9.83112 19.4367 10.3666 19.7978 11.2363C19.9503 11.6034 20.0093 11.974 20.0117 12.3086L20.0005 12.6581C19.9825 12.9565 19.8984 13.3192 19.6971 13.6858C19.6529 13.7663 19.6045 13.8434 19.5521 13.9168C20.676 13.1416 21.4127 11.8451 21.4127 10.3764C21.4127 8.00281 19.4887 6.07912 17.115 6.07912L16.8458 6.08807C16.7561 6.09402 16.6666 6.10291 16.5771 6.11468L16.5132 6.12369L16.444 5.92851C15.7454 4.08756 13.969 2.81641 11.9328 2.81641L11.6986 2.82203Z" fill="white"/>
<path d="M22.5992 12.1383C22.2508 11.9951 21.911 11.9503 21.6476 11.9532L21.5445 11.964C21.2988 12.0142 21.1166 12.2342 21.1223 12.4938C21.1288 12.7858 21.3707 13.0173 21.6596 13.0109L21.7484 13.0137C21.8769 13.0225 22.0423 13.053 22.1969 13.1166C22.478 13.2321 22.6163 13.4088 22.6163 13.7439C22.6163 14.0915 22.5205 14.23 22.338 14.3015C22.2279 14.3446 22.0969 14.3567 21.9923 14.3488L20.1549 14.3506L20.0599 14.3595C19.8133 14.4052 19.6271 14.6219 19.6281 14.8815L19.637 14.9765C19.6827 15.2231 19.8993 15.4093 20.159 15.4083L21.8875 15.4005L22.0659 15.4091C22.2743 15.4086 22.4988 15.3745 22.7239 15.2863C23.3091 15.057 23.674 14.5294 23.674 13.7439C23.674 12.946 23.252 12.4067 22.5992 12.1383Z" fill="white"/>
<path d="M4.21811 14.6302L16.4123 14.7597C16.9379 14.7487 17.616 14.8465 18.2921 15.1591C19.4971 15.7162 20.2423 16.7952 20.2589 18.4378C20.2754 20.0828 19.5904 21.194 18.4542 21.8078C17.7926 22.1652 17.141 22.2871 16.681 22.2921C16.3889 22.2952 16.1496 22.061 16.1465 21.7689C16.1433 21.4768 16.3776 21.2375 16.6696 21.2344L16.7816 21.2275C16.8529 21.2207 16.946 21.2082 17.0553 21.1877C17.3628 21.1302 17.6696 21.0294 17.9514 20.8772C18.7492 20.4462 19.2137 19.6927 19.2012 18.4485C19.1889 17.2274 18.6933 16.5099 17.8482 16.1191C17.4152 15.919 16.9644 15.8343 16.6056 15.8191L4.21811 15.6879C3.92603 15.6879 3.68925 15.4511 3.68925 15.1591C3.68925 14.8994 3.87633 14.6835 4.12305 14.6387L4.21811 14.6302Z" fill="white"/>
<path d="M15.3286 16.5772C14.9392 16.4284 14.5636 16.3805 14.293 16.3805H6.12528L6.03022 16.389C5.7835 16.4338 5.59642 16.6497 5.59642 16.9093C5.59642 17.2014 5.8332 17.4382 6.12528 17.4382H14.293L14.3965 17.4424C14.549 17.4539 14.7543 17.49 14.9508 17.5652C15.2931 17.6961 15.4575 17.8846 15.4575 18.2042C15.4575 18.5305 15.2847 18.7354 14.9342 18.8832C14.6863 18.9878 14.426 19.0312 14.2723 19.0372C13.9804 19.0487 13.7531 19.2946 13.7646 19.5864C13.7761 19.8783 14.0219 20.1056 14.3138 20.0941C14.5834 20.0835 14.9581 20.021 15.3452 19.8578C16.053 19.5594 16.5152 19.011 16.5152 18.2042C16.5152 17.3908 16.0446 16.851 15.3286 16.5772Z" fill="white"/>
</svg>
