<svg width="25" height="25" viewBox="0 0 25 25" fill="none" xmlns="http://www.w3.org/2000/svg">
<path d="M11.3911 4.22385C11.3911 3.90282 11.146 3.64258 10.8436 3.64258H4.14375L4.05494 3.65019C3.79479 3.69524 3.59624 3.93493 3.59624 4.22385C3.59624 4.54488 3.84137 4.80513 4.14375 4.80513H10.8436L10.9324 4.79752C11.1925 4.75247 11.3911 4.51278 11.3911 4.22385Z" fill="white"/>
<path d="M22.2507 5.0985C22.2507 4.77747 22.0056 4.51723 21.7032 4.51723H16.0388L15.95 4.52484C15.6899 4.56989 15.4913 4.80958 15.4913 5.0985C15.4913 5.41953 15.7364 5.67978 16.0388 5.67978H21.7032L21.792 5.67217C22.0522 5.62712 22.2507 5.38743 22.2507 5.0985Z" fill="white"/>
<path d="M12.8768 6.65244C13.1792 6.65244 13.4243 6.91268 13.4243 7.23371C13.4243 7.52264 13.2258 7.76233 12.9656 7.80738L12.8768 7.81499H4.58176C4.27938 7.81499 4.03425 7.55474 4.03425 7.23371C4.03425 6.94479 4.23281 6.70509 4.49295 6.66004L4.58176 6.65244H12.8768Z" fill="white"/>
<path d="M16.9556 8.66455C17.258 8.66455 17.5031 8.9248 17.5031 9.24583C17.5031 9.53475 17.3046 9.77445 17.0444 9.81949L16.9556 9.8271H13.9719C13.6695 9.8271 13.4243 9.56686 13.4243 9.24583C13.4243 8.9569 13.6229 8.71721 13.883 8.67216L13.9719 8.66455H16.9556Z" fill="white"/>
<path d="M11.1495 9.17979C11.4519 9.17979 11.697 9.44003 11.697 9.76106C11.697 10.05 11.4984 10.2897 11.2383 10.3347L11.1495 10.3423H6.91302C6.61064 10.3423 6.36551 10.0821 6.36551 9.76106C6.36551 9.47214 6.56406 9.23245 6.82421 9.1874L6.91302 9.17979H11.1495Z" fill="white"/>
<path d="M10.3039 20.6467C10.3039 20.3257 10.0588 20.0655 9.75643 20.0655H3.26773L3.17892 20.0731C2.91877 20.1181 2.72021 20.3578 2.72021 20.6467C2.72021 20.9678 2.96535 21.228 3.26773 21.228H9.75643L9.84524 21.2204C10.1054 21.1754 10.3039 20.9357 10.3039 20.6467Z" fill="white"/>
<path d="M22.2319 10.9539C22.5343 10.9539 22.7794 11.2141 22.7794 11.5351C22.7794 11.8241 22.5808 12.0638 22.3207 12.1088L22.2319 12.1164H15.5321C15.2297 12.1164 14.9845 11.8562 14.9845 11.5351C14.9845 11.2462 15.1831 11.0065 15.4432 10.9615L15.5321 10.9539H22.2319Z" fill="white"/>
<path d="M21.6914 7.59313C21.6914 7.2721 21.4462 7.01185 21.1439 7.01185H18.1601L18.0713 7.01946C17.8112 7.06451 17.6126 7.3042 17.6126 7.59313C17.6126 7.91416 17.8577 8.1744 18.1601 8.1744H21.1439L21.2327 8.16679C21.4928 8.12174 21.6914 7.88205 21.6914 7.59313Z" fill="white"/>
<path d="M8.48373 17.2423C8.78611 17.2423 9.03124 17.5026 9.03124 17.8236C9.03124 18.1125 8.83269 18.3522 8.57254 18.3973L8.48373 18.4049H5.49999C5.19761 18.4049 4.95248 18.1446 4.95248 17.8236C4.95248 17.5347 5.15104 17.295 5.41118 17.2499L5.49999 17.2423H8.48373Z" fill="white"/>
<path d="M22.2507 20.0655C22.2507 19.7444 22.0056 19.4842 21.7032 19.4842H12.3981L12.3093 19.4918C12.0491 19.5369 11.8506 19.7765 11.8506 20.0655C11.8506 20.3865 12.0957 20.6467 12.3981 20.6467H21.7032L21.792 20.6391C22.0522 20.5941 22.2507 20.3544 22.2507 20.0655Z" fill="white"/>
<path d="M21.1439 16.6834C21.4462 16.6834 21.6914 16.9436 21.6914 17.2647C21.6914 17.5536 21.4928 17.7933 21.2327 17.8383L21.1439 17.8459H12.8488C12.5464 17.8459 12.3013 17.5857 12.3013 17.2647C12.3013 16.9757 12.4998 16.7361 12.76 16.691L12.8488 16.6834H21.1439Z" fill="white"/>
<path d="M21.0206 14.169C21.3229 14.169 21.5681 14.4293 21.5681 14.7503C21.5681 15.0392 21.3695 15.2789 21.1094 15.324L21.0206 15.3316H3.582C3.27962 15.3316 3.03449 15.0713 3.03449 14.7503C3.03449 14.4614 3.23304 14.2217 3.49319 14.1766L3.582 14.169H21.0206Z" fill="white"/>
<path d="M13.4243 12.2557C13.4243 11.9347 13.1792 11.6744 12.8768 11.6744H4.14375L4.05494 11.682C3.79479 11.7271 3.59624 11.9668 3.59624 12.2557C3.59624 12.5767 3.84137 12.837 4.14375 12.837H12.8768L12.9656 12.8294C13.2258 12.7843 13.4243 12.5446 13.4243 12.2557Z" fill="white"/>
</svg>
