<svg width="24" height="24" viewBox="0 0 24 24" fill="none" xmlns="http://www.w3.org/2000/svg">
<path d="M10.9162 5.46365C10.9162 5.20758 10.7207 5 10.4795 5H5.13547L5.06463 5.00607C4.85713 5.042 4.69875 5.23319 4.69875 5.46365C4.69875 5.71971 4.89428 5.9273 5.13547 5.9273H10.4795L10.5504 5.92123C10.7579 5.88529 10.9162 5.69411 10.9162 5.46365Z" fill="#F4F4F4"/>
<path d="M19.5783 6.1613C19.5783 5.90524 19.3828 5.69766 19.1416 5.69766H14.6235L14.5526 5.70372C14.3451 5.73966 14.1867 5.93084 14.1867 6.1613C14.1867 6.41737 14.3823 6.62495 14.6235 6.62495H19.1416L19.2124 6.61888C19.4199 6.58295 19.5783 6.39176 19.5783 6.1613Z" fill="#F4F4F4"/>
<path d="M12.1013 7.40078C12.3425 7.40078 12.538 7.60837 12.538 7.86443C12.538 8.09489 12.3797 8.28608 12.1722 8.32201L12.1013 8.32808H5.48485C5.24365 8.32808 5.04813 8.1205 5.04813 7.86443C5.04813 7.63397 5.2065 7.44278 5.41401 7.40685L5.48485 7.40078H12.1013Z" fill="#F4F4F4"/>
<path d="M15.3547 9.00573C15.5959 9.00573 15.7914 9.21331 15.7914 9.46938C15.7914 9.69983 15.633 9.89102 15.4255 9.92695L15.3547 9.93302H12.9748C12.7336 9.93302 12.538 9.72544 12.538 9.46938C12.538 9.23892 12.6964 9.04773 12.9039 9.0118L12.9748 9.00573H15.3547Z" fill="#F4F4F4"/>
<path d="M10.7235 9.4167C10.9647 9.4167 11.1602 9.62428 11.1602 9.88035C11.1602 10.1108 11.0019 10.302 10.7943 10.3379L10.7235 10.344H7.34435C7.10315 10.344 6.90763 10.1364 6.90763 9.88035C6.90763 9.64989 7.066 9.4587 7.27351 9.42277L7.34435 9.4167H10.7235Z" fill="#F4F4F4"/>
<path d="M10.0491 18.5632C10.0491 18.3071 9.85356 18.0996 9.61237 18.0996H4.43672L4.36588 18.1056C4.15838 18.1416 4 18.3327 4 18.5632C4 18.8193 4.19553 19.0268 4.43672 19.0268H9.61237L9.68321 19.0208C9.89071 18.9848 10.0491 18.7937 10.0491 18.5632Z" fill="#F4F4F4"/>
<path d="M19.5633 10.8318C19.8045 10.8318 20 11.0394 20 11.2954C20 11.5259 19.8416 11.7171 19.6341 11.753L19.5633 11.7591H14.2192C13.978 11.7591 13.7825 11.5515 13.7825 11.2954C13.7825 11.065 13.9409 10.8738 14.1484 10.8378L14.2192 10.8318H19.5633Z" fill="#F4F4F4"/>
<path d="M19.1322 8.15111C19.1322 7.89505 18.9366 7.68747 18.6954 7.68747H16.3155L16.2446 7.69354C16.0371 7.72947 15.8788 7.92066 15.8788 8.15111C15.8788 8.40718 16.0743 8.61476 16.3155 8.61476H18.6954L18.7663 8.60869C18.9738 8.57276 19.1322 8.38157 19.1322 8.15111Z" fill="#F4F4F4"/>
<path d="M8.59721 15.8477C8.8384 15.8477 9.03393 16.0553 9.03393 16.3113C9.03393 16.5418 8.87555 16.733 8.66805 16.7689L8.59721 16.775H6.21726C5.97607 16.775 5.78054 16.5674 5.78054 16.3113C5.78054 16.0809 5.93892 15.8897 6.14642 15.8538L6.21726 15.8477H8.59721Z" fill="#F4F4F4"/>
<path d="M19.5783 18.0996C19.5783 17.8435 19.3828 17.6359 19.1416 17.6359H11.7195L11.6486 17.642C11.4411 17.6779 11.2827 17.8691 11.2827 18.0996C11.2827 18.3556 11.4783 18.5632 11.7195 18.5632H19.1416L19.2124 18.5571C19.4199 18.5212 19.5783 18.33 19.5783 18.0996Z" fill="#F4F4F4"/>
<path d="M18.6954 15.4019C18.9366 15.4019 19.1322 15.6095 19.1322 15.8655C19.1322 16.096 18.9738 16.2872 18.7663 16.3231L18.6954 16.3292H12.079C11.8378 16.3292 11.6422 16.1216 11.6422 15.8655C11.6422 15.6351 11.8006 15.4439 12.0081 15.4079L12.079 15.4019H18.6954Z" fill="#F4F4F4"/>
<path d="M18.5971 13.3963C18.8383 13.3963 19.0338 13.6039 19.0338 13.86C19.0338 14.0904 18.8754 14.2816 18.6679 14.3175L18.5971 14.3236H4.6874C4.4462 14.3236 4.25068 14.116 4.25068 13.86C4.25068 13.6295 4.40905 13.4383 4.61656 13.4024L4.6874 13.3963H18.5971Z" fill="#F4F4F4"/>
<path d="M12.538 11.8702C12.538 11.6141 12.3425 11.4065 12.1013 11.4065H5.13547L5.06463 11.4126C4.85713 11.4485 4.69875 11.6397 4.69875 11.8702C4.69875 12.1262 4.89428 12.3338 5.13547 12.3338H12.1013L12.1722 12.3277C12.3797 12.2918 12.538 12.1006 12.538 11.8702Z" fill="#F4F4F4"/>
</svg>
