<svg width="24" height="24" viewBox="0 0 24 24" fill="none" xmlns="http://www.w3.org/2000/svg">
<path d="M8.99754 13.4297C9.18535 13.4297 9.34154 13.565 9.37394 13.7435L9.3801 13.8122V17.8673C9.3801 18.0786 9.20882 18.2499 8.99754 18.2499C8.80974 18.2499 8.65355 18.1145 8.62115 17.9361L8.61499 17.8673V13.8122C8.61499 13.601 8.78627 13.4297 8.99754 13.4297Z" fill="#1262AD"/>
<path d="M11.2292 13.4297C11.417 13.4297 11.5732 13.565 11.6056 13.7435L11.6118 13.8122V15.8398C11.6118 16.0511 11.4405 16.2223 11.2292 16.2223C11.0414 16.2223 10.8852 16.087 10.8528 15.9085L10.8467 15.8398V13.8122C10.8467 13.601 11.0179 13.4297 11.2292 13.4297Z" fill="#1262AD"/>
<path d="M13.4606 13.4297C13.6484 13.4297 13.8046 13.565 13.837 13.7435L13.8431 13.8122V17.8673C13.8431 18.0786 13.6719 18.2499 13.4606 18.2499C13.2728 18.2499 13.1166 18.1145 13.0842 17.9361L13.078 17.8673V13.8122C13.078 13.601 13.2493 13.4297 13.4606 13.4297Z" fill="#1262AD"/>
<path d="M15.6922 13.4297C15.88 13.4297 16.0362 13.565 16.0686 13.7435L16.0748 13.8122V15.8398C16.0748 16.0511 15.9035 16.2223 15.6922 16.2223C15.5044 16.2223 15.3482 16.087 15.3159 15.9085L15.3097 15.8398V13.8122C15.3097 13.601 15.481 13.4297 15.6922 13.4297Z" fill="#1262AD"/>
<path d="M12.4034 4.00423C10.8858 4.07722 9.5936 5.08878 9.13307 6.50004L9.11269 6.56568L8.99573 6.53373C8.74746 6.47292 8.49155 6.44162 8.23182 6.44162C6.44686 6.44162 5 7.88848 5 9.67343C5 11.4584 6.44686 12.9053 8.23182 12.9053H16.458C18.2429 12.9053 19.6898 11.4584 19.6898 9.67343C19.6898 7.88853 18.243 6.44192 16.458 6.44192L16.2555 6.44865C16.1881 6.45313 16.1207 6.45981 16.0534 6.46866L16.0172 6.47386L15.9701 6.33907C15.445 4.95541 14.1099 4 12.5795 4L12.4034 4.00423Z" fill="#DFDFDF"/>
<path d="M11.229 16.6445C10.836 16.6445 10.5173 16.9632 10.5173 17.3563C10.5173 17.7493 10.836 18.068 11.229 18.068C11.6221 18.068 11.9408 17.7493 11.9408 17.3563C11.9408 16.9632 11.6221 16.6445 11.229 16.6445Z" fill="white"/>
<path d="M8.99738 18.5772C8.6043 18.5772 8.28564 18.8958 8.28564 19.2889C8.28564 19.682 8.6043 20.0007 8.99738 20.0007C9.39046 20.0007 9.70911 19.682 9.70911 19.2889C9.70911 18.8958 9.39046 18.5772 8.99738 18.5772Z" fill="white"/>
<path d="M13.4604 18.5772C13.0673 18.5772 12.7487 18.8958 12.7487 19.2889C12.7487 19.682 13.0673 20.0007 13.4604 20.0007C13.8535 20.0007 14.1721 19.682 14.1721 19.2889C14.1721 18.8958 13.8535 18.5772 13.4604 18.5772Z" fill="white"/>
<path d="M15.6921 16.6445C15.299 16.6445 14.9803 16.9632 14.9803 17.3563C14.9803 17.7493 15.299 18.068 15.6921 18.068C16.0852 18.068 16.4038 17.7493 16.4038 17.3563C16.4038 16.9632 16.0852 16.6445 15.6921 16.6445Z" fill="white"/>
</svg>
