<svg width="25" height="25" viewBox="0 0 25 25" fill="none" xmlns="http://www.w3.org/2000/svg">
<path d="M8.52738 14.3535C8.78364 14.3535 8.99677 14.5382 9.04097 14.7817L9.04938 14.8755V20.4088C9.04938 20.6971 8.81567 20.9308 8.52738 20.9308C8.27111 20.9308 8.05798 20.7461 8.01378 20.5026L8.00537 20.4088V14.8755C8.00537 14.5872 8.23908 14.3535 8.52738 14.3535Z" fill="#30C1FF"/>
<path d="M11.5725 14.3535C11.8288 14.3535 12.0419 14.5382 12.0861 14.7817L12.0946 14.8755V17.6421C12.0946 17.9304 11.8608 18.1642 11.5725 18.1642C11.3163 18.1642 11.1032 17.9795 11.059 17.736L11.0505 17.6421V14.8755C11.0505 14.5872 11.2843 14.3535 11.5725 14.3535Z" fill="#30C1FF"/>
<path d="M14.6173 14.3535C14.8736 14.3535 15.0867 14.5382 15.1309 14.7817L15.1393 14.8755V20.4088C15.1393 20.6971 14.9056 20.9308 14.6173 20.9308C14.361 20.9308 14.1479 20.7461 14.1037 20.5026L14.0953 20.4088V14.8755C14.0953 14.5872 14.329 14.3535 14.6173 14.3535Z" fill="#30C1FF"/>
<path d="M17.6625 14.3535C17.9187 14.3535 18.1319 14.5382 18.1761 14.7817L18.1845 14.8755V17.6421C18.1845 17.9304 17.9508 18.1642 17.6625 18.1642C17.4062 18.1642 17.1931 17.9795 17.1489 17.736L17.1405 17.6421V14.8755C17.1405 14.5872 17.3742 14.3535 17.6625 14.3535Z" fill="#30C1FF"/>
<path d="M13.1749 1.4921C11.104 1.5917 9.34084 2.972 8.71243 4.8977L8.68463 4.98726L8.52503 4.94367C8.18627 4.86069 7.83707 4.81798 7.48266 4.81798C5.04704 4.81798 3.07275 6.79226 3.07275 9.22788C3.07275 11.6635 5.04704 13.6378 7.48266 13.6378H18.7074C21.1431 13.6378 23.1173 11.6635 23.1173 9.22788C23.1173 6.79232 21.1431 4.81839 18.7074 4.81839L18.4312 4.82758C18.3392 4.83368 18.2473 4.84281 18.1554 4.85488L18.106 4.86198L18.0417 4.67806C17.3252 2.79 15.5034 1.48633 13.4151 1.48633L13.1749 1.4921Z" fill="white"/>
<path d="M11.5725 18.7402C11.0361 18.7402 10.6013 19.175 10.6013 19.7114C10.6013 20.2478 11.0361 20.6826 11.5725 20.6826C12.1089 20.6826 12.5437 20.2478 12.5437 19.7114C12.5437 19.175 12.1089 18.7402 11.5725 18.7402Z" fill="white"/>
<path d="M8.52733 21.3774C7.99096 21.3774 7.55615 21.8122 7.55615 22.3486C7.55615 22.885 7.99096 23.3198 8.52733 23.3198C9.0637 23.3198 9.49851 22.885 9.49851 22.3486C9.49851 21.8122 9.0637 21.3774 8.52733 21.3774Z" fill="white"/>
<path d="M14.6173 21.3774C14.0809 21.3774 13.6461 21.8122 13.6461 22.3486C13.6461 22.885 14.0809 23.3198 14.6173 23.3198C15.1536 23.3198 15.5884 22.885 15.5884 22.3486C15.5884 21.8122 15.1536 21.3774 14.6173 21.3774Z" fill="white"/>
<path d="M17.6624 18.7402C17.1261 18.7402 16.6912 19.175 16.6912 19.7114C16.6912 20.2478 17.1261 20.6826 17.6624 20.6826C18.1988 20.6826 18.6336 20.2478 18.6336 19.7114C18.6336 19.175 18.1988 18.7402 17.6624 18.7402Z" fill="white"/>
</svg>
