<svg width="25" height="25" viewBox="0 0 25 25" fill="none" xmlns="http://www.w3.org/2000/svg">
<path d="M13.3587 16.4219H10.7174C10.5296 16.4219 10.3641 16.5453 10.3104 16.7253L9.25149 20.2775L9.23627 20.3511C9.20486 20.619 9.43557 20.8579 9.7159 20.8196L11.118 20.6159L9.90062 23.2765C9.74685 23.7214 10.3232 24.0489 10.6267 23.6891L14.2651 19.3419L14.3093 19.2793C14.4595 19.0208 14.2961 18.6762 13.9819 18.6454H12.7454L13.7079 17.0884C13.903 16.8067 13.7014 16.4219 13.3587 16.4219Z" fill="#FFD601"/>
<path d="M17.2042 0.991336C17.3425 0.931345 17.4836 0.95529 17.4836 1.16999C17.4836 4.38926 19.8163 5.89603 22.5387 5.42129C22.7092 5.39155 22.7705 5.53997 22.7427 5.65512C22.6173 6.17369 22.393 6.65133 22.0916 7.06813C21.6884 7.62584 21.1473 8.07464 20.5207 8.36686C19.7038 7.65032 18.6335 7.21658 17.4618 7.21658L17.3014 7.22157L17.2312 7.06628C16.7084 5.9844 15.8334 5.13459 14.7754 4.63944C14.7807 4.07273 14.9067 3.52994 15.1291 3.03735C15.3536 2.54017 15.6764 2.09413 16.0757 1.7261C16.4042 1.42342 16.7844 1.17351 17.2042 0.991336Z" fill="#FFF5D0"/>
<path d="M12.231 4.83728C10.2902 4.92793 8.63784 6.1842 8.04892 7.93686L8.01812 8.03619L7.84921 7.99149C7.5319 7.916 7.20482 7.87715 6.87286 7.87715C4.59146 7.87715 2.74219 9.6731 2.74219 11.8887C2.74219 14.1043 4.59146 15.9003 6.87286 15.9003H17.4369C19.7183 15.9003 21.5676 14.1043 21.5676 11.8887C21.5676 9.67316 19.7184 7.87753 17.4369 7.87753L17.1782 7.88589C17.092 7.89144 17.0059 7.89974 16.9199 7.91073L16.8585 7.91914L16.792 7.73695C16.1205 6.01857 14.4132 4.83203 12.4561 4.83203L12.231 4.83728Z" fill="white"/>
</svg>
