<svg width="24" height="24" viewBox="0 0 24 24" fill="none" xmlns="http://www.w3.org/2000/svg">
<path d="M12.872 13.7588H10.5685C10.4072 13.7588 10.265 13.8648 10.2189 14.0194L9.33489 16.8976L9.3224 16.956C9.29204 17.1881 9.49131 17.3964 9.73381 17.3634L10.979 17.1034L9.90099 19.5137C9.7689 19.8958 10.264 20.1772 10.5247 19.8682L13.7471 16.1681L13.7827 16.1183C13.9158 15.8958 13.7754 15.5964 13.5038 15.5698H12.4073L13.172 14.3313C13.3395 14.0894 13.1664 13.7588 12.872 13.7588Z" fill="#ECD581"/>
<path d="M11.824 4.00419C10.2092 4.07935 8.83458 5.15846 8.35134 6.66267L8.33959 6.70057L8.23116 6.67083C7.96826 6.60643 7.69727 6.57328 7.42223 6.57328C5.53211 6.57328 4 8.10539 4 9.99551C4 11.8856 5.53211 13.4177 7.42223 13.4177H16.092C17.9821 13.4177 19.5142 11.8856 19.5142 9.99551C19.5142 8.10544 17.9821 6.57361 16.092 6.57361L15.8776 6.58074L15.7705 6.58959L15.6383 6.60523L15.5992 6.49253C15.048 5.01897 13.6303 4 12.0043 4L11.824 4.00419Z" fill="#DFDFDF"/>
</svg>
