<svg width="24" height="24" viewBox="0 0 24 24" fill="none" xmlns="http://www.w3.org/2000/svg">
<path d="M12.4245 14.8105H10.5774C10.446 14.8105 10.3303 14.8968 10.2927 15.0227L9.5522 17.5069L9.54156 17.5584C9.51959 17.7457 9.68094 17.9128 9.87698 17.886L10.8575 17.7436L10.0062 19.6042C9.89862 19.9153 10.3017 20.1444 10.5139 19.8928L13.0584 16.8526L13.0893 16.8088C13.1943 16.6281 13.0801 16.3871 12.8603 16.3655H11.9956L12.6687 15.2767C12.8051 15.0797 12.6641 14.8105 12.4245 14.8105Z" fill="#ECD581"/>
<path d="M15.1139 4.01989C15.2105 3.97794 15.3092 3.99468 15.3092 4.14483C15.3092 6.39617 16.9406 7.44991 18.8444 7.1179C18.9637 7.0971 19.0065 7.2009 18.9871 7.28143C18.8994 7.64408 18.7425 7.97811 18.5318 8.2696C18.2498 8.65962 17.8714 8.97348 17.4332 9.17784C16.8619 8.67674 16.1134 8.37341 15.294 8.37341L15.1818 8.3769L15.1327 8.2683C14.7671 7.51171 14.1552 6.91741 13.4153 6.57113C13.419 6.17481 13.5071 5.79522 13.6626 5.45074C13.8196 5.10304 14.0454 4.79111 14.3247 4.53374C14.5543 4.32206 14.8202 4.1473 15.1139 4.01989Z" fill="#FAF1D0"/>
<path d="M11.6358 6.70973C10.2786 6.77312 9.12302 7.65167 8.71117 8.87736L8.68963 8.94683L8.57151 8.91557C8.3496 8.86278 8.12086 8.83561 7.88871 8.83561C6.29326 8.83561 5 10.0916 5 11.641C5 13.1905 6.29326 14.4464 7.88871 14.4464H15.2765C16.872 14.4464 18.1652 13.1905 18.1652 11.641C18.1652 10.0916 16.872 8.83587 15.2765 8.83587L15.0955 8.84172C15.0353 8.8456 14.9751 8.85141 14.9149 8.85909L14.872 8.86497L14.8255 8.73756C14.3559 7.53584 13.1619 6.70605 11.7933 6.70605L11.6358 6.70973Z" fill="#F4F4F4"/>
</svg>
