<svg width="24" height="24" viewBox="0 0 24 24" fill="none" xmlns="http://www.w3.org/2000/svg">
<path d="M11.9079 14.8525H10.0699C9.93625 14.8525 9.81845 14.9398 9.78026 15.0672L9.0434 17.5246L9.03256 17.5767C9.01021 17.7663 9.1744 17.9353 9.37391 17.9082L10.4198 17.7237L9.49519 19.5991C9.38576 19.9139 9.79596 20.1456 10.0119 19.8911L12.5461 17.0465L12.5775 17.0022C12.6844 16.8193 12.5682 16.5755 12.3445 16.5537H11.3261L12.1564 15.3241C12.2953 15.1248 12.1518 14.8525 11.9079 14.8525Z" fill="#ECD581"/>
<path d="M15.409 4.25758C15.3822 4.11109 15.2534 4 15.0984 4C14.9241 4 14.7828 4.14059 14.7828 4.31403V5.28098L14.7879 5.33743C14.8146 5.48392 14.9435 5.59501 15.0984 5.59501C15.2727 5.59501 15.414 5.45441 15.414 5.28098V4.31403L15.409 4.25758Z" fill="#F2DD1C"/>
<path d="M11.6118 4.94038C11.725 4.83872 11.892 4.83383 12.0102 4.92045L12.0575 4.96317L12.815 5.79848C12.9318 5.92725 12.9216 6.12582 12.7921 6.242C12.6789 6.34366 12.5119 6.34855 12.3937 6.26192L12.3464 6.21921L11.5889 5.3839C11.4721 5.25513 11.4823 5.05656 11.6118 4.94038Z" fill="#F2DD1C"/>
<path d="M14.4904 5.92599C15.9633 5.92599 17.1573 7.11393 17.1573 8.57939C17.1573 8.93844 17.125 9.22523 16.9872 9.54947C16.9193 9.70921 16.7341 9.78396 16.5736 9.71642C16.176 9.34038 15.5161 8.74989 14.3484 8.87624C14.069 7.81164 13.0386 7.25059 12.5761 7.07775C12.553 7.06911 12.5351 7.06394 12.5207 7.0598C12.4827 7.04885 12.4698 7.04512 12.4527 7.00355C12.4292 6.94626 12.4853 6.87832 12.5501 6.80733C12.9671 6.35006 13.7992 5.92599 14.4904 5.92599Z" fill="#F2DD1C"/>
<path d="M17.7663 5.48683C17.8896 5.36419 18.0894 5.36419 18.2127 5.48683C18.3206 5.59413 18.334 5.75978 18.2531 5.88167L18.2127 5.93093L17.3928 6.74665C17.2696 6.86928 17.0697 6.86928 16.9465 6.74665C16.8386 6.63934 16.8251 6.4737 16.906 6.35181L16.9465 6.30254L17.7663 5.48683Z" fill="#F2DD1C"/>
<path d="M19.2748 8.38401C19.2748 8.21057 19.1335 8.06998 18.9592 8.06998H17.6636L17.6069 8.07504C17.4596 8.10163 17.348 8.22984 17.348 8.38401C17.348 8.55744 17.4893 8.69803 17.6636 8.69803H18.9592L19.0159 8.69297C19.1632 8.66638 19.2748 8.53817 19.2748 8.38401Z" fill="#F2DD1C"/>
<path d="M11.1032 7.20195C9.85817 7.26359 8.7979 8.08693 8.41454 9.23664L8.3939 9.30328L8.21956 9.26053C8.03899 9.22216 7.8539 9.20249 7.6664 9.20249C6.19373 9.20249 5 10.3902 5 11.8554C5 13.3206 6.19373 14.5083 7.6664 14.5083H14.4533C15.926 14.5083 17.1197 13.3206 17.1197 11.8554C17.1197 10.3902 15.926 9.20274 14.4533 9.20274L14.2863 9.20827C14.2307 9.21194 14.1751 9.21743 14.1196 9.22469L14.0902 9.22942L14.0454 9.10429C13.6085 7.97606 12.5108 7.19824 11.2534 7.19824L11.1032 7.20195Z" fill="#F4F4F4"/>
</svg>
