<svg width="25" height="25" viewBox="0 0 25 25" fill="none" xmlns="http://www.w3.org/2000/svg">
<path d="M12.5619 16.4453H9.95731C9.76787 16.4453 9.60093 16.569 9.54682 16.7495L8.50262 20.2319L8.48727 20.3057C8.45559 20.5743 8.68827 20.8138 8.97099 20.7755L10.4531 20.514L9.14285 23.1716C8.98778 23.6176 9.56907 23.946 9.87511 23.5853L13.4662 19.5543L13.5107 19.4915C13.6622 19.2323 13.4975 18.8868 13.1806 18.8559H11.7374L12.9141 17.1136C13.1108 16.8312 12.9075 16.4453 12.5619 16.4453Z" fill="#FFD601"/>
<path d="M17.5232 1.43142C17.4853 1.22383 17.3027 1.06641 17.0831 1.06641C16.8361 1.06641 16.6359 1.26564 16.6359 1.51141V2.88166L16.6431 2.96165C16.681 3.16925 16.8636 3.32666 17.0831 3.32666C17.3302 3.32666 17.5304 3.12743 17.5304 2.88166V1.51141L17.5232 1.43142Z" fill="#FFDA17"/>
<path d="M12.1423 2.399C12.3028 2.25494 12.5393 2.24801 12.7068 2.37077L12.774 2.4313L13.8474 3.615C14.0129 3.79748 13.9984 4.07887 13.815 4.2435C13.6545 4.38756 13.4179 4.3945 13.2504 4.27174L13.1833 4.21121L12.1098 3.0275C11.9443 2.84503 11.9589 2.56364 12.1423 2.399Z" fill="#FFDA17"/>
<path d="M16.2215 3.79569C18.3087 3.79569 20.0007 5.4791 20.0007 7.55579C20.0007 8.06458 19.9549 8.47099 19.7597 8.93046C19.6635 9.15683 19.4011 9.26275 19.1736 9.16704C18.6102 8.63416 17.675 7.7974 16.0204 7.97645C15.6244 6.46782 14.1642 5.67275 13.5089 5.42783C13.4761 5.41559 13.4507 5.40826 13.4303 5.4024C13.3765 5.38688 13.3581 5.38159 13.3339 5.32268C13.3006 5.2415 13.3802 5.14522 13.472 5.04462C14.0629 4.39664 15.2421 3.79569 16.2215 3.79569Z" fill="#FFDA17"/>
<path d="M20.8638 3.17336C21.0385 2.99958 21.3217 2.99958 21.4964 3.17336C21.6492 3.32542 21.6683 3.56015 21.5537 3.73288L21.4964 3.80269L20.3345 4.95863C20.1599 5.13242 19.8767 5.13242 19.702 4.95863C19.5492 4.80657 19.5301 4.57184 19.6447 4.39911L19.702 4.3293L20.8638 3.17336Z" fill="#FFDA17"/>
<path d="M23.0014 7.2789C23.0014 7.03314 22.8012 6.8339 22.5542 6.8339H20.7182L20.6378 6.84107C20.4292 6.87875 20.271 7.06044 20.271 7.2789C20.271 7.52467 20.4712 7.72391 20.7182 7.72391H22.5542L22.6346 7.71674C22.8432 7.67906 23.0014 7.49736 23.0014 7.2789Z" fill="#FFDA17"/>
<path d="M11.4216 5.60292C9.65737 5.69026 8.15489 6.85699 7.61163 8.48623L7.58238 8.58067L7.33533 8.52008C7.07945 8.46572 6.81716 8.43784 6.55145 8.43784C4.46456 8.43784 2.77295 10.1209 2.77295 12.1972C2.77295 14.2736 4.46456 15.9566 6.55145 15.9566H16.1691C18.256 15.9566 19.9476 14.2736 19.9476 12.1972C19.9476 10.1209 18.2561 8.4382 16.1691 8.4382L15.9324 8.44603C15.8536 8.45123 15.7748 8.45901 15.6961 8.4693L15.6545 8.47601L15.591 8.29869C14.9719 6.69988 13.4164 5.59766 11.6345 5.59766L11.4216 5.60292Z" fill="white"/>
</svg>
