<svg width="25" height="25" viewBox="0 0 25 25" fill="none" xmlns="http://www.w3.org/2000/svg">
<path d="M14.2153 14.7129H11.1877C10.9756 14.7129 10.7888 14.8522 10.7282 15.0554L9.56634 18.8383L9.54993 18.9151C9.51002 19.2201 9.77193 19.4939 10.0906 19.4505L11.7272 19.1087L10.3104 22.2767C10.1368 22.7789 10.7875 23.1487 11.1301 22.7425L15.3654 17.8796L15.4122 17.8141C15.5871 17.5216 15.4026 17.1282 15.0457 17.0932H13.6045L14.6095 15.4654C14.8297 15.1474 14.6021 14.7129 14.2153 14.7129Z" fill="#FFD601"/>
<path d="M12.8378 1.89223C10.7155 1.99101 8.90885 3.4093 8.27373 5.38631L8.25828 5.43612L8.11577 5.39703C7.77024 5.31239 7.41406 5.26883 7.05258 5.26883C4.56836 5.26883 2.55469 7.2825 2.55469 9.76672C2.55469 12.2509 4.56836 14.2646 7.05258 14.2646H18.4474C20.9316 14.2646 22.9453 12.2509 22.9453 9.76672C22.9453 7.28257 20.9316 5.26925 18.4474 5.26925L18.1655 5.27862L18.0249 5.29026L17.851 5.31082L17.7997 5.16269C17.0752 3.22596 15.2119 1.88672 13.0749 1.88672L12.8378 1.89223Z" fill="white"/>
</svg>
