<svg width="25" height="25" viewBox="0 0 25 25" fill="none" xmlns="http://www.w3.org/2000/svg">
<path d="M7.7452 8.20395C7.01227 8.52197 6.34857 8.95821 5.77525 9.48657C5.07816 10.129 4.51467 10.9076 4.12278 11.7755C3.72093 12.6655 3.49951 13.6493 3.49951 14.6764C3.49951 18.5754 6.66063 21.7365 10.5596 21.7365C12.8976 21.7365 14.9897 20.592 16.2767 18.8117C16.8027 18.0841 17.1943 17.2504 17.4132 16.3451C17.4618 16.1441 17.3548 15.885 17.0571 15.937C11.4876 17.485 7.35448 14.8766 8.2329 8.51581C8.2329 8.14103 7.98655 8.09923 7.7452 8.20395Z" fill="#FFF5D0"/>
<path fill-rule="evenodd" clip-rule="evenodd" d="M11.0938 4.25679L12.5827 4.76237L13.0877 6.2537C13.0943 6.27913 13.1173 6.29669 13.144 6.29669C13.17 6.29669 13.193 6.27913 13.1997 6.2537L13.7047 4.76298L15.1936 4.25739V4.25679C15.219 4.25013 15.2372 4.22772 15.2372 4.20108C15.2372 4.17504 15.219 4.15203 15.1936 4.14537L13.7047 3.63979L13.1997 2.14906C13.193 2.12363 13.17 2.10547 13.144 2.10547C13.1173 2.10547 13.0943 2.12363 13.0877 2.14906L12.5827 3.63979L11.0938 4.14537C11.0683 4.15203 11.0508 4.17504 11.0508 4.20108C11.0508 4.22712 11.0683 4.25013 11.0938 4.25679ZM15.0731 12.0984L15.9582 12.6906L16.0265 13.7549C16.0264 13.7727 16.0384 13.7882 16.0558 13.7929C16.0729 13.7975 16.091 13.79 16.0998 13.7746L16.692 12.8881L17.7548 12.819L17.7549 12.8186C17.7727 12.8187 17.7885 12.8072 17.7932 12.7898C17.7977 12.7728 17.7899 12.7545 17.7744 12.7457L16.8893 12.1534L16.8208 11.0896C16.821 11.0718 16.8091 11.0559 16.7921 11.0513C16.7746 11.0466 16.7564 11.0545 16.7476 11.0699L16.1554 11.9563L15.0926 12.0255C15.0748 12.0254 15.0593 12.0374 15.0547 12.0544C15.0502 12.0714 15.0576 12.0896 15.0731 12.0984ZM21.1651 8.04481L20.4164 8.18048C20.4041 8.18363 20.3912 8.17802 20.3851 8.167C20.379 8.15598 20.381 8.14213 20.3902 8.13334L20.9015 7.56981L20.7652 6.82046C20.762 6.80813 20.7675 6.79504 20.7788 6.78879C20.7898 6.78268 20.8038 6.78496 20.8126 6.79416L21.3763 7.30637L22.125 7.1707C22.1373 7.16754 22.1504 7.17302 22.1565 7.18403C22.1628 7.19531 22.1604 7.20905 22.1512 7.21784L22.1513 7.2181L21.64 7.78163L21.7764 8.53097C21.7795 8.5433 21.7739 8.55613 21.7629 8.56225C21.7516 8.5685 21.7377 8.56647 21.729 8.55728L21.1651 8.04481Z" fill="white"/>
</svg>
