<svg width="24" height="24" viewBox="0 0 24 24" fill="none" xmlns="http://www.w3.org/2000/svg">
<path d="M8.53006 7.37336C7.86243 7.66304 7.25786 8.06042 6.7356 8.54172C6.10061 9.12691 5.58732 9.83617 5.23034 10.6268C4.86429 11.4374 4.6626 12.3336 4.6626 13.2693C4.6626 16.8209 7.54211 19.7004 11.0937 19.7004C13.2235 19.7004 15.1292 18.6578 16.3016 17.0361C16.7807 16.3734 17.1374 15.6139 17.3368 14.7893C17.3811 14.6062 17.2836 14.3702 17.0124 14.4175C11.939 15.8277 8.17415 13.4516 8.97432 7.65743C8.97432 7.31604 8.74992 7.27796 8.53006 7.37336Z" fill="#FAF1D0"/>
<path d="M11.1526 5.85467L12.2281 6.21985L12.5928 7.29703C12.5976 7.3154 12.6142 7.32808 12.6335 7.32808C12.6523 7.32808 12.6689 7.3154 12.6737 7.29703L13.0385 6.22029L14.1139 5.85511V5.85467C14.1323 5.84986 14.1454 5.83368 14.1454 5.81443C14.1454 5.79563 14.1323 5.77901 14.1139 5.7742L13.0385 5.40901L12.6737 4.33227C12.6689 4.3139 12.6523 4.30078 12.6335 4.30078C12.6142 4.30078 12.5976 4.3139 12.5928 4.33227L12.2281 5.40901L11.1526 5.7742C11.1343 5.77901 11.1216 5.79563 11.1216 5.81443C11.1216 5.83324 11.1343 5.84986 11.1526 5.85467V5.85467Z" fill="white"/>
<path d="M14.2254 10.5824L14.8647 11.0102L14.9141 11.7789C14.914 11.7918 14.9226 11.803 14.9352 11.8064C14.9475 11.8097 14.9606 11.8043 14.967 11.7931L15.3947 11.1529L16.1623 11.1029L16.1624 11.1026C16.1753 11.1027 16.1867 11.0944 16.1901 11.0818C16.1934 11.0695 16.1877 11.0564 16.1766 11.05L15.5372 10.6222L15.4878 9.8538C15.4879 9.84094 15.4793 9.82944 15.467 9.82613C15.4544 9.82275 15.4412 9.82842 15.4349 9.83959L15.0071 10.4798L14.2395 10.5298C14.2267 10.5297 14.2154 10.5384 14.2121 10.5507C14.2088 10.563 14.2142 10.5761 14.2254 10.5824L14.2254 10.5824Z" fill="white"/>
<path d="M17.7252 8.37873L18.266 8.28074L18.6732 8.65089C18.6796 8.65753 18.6896 8.659 18.6977 8.65448C18.7057 8.65006 18.7097 8.64079 18.7075 8.63189L18.609 8.09064L18.9783 7.68361L18.9782 7.68342C18.9848 7.67707 18.9866 7.66714 18.9821 7.659C18.9776 7.65104 18.9682 7.64709 18.9593 7.64937L18.4185 7.74736L18.0113 7.37739C18.005 7.37075 17.9949 7.3691 17.9869 7.37352C17.9788 7.37804 17.9748 7.38749 17.9771 7.39639L18.0756 7.93764L17.7063 8.34468C17.6996 8.35103 17.6982 8.36104 17.7026 8.369C17.707 8.37695 17.7163 8.38101 17.7252 8.37873L17.7252 8.37873Z" fill="white"/>
</svg>
