<svg width="24" height="24" viewBox="0 0 24 24" fill="none" xmlns="http://www.w3.org/2000/svg">
<path fill-rule="evenodd" clip-rule="evenodd" d="M12 4C16.4174 4 20 7.58245 20 12C20 16.4161 16.4161 20 12 20C7.58526 20 4 16.4147 4 12C4 7.58385 7.58385 4 12 4ZM12.0001 5.25221C8.27155 5.25221 5.25286 8.27089 5.25286 11.9995C5.25286 15.7294 8.27014 18.7467 12.0001 18.7467C15.7287 18.7467 18.7474 15.728 18.7474 11.9995C18.7474 8.27212 15.7275 5.25221 12.0001 5.25221ZM12.0001 5.85049C12.3966 5.85049 12.7191 6.17224 12.7191 6.56947C12.7191 6.96601 12.3973 7.28846 12.0001 7.28846C11.6035 7.28846 11.2811 6.96671 11.2811 6.56947C11.2811 6.17294 11.6028 5.85049 12.0001 5.85049ZM13.0005 11.4549C12.7951 11.1321 12.4349 10.9488 12.0643 10.9577C11.1207 9.46027 10.8039 8.96985 10.6043 8.66094L10.6043 8.66093L10.5978 8.65092C10.2679 8.1403 9.36583 8.68323 9.66 9.20694C9.71896 9.31192 9.83167 9.5081 11.133 11.5473C10.9655 11.8806 10.9779 12.2864 11.1847 12.6113C11.5026 13.1103 12.1716 13.2587 12.671 12.9408C13.17 12.6233 13.3184 11.9539 13.0005 11.4549ZM17.0624 9.90707C17.4061 9.7088 17.5241 9.26905 17.3251 8.92535V8.92603C17.1269 8.58164 16.6871 8.46432 16.3434 8.66259C15.9997 8.86086 15.8824 9.30061 16.0807 9.64431C16.2789 9.98802 16.7187 10.1053 17.0624 9.90707ZM17.325 15.0746C17.1267 15.4183 16.687 15.5363 16.3433 15.338C15.9996 15.139 15.8816 14.7 16.0805 14.3563C16.2788 14.0126 16.7186 13.8946 17.0623 14.0935C17.406 14.2918 17.524 14.7315 17.325 15.0752V15.0746ZM11.2811 17.4307C11.2811 17.8279 11.6035 18.1497 12.0001 18.1497C12.3973 18.1497 12.7191 17.8272 12.7191 17.4307C12.7191 17.0334 12.3966 16.7117 12.0001 16.7117C11.6028 16.7117 11.2811 17.0341 11.2811 17.4307ZM6.67503 15.0741C6.47608 14.7304 6.59408 14.2906 6.93779 14.0923C7.28149 13.8941 7.72124 14.0114 7.91951 14.3551C8.11778 14.6988 8.00046 15.1386 7.65675 15.3368C7.31304 15.5351 6.8733 15.4178 6.67503 15.0734V15.0741ZM7.65675 8.66157C7.31305 8.4633 6.8733 8.58131 6.67503 8.92501V8.92433C6.47608 9.26803 6.59408 9.70778 6.93779 9.90605C7.28149 10.105 7.72124 9.98699 7.91951 9.64329C8.11846 9.29959 8.00045 8.86052 7.65675 8.66157Z" fill="black"/>
</svg>
