<svg width="25" height="25" viewBox="0 0 25 25" fill="none" xmlns="http://www.w3.org/2000/svg">
<path d="M17.5493 8.6301C17.857 9.02046 17.79 9.58636 17.3996 9.89406L14.0944 12.4995C14.0636 13.2912 13.4114 13.9256 12.6107 13.9256C11.7919 13.9256 11.126 13.2611 11.126 12.4408C11.126 11.6219 11.7904 10.9561 12.6107 10.9561C12.7664 10.9561 12.9166 10.9801 13.0577 11.0246L16.2853 8.48044C16.6757 8.17273 17.2416 8.23974 17.5493 8.6301Z" fill="black"/>
<path fill-rule="evenodd" clip-rule="evenodd" d="M2.93896 12.578C2.93896 7.23643 7.26915 2.90625 12.6107 2.90625C17.9522 2.90625 22.2824 7.23643 22.2824 12.578C22.2824 17.9195 17.9522 22.2497 12.6107 22.2497C7.26915 22.2497 2.93896 17.9195 2.93896 12.578ZM6.191 8.02149C5.51132 8.97738 5.03978 10.0916 4.8425 11.298C5.19364 11.3369 5.52221 11.5363 5.71219 11.8658C6.0294 12.4158 5.84171 13.1195 5.2918 13.4368C5.13707 13.5261 4.97017 13.5754 4.80314 13.5878C4.94183 14.6708 5.30058 15.6849 5.83312 16.584H19.3883C19.9208 15.6849 20.2796 14.6708 20.4182 13.5879C20.2513 13.5755 20.0846 13.5263 19.93 13.4371C19.3802 13.1187 19.1914 12.4161 19.5096 11.8662C19.6995 11.5369 20.0279 11.3371 20.3789 11.2981C20.1667 10.0001 19.637 8.80892 18.8722 7.80677C18.8645 7.81144 18.8568 7.81604 18.8489 7.82055C18.299 8.13784 17.5955 7.9501 17.2782 7.40007C17.064 7.02863 17.0801 6.58709 17.2824 6.24181C16.2658 5.49101 15.0621 4.97902 13.7541 4.78869C13.6913 5.36385 13.2037 5.8127 12.6109 5.8127C12.0192 5.8127 11.5306 5.36469 11.4678 4.78862C10.0907 4.98891 8.82924 5.54571 7.77999 6.36234C7.97685 6.56868 8.09785 6.84811 8.09785 7.15586C8.09785 7.7901 7.58322 8.30586 6.94785 8.30586C6.65826 8.30586 6.39338 8.19857 6.191 8.02149ZM12.6107 20.4497C10.5617 20.4497 8.69563 19.6669 7.29514 18.384H17.9263C16.5258 19.6669 14.6596 20.4497 12.6107 20.4497Z" fill="black"/>
</svg>
