<svg width="24" height="24" viewBox="0 0 24 24" fill="none" xmlns="http://www.w3.org/2000/svg">
<path d="M7.00268 8.23608C7.25633 5.83304 9.37611 4 11.9 4C14.6044 4 16.8 6.08348 16.8 8.66702C16.8 9.74202 16.3498 10.524 15.1404 11.6829L14.399 12.3883C13.1855 13.5799 12.7765 14.3603 12.7765 15.528V15.708C12.7765 16.081 12.4742 16.3834 12.1012 16.3834H11.6988C11.3259 16.3834 11.0235 16.081 11.0235 15.708V15.528C11.0235 13.9902 11.6162 12.8831 13.1756 11.3319L13.9795 10.5351L14.2237 10.2764C14.809 9.63274 15.0469 9.16232 15.0469 8.66702C15.0469 7.0275 13.6538 5.71071 11.9 5.71071C10.2908 5.71071 8.94905 6.84888 8.7664 8.38067L8.73736 8.47635C8.66223 8.64763 8.49248 8.76005 8.30298 8.76005L7.43564 8.75832C7.16809 8.7307 6.97477 8.5005 7.00268 8.23608Z" fill="black"/>
<path d="M11.739 17.8446H12.0609C12.4339 17.8446 12.7363 18.147 12.7363 18.52V19.3246C12.7363 19.6976 12.4339 20 12.0609 20H11.739C11.3661 20 11.0637 19.6976 11.0637 19.3246V18.52C11.0637 18.147 11.3661 17.8446 11.739 17.8446Z" fill="black"/>
</svg>
