<svg width="25" height="25" viewBox="0 0 25 25" fill="none" xmlns="http://www.w3.org/2000/svg">
<path d="M6.17157 7.57442C6.51231 4.46756 9.35986 2.09766 12.7503 2.09766C16.3832 2.09766 19.3325 4.79136 19.3325 8.13158C19.3325 9.52143 18.7278 10.5325 17.1032 12.0307L16.1072 12.9428C14.4771 14.4833 13.9278 15.4924 13.9278 17.0021V17.2348C13.9278 17.717 13.5216 18.1079 13.0205 18.1079H12.48C11.979 18.1079 11.5728 17.717 11.5728 17.2348V17.0021C11.5728 15.0138 12.369 13.5825 14.4638 11.5769L15.5437 10.5467L15.8717 10.2123C16.658 9.38014 16.9776 8.77195 16.9776 8.13158C16.9776 6.01187 15.1062 4.30941 12.7503 4.30941C10.5886 4.30941 8.78617 5.78094 8.54082 7.76136L8.5018 7.88506C8.40089 8.10651 8.17286 8.25184 7.9183 8.25184L6.75317 8.24962C6.39377 8.21391 6.13407 7.91628 6.17157 7.57442Z" fill="black"/>
<path d="M12.5341 19.9971H12.9664C13.4675 19.9971 13.8737 20.388 13.8737 20.8703V21.9106C13.8737 22.3929 13.4675 22.7838 12.9664 22.7838H12.5341C12.033 22.7838 11.6268 22.3929 11.6268 21.9106V20.8703C11.6268 20.388 12.033 19.9971 12.5341 19.9971Z" fill="black"/>
</svg>
