<svg width="25" height="25" viewBox="0 0 25 25" fill="none" xmlns="http://www.w3.org/2000/svg">
<path d="M5.29041 15.7967C5.54021 15.5469 5.94522 15.5469 6.19502 15.7967C6.41706 16.0188 6.44174 16.3634 6.26903 16.6127L6.19502 16.7013L3.82829 19.0681C3.57849 19.3179 3.17348 19.3179 2.92368 19.0681C2.70163 18.846 2.67696 18.5013 2.84966 18.252L2.92368 18.1635L5.29041 15.7967Z" fill="#30C1FF"/>
<path d="M19.5865 15.7967C19.8363 15.5469 20.2413 15.5469 20.4911 15.7967C20.7131 16.0188 20.7378 16.3634 20.5651 16.6127L20.4911 16.7013L18.1243 19.0681C17.8745 19.3179 17.4695 19.3179 17.2197 19.0681C16.9977 18.846 16.973 18.5013 17.1457 18.252L17.2197 18.1635L19.5865 15.7967Z" fill="#30C1FF"/>
<path d="M10.1825 15.7967C10.4323 15.5469 10.8373 15.5469 11.0871 15.7967C11.3092 16.0188 11.3338 16.3634 11.1611 16.6127L11.0871 16.7013L5.82606 21.9624C5.57626 22.2122 5.17125 22.2122 4.92145 21.9624C4.69941 21.7403 4.67474 21.3957 4.84744 21.1464L4.92145 21.0578L10.1825 15.7967Z" fill="#30C1FF"/>
<path d="M15.4435 15.7967C15.6933 15.5469 16.0984 15.5469 16.3482 15.7967C16.5702 16.0188 16.5949 16.3634 16.4222 16.6127L16.3482 16.7013L11.0871 21.9624C10.8373 22.2122 10.4323 22.2122 10.1825 21.9624C9.96045 21.7403 9.93578 21.3957 10.1085 21.1464L10.1825 21.0578L15.4435 15.7967Z" fill="#30C1FF"/>
<path d="M12.8495 1.85104C10.6484 1.95028 8.77522 3.42471 8.12523 5.47829L8.10964 5.52905L7.9422 5.48274C7.58583 5.39545 7.21848 5.35052 6.84565 5.35052C4.28344 5.35052 2.20654 7.42742 2.20654 9.98963C2.20654 12.5518 4.28344 14.6287 6.84565 14.6287H18.6539C21.2161 14.6287 23.293 12.5518 23.293 9.98963C23.293 7.42748 21.2161 5.35096 18.6539 5.35096L18.3632 5.36062C18.2665 5.36704 18.1698 5.37664 18.0732 5.38934L18.0215 5.39726L17.9701 5.24778C17.2283 3.23763 15.2996 1.8457 13.0865 1.8457L12.8495 1.85104Z" fill="white"/>
</svg>
