<svg width="25" height="25" viewBox="0 0 25 25" fill="none" xmlns="http://www.w3.org/2000/svg">
<path d="M5.25154 17.6447C5.46003 17.4362 5.79807 17.4362 6.00657 17.6447C6.189 17.8271 6.2118 18.1087 6.07498 18.3159L6.00657 18.3997L4.17751 20.2287C3.96902 20.4372 3.63098 20.4372 3.42248 20.2287C3.24005 20.0463 3.21725 19.7647 3.35407 19.5575L3.42248 19.4737L5.25154 17.6447Z" fill="#30C1FF"/>
<path d="M16.2998 17.6447C16.5083 17.4362 16.8463 17.4362 17.0548 17.6447C17.2373 17.8271 17.2601 18.1087 17.1232 18.3159L17.0548 18.3997L15.2258 20.2287C15.0173 20.4372 14.6792 20.4372 14.4708 20.2287C14.2883 20.0463 14.2655 19.7647 14.4023 19.5575L14.4708 19.4737L16.2998 17.6447Z" fill="#30C1FF"/>
<path d="M9.03226 17.6446C9.24076 17.4361 9.5788 17.4362 9.78729 17.6447C9.96971 17.8271 9.9925 18.1087 9.85567 18.316L9.78725 18.3997L5.72102 22.4655C5.51251 22.674 5.17447 22.674 4.96599 22.4655C4.78356 22.2831 4.76077 22.0014 4.89761 21.7942L4.96603 21.7105L9.03226 17.6446Z" fill="#30C1FF"/>
<path d="M13.0981 17.6447C13.3066 17.4362 13.6446 17.4362 13.8531 17.6447C14.0355 17.8271 14.0583 18.1087 13.9215 18.3159L13.8531 18.3997L9.78727 22.4655C9.57877 22.674 9.24073 22.674 9.03224 22.4655C8.84981 22.2831 8.827 22.0015 8.96383 21.7942L9.03224 21.7105L13.0981 17.6447Z" fill="#30C1FF"/>
<path d="M18.2983 1.08474C18.2571 0.857706 18.0584 0.685547 17.8195 0.685547C17.5507 0.685547 17.3328 0.903436 17.3328 1.17222V2.67077L17.3406 2.75825C17.3818 2.98528 17.5805 3.15744 17.8195 3.15744C18.0882 3.15744 18.3061 2.93955 18.3061 2.67077V1.17222L18.2983 1.08474Z" fill="#FFDA17"/>
<path d="M12.4434 2.1428C12.618 1.98525 12.8754 1.97767 13.0577 2.11192L13.1307 2.17812L14.2987 3.47266C14.4788 3.67221 14.463 3.97995 14.2634 4.16C14.0888 4.31755 13.8314 4.32514 13.6491 4.19088L13.5761 4.12469L12.4081 2.83015C12.228 2.63059 12.2438 2.32285 12.4434 2.1428Z" fill="#FFDA17"/>
<path d="M16.8819 3.67058C19.1531 3.67058 20.9941 5.51161 20.9941 7.78274C20.9941 8.33917 20.9443 8.78363 20.7318 9.28612C20.6272 9.53369 20.3416 9.64952 20.0941 9.54485C19.4811 8.96208 18.4635 8.04697 16.6631 8.24278C16.2323 6.5929 14.6434 5.7234 13.9303 5.45554C13.8947 5.44215 13.867 5.43414 13.8449 5.42772C13.7863 5.41075 13.7663 5.40497 13.74 5.34055C13.7037 5.25177 13.7903 5.14647 13.8902 5.03645C14.5332 4.3278 15.8163 3.67058 16.8819 3.67058Z" fill="#FFDA17"/>
<path d="M21.9332 2.98929C22.1233 2.79923 22.4314 2.79923 22.6215 2.98929C22.7878 3.15559 22.8086 3.4123 22.6838 3.6012L22.6215 3.67754L21.3573 4.94171C21.1672 5.13177 20.8591 5.13177 20.669 4.94171C20.5027 4.77541 20.482 4.51871 20.6067 4.3298L20.669 4.25346L21.9332 2.98929Z" fill="#FFDA17"/>
<path d="M24.2591 7.48022C24.2591 7.21144 24.0412 6.99355 23.7724 6.99355H21.7747L21.6872 7.0014C21.4602 7.0426 21.288 7.24131 21.288 7.48022C21.288 7.749 21.5059 7.96689 21.7747 7.96689H23.7724L23.8599 7.95905C24.0869 7.91784 24.2591 7.71914 24.2591 7.48022Z" fill="#FFDA17"/>
<path d="M11.6591 5.64833C9.73945 5.74385 8.1046 7.01983 7.51349 8.80161L7.48167 8.9049L7.21284 8.83863C6.93443 8.77918 6.64903 8.74869 6.35991 8.74869C4.08917 8.74869 2.24854 10.5893 2.24854 12.8601C2.24854 15.1308 4.08917 16.9715 6.35991 16.9715H16.8249C19.0956 16.9715 20.9362 15.1308 20.9362 12.8601C20.9362 10.5894 19.0957 8.74908 16.8249 8.74908L16.5673 8.75765C16.4815 8.76334 16.3958 8.77184 16.3102 8.7831L16.2649 8.79043L16.1959 8.59651C15.5222 6.84801 13.8297 5.64258 11.8908 5.64258L11.6591 5.64833Z" fill="white"/>
</svg>
