<svg width="24" height="24" viewBox="0 0 24 24" fill="none" xmlns="http://www.w3.org/2000/svg">
<path d="M6.183 16.3285C6.33456 16.177 6.58028 16.177 6.73184 16.3285C6.86446 16.4611 6.88103 16.6658 6.78157 16.8165L6.73184 16.8774L5.40226 18.2069C5.2507 18.3585 5.00498 18.3585 4.85342 18.2069C4.7208 18.0743 4.70422 17.8696 4.80369 17.719L4.85342 17.6581L6.183 16.3285Z" fill="#1262AD"/>
<path d="M14.2142 16.3285C14.3658 16.177 14.6115 16.177 14.7631 16.3285C14.8957 16.4611 14.9123 16.6658 14.8128 16.8165L14.7631 16.8774L13.4335 18.2069C13.2819 18.3585 13.0362 18.3585 12.8847 18.2069C12.752 18.0743 12.7355 17.8696 12.8349 17.719L12.8847 17.6581L14.2142 16.3285Z" fill="#1262AD"/>
<path d="M8.93129 16.3285C9.08285 16.1769 9.32858 16.177 9.48013 16.3285C9.61274 16.4611 9.62931 16.6659 9.52984 16.8165L9.48011 16.8774L6.52427 19.8329C6.3727 19.9845 6.12698 19.9845 5.97542 19.8329C5.84282 19.7003 5.82625 19.4956 5.92572 19.3449L5.97545 19.284L8.93129 16.3285Z" fill="#1262AD"/>
<path d="M11.8868 16.3285C12.0384 16.177 12.2841 16.177 12.4357 16.3285C12.5683 16.4611 12.5849 16.6658 12.4854 16.8165L12.4357 16.8774L9.48012 19.8329C9.32856 19.9845 9.08283 19.9845 8.93127 19.8329C8.79866 19.7003 8.78208 19.4956 8.88154 19.3449L8.93127 19.2841L11.8868 16.3285Z" fill="#1262AD"/>
<path d="M15.667 4.29018C15.6371 4.12515 15.4926 4 15.319 4C15.1236 4 14.9652 4.15839 14.9652 4.35377V5.4431L14.9709 5.50669C15.0009 5.67173 15.1453 5.79687 15.319 5.79687C15.5144 5.79687 15.6727 5.63848 15.6727 5.4431V4.35377L15.667 4.29018Z" fill="#ECC741"/>
<path d="M11.411 5.05931C11.5379 4.94479 11.725 4.93927 11.8575 5.03686L11.9106 5.08498L12.7597 6.02601C12.8906 6.17108 12.8791 6.39478 12.734 6.52566C12.6071 6.64018 12.4199 6.6457 12.2874 6.54811L12.2344 6.49999L11.3853 5.55896C11.2544 5.41389 11.2659 5.19019 11.411 5.05931Z" fill="#ECC741"/>
<path d="M14.6375 6.16989C16.2884 6.16989 17.6267 7.50817 17.6267 9.15911C17.6267 9.56359 17.5905 9.88668 17.436 10.252C17.36 10.4319 17.1524 10.5161 16.9724 10.44C16.5269 10.0164 15.7871 9.35118 14.4784 9.49353C14.1652 8.29419 13.0102 7.66213 12.4919 7.46741C12.466 7.45768 12.4459 7.45186 12.4298 7.4472C12.3872 7.43486 12.3726 7.43066 12.3535 7.38382C12.3272 7.31929 12.3901 7.24275 12.4627 7.16277C12.9301 6.64763 13.8628 6.16989 14.6375 6.16989Z" fill="#ECC741"/>
<path d="M18.3094 5.67464C18.4475 5.53649 18.6715 5.53649 18.8097 5.67464C18.9305 5.79553 18.9457 5.98214 18.855 6.11945L18.8097 6.17495L17.8907 7.0939C17.7526 7.23206 17.5286 7.23206 17.3904 7.0939C17.2695 6.97302 17.2544 6.78641 17.3451 6.64909L17.3904 6.5936L18.3094 5.67464Z" fill="#ECC741"/>
<path d="M20.0001 8.9392C20.0001 8.74382 19.8417 8.58543 19.6463 8.58543H18.1941L18.1305 8.59113C17.9655 8.62109 17.8404 8.76553 17.8404 8.9392C17.8404 9.13459 17.9988 9.29297 18.1941 9.29297H19.6463L19.7099 9.28727C19.8749 9.25732 20.0001 9.11288 20.0001 8.9392Z" fill="#ECC741"/>
<path d="M10.8408 7.6077C9.44532 7.67713 8.25691 8.60467 7.82721 9.89989L7.80408 9.97497L7.60867 9.9268C7.40628 9.88358 7.19882 9.86142 6.98865 9.86142C5.338 9.86142 4 11.1994 4 12.8501C4 14.5007 5.338 15.8387 6.98865 15.8387H14.5959C16.2465 15.8387 17.5845 14.5007 17.5845 12.8501C17.5845 11.1995 16.2465 9.8617 14.5959 9.8617L14.4086 9.86793C14.3463 9.87207 14.284 9.87825 14.2218 9.88643L14.1888 9.89176L14.1386 9.7508C13.6489 8.47977 12.4186 7.60352 11.0092 7.60352L10.8408 7.6077Z" fill="#F4F4F4"/>
</svg>
