<svg width="25" height="25" viewBox="0 0 25 25" fill="none" xmlns="http://www.w3.org/2000/svg">
<path d="M5.98562 18.0497C6.19516 17.8402 6.5349 17.8402 6.74445 18.0497C6.9278 18.2331 6.95072 18.5161 6.81321 18.7244L6.74445 18.8086L4.77488 20.7781C4.56533 20.9877 4.22559 20.9877 4.01605 20.7781C3.83269 20.5948 3.80977 20.3118 3.94729 20.1035L4.01605 20.0193L5.98562 18.0497Z" fill="#30C1FF"/>
<path d="M17.8831 18.0497C18.0926 17.8402 18.4324 17.8402 18.6419 18.0497C18.8253 18.2331 18.8482 18.5161 18.7107 18.7244L18.6419 18.8086L16.6724 20.7781C16.4628 20.9877 16.1231 20.9877 15.9135 20.7781C15.7302 20.5948 15.7073 20.3118 15.8448 20.1035L15.9135 20.0193L17.8831 18.0497Z" fill="#30C1FF"/>
<path d="M10.0568 18.0497C10.2663 17.8402 10.6061 17.8402 10.8156 18.0497C10.999 18.2331 11.0219 18.5161 10.8844 18.7244L10.8156 18.8086L6.43741 23.1868C6.22786 23.3963 5.88812 23.3963 5.67858 23.1868C5.49522 23.0034 5.47231 22.7204 5.60982 22.5121L5.67858 22.4279L10.0568 18.0497Z" fill="#30C1FF"/>
<path d="M14.435 18.0497C14.6445 17.8402 14.9843 17.8402 15.1938 18.0497C15.3772 18.2331 15.4001 18.5161 15.2626 18.7244L15.1938 18.8086L10.8156 23.1868C10.6061 23.3963 10.2663 23.3963 10.0568 23.1868C9.87342 23.0034 9.8505 22.7204 9.98802 22.5121L10.0568 22.4279L14.435 18.0497Z" fill="#30C1FF"/>
<path d="M17.4268 1.52701C17.5676 1.46593 17.7113 1.49031 17.7113 1.70892C17.7113 4.98693 20.0865 6.52119 22.8585 6.03779C23.0322 6.0075 23.0946 6.15863 23.0663 6.27588C22.9386 6.80391 22.7102 7.29027 22.4033 7.71468C21.9928 8.28256 21.4418 8.73954 20.8037 9.0371C19.9719 8.30748 18.8821 7.86583 17.6891 7.86583L17.5257 7.87091L17.4542 7.71279C16.9219 6.61117 16.031 5.74586 14.9536 5.24167C14.9591 4.66462 15.0873 4.11193 15.3138 3.61036C15.5424 3.1041 15.8711 2.64992 16.2777 2.27518C16.6121 1.96698 16.9993 1.71251 17.4268 1.52701Z" fill="#FFF5D0"/>
<path d="M12.0656 5.27336C9.99038 5.37317 8.22351 6.75635 7.5938 8.68607L7.56087 8.79543L7.38025 8.74622C7.04096 8.66311 6.69122 8.62033 6.33626 8.62033C3.89682 8.62033 1.91943 10.5977 1.91943 13.0372C1.91943 15.4766 3.89682 17.454 6.33626 17.454H17.6322C20.0716 17.454 22.049 15.4766 22.049 13.0372C22.049 10.5978 20.0717 8.62075 17.6322 8.62075L17.3555 8.62995C17.2634 8.63607 17.1713 8.6452 17.0793 8.6573L17.0137 8.66656L16.9425 8.46597C16.2246 6.57398 14.3989 5.26758 12.3063 5.26758L12.0656 5.27336Z" fill="white"/>
</svg>
