<svg width="24" height="24" viewBox="0 0 24 24" fill="none" xmlns="http://www.w3.org/2000/svg">
<path d="M7.39445 15.0439C7.55718 14.8812 7.821 14.8812 7.98372 15.0439C8.12836 15.1886 8.14443 15.4131 8.03194 15.5755L7.98372 15.6332L6.44202 17.1749C6.2793 17.3376 6.01548 17.3376 5.85275 17.1749C5.70811 17.0302 5.69204 16.8057 5.80454 16.6433L5.85275 16.5856L7.39445 15.0439Z" fill="#1262AD"/>
<path d="M16.707 15.0439C16.8697 14.8812 17.1335 14.8812 17.2962 15.0439C17.4409 15.1886 17.457 15.4131 17.3445 15.5755L17.2962 15.6332L15.7545 17.1749C15.5918 17.3376 15.328 17.3376 15.1653 17.1749C15.0206 17.0302 15.0046 16.8057 15.1171 16.6433L15.1653 16.5856L16.707 15.0439Z" fill="#1262AD"/>
<path d="M10.5812 15.0439C10.7439 14.8812 11.0077 14.8812 11.1705 15.0439C11.3151 15.1886 11.3312 15.4131 11.2187 15.5755L11.1705 15.6332L7.74338 19.0603C7.58066 19.223 7.31684 19.223 7.15411 19.0603C7.00947 18.9156 6.9934 18.6911 7.1059 18.5287L7.15411 18.471L10.5812 15.0439Z" fill="#1262AD"/>
<path d="M14.0083 15.0439C14.171 14.8812 14.4348 14.8812 14.5975 15.0439C14.7422 15.1886 14.7582 15.4131 14.6457 15.5755L14.5975 15.6332L11.1705 19.0603C11.0077 19.223 10.7439 19.223 10.5812 19.0603C10.4365 18.9156 10.4205 18.6911 10.533 18.5287L10.5812 18.471L14.0083 15.0439Z" fill="#1262AD"/>
<path d="M12.0756 5.00405C10.4056 5.07935 8.9842 6.19812 8.491 7.75635L8.47916 7.79486L8.35212 7.75972C8.08171 7.69348 7.80297 7.65939 7.52007 7.65939C5.57591 7.65939 4 9.2353 4 11.1795C4 13.1236 5.57591 14.6995 7.52007 14.6995H16.4799C18.4241 14.6995 20 13.1236 20 11.1795C20 9.23535 18.4241 7.65972 16.4799 7.65972L16.2594 7.66706C16.186 7.67193 16.1126 7.67921 16.0393 7.68885L16.0001 7.69486L15.9611 7.58144C15.3982 6.05617 13.9348 5 12.2555 5L12.0756 5.00405Z" fill="#DFDFDF"/>
</svg>
