<svg width="24" height="24" viewBox="0 0 24 24" fill="none" xmlns="http://www.w3.org/2000/svg">
<path d="M6.97827 16.1229C7.13174 15.9694 7.38057 15.9694 7.53404 16.1229C7.66833 16.2572 7.68511 16.4645 7.5844 16.617L7.53404 16.6787L6.09153 18.1212C5.93805 18.2747 5.68923 18.2747 5.53576 18.1212C5.40147 17.9869 5.38468 17.7796 5.4854 17.6271L5.53576 17.5654L6.97827 16.1229Z" fill="#1262AD"/>
<path d="M15.692 16.1229C15.8455 15.9694 16.0943 15.9694 16.2477 16.1229C16.382 16.2572 16.3988 16.4645 16.2981 16.617L16.2477 16.6787L14.8052 18.1212C14.6518 18.2747 14.4029 18.2747 14.2495 18.1212C14.1152 17.9869 14.0984 17.7796 14.1991 17.6271L14.2495 17.5654L15.692 16.1229Z" fill="#1262AD"/>
<path d="M9.95998 16.1229C10.1135 15.9694 10.3623 15.9694 10.5158 16.1229C10.65 16.2572 10.6668 16.4645 10.5661 16.617L10.5158 16.6787L7.30916 19.8853C7.15569 20.0387 6.90687 20.0387 6.75339 19.8853C6.61911 19.751 6.60232 19.5437 6.70304 19.3912L6.75339 19.3295L9.95998 16.1229Z" fill="#1262AD"/>
<path d="M13.1666 16.1229C13.32 15.9694 13.5689 15.9694 13.7223 16.1229C13.8566 16.2572 13.8734 16.4645 13.7727 16.617L13.7223 16.6787L10.5158 19.8853C10.3623 20.0387 10.1135 20.0387 9.95998 19.8853C9.8257 19.751 9.80891 19.5437 9.90963 19.3912L9.95998 19.3295L13.1666 16.1229Z" fill="#1262AD"/>
<path d="M15.3577 4.02121C15.4608 3.97647 15.5661 3.99433 15.5661 4.15444C15.5661 6.55526 17.3057 7.67895 19.336 7.3249C19.4632 7.30272 19.5089 7.41341 19.4881 7.49928C19.3946 7.88602 19.2273 8.24222 19.0026 8.55306C18.7019 8.96897 18.2983 9.30367 17.831 9.5216C17.2218 8.98723 16.4236 8.66376 15.5498 8.66376L15.4302 8.66748L15.3778 8.55167C14.9879 7.74485 14.3354 7.11109 13.5464 6.74183C13.5504 6.3192 13.6443 5.91441 13.8102 5.54705C13.9776 5.17627 14.2183 4.84363 14.5161 4.56917C14.7611 4.34345 15.0446 4.15708 15.3577 4.02121Z" fill="#FAF1D0"/>
<path d="M11.431 6.76497C9.91116 6.83808 8.61711 7.85112 8.1559 9.26444L8.13178 9.34454L7.9995 9.3085C7.751 9.24763 7.49485 9.2163 7.23488 9.2163C5.44824 9.2163 4 10.6645 4 12.4512C4 14.2378 5.44824 15.6861 7.23488 15.6861H15.508C17.2946 15.6861 18.7429 14.2378 18.7429 12.4512C18.7429 10.6646 17.2947 9.2166 15.508 9.2166L15.3054 9.22334C15.2379 9.22782 15.1705 9.23451 15.1031 9.24337L15.055 9.25015L15.0029 9.10324C14.4771 7.71755 13.14 6.76074 11.6074 6.76074L11.431 6.76497Z" fill="#F4F4F4"/>
</svg>
