<svg width="24" height="24" viewBox="0 0 24 24" fill="none" xmlns="http://www.w3.org/2000/svg">
<path d="M12.4258 4.35479C12.3891 4.15301 12.2125 4 12.0002 4C11.7613 4 11.5677 4.19365 11.5677 4.43254V5.85787L11.0712 5.36149L11.0113 5.31144C10.8428 5.19466 10.6097 5.21134 10.4595 5.36149C10.2906 5.53041 10.2906 5.80428 10.4595 5.97319L11.5677 7.08131V10.956L8.82758 8.21588V6.64911L8.82061 6.57136C8.78399 6.36959 8.60739 6.21658 8.39505 6.21658L8.3173 6.22355C8.11552 6.26017 7.96251 6.43677 7.96251 6.64911L7.96219 7.35049L6.95496 6.34326L6.89506 6.29321C6.72648 6.17643 6.49341 6.19312 6.34326 6.34326C6.17435 6.51218 6.17435 6.78605 6.34326 6.95496L7.35076 7.96246L6.64911 7.96251L6.57136 7.96948C6.36959 8.0061 6.21658 8.18271 6.21658 8.39505C6.21658 8.63393 6.41023 8.82758 6.64911 8.82758H8.21588L10.956 11.5677H7.07716L5.96238 10.4529L5.90248 10.4028C5.7339 10.2861 5.50083 10.3027 5.35069 10.4529L5.30064 10.5128C5.18385 10.6814 5.20054 10.9144 5.35069 11.0646L5.85377 11.5677H4.43254L4.35479 11.5746C4.15301 11.6113 4 11.7879 4 12.0002C4 12.2391 4.19365 12.4327 4.43254 12.4327H5.84029L5.35073 12.9221L5.30067 12.982C5.18387 13.1505 5.20051 13.3836 5.35064 13.5338C5.51953 13.7027 5.79339 13.7027 5.96234 13.5339L7.06381 12.4327H10.956L8.21601 15.1727H6.65328L6.57553 15.1796C6.37375 15.2163 6.22074 15.3929 6.22074 15.6052L6.22771 15.683C6.26433 15.8847 6.44093 16.0378 6.65328 16.0378L7.35096 16.0377L6.34326 17.0454L6.29321 17.1053C6.17643 17.2739 6.19312 17.507 6.34326 17.6571C6.51218 17.826 6.78605 17.826 6.95496 17.6571L7.96671 16.6454L7.96674 17.3512L7.9737 17.4289C8.01029 17.6307 8.18687 17.7837 8.39921 17.7838C8.63809 17.7838 8.83178 17.5902 8.83181 17.3513L8.83206 15.78L11.5677 13.0444V16.9191L10.4595 18.0272L10.4095 18.0871C10.2927 18.2557 10.3094 18.4888 10.4595 18.6389L10.5194 18.6889C10.688 18.8057 10.9211 18.789 11.0712 18.6389L11.5677 18.1425V19.5679L11.5746 19.6456C11.6113 19.8474 11.7879 20.0004 12.0002 20.0004C12.2391 20.0004 12.4327 19.8067 12.4327 19.5679V18.1428L12.9287 18.6389L12.9886 18.6889C13.1572 18.8057 13.3902 18.7891 13.5404 18.6389C13.7094 18.4701 13.7094 18.1962 13.5405 18.0272L12.4327 16.9191V13.0444L15.1724 15.7841V17.3513L15.1794 17.429C15.216 17.6308 15.3926 17.7838 15.605 17.7838L15.6827 17.7768C15.8845 17.7402 16.0375 17.5636 16.0375 17.3513L16.0374 16.6491L17.0454 17.6571L17.1053 17.7072C17.2739 17.824 17.507 17.8073 17.6571 17.6571C17.826 17.4882 17.826 17.2143 17.6571 17.0454L16.6489 16.0372L17.3513 16.0375L17.429 16.0305C17.6308 15.9939 17.7838 15.8173 17.7838 15.605C17.7838 15.3661 17.5902 15.1724 17.3513 15.1724H15.7841L13.0444 12.4327H16.9191L18.0272 13.5409L18.0871 13.5909C18.2557 13.7077 18.4887 13.691 18.6389 13.5409L18.6889 13.4809C18.8057 13.3124 18.789 13.0793 18.6389 12.9292L18.1425 12.4327H19.5675L19.6452 12.4258C19.847 12.3891 20 12.2125 20 12.0002C20 11.7613 19.8063 11.5677 19.5675 11.5677H18.142L18.6389 11.0712L18.6889 11.0113C18.8057 10.8428 18.789 10.6097 18.6389 10.4595C18.47 10.2906 18.1961 10.2906 18.0272 10.4595L16.9191 11.5677H13.0444L15.7845 8.82758H17.3513L17.429 8.82061C17.6308 8.78399 17.7838 8.60739 17.7838 8.39505L17.7768 8.3173C17.7402 8.11552 17.5636 7.96251 17.3513 7.96251L16.6496 7.96246L17.6571 6.95496L17.7072 6.89506C17.824 6.72648 17.8073 6.49341 17.6571 6.34326C17.4882 6.17435 17.2143 6.17435 17.0454 6.34326L16.0374 7.35127L16.0375 6.64911L16.0305 6.57136C15.9939 6.36959 15.8173 6.21658 15.605 6.21658C15.3661 6.21658 15.1724 6.41023 15.1724 6.64911V8.21627L12.4327 10.956V7.08127L13.5405 5.97314L13.5905 5.91323C13.7073 5.74464 13.6906 5.51157 13.5404 5.36144L13.4805 5.3114C13.3119 5.19465 13.0788 5.21137 12.9287 5.36154L12.4327 5.85755V4.43254L12.4258 4.35479Z" fill="white"/>
</svg>
