<svg width="25" height="25" viewBox="0 0 25 25" fill="none" xmlns="http://www.w3.org/2000/svg">
<path d="M13.3295 2.00027C13.2797 1.72575 13.0394 1.51758 12.7505 1.51758C12.4255 1.51758 12.162 1.78104 12.162 2.10605V4.04522L11.4867 3.36989L11.4052 3.3018C11.1758 3.14292 10.8587 3.16562 10.6544 3.36989C10.4246 3.5997 10.4246 3.9723 10.6544 4.20211L12.162 5.70971V10.9812L8.43416 7.25331V5.12171L8.42468 5.01593C8.37485 4.74141 8.13458 4.53324 7.84569 4.53324L7.73991 4.54272C7.46539 4.59255 7.25722 4.83282 7.25722 5.12171L7.25678 6.07593L5.88645 4.7056L5.80495 4.63751C5.5756 4.47862 5.25851 4.50132 5.05423 4.7056C4.82442 4.93541 4.82442 5.30801 5.05423 5.53782L6.42494 6.90853L5.47034 6.90859L5.36456 6.91807C5.09004 6.9679 4.88187 7.20817 4.88187 7.49706C4.88187 7.82206 5.14534 8.08553 5.47034 8.08553H7.60194L11.3298 11.8134H6.05269L4.53604 10.2968L4.45454 10.2287C4.22519 10.0698 3.9081 10.0925 3.70382 10.2968L3.63573 10.3783C3.47685 10.6076 3.49955 10.9247 3.70382 11.129L4.38827 11.8134H2.45468L2.3489 11.8229C2.07438 11.8727 1.86621 12.113 1.86621 12.4019C1.86621 12.7269 2.12968 12.9903 2.45468 12.9903H4.36994L3.70389 13.6561L3.63578 13.7376C3.47687 13.9669 3.49951 14.284 3.70376 14.4883C3.93353 14.7181 4.30613 14.7182 4.53598 14.4884L6.03453 12.9903H11.3298L7.60211 16.7181H5.476L5.37022 16.7275C5.09571 16.7774 4.88753 17.0176 4.88753 17.3065L4.89702 17.4123C4.94684 17.6868 5.18711 17.895 5.476 17.895L6.42521 17.895L5.05423 19.2659L4.98614 19.3474C4.82726 19.5768 4.84995 19.8939 5.05423 20.0982C5.28404 20.328 5.65664 20.328 5.88645 20.0982L7.26293 18.7217L7.26298 19.6819L7.27244 19.7877C7.32223 20.0622 7.56246 20.2704 7.85135 20.2704C8.17636 20.2705 8.43986 20.0071 8.43991 19.6821L8.44025 17.5444L12.162 13.8226V19.094L10.6544 20.6016L10.5863 20.6831C10.4275 20.9125 10.4502 21.2296 10.6544 21.4339L10.7359 21.502C10.9653 21.6608 11.2824 21.6381 11.4867 21.4339L12.162 20.7585V22.6977L12.1715 22.8035C12.2213 23.078 12.4616 23.2862 12.7505 23.2862C13.0755 23.2862 13.339 23.0227 13.339 22.6977V20.7589L14.0138 21.4338L14.0953 21.5019C14.3246 21.6608 14.6417 21.6382 14.846 21.4339C15.0758 21.2042 15.0759 20.8316 14.8461 20.6017L13.339 19.0941V13.8226L17.0663 17.5499V19.682L17.0758 19.7878C17.1256 20.0623 17.3659 20.2705 17.6548 20.2705L17.7606 20.261C18.0351 20.2112 18.2433 19.9709 18.2433 19.682L18.2432 18.7268L19.6146 20.0982L19.6961 20.1662C19.9254 20.3251 20.2425 20.3024 20.4468 20.0982C20.6766 19.8683 20.6766 19.4957 20.4468 19.2659L19.0751 17.8943L20.0307 17.8946L20.1365 17.8852C20.411 17.8353 20.6191 17.5951 20.6191 17.3062C20.6191 16.9812 20.3557 16.7177 20.0307 16.7177H17.8986L14.1712 12.9903H19.4427L20.9503 14.4979L21.0318 14.566C21.2611 14.7249 21.5782 14.7022 21.7825 14.4979L21.8506 14.4164C22.0095 14.1871 21.9868 13.87 21.7825 13.6657L21.1072 12.9903H23.0458L23.1516 12.9809C23.4261 12.931 23.6343 12.6908 23.6343 12.4019C23.6343 12.0769 23.3708 11.8134 23.0458 11.8134H21.1065L21.7825 11.138L21.8506 11.0565C22.0095 10.8272 21.9868 10.5101 21.7825 10.3058C21.5527 10.076 21.1801 10.076 20.9503 10.3058L19.4427 11.8134H14.1712L17.8991 8.08553H20.0307L20.1365 8.07604C20.411 8.02622 20.6191 7.78595 20.6191 7.49706L20.6097 7.39128C20.5598 7.11676 20.3196 6.90859 20.0307 6.90859L19.0761 6.90853L20.4468 5.53782L20.5149 5.45632C20.6738 5.22697 20.6511 4.90987 20.4468 4.7056C20.217 4.47579 19.8444 4.47579 19.6146 4.7056L18.2432 6.07699L18.2433 5.12171L18.2338 5.01593C18.184 4.74141 17.9437 4.53324 17.6548 4.53324C17.3298 4.53324 17.0663 4.79671 17.0663 5.12171V7.25384L13.339 10.9812V5.70966L14.8461 4.20205L14.9142 4.12054C15.073 3.89116 15.0503 3.57407 14.846 3.36983L14.7645 3.30175C14.5351 3.1429 14.218 3.16565 14.0138 3.36996L13.339 4.04478V2.10605L13.3295 2.00027Z" fill="white"/>
</svg>
