<svg width="25" height="25" viewBox="0 0 25 25" fill="none" xmlns="http://www.w3.org/2000/svg">
<path d="M18.0781 12.4219C18.0781 15.3645 15.6926 17.75 12.75 17.75C9.80736 17.75 7.42188 15.3645 7.42188 12.4219C7.42188 9.47923 9.80736 7.09375 12.75 7.09375C15.6926 7.09375 18.0781 9.47923 18.0781 12.4219Z" fill="#F9E145"/>
<path d="M19.24 12.4215C19.24 11.9244 19.6429 11.5215 20.14 11.5215H22.34C22.837 11.5215 23.24 11.9244 23.24 12.4215C23.24 12.9185 22.837 13.3215 22.34 13.3215H20.14C19.6429 13.3215 19.24 12.9185 19.24 12.4215Z" fill="#F9E145"/>
<path d="M2.25977 12.4215C2.25977 11.9244 2.66271 11.5215 3.15977 11.5215H5.35977C5.85682 11.5215 6.25977 11.9244 6.25977 12.4215C6.25977 12.9185 5.85682 13.3215 5.35977 13.3215H3.15977C2.66271 13.3215 2.25977 12.9185 2.25977 12.4215Z" fill="#F9E145"/>
<path d="M12.7501 5.93164C12.253 5.93164 11.8501 5.5287 11.8501 5.03164V2.83164C11.8501 2.33458 12.253 1.93164 12.7501 1.93164C13.2472 1.93164 13.6501 2.33458 13.6501 2.83164V5.03164C13.6501 5.5287 13.2472 5.93164 12.7501 5.93164Z" fill="#F9E145"/>
<path d="M12.7501 22.9121C12.253 22.9121 11.8501 22.5092 11.8501 22.0121V19.8121C11.8501 19.3151 12.253 18.9121 12.7501 18.9121C13.2472 18.9121 13.6501 19.3151 13.6501 19.8121V22.0121C13.6501 22.5092 13.2472 22.9121 12.7501 22.9121Z" fill="#F9E145"/>
<path d="M5.2299 19.9421C4.87843 19.5906 4.87843 19.0207 5.2299 18.6693L6.78554 17.1136C7.13701 16.7622 7.70686 16.7622 8.05833 17.1136C8.4098 17.4651 8.4098 18.035 8.05833 18.3864L6.50269 19.9421C6.15122 20.2935 5.58137 20.2935 5.2299 19.9421Z" fill="#F9E145"/>
<path d="M5.2299 4.90071C4.87843 5.25218 4.87843 5.82203 5.2299 6.17351L6.78554 7.72914C7.13701 8.08061 7.70686 8.08061 8.05833 7.72914C8.4098 7.37767 8.4098 6.80782 8.05833 6.45635L6.50269 4.90071C6.15122 4.54924 5.58137 4.54924 5.2299 4.90071Z" fill="#F9E145"/>
<path d="M20.2701 19.9421C20.6216 19.5906 20.6216 19.0207 20.2701 18.6693L18.7145 17.1136C18.363 16.7622 17.7931 16.7622 17.4417 17.1136C17.0902 17.4651 17.0902 18.035 17.4417 18.3864L18.9973 19.9421C19.3488 20.2935 19.9186 20.2935 20.2701 19.9421Z" fill="#F9E145"/>
<path d="M20.2701 4.90071C20.6216 5.25218 20.6216 5.82203 20.2701 6.17351L18.7145 7.72914C18.363 8.08061 17.7931 8.08061 17.4417 7.72914C17.0902 7.37767 17.0902 6.80782 17.4417 6.45635L18.9973 4.90071C19.3488 4.54924 19.9186 4.54924 20.2701 4.90071Z" fill="#F9E145"/>
</svg>
