<svg width="24" height="24" viewBox="0 0 24 24" fill="none" xmlns="http://www.w3.org/2000/svg">
<path d="M12 7.75126C9.65349 7.75126 7.75126 9.65349 7.75126 12C7.75126 14.3465 9.65349 16.2487 12 16.2487C14.3465 16.2487 16.2487 14.3465 16.2487 12C16.2487 9.65349 14.3465 7.75126 12 7.75126Z" fill="#ECC741"/>
<path d="M12.4003 6.68913C12.4003 6.93155 12.2211 7.12807 12 7.12807C11.801 7.12807 11.6359 6.96889 11.6049 6.76033L11.5997 6.68913V4.43894C11.5997 4.19652 11.7789 4 12 4C12.199 4 12.3641 4.15918 12.3951 4.36774L12.4003 4.43894V6.68913Z" fill="#ECC741"/>
<path d="M16.0384 8.52774C15.867 8.69915 15.6013 8.71137 15.445 8.55503C15.3043 8.41431 15.3001 8.18502 15.4256 8.01561L15.4723 7.96156L17.0634 6.37044C17.2348 6.19902 17.5005 6.1868 17.6569 6.34315C17.7976 6.48386 17.8017 6.71315 17.6762 6.88256L17.6296 6.93661L16.0384 8.52774Z" fill="#ECC741"/>
<path d="M17.3109 12.4003C17.0685 12.4003 16.8719 12.2211 16.8719 12C16.8719 11.801 17.0311 11.6359 17.2397 11.6049L17.3109 11.5997H19.5611C19.8035 11.5997 20 11.7789 20 12C20 12.199 19.8408 12.3641 19.6323 12.3951L19.5611 12.4003H17.3109Z" fill="#ECC741"/>
<path d="M15.4723 16.0384C15.3008 15.867 15.2886 15.6013 15.445 15.445C15.5857 15.3043 15.815 15.3001 15.9844 15.4256L16.0384 15.4723L17.6296 17.0634C17.801 17.2348 17.8132 17.5005 17.6569 17.6569C17.5161 17.7976 17.2869 17.8017 17.1174 17.6762L17.0634 17.6296L15.4723 16.0384Z" fill="#ECC741"/>
<path d="M11.5997 17.3109C11.5997 17.0685 11.7789 16.8719 12 16.8719C12.199 16.8719 12.3641 17.0311 12.3951 17.2397L12.4003 17.3109V19.5611C12.4003 19.8035 12.2211 20 12 20C11.801 20 11.6359 19.8408 11.6049 19.6323L11.5997 19.5611V17.3109Z" fill="#ECC741"/>
<path d="M7.96156 15.4723C8.13298 15.3008 8.39868 15.2886 8.55503 15.445C8.69574 15.5857 8.69991 15.815 8.57438 15.9844L8.52774 16.0384L6.93661 17.6296C6.76519 17.801 6.49949 17.8132 6.34315 17.6569C6.20244 17.5161 6.19826 17.2869 6.3238 17.1174L6.37044 17.0634L7.96156 15.4723Z" fill="#ECC741"/>
<path d="M6.68913 11.5997C6.93155 11.5997 7.12807 11.7789 7.12807 12C7.12807 12.199 6.96889 12.3641 6.76033 12.3951L6.68913 12.4003H4.43894C4.19652 12.4003 4 12.2211 4 12C4 11.801 4.15918 11.6359 4.36774 11.6049L4.43894 11.5997H6.68913Z" fill="#ECC741"/>
<path d="M8.52774 7.96156C8.69915 8.13298 8.71137 8.39868 8.55503 8.55503C8.41431 8.69574 8.18502 8.69991 8.01561 8.57438L7.96156 8.52774L6.37044 6.93661C6.19902 6.76519 6.1868 6.49949 6.34315 6.34315C6.48386 6.20244 6.71315 6.19826 6.88256 6.3238L6.93661 6.37044L8.52774 7.96156Z" fill="#ECC741"/>
</svg>
