<svg width="24" height="24" viewBox="0 0 24 24" fill="none" xmlns="http://www.w3.org/2000/svg">
<path d="M11.9998 4C12.2141 4 12.3915 4.15792 12.422 4.36373L12.4266 4.42679V6.61437C12.4266 6.85008 12.2355 7.04116 11.9998 7.04116C11.7855 7.04116 11.6081 6.88324 11.5777 6.67744L11.573 6.61437V4.42679C11.573 4.19108 11.7641 4 11.9998 4Z" fill="black"/>
<path d="M19.5732 11.573C19.8089 11.573 20 11.7641 20 11.9998C20 12.2141 19.8421 12.3915 19.6363 12.422L19.5732 12.4266H17.3853C17.1496 12.4266 16.9585 12.2355 16.9585 11.9998C16.9585 11.7855 17.1164 11.6081 17.3222 11.5777L17.3853 11.573H19.5732Z" fill="black"/>
<path d="M6.61471 11.573C6.85042 11.573 7.04151 11.7641 7.04151 11.9998C7.04151 12.2141 6.88359 12.3915 6.67778 12.422L6.61471 12.4266H4.42679C4.19108 12.4266 4 12.2355 4 11.9998C4 11.7855 4.15792 11.6081 4.36373 11.5777L4.42679 11.573H6.61471Z" fill="black"/>
<path d="M6.34331 6.34297C6.49146 6.19481 6.72144 6.17835 6.88778 6.29358L6.94689 6.34297L8.49393 7.89001C8.6606 8.05669 8.6606 8.32692 8.49393 8.49359C8.34578 8.64174 8.1158 8.65821 7.94946 8.54298L7.89035 8.49359L6.34331 6.94655C6.17664 6.77987 6.17664 6.50964 6.34331 6.34297Z" fill="black"/>
<path d="M17.0531 6.34297C17.2198 6.1763 17.49 6.1763 17.6567 6.34297C17.8048 6.49112 17.8213 6.7211 17.7061 6.88744L17.6567 6.94655L16.1096 8.49359C15.943 8.66026 15.6727 8.66026 15.5061 8.49359C15.3579 8.34544 15.3415 8.11546 15.4567 7.94912L15.5061 7.89001L17.0531 6.34297Z" fill="black"/>
<path fill-rule="evenodd" clip-rule="evenodd" d="M7.64653 11.9998C7.64653 9.59527 9.59538 7.64619 11.9998 7.64619C14.4043 7.64619 16.3535 9.59532 16.3535 11.9998C16.3535 12.7821 16.1433 13.5356 15.752 14.201C15.6753 14.3313 15.5354 14.4114 15.3841 14.4114H8.61586C8.46455 14.4114 8.32455 14.3313 8.24789 14.2008C7.85667 13.535 7.64653 12.7819 7.64653 11.9998Z" fill="black"/>
<path d="M13.5878 16.4137C13.752 16.2446 14.0222 16.2405 14.1913 16.4047C14.3436 16.5524 14.3621 16.786 14.2446 16.9546L14.2004 17.0082L12.3744 18.8898C12.2264 19.0423 11.9923 19.0606 11.8237 18.9426L11.7702 18.8982L9.84037 17.0165C9.67161 16.852 9.66819 16.5818 9.83275 16.413C9.98085 16.2611 10.2145 16.2432 10.3828 16.361L10.4363 16.4054L12.0592 17.9879L13.5878 16.4137Z" fill="black"/>
</svg>
