<svg width="24" height="24" viewBox="0 0 24 24" fill="none" xmlns="http://www.w3.org/2000/svg">
<path d="M12.0002 4C12.2097 4 12.384 4.15098 12.4201 4.35008L12.427 4.42679V6.61437C12.427 6.85008 12.2359 7.04116 12.0002 7.04116C11.7906 7.04116 11.6164 6.89019 11.5803 6.69109L11.5734 6.61437V4.42679C11.5734 4.19108 11.7645 4 12.0002 4Z" fill="black"/>
<path d="M19.5732 11.573C19.8089 11.573 20 11.7641 20 11.9998C20 12.2094 19.849 12.3836 19.6499 12.4197L19.5732 12.4266H17.3853C17.1496 12.4266 16.9585 12.2355 16.9585 11.9998C16.9585 11.7903 17.1095 11.616 17.3086 11.5799L17.3853 11.573H19.5732Z" fill="black"/>
<path d="M7.04151 11.9998C7.04151 11.7641 6.85042 11.573 6.61471 11.573H4.42679L4.35008 11.5799C4.15098 11.616 4 11.7903 4 11.9998C4 12.2355 4.19108 12.4266 4.42679 12.4266H6.61471L6.69143 12.4197C6.89053 12.3836 7.04151 12.2094 7.04151 11.9998Z" fill="black"/>
<path d="M6.34331 6.34297C6.48915 6.19713 6.71428 6.1789 6.87994 6.28828L6.94689 6.34297L8.49393 7.89001C8.66061 8.05669 8.66061 8.32692 8.49393 8.49359C8.34809 8.63943 8.12297 8.65766 7.95731 8.54828L7.89035 8.49359L6.34331 6.94655C6.17664 6.77987 6.17664 6.50964 6.34331 6.34297Z" fill="black"/>
<path d="M17.6567 6.34297C17.49 6.1763 17.2198 6.1763 17.0531 6.34297L15.5061 7.89001L15.4514 7.95696C15.342 8.12263 15.3602 8.34775 15.5061 8.49359C15.6727 8.66026 15.943 8.66026 16.1096 8.49359L17.6567 6.94655L17.7114 6.87959C17.8208 6.71393 17.8025 6.48881 17.6567 6.34297Z" fill="black"/>
<path fill-rule="evenodd" clip-rule="evenodd" d="M7.64653 11.9998C7.64653 9.59527 9.59537 7.64619 11.9998 7.64619C14.4043 7.64619 16.3535 9.59532 16.3535 11.9998C16.3535 12.7821 16.1433 13.5356 15.752 14.201C15.6753 14.3313 15.5354 14.4114 15.3841 14.4114H8.61586C8.46455 14.4114 8.32455 14.3313 8.24789 14.2008C7.85667 13.535 7.64653 12.7819 7.64653 11.9998Z" fill="black"/>
<path d="M12.3029 16.1813C12.1374 16.0745 11.9146 16.0939 11.7701 16.2384L9.93487 18.0737L9.88018 18.1406C9.7708 18.3063 9.78903 18.5314 9.93487 18.6772L10.0018 18.7319C10.1675 18.8413 10.3926 18.8231 10.5384 18.6772L12.0755 17.1393L13.6255 18.6519L13.6931 18.7058C13.8601 18.8131 14.085 18.7921 14.229 18.6444C14.3936 18.4757 14.3902 18.2055 14.2215 18.0409L12.3699 16.2347L12.3029 16.1813Z" fill="black"/>
</svg>
