<svg width="24" height="24" viewBox="0 0 24 24" fill="none" xmlns="http://www.w3.org/2000/svg">
<path fill-rule="evenodd" clip-rule="evenodd" d="M12.1297 4.00507C11.1725 4.07568 10.4176 4.87447 10.4176 5.8497L10.4169 14.0441L10.291 14.1346C9.48896 14.7439 9 15.6956 9 16.7327C9 18.5371 10.4629 20 12.2673 20C14.0718 20 15.5347 18.5371 15.5347 16.7327L15.529 16.5393C15.4724 15.5781 14.9957 14.706 14.244 14.1346L14.117 14.0441L14.1174 5.8497C14.1174 4.82799 13.2893 4 12.2677 4L12.1297 4.00507ZM12.2677 4.76899C12.8647 4.76899 13.3487 5.25281 13.3487 5.8499V14.2535C13.3487 14.3893 13.4203 14.515 13.5371 14.5842C14.2931 15.0322 14.7659 15.8411 14.7659 16.7329C14.7659 18.1127 13.6472 19.2314 12.2674 19.2314C10.8875 19.2314 9.76879 18.1127 9.76879 16.7329C9.76879 15.8411 10.2416 15.0322 10.9979 14.5842C11.1148 14.515 11.1864 14.3893 11.1864 14.2535V5.8499C11.1864 5.25292 11.6706 4.76899 12.2677 4.76899ZM12.8563 10.4506V14.7366C13.7193 14.9906 14.3497 15.7875 14.3501 16.7331C14.3501 17.8832 13.4179 18.8154 12.2678 18.8154C11.1177 18.8154 10.1856 17.8832 10.1856 16.7331C10.1856 15.7875 10.816 14.9906 11.6793 14.7366V10.4506C11.6793 10.1258 11.943 9.86207 12.2678 9.86207C12.5926 9.86207 12.8563 10.1254 12.8563 10.4506Z" fill="black"/>
</svg>
