<svg width="24" height="24" viewBox="0 0 24 24" fill="none" xmlns="http://www.w3.org/2000/svg">
<path d="M12.8566 5.98193V14.7365C13.7196 14.9906 14.35 15.7874 14.3504 16.733C14.3504 17.8831 13.4182 18.8153 12.2681 18.8153C11.118 18.8153 10.1859 17.8831 10.1859 16.733C10.1859 15.7874 10.8163 14.9906 11.6796 14.7365V5.98193C11.6796 5.65712 11.9433 5.39343 12.2681 5.39343C12.5929 5.39343 12.8566 5.65674 12.8566 5.98193Z" fill="#961C2F"/>
<path fill-rule="evenodd" clip-rule="evenodd" d="M12.1297 4.00507C11.1725 4.07568 10.4176 4.87447 10.4176 5.8497L10.4168 14.0441L10.291 14.1346C9.48896 14.7439 9 15.6956 9 16.7327C9 18.5371 10.4629 20 12.2673 20C14.0718 20 15.5347 18.5371 15.5347 16.7327L15.5291 16.5393C15.4727 15.5781 14.9961 14.7059 14.2441 14.1346L14.1169 14.0441L14.1174 5.8497C14.1174 4.82799 13.2893 4 12.2677 4L12.1297 4.00507ZM12.2677 4.76879C12.8647 4.76879 13.3486 5.25261 13.3486 5.8497V14.2533C13.3486 14.3891 13.4203 14.5148 13.5371 14.584C14.2935 15.032 14.7662 15.8409 14.7659 16.7325C14.7659 18.1125 13.6472 19.2312 12.2673 19.2312C10.8875 19.2312 9.76879 18.1125 9.76879 16.7327C9.76879 15.8409 10.2416 15.032 10.9979 14.584C11.1148 14.5148 11.1864 14.3891 11.1864 14.2533V5.8497C11.1864 5.25272 11.6706 4.76879 12.2677 4.76879Z" fill="#961C2F"/>
</svg>
