<svg width="25" height="25" viewBox="0 0 25 25" fill="none" xmlns="http://www.w3.org/2000/svg">
<path d="M11.7497 5.42402C11.7497 4.87174 12.1974 4.42402 12.7497 4.42402C13.302 4.42402 13.7497 4.87174 13.7497 5.42402V15.216C13.7497 15.7683 13.302 16.216 12.7497 16.216C12.1974 16.216 11.7497 15.7683 11.7497 15.216V5.42402Z" fill="#FF8761"/>
<path d="M15.432 16.5231C15.432 18.0047 14.231 19.2057 12.7495 19.2057C11.2679 19.2057 10.0669 18.0047 10.0669 16.5231C10.0669 15.0416 11.2679 13.8406 12.7495 13.8406C14.231 13.8406 15.432 15.0416 15.432 16.5231Z" fill="#FF8761"/>
<path fill-rule="evenodd" clip-rule="evenodd" d="M8.51147 5.43516C8.51147 3.09463 10.4088 1.19727 12.7494 1.19727C15.0899 1.19727 16.9873 3.09463 16.9873 5.43516V11.7291C17.8859 12.5231 18.5454 13.5558 18.8867 14.7107C19.2647 15.9897 19.2337 17.3548 18.7979 18.6153C18.3622 19.8758 17.5436 20.9686 16.4564 21.7411C15.3693 22.5136 14.0679 22.9272 12.7343 22.924C11.4006 22.9208 10.1013 22.501 9.01786 21.7233C7.93442 20.9456 7.12102 19.8489 6.69134 18.5863C6.26165 17.3238 6.23715 15.9585 6.62126 14.6814C6.96512 13.5381 7.62104 12.5165 8.51147 11.7295V5.43516ZM10.1419 12.6612C10.0879 12.7454 10.0188 12.8219 9.93516 12.8866C9.17702 13.4731 8.62106 14.2819 8.34499 15.1998C8.06892 16.1177 8.08653 17.099 8.39536 18.0064C8.70418 18.9138 9.28879 19.7021 10.0675 20.2611C10.8462 20.82 11.7801 21.1217 12.7386 21.124C13.6971 21.1263 14.6324 20.8291 15.4138 20.2739C16.1952 19.7186 16.7836 18.9332 17.0967 18.0272C17.4099 17.1213 17.4322 16.1401 17.1605 15.2209C16.8888 14.3017 16.3368 13.4903 15.5814 12.9001C15.5244 12.8556 15.4742 12.8055 15.431 12.7513C15.2798 12.5903 15.1873 12.3736 15.1873 12.1354V5.43516C15.1873 4.08875 14.0958 2.99727 12.7494 2.99727C11.403 2.99727 10.3115 4.08875 10.3115 5.43516V12.1354C10.3115 12.3317 10.2486 12.5133 10.1419 12.6612Z" fill="#FF8761"/>
</svg>
