<svg width="25" height="25" viewBox="0 0 25 25" fill="none" xmlns="http://www.w3.org/2000/svg">
<path d="M12.75 6.93848C12.1977 6.93848 11.75 7.38619 11.75 7.93848V14.0312C10.7637 14.4276 10.0673 15.3931 10.0673 16.5213C10.0673 18.0028 11.2683 19.2039 12.7499 19.2039C14.2314 19.2039 15.4324 18.0028 15.4324 16.5213C15.4324 15.3932 14.7362 14.4278 13.75 14.0313V7.93848C13.75 7.38619 13.3023 6.93848 12.75 6.93848Z" fill="black"/>
<path fill-rule="evenodd" clip-rule="evenodd" d="M12.7496 1.19336C10.4091 1.19336 8.51172 3.09073 8.51172 5.43125V11.7265C7.6214 12.5135 6.96557 13.5349 6.62175 14.6781C6.23764 15.9553 6.26214 17.3205 6.69183 18.5831C7.12151 19.8456 7.93491 20.9424 9.01834 21.7201C10.1018 22.4978 11.4011 22.9176 12.7348 22.9208C14.0684 22.924 15.3698 22.5104 16.4569 21.7379C17.5441 20.9654 18.3627 19.8725 18.7984 18.6121C19.2342 17.3516 19.2652 15.9865 18.8872 14.7075C18.5458 13.5524 17.8862 12.5197 16.9875 11.7256V5.43125C16.9875 3.09073 15.0901 1.19336 12.7496 1.19336ZM15.4294 12.7453C15.2793 12.5846 15.1875 12.3687 15.1875 12.1314V5.43125C15.1875 4.08484 14.096 2.99336 12.7496 2.99336C11.4032 2.99336 10.3117 4.08484 10.3117 5.43125V12.1314C10.3117 12.324 10.2512 12.5025 10.1482 12.6488C10.0934 12.7366 10.0223 12.8163 9.93564 12.8834C9.1775 13.4699 8.62155 14.2786 8.34548 15.1966C8.06941 16.1145 8.08702 17.0957 8.39584 18.0032C8.70467 18.9106 9.28928 19.6989 10.068 20.2578C10.8467 20.8168 11.7805 21.1185 12.7391 21.1208C13.6976 21.1231 14.6329 20.8258 15.4143 20.2706C16.1957 19.7154 16.784 18.9299 17.0972 18.024C17.4104 17.118 17.4327 16.1369 17.161 15.2177C16.8893 14.2984 16.3373 13.487 15.5819 12.8969C15.524 12.8516 15.473 12.8006 15.4294 12.7453Z" fill="black"/>
</svg>
