<svg width="25" height="25" viewBox="0 0 25 25" fill="none" xmlns="http://www.w3.org/2000/svg">
<path d="M13.2125 12.7329C12.7757 11.9637 12.8086 12.1952 11.8273 10.4719C10.1618 7.54957 8.9672 4.83116 8.9672 4.83116C8.9672 4.83116 7.77371 7.5494 6.10714 10.4719C5.12468 12.1952 5.15872 11.9648 4.72195 12.7329C3.845 14.2758 3.52506 15.0756 3.52506 17.1573L3.52393 17.1562C3.52393 19.1007 4.56084 20.8978 6.24556 21.8698C7.92915 22.8421 10.004 22.8421 11.6876 21.8698C13.3723 20.8976 14.4092 19.1005 14.4092 17.1562C14.4092 15.0755 14.0894 14.2757 13.2125 12.7329ZM7.20522 19.718C6.42923 19.718 5.72813 19.2495 5.43088 18.5325C5.13366 17.8143 5.29815 16.9884 5.84724 16.4382C6.39632 15.8891 7.22338 15.7246 7.94036 16.0219C8.6585 16.3191 9.12702 17.0202 9.12702 17.7973C9.12702 18.3067 8.92395 18.7957 8.56431 19.1553C8.20354 19.5161 7.71461 19.718 7.20522 19.718Z" fill="black"/>
<path d="M21.2721 6.92904C21.0145 6.47638 21.035 6.61253 20.4575 5.5983C19.4773 3.88067 18.775 2.28102 18.775 2.28102C18.775 2.28102 18.0728 3.88065 17.0926 5.59946C16.5151 6.61256 16.5344 6.47754 16.2769 6.9302C15.7607 7.83779 15.5724 8.3086 15.5724 9.5327L15.5735 9.53157C15.5735 11.3002 17.0064 12.733 18.7749 12.733C20.5424 12.733 21.9763 11.3001 21.9763 9.53157C21.9763 8.30747 21.7883 7.83663 21.2721 6.92904ZM17.7393 11.038C17.2821 11.038 16.8703 10.7635 16.6956 10.3403C16.5197 9.9183 16.6173 9.43274 16.9406 9.1094C17.2628 8.78607 17.7495 8.68965 18.1715 8.86435C18.5935 9.03906 18.8692 9.45087 18.8692 9.90809C18.8692 10.5321 18.3633 11.038 17.7393 11.038Z" fill="black"/>
</svg>
