<svg width="24" height="24" viewBox="0 0 24 24" fill="none" xmlns="http://www.w3.org/2000/svg">
<path d="M12.364 12.2306C12.02 11.6248 12.0459 11.8071 11.2731 10.45C9.96163 8.14874 9.02089 6.00803 9.02089 6.00803C9.02089 6.00803 8.08103 8.1486 6.76863 10.45C5.99495 11.8071 6.02176 11.6257 5.6778 12.2306C4.98721 13.4456 4.73527 14.0754 4.73527 15.7147L4.73438 15.7138C4.73438 17.2451 5.55093 18.6603 6.87763 19.4258C8.20343 20.1914 9.83735 20.1914 11.1632 19.4258C12.4899 18.6601 13.3064 17.245 13.3064 15.7138C13.3064 14.0753 13.0546 13.4455 12.364 12.2306ZM7.63335 17.7312C7.02227 17.7312 6.47016 17.3623 6.23608 16.7976C6.00202 16.2321 6.13155 15.5817 6.56396 15.1485C6.99635 14.7161 7.64765 14.5865 8.21226 14.8206C8.77779 15.0546 9.14674 15.6068 9.14674 16.2187C9.14674 16.6199 8.98683 17.0049 8.70362 17.2881C8.41952 17.5722 8.03449 17.7312 7.63335 17.7312Z" fill="black"/>
<path d="M18.7108 7.66008C18.508 7.30361 18.5241 7.41083 18.0694 6.61213C17.2975 5.25953 16.7444 3.99982 16.7444 3.99982C16.7444 3.99982 16.1914 5.2595 15.4195 6.61305C14.9648 7.41086 14.98 7.30453 14.7772 7.66099C14.3707 8.37571 14.2224 8.74647 14.2224 9.71043L14.2233 9.70954C14.2233 11.1023 15.3516 12.2306 16.7443 12.2306C18.1362 12.2306 19.2654 11.1022 19.2654 9.70954C19.2654 8.74557 19.1173 8.37479 18.7108 7.66008ZM15.9288 10.8959C15.5688 10.8959 15.2445 10.6797 15.1069 10.3464C14.9684 10.0141 15.0452 9.63171 15.2998 9.37709C15.5536 9.12247 15.9368 9.04654 16.2692 9.18412C16.6015 9.3217 16.8186 9.64599 16.8186 10.006C16.8186 10.4974 16.4202 10.8959 15.9288 10.8959Z" fill="black"/>
</svg>
