<svg width="24" height="24" viewBox="0 0 24 24" fill="none" xmlns="http://www.w3.org/2000/svg">
<path d="M17.0281 8.53367L17.0302 8.44495L17.0374 8.25917C17.0382 7.95034 16.9858 7.60583 16.8443 7.26513C16.519 6.48178 15.815 6 14.7276 6C13.6421 6 12.934 6.47946 12.5979 7.25962C12.4239 7.66347 12.3755 8.07141 12.3927 8.41544L12.3942 8.4414L12.4088 8.53901C12.4637 8.75084 12.6655 8.89775 12.8905 8.87699C13.1404 8.85391 13.3244 8.63256 13.3013 8.38123L13.2996 8.23309C13.3061 8.04243 13.3448 7.82363 13.4328 7.61929C13.6271 7.16832 14.0099 6.90909 14.7276 6.90909C15.4434 6.90909 15.8188 7.16599 16.0048 7.61378C16.1085 7.86363 16.1382 8.13723 16.1253 8.35694L16.1184 8.51056C16.1066 8.6554 16.0601 8.8509 15.9568 9.03886C15.7506 9.4144 15.3764 9.63636 14.7134 9.63636H4.45486L4.38113 9.64231C4.16516 9.67754 4.00032 9.86498 4.00032 10.0909C4.00032 10.3419 4.20383 10.5455 4.45486 10.5455H14.7134L14.8963 10.5408C15.7922 10.4941 16.4108 10.1008 16.7537 9.47641C16.9389 9.13918 17.0141 8.80533 17.0281 8.53367Z" fill="#F4F4F4"/>
<path d="M18.8191 11.1412C18.714 11.1824 18.5905 11.1937 18.4912 11.1863L16.8164 11.188L16.7427 11.1942C16.5269 11.2303 16.3628 11.4184 16.3636 11.6443L16.3699 11.718C16.4059 11.9338 16.594 12.098 16.8199 12.0971L18.4001 12.0907L18.5603 12.0978C18.7473 12.0974 18.9489 12.0667 19.1507 11.9877C19.6742 11.7826 20 11.3114 20 10.6062C20 9.89026 19.6224 9.4077 19.0365 9.16679C18.7226 9.03773 18.416 8.99731 18.1718 9.00011L18.0982 9.00769C17.883 9.04769 17.7224 9.23872 17.7274 9.4646C17.7329 9.71558 17.9409 9.91453 18.1893 9.90903L18.2724 9.9116C18.3925 9.91983 18.5463 9.94818 18.6908 10.0076C18.9572 10.1171 19.0909 10.288 19.0909 10.6062C19.0909 10.935 18.9963 11.0718 18.8191 11.1412Z" fill="#F4F4F4"/>
<path d="M13.9543 11.4246C14.4032 11.4363 14.9495 11.5343 15.494 11.786C16.5842 12.2901 17.2577 13.2652 17.2727 14.7532C17.2877 16.2439 16.6683 17.2486 15.6403 17.8039C15.0413 18.1275 14.4508 18.2381 14.035 18.2425C13.784 18.2452 13.5784 18.0439 13.5757 17.7929C13.573 17.5418 13.7743 17.3362 14.0253 17.3335C14.0875 17.3328 14.2141 17.3219 14.3822 17.2904C14.6655 17.2374 14.9482 17.1445 15.2083 17.0041C15.9454 16.6059 16.3752 15.9087 16.3637 14.7624C16.3523 13.6368 15.8934 12.9723 15.1124 12.6112C14.7051 12.4229 14.2812 12.3455 13.9471 12.334L4.45455 12.3335C4.20351 12.3335 4 12.1299 4 11.8789C4 11.653 4.16484 11.4655 4.38082 11.4303L4.45455 11.4244L13.9543 11.4246Z" fill="#F4F4F4"/>
<path d="M12.8442 13.2079C12.4926 13.0735 12.1529 13.0302 11.9091 13.0302H4.45455L4.38082 13.0361C4.16484 13.0714 4 13.2588 4 13.4847C4 13.7358 4.20351 13.9393 4.45455 13.9393H11.9091L11.988 13.9419C12.1313 13.951 12.3295 13.9844 12.5195 14.057C12.8418 14.1803 13 14.3617 13 14.6665C13 14.9771 12.8346 15.1733 12.5052 15.3122C12.2752 15.4091 12.0346 15.4493 11.8912 15.4549C11.6404 15.4648 11.445 15.6761 11.4549 15.9269C11.4648 16.1778 11.6761 16.3731 11.9269 16.3633C12.1699 16.3537 12.5089 16.2972 12.8584 16.1498C13.4949 15.8815 13.9091 15.3901 13.9091 14.6665C13.9091 13.9373 13.4877 13.4539 12.8442 13.2079Z" fill="#F4F4F4"/>
</svg>
