<svg width="25" height="25" viewBox="0 0 25 25" fill="none" xmlns="http://www.w3.org/2000/svg">
<path d="M19.3736 7.21851L19.3763 7.10163L19.3859 6.8569C19.3868 6.45007 19.3179 5.99625 19.1315 5.54744C18.703 4.51552 17.7755 3.88086 16.3431 3.88086C14.9131 3.88086 13.9803 4.51246 13.5376 5.54018C13.3084 6.07217 13.2446 6.60957 13.2672 7.06276L13.2692 7.09696L13.2884 7.22554C13.3608 7.50458 13.6266 7.69812 13.923 7.67076C14.2523 7.64037 14.4946 7.34878 14.4642 7.01769L14.462 6.82254C14.4705 6.57139 14.5215 6.28316 14.6374 6.01397C14.8934 5.4199 15.3977 5.07842 16.3431 5.07842C17.286 5.07842 17.7805 5.41684 18.0255 6.00672C18.1622 6.33585 18.2013 6.69627 18.1843 6.98569L18.1751 7.18806C18.1596 7.37886 18.0983 7.63639 17.9624 7.884C17.6907 8.37871 17.1977 8.6711 16.3244 8.6711H2.81063L2.7135 8.67894C2.42899 8.72535 2.21184 8.97226 2.21184 9.26988C2.21184 9.60058 2.47993 9.86866 2.81063 9.86866H16.3244L16.5653 9.86249C17.7455 9.80095 18.5604 9.28296 19.0121 8.4604C19.256 8.01616 19.3551 7.57637 19.3736 7.21851Z" fill="white"/>
<path d="M21.7411 10.7518C21.6026 10.806 21.44 10.821 21.3091 10.8111L19.1029 10.8134L19.0058 10.8216C18.7215 10.8691 18.5053 11.1168 18.5065 11.4145L18.5147 11.5116C18.5622 11.7959 18.8099 12.0121 19.1075 12.0109L21.1892 12.0025L21.4001 12.0119C21.6465 12.0113 21.9121 11.971 22.178 11.8668C22.8675 11.5966 23.2967 10.976 23.2967 10.047C23.2967 9.10386 22.7992 8.46817 22.0275 8.15082C21.614 7.98081 21.21 7.92755 20.8883 7.93125L20.7914 7.94123C20.508 7.99392 20.2964 8.24558 20.3029 8.54313C20.3103 8.87375 20.5842 9.13583 20.9115 9.12858L21.0209 9.13197C21.1791 9.14282 21.3818 9.18016 21.572 9.2584C21.923 9.4027 22.0991 9.62782 22.0991 10.047C22.0991 10.4802 21.9746 10.6603 21.7411 10.7518Z" fill="white"/>
<path d="M15.4425 11.8671C16.0339 11.8825 16.7536 12.0116 17.4708 12.3433C18.907 13.0073 19.7942 14.2918 19.8139 16.252C19.8337 18.2157 19.0178 19.5392 17.6636 20.2707C16.8744 20.697 16.0966 20.8426 15.5489 20.8485C15.2183 20.852 14.9473 20.5868 14.9438 20.2561C14.9402 19.9255 15.2054 19.6545 15.5361 19.651C15.6181 19.6501 15.7848 19.6357 16.0062 19.5943C16.3795 19.5244 16.7519 19.4021 17.0944 19.217C18.0654 18.6925 18.6316 17.7741 18.6164 16.264C18.6015 14.7813 17.9969 13.9059 16.9682 13.4302C16.4316 13.1821 15.8732 13.0803 15.4331 13.0651L2.92837 13.0644C2.59768 13.0644 2.32959 12.7963 2.32959 12.4656C2.32959 12.168 2.54674 11.9211 2.83125 11.8746L2.92837 11.8668L15.4425 11.8671Z" fill="white"/>
<path d="M13.862 14.5735C13.3989 14.3964 12.9514 14.3394 12.6302 14.3394H2.81021L2.71308 14.3472C2.42857 14.3936 2.21143 14.6405 2.21143 14.9382C2.21143 15.2689 2.47951 15.5369 2.81021 15.5369H12.6302L12.7341 15.5405C12.9229 15.5524 13.184 15.5963 13.4343 15.6921C13.8589 15.8544 14.0673 16.0934 14.0673 16.495C14.0673 16.9041 13.8494 17.1625 13.4155 17.3455C13.1125 17.4732 12.7956 17.5261 12.6067 17.5335C12.2763 17.5465 12.0189 17.8249 12.0319 18.1553C12.0449 18.4858 12.3233 18.7431 12.6537 18.7301C12.9738 18.7176 13.4203 18.6431 13.8808 18.449C14.7192 18.0954 15.2648 17.4481 15.2648 16.495C15.2648 15.5344 14.7097 14.8976 13.862 14.5735Z" fill="white"/>
</svg>
