<svg width="57" height="56" viewBox="0 0 57 56" fill="none" xmlns="http://www.w3.org/2000/svg">
<path fill-rule="evenodd" clip-rule="evenodd" d="M28.4365 3C14.6294 3 3.43652 14.1929 3.43652 28C3.43652 41.8071 14.6294 53 28.4365 53C42.2436 53 53.4365 41.8071 53.4365 28C53.4365 14.1929 42.2436 3 28.4365 3ZM1.43652 28C1.43652 13.0883 13.5248 1 28.4365 1C43.3482 1 55.4365 13.0883 55.4365 28C55.4365 42.9117 43.3482 55 28.4365 55C13.5248 55 1.43652 42.9117 1.43652 28Z" fill="black"/>
<path d="M27.4365 2H29.4365V10H27.4365V2Z" fill="black"/>
<path d="M46.4365 29V27H54.4365V29H46.4365Z" fill="black"/>
<path d="M43.6079 44.5859L45.0221 43.1717L47.8506 46.0002L46.4363 47.4144L43.6079 44.5859Z" fill="black"/>
<path d="M11.8506 43.1719L13.2648 44.5861L10.4364 47.4145L9.02216 46.0003L11.8506 43.1719Z" fill="black"/>
<path d="M46.437 8.58594L47.8512 10.0002L45.0228 12.8286L43.6086 11.4144L46.437 8.58594Z" fill="black"/>
<path d="M9.02246 10L10.4367 8.58579L13.2651 11.4142L11.8509 12.8284L9.02246 10Z" fill="black"/>
<path d="M2.43652 29L2.43652 27H10.4365V29H2.43652Z" fill="black"/>
<path d="M27.4365 46H29.4365V54H27.4365V46Z" fill="black"/>
</svg>
