<svg width="360" height="325" viewBox="0 0 360 325" fill="none" xmlns="http://www.w3.org/2000/svg">
<g style="mix-blend-mode:multiply">
<path d="M8.9152 120.363C8.74456 120.25 8.58359 120.105 8.43652 119.936L173.949 323.723C174.096 323.893 174.256 324.036 174.427 324.15L8.9152 120.363Z" fill="url(#paint0_radial_1087_26075)"/>
<path d="M13.8449 119.992C12.1739 120.809 10.8091 121.413 8.9152 120.363L174.427 324.15C176.321 325.2 177.686 324.596 179.357 323.779L13.8449 119.992Z" fill="url(#paint1_radial_1087_26075)"/>
<path d="M67.4311 120.363C50.6733 115.591 27.0281 111.238 13.8449 119.992L179.357 323.779C192.54 315.025 216.185 319.378 232.943 324.15L67.4311 120.363Z" fill="url(#paint2_radial_1087_26075)"/>
<path d="M179.089 15.4959C179.473 14.7431 179.387 13.7931 178.914 13.0985L178.569 12.7012C178.7 12.8197 178.816 12.9537 178.914 13.0985L344.081 216.488C344.842 217.175 345.065 218.373 344.601 219.283L179.089 15.4959Z" fill="url(#paint3_radial_1087_26075)"/>
<path d="M69.5945 119.918C69.0003 120.401 68.1645 120.568 67.4311 120.363L232.943 324.15C233.677 324.355 234.512 324.188 235.107 323.705L69.5945 119.918Z" fill="url(#paint4_radial_1087_26075)"/>
<path d="M107.807 96.5969C93.1386 103.281 80.7351 111.284 69.5945 119.918L235.107 323.705C246.247 315.071 258.651 307.068 273.319 300.384L107.807 96.5969Z" fill="url(#paint5_radial_1087_26075)"/>
<path d="M112.142 94.7515L107.807 96.5969L273.319 300.384L277.654 298.538L112.142 94.7515Z" fill="url(#paint6_radial_1087_26075)"/>
<path d="M155.656 81.801C139.074 84.9019 124.786 89.3762 112.142 94.7515L277.654 298.538C290.299 293.163 304.586 288.689 321.168 285.588L155.656 81.801Z" fill="url(#paint7_radial_1087_26075)"/>
<path d="M173.947 54.3605L173.949 54.3588L339.46 258.146C338.938 258.709 338.415 259.273 337.889 259.835L172.377 56.0484C172.903 55.4865 173.425 54.9229 173.947 54.3605Z" fill="url(#paint8_radial_1087_26075)"/>
<path d="M173.949 54.3588C179.121 48.7801 184.18 43.325 191.483 40.888L356.995 244.675C349.692 247.112 344.633 252.567 339.46 258.146L173.949 54.3588Z" fill="url(#paint9_radial_1087_26075)"/>
<path d="M172.377 56.0484C164.968 64.607 158.507 75.0508 157.523 79.962L323.035 283.749C324.019 278.838 330.48 268.394 337.889 259.835L172.377 56.0484Z" fill="url(#paint10_radial_1087_26075)"/>
<path d="M157.523 79.962C157.337 80.8625 156.566 81.6154 155.656 81.801L321.168 285.588C322.078 285.402 322.849 284.649 323.035 283.749L157.523 79.962Z" fill="url(#paint11_radial_1087_26075)"/>
<path fill-rule="evenodd" clip-rule="evenodd" d="M179.089 15.4959C178.114 17.4548 178.059 19.0709 178.495 20.7234C179.439 22.9346 180.759 24.8517 182.299 26.6242L182.311 26.6379L193.43 39.4297C193.08 40.2226 192.37 40.8563 191.483 40.888L356.995 244.675C358.815 244.61 359.892 242.01 358.638 240.701C357.111 239.161 355.51 237.736 353.933 236.333L353.932 236.333C351.758 234.399 349.631 232.506 347.811 230.411L193.43 39.4297C193.551 39.156 193.629 38.8633 193.657 38.5699C193.669 38.4366 193.671 38.3031 193.662 38.1712C193.635 37.7674 193.503 37.378 193.246 37.0522L343.829 223.665C343.617 222.296 343.793 220.907 344.601 219.283L179.089 15.4959Z" fill="url(#paint12_radial_1087_26075)"/>
<path d="M347.811 230.411C346.472 228.87 345.3 227.221 344.396 225.363L193.657 38.5699C193.629 38.8633 193.551 39.156 193.43 39.4297L347.811 230.411Z" fill="url(#paint13_radial_1087_26075)"/>
<path d="M344.396 225.363C344.261 225.084 344.131 224.8 344.007 224.51L193.662 38.1712C193.671 38.3031 193.669 38.4366 193.657 38.5699L344.396 225.363Z" fill="url(#paint14_radial_1087_26075)"/>
<path d="M343.829 223.665L193.246 37.0522C193.503 37.378 193.635 37.7674 193.662 38.1712L344.007 224.51C343.933 224.228 343.872 223.947 343.829 223.665Z" fill="url(#paint15_radial_1087_26075)"/>
</g>
<g filter="url(#filter0_d_1087_26075)">
<path fill-rule="evenodd" clip-rule="evenodd" d="M75.9249 17.5211C96.7303 7.64316 122.854 3.56746 145.107 3.83669C155.17 4.01304 170.501 5.75121 178.569 12.7141C179.33 13.4012 179.553 14.5988 179.089 15.5086C178.114 17.4675 178.058 19.0829 178.495 20.7354C180.554 25.5605 184.407 28.9886 188.42 32.5584C189.997 33.9614 191.599 35.3863 193.126 36.9264C194.379 38.2355 193.302 40.835 191.483 40.9C184.18 43.337 179.121 48.7922 173.948 54.3708C173.426 54.9338 172.903 55.498 172.376 56.0605C164.968 64.6191 158.506 75.0634 157.522 79.9745C157.337 80.875 156.566 81.627 155.656 81.8127C139.074 84.9135 124.786 89.3883 112.142 94.7636L107.806 96.6094C93.138 103.294 80.7349 111.296 69.5942 119.93C69.0001 120.413 68.1645 120.58 67.4311 120.376C50.6732 115.604 27.0275 111.25 13.8444 120.005C12.1734 120.822 10.8086 121.425 8.91472 120.376C7.93991 119.726 7.29933 118.092 7.56856 116.402C7.67368 114.782 8.0671 112.903 8.49645 110.852C8.71171 109.823 8.93601 108.751 9.13754 107.648C10.0659 102.477 11.1613 95.913 5.18253 93.0815C4.33769 92.7844 3.6971 91.9767 3.61355 91.0947C2.92669 84.503 5.60971 77.4845 10.103 70.4938C24.7338 47.0147 49.0761 32.6629 71.6729 19.4335L67.5694 10.7532C66.9567 9.49993 67.7643 7.78241 69.1384 7.43891C70.169 7.34605 71.0602 7.45747 71.8958 8.84076L75.9249 17.5211Z" fill="white"/>
</g>
<path fill-rule="evenodd" clip-rule="evenodd" d="M174.138 15.6086C168.503 11.3379 157.872 8.90562 145.033 8.61783L145.032 8.61816C127.366 8.25596 110.859 10.6419 92.1983 16.4165C97.4529 15.7852 102.531 15.3303 107.424 15.1632C135.49 14.179 158.114 20.4734 181.008 32.3103C177.99 29.358 175.242 26.3779 173.841 21.9402C173.321 19.9626 173.497 17.7717 174.138 15.6086ZM150.25 78.2934C127.458 53.5713 109.15 33.8514 75.998 24.5118H75.9966C65.3572 55.0923 65.0509 83.6123 69.2008 114.343C89.8397 98.8106 115.101 85.5534 150.25 78.2934ZM59.5493 31.7493C59.5578 31.7414 59.5663 31.7334 59.5748 31.7254L59.5848 31.7264C59.573 31.734 59.5612 31.7417 59.5493 31.7493Z" fill="#CA4141"/>
<path d="M8.45864 89.7779C11.049 91.2911 13.2863 94.3083 14.354 97.7991C23.0586 72.1936 38.2749 51.7205 59.5493 31.7493C42.7301 42.635 26.2566 55.9965 14.131 73.0019C10.1669 79.1758 8.21727 84.9409 8.45864 89.7779Z" fill="#CA4141"/>
<path fill-rule="evenodd" clip-rule="evenodd" d="M112.142 94.7637L107.806 96.6094L139.223 163.788C139.622 165.051 141.284 165.803 142.51 165.255C143.735 164.717 144.246 163.008 143.559 161.866L112.142 94.7637Z" fill="url(#paint16_radial_1087_26075)"/>
<defs>
<filter id="filter0_d_1087_26075" x="0.506836" y="0.824219" width="200.161" height="127.111" filterUnits="userSpaceOnUse" color-interpolation-filters="sRGB">
<feFlood flood-opacity="0" result="BackgroundImageFix"/>
<feColorMatrix in="SourceAlpha" type="matrix" values="0 0 0 0 0 0 0 0 0 0 0 0 0 0 0 0 0 0 127 0" result="hardAlpha"/>
<feOffset dx="2" dy="2"/>
<feGaussianBlur stdDeviation="2.5"/>
<feComposite in2="hardAlpha" operator="out"/>
<feColorMatrix type="matrix" values="0 0 0 0 0.166667 0 0 0 0 0.166667 0 0 0 0 0.166667 0 0 0 0.26 0"/>
<feBlend mode="normal" in2="BackgroundImageFix" result="effect1_dropShadow_1087_26075"/>
<feBlend mode="normal" in="SourceGraphic" in2="effect1_dropShadow_1087_26075" result="shape"/>
</filter>
<radialGradient id="paint0_radial_1087_26075" cx="0" cy="0" r="1" gradientUnits="userSpaceOnUse" gradientTransform="translate(101.594 71.6716) rotate(50.7642) scale(236.205 165.69)">
<stop offset="0.00414565" stop-color="#BCBBBB" stop-opacity="0.47"/>
<stop offset="1" stop-color="#ECECEC" stop-opacity="0"/>
</radialGradient>
<radialGradient id="paint1_radial_1087_26075" cx="0" cy="0" r="1" gradientUnits="userSpaceOnUse" gradientTransform="translate(101.594 71.6716) rotate(50.7642) scale(236.205 165.69)">
<stop offset="0.00414565" stop-color="#BCBBBB" stop-opacity="0.47"/>
<stop offset="1" stop-color="#ECECEC" stop-opacity="0"/>
</radialGradient>
<radialGradient id="paint2_radial_1087_26075" cx="0" cy="0" r="1" gradientUnits="userSpaceOnUse" gradientTransform="translate(101.594 71.6716) rotate(50.7642) scale(236.205 165.69)">
<stop offset="0.00414565" stop-color="#BCBBBB" stop-opacity="0.47"/>
<stop offset="1" stop-color="#ECECEC" stop-opacity="0"/>
</radialGradient>
<radialGradient id="paint3_radial_1087_26075" cx="0" cy="0" r="1" gradientUnits="userSpaceOnUse" gradientTransform="translate(101.594 71.6716) rotate(50.7642) scale(236.205 165.69)">
<stop offset="0.00414565" stop-color="#BCBBBB" stop-opacity="0.47"/>
<stop offset="1" stop-color="#ECECEC" stop-opacity="0"/>
</radialGradient>
<radialGradient id="paint4_radial_1087_26075" cx="0" cy="0" r="1" gradientUnits="userSpaceOnUse" gradientTransform="translate(101.594 71.6716) rotate(50.7642) scale(236.205 165.69)">
<stop offset="0.00414565" stop-color="#BCBBBB" stop-opacity="0.47"/>
<stop offset="1" stop-color="#ECECEC" stop-opacity="0"/>
</radialGradient>
<radialGradient id="paint5_radial_1087_26075" cx="0" cy="0" r="1" gradientUnits="userSpaceOnUse" gradientTransform="translate(101.594 71.6716) rotate(50.7642) scale(236.205 165.69)">
<stop offset="0.00414565" stop-color="#BCBBBB" stop-opacity="0.47"/>
<stop offset="1" stop-color="#ECECEC" stop-opacity="0"/>
</radialGradient>
<radialGradient id="paint6_radial_1087_26075" cx="0" cy="0" r="1" gradientUnits="userSpaceOnUse" gradientTransform="translate(101.594 71.6716) rotate(50.7642) scale(236.205 165.69)">
<stop offset="0.00414565" stop-color="#BCBBBB" stop-opacity="0.47"/>
<stop offset="1" stop-color="#ECECEC" stop-opacity="0"/>
</radialGradient>
<radialGradient id="paint7_radial_1087_26075" cx="0" cy="0" r="1" gradientUnits="userSpaceOnUse" gradientTransform="translate(101.594 71.6716) rotate(50.7642) scale(236.205 165.69)">
<stop offset="0.00414565" stop-color="#BCBBBB" stop-opacity="0.47"/>
<stop offset="1" stop-color="#ECECEC" stop-opacity="0"/>
</radialGradient>
<radialGradient id="paint8_radial_1087_26075" cx="0" cy="0" r="1" gradientUnits="userSpaceOnUse" gradientTransform="translate(101.594 71.6716) rotate(50.7642) scale(236.205 165.69)">
<stop offset="0.00414565" stop-color="#BCBBBB" stop-opacity="0.47"/>
<stop offset="1" stop-color="#ECECEC" stop-opacity="0"/>
</radialGradient>
<radialGradient id="paint9_radial_1087_26075" cx="0" cy="0" r="1" gradientUnits="userSpaceOnUse" gradientTransform="translate(101.594 71.6716) rotate(50.7642) scale(236.205 165.69)">
<stop offset="0.00414565" stop-color="#BCBBBB" stop-opacity="0.47"/>
<stop offset="1" stop-color="#ECECEC" stop-opacity="0"/>
</radialGradient>
<radialGradient id="paint10_radial_1087_26075" cx="0" cy="0" r="1" gradientUnits="userSpaceOnUse" gradientTransform="translate(101.594 71.6716) rotate(50.7642) scale(236.205 165.69)">
<stop offset="0.00414565" stop-color="#BCBBBB" stop-opacity="0.47"/>
<stop offset="1" stop-color="#ECECEC" stop-opacity="0"/>
</radialGradient>
<radialGradient id="paint11_radial_1087_26075" cx="0" cy="0" r="1" gradientUnits="userSpaceOnUse" gradientTransform="translate(101.594 71.6716) rotate(50.7642) scale(236.205 165.69)">
<stop offset="0.00414565" stop-color="#BCBBBB" stop-opacity="0.47"/>
<stop offset="1" stop-color="#ECECEC" stop-opacity="0"/>
</radialGradient>
<radialGradient id="paint12_radial_1087_26075" cx="0" cy="0" r="1" gradientUnits="userSpaceOnUse" gradientTransform="translate(101.594 71.6716) rotate(50.7642) scale(236.205 165.69)">
<stop offset="0.00414565" stop-color="#BCBBBB" stop-opacity="0.47"/>
<stop offset="1" stop-color="#ECECEC" stop-opacity="0"/>
</radialGradient>
<radialGradient id="paint13_radial_1087_26075" cx="0" cy="0" r="1" gradientUnits="userSpaceOnUse" gradientTransform="translate(101.594 71.6716) rotate(50.7642) scale(236.205 165.69)">
<stop offset="0.00414565" stop-color="#BCBBBB" stop-opacity="0.47"/>
<stop offset="1" stop-color="#ECECEC" stop-opacity="0"/>
</radialGradient>
<radialGradient id="paint14_radial_1087_26075" cx="0" cy="0" r="1" gradientUnits="userSpaceOnUse" gradientTransform="translate(101.594 71.6716) rotate(50.7642) scale(236.205 165.69)">
<stop offset="0.00414565" stop-color="#BCBBBB" stop-opacity="0.47"/>
<stop offset="1" stop-color="#ECECEC" stop-opacity="0"/>
</radialGradient>
<radialGradient id="paint15_radial_1087_26075" cx="0" cy="0" r="1" gradientUnits="userSpaceOnUse" gradientTransform="translate(101.594 71.6716) rotate(50.7642) scale(236.205 165.69)">
<stop offset="0.00414565" stop-color="#BCBBBB" stop-opacity="0.47"/>
<stop offset="1" stop-color="#ECECEC" stop-opacity="0"/>
</radialGradient>
<radialGradient id="paint16_radial_1087_26075" cx="0" cy="0" r="1" gradientUnits="userSpaceOnUse" gradientTransform="translate(96.1414 76.0636) rotate(63.0929) scale(53.1545 27.3075)">
<stop offset="0.00414565" stop-color="#5E5E5E" stop-opacity="0.19"/>
<stop offset="1" stop-color="white"/>
</radialGradient>
</defs>
</svg>
