<svg width="24" height="24" viewBox="0 0 24 24" fill="none" xmlns="http://www.w3.org/2000/svg">
<mask id="mask0_13_2774" style="mask-type:alpha" maskUnits="userSpaceOnUse" x="0" y="0" width="24" height="24">
<rect width="24" height="24" fill="#D9D9D9"/>
</mask>
<g mask="url(#mask0_13_2774)">
<g style="mix-blend-mode:multiply">
<path d="M2.39137 15.4362C2.37431 15.4248 2.35821 15.4103 2.34351 15.3934L15.6942 30.7516C15.7089 30.7686 15.7249 30.7829 15.742 30.7943L2.39137 15.4362Z" fill="url(#paint0_radial_13_2774)"/>
<path d="M2.88435 15.399C2.71724 15.4807 2.58077 15.5411 2.39137 15.4362L15.742 30.7943C15.9314 30.8993 16.0679 30.8389 16.235 30.7572L2.88435 15.399Z" fill="url(#paint1_radial_13_2774)"/>
<path d="M8.24297 15.4361C6.56718 14.9589 4.20266 14.5236 2.88435 15.399L16.235 30.7572C17.5533 29.8818 19.9179 30.3171 21.5936 30.7943L8.24297 15.4361Z" fill="url(#paint2_radial_13_2774)"/>
<path d="M19.4088 4.9494C19.4472 4.87411 19.4385 4.77912 19.3913 4.70965L19.3567 4.66992C19.3699 4.68177 19.3814 4.69517 19.3913 4.70965L32.7074 20.0281C32.7835 20.0968 32.8059 20.2166 32.7594 20.3076L19.4088 4.9494Z" fill="url(#paint3_radial_13_2774)"/>
<path d="M8.45931 15.3916C8.39989 15.4399 8.31631 15.4566 8.24297 15.4361L21.5936 30.7943C21.667 30.8148 21.7506 30.7981 21.81 30.7498L8.45931 15.3916Z" fill="url(#paint4_radial_13_2774)"/>
<path d="M12.2805 13.0595C10.8137 13.7279 9.57337 14.5282 8.45931 15.3916L21.81 30.7498C22.924 29.8864 24.1644 29.0861 25.6312 28.4177L12.2805 13.0595Z" fill="url(#paint5_radial_13_2774)"/>
<path d="M12.714 12.875L12.2805 13.0595L25.6312 28.4177L26.0647 28.2331L12.714 12.875Z" fill="url(#paint6_radial_13_2774)"/>
<path d="M17.0655 11.5799C15.4073 11.89 13.9785 12.3374 12.714 12.875L26.0647 28.2331C27.3292 27.6956 28.7579 27.2482 30.4161 26.9381L17.0655 11.5799Z" fill="url(#paint7_radial_13_2774)"/>
<path d="M18.8946 8.83585L18.8947 8.83568L32.2454 24.1939C32.1932 24.2502 32.1409 24.3066 32.0882 24.3628L18.7375 9.00465C18.7901 8.94846 18.8424 8.89209 18.8946 8.83585Z" fill="url(#paint8_radial_13_2774)"/>
<path d="M18.8947 8.83568C19.412 8.27782 19.9178 7.73231 20.6481 7.4886L33.9988 22.8468C33.2685 23.0905 32.7626 23.636 32.2454 24.1939L18.8947 8.83568Z" fill="url(#paint9_radial_13_2774)"/>
<path d="M18.7375 9.00465C17.9967 9.86051 17.3505 10.9049 17.2521 11.396L30.6028 26.7542C30.7012 26.2631 31.3473 25.2187 32.0882 24.3628L18.7375 9.00465Z" fill="url(#paint10_radial_13_2774)"/>
<path d="M17.2521 11.396C17.2336 11.4861 17.1564 11.5613 17.0655 11.5799L30.4161 26.9381C30.5071 26.9195 30.5842 26.8442 30.6028 26.7542L17.2521 11.396Z" fill="url(#paint11_radial_13_2774)"/>
<path fill-rule="evenodd" clip-rule="evenodd" d="M19.4088 4.9494C19.3113 5.14528 19.3057 5.3069 19.3494 5.47215C19.4437 5.69326 19.5757 5.88497 19.7297 6.06222L19.7309 6.0636L20.8429 7.34278C20.8079 7.42207 20.7368 7.48543 20.6481 7.4886L33.9988 22.8468C34.1808 22.8403 34.2885 22.5803 34.1631 22.4494C34.0105 22.2954 33.8503 22.1529 33.6926 22.0126L33.6925 22.0126C33.4752 21.8192 33.2624 21.6299 33.0804 21.4204L20.8429 7.34278C20.855 7.31541 20.8628 7.28614 20.8655 7.2568C20.8668 7.24347 20.867 7.23012 20.8661 7.21693C20.8633 7.17654 20.8501 7.13761 20.8245 7.10503L32.6822 20.7458C32.661 20.6089 32.6786 20.47 32.7594 20.3076L19.4088 4.9494Z" fill="url(#paint12_radial_13_2774)"/>
<path d="M33.0804 21.4204C32.9465 21.2663 32.8293 21.1014 32.739 20.9156L20.8655 7.2568C20.8628 7.28614 20.855 7.31541 20.8429 7.34278L33.0804 21.4204Z" fill="url(#paint13_radial_13_2774)"/>
<path d="M32.739 20.9156C32.7254 20.8877 32.7124 20.8593 32.7 20.8303L20.8661 7.21693C20.867 7.23012 20.8668 7.24347 20.8655 7.2568L32.739 20.9156Z" fill="url(#paint14_radial_13_2774)"/>
<path d="M32.6822 20.7458L20.8245 7.10503C20.8501 7.13761 20.8633 7.17654 20.8661 7.21693L32.7 20.8303C32.6926 20.8021 32.6866 20.774 32.6822 20.7458Z" fill="url(#paint15_radial_13_2774)"/>
</g>
<g filter="url(#filter0_d_13_2774)">
<path fill-rule="evenodd" clip-rule="evenodd" d="M9.0924 5.15191C11.1729 4.16412 13.7853 3.75655 16.0106 3.78347C17.0169 3.80111 18.55 3.97493 19.3568 4.67122C19.4329 4.73992 19.4552 4.85968 19.4088 4.95067C19.3113 5.14655 19.3057 5.30809 19.3494 5.47334C19.5553 5.95585 19.9407 6.29867 20.3419 6.65565C20.4996 6.79595 20.6598 6.93843 20.8125 7.09245C20.9378 7.22335 20.8301 7.4833 20.6482 7.4898C19.9179 7.73351 19.412 8.27902 18.8947 8.83688C18.8425 8.89318 18.7902 8.9496 18.7375 9.00585C17.9967 9.86171 17.3505 10.9061 17.2521 11.3973C17.2336 11.4873 17.1565 11.5625 17.0655 11.5811C15.4073 11.8912 13.9785 12.3386 12.7141 12.8762L12.2805 13.0607C10.8137 13.7292 9.57339 14.5295 8.45933 15.3928C8.39991 15.4411 8.31635 15.4578 8.24301 15.4374C6.56723 14.9602 4.20266 14.5248 2.88434 15.4003C2.71724 15.482 2.58077 15.5423 2.39137 15.4374C2.29389 15.3724 2.22984 15.209 2.25676 15.0401C2.26727 14.878 2.30661 14.6901 2.34955 14.485C2.37107 14.3821 2.3935 14.275 2.41366 14.1646C2.50649 13.6475 2.61603 12.9911 2.01815 12.7079C1.93367 12.6782 1.86961 12.5975 1.86126 12.5093C1.79257 11.8501 2.06087 11.1483 2.51021 10.4492C3.97328 8.10127 6.40751 6.6661 8.6672 5.34315L8.25684 4.47512C8.19557 4.3498 8.27634 4.17805 8.41374 4.1437C8.5168 4.13441 8.60593 4.14555 8.68948 4.28388L9.0924 5.15191Z" fill="white"/>
</g>
<path fill-rule="evenodd" clip-rule="evenodd" d="M18.9137 4.96066C18.3502 4.5336 17.2872 4.29037 16.0032 4.26159L16.0031 4.26162C14.2365 4.2254 12.5858 4.46399 10.7197 5.04145C11.2452 4.97832 11.753 4.93283 12.2423 4.91612C15.0489 4.8177 17.3113 5.44714 19.6007 6.63084C19.299 6.33561 19.0241 6.0376 18.884 5.59383C18.832 5.39607 18.8496 5.17697 18.9137 4.96066ZM16.5249 11.2291C14.2457 8.75693 12.4149 6.78494 9.0997 5.85098H9.09956C8.03562 8.90904 8.00499 11.761 8.41998 14.8341C10.4839 13.2809 13.01 11.9551 16.5249 11.2291ZM7.45484 6.57474C7.45569 6.57394 7.45653 6.57314 7.45738 6.57235L7.45838 6.57244C7.4572 6.57321 7.45602 6.57397 7.45484 6.57474Z" fill="#B44646"/>
<path d="M2.34577 12.3776C2.6048 12.5289 2.82853 12.8306 2.9353 13.1797C3.80576 10.6192 5.32739 8.57185 7.45484 6.57474C5.77291 7.66331 4.12556 8.99945 2.91301 10.7C2.51659 11.3174 2.32163 11.8939 2.34577 12.3776Z" fill="#B44646"/>
<path fill-rule="evenodd" clip-rule="evenodd" d="M12.7141 12.876L12.2805 13.0606L15.4222 19.7784C15.4622 19.9047 15.6283 19.9799 15.7509 19.9251C15.8734 19.8713 15.9245 19.7005 15.8558 19.5863L12.7141 12.876Z" fill="url(#paint16_radial_13_2774)"/>
</g>
<defs>
<filter id="filter0_d_13_2774" x="-1.14941" y="0.782227" width="29.0161" height="21.7109" filterUnits="userSpaceOnUse" color-interpolation-filters="sRGB">
<feFlood flood-opacity="0" result="BackgroundImageFix"/>
<feColorMatrix in="SourceAlpha" type="matrix" values="0 0 0 0 0 0 0 0 0 0 0 0 0 0 0 0 0 0 127 0" result="hardAlpha"/>
<feOffset dx="2" dy="2"/>
<feGaussianBlur stdDeviation="2.5"/>
<feComposite in2="hardAlpha" operator="out"/>
<feColorMatrix type="matrix" values="0 0 0 0 0.166667 0 0 0 0 0.166667 0 0 0 0 0.166667 0 0 0 0.26 0"/>
<feBlend mode="normal" in2="BackgroundImageFix" result="effect1_dropShadow_13_2774"/>
<feBlend mode="normal" in="SourceGraphic" in2="effect1_dropShadow_13_2774" result="shape"/>
</filter>
<radialGradient id="paint0_radial_13_2774" cx="0" cy="0" r="1" gradientUnits="userSpaceOnUse" gradientTransform="translate(8.22266 6.13577) rotate(79.4493) scale(18.5971 22.2366)">
<stop offset="0.00414565" stop-color="#6D6D6D" stop-opacity="0.47"/>
<stop offset="1" stop-color="#6A6A6A" stop-opacity="0"/>
</radialGradient>
<radialGradient id="paint1_radial_13_2774" cx="0" cy="0" r="1" gradientUnits="userSpaceOnUse" gradientTransform="translate(8.22266 6.13577) rotate(79.4493) scale(18.5971 22.2366)">
<stop offset="0.00414565" stop-color="#6D6D6D" stop-opacity="0.47"/>
<stop offset="1" stop-color="#6A6A6A" stop-opacity="0"/>
</radialGradient>
<radialGradient id="paint2_radial_13_2774" cx="0" cy="0" r="1" gradientUnits="userSpaceOnUse" gradientTransform="translate(8.22266 6.13577) rotate(79.4493) scale(18.5971 22.2366)">
<stop offset="0.00414565" stop-color="#6D6D6D" stop-opacity="0.47"/>
<stop offset="1" stop-color="#6A6A6A" stop-opacity="0"/>
</radialGradient>
<radialGradient id="paint3_radial_13_2774" cx="0" cy="0" r="1" gradientUnits="userSpaceOnUse" gradientTransform="translate(8.22266 6.13577) rotate(79.4493) scale(18.5971 22.2366)">
<stop offset="0.00414565" stop-color="#6D6D6D" stop-opacity="0.47"/>
<stop offset="1" stop-color="#6A6A6A" stop-opacity="0"/>
</radialGradient>
<radialGradient id="paint4_radial_13_2774" cx="0" cy="0" r="1" gradientUnits="userSpaceOnUse" gradientTransform="translate(8.22266 6.13577) rotate(79.4493) scale(18.5971 22.2366)">
<stop offset="0.00414565" stop-color="#6D6D6D" stop-opacity="0.47"/>
<stop offset="1" stop-color="#6A6A6A" stop-opacity="0"/>
</radialGradient>
<radialGradient id="paint5_radial_13_2774" cx="0" cy="0" r="1" gradientUnits="userSpaceOnUse" gradientTransform="translate(8.22266 6.13577) rotate(79.4493) scale(18.5971 22.2366)">
<stop offset="0.00414565" stop-color="#6D6D6D" stop-opacity="0.47"/>
<stop offset="1" stop-color="#6A6A6A" stop-opacity="0"/>
</radialGradient>
<radialGradient id="paint6_radial_13_2774" cx="0" cy="0" r="1" gradientUnits="userSpaceOnUse" gradientTransform="translate(8.22266 6.13577) rotate(79.4493) scale(18.5971 22.2366)">
<stop offset="0.00414565" stop-color="#6D6D6D" stop-opacity="0.47"/>
<stop offset="1" stop-color="#6A6A6A" stop-opacity="0"/>
</radialGradient>
<radialGradient id="paint7_radial_13_2774" cx="0" cy="0" r="1" gradientUnits="userSpaceOnUse" gradientTransform="translate(8.22266 6.13577) rotate(79.4493) scale(18.5971 22.2366)">
<stop offset="0.00414565" stop-color="#6D6D6D" stop-opacity="0.47"/>
<stop offset="1" stop-color="#6A6A6A" stop-opacity="0"/>
</radialGradient>
<radialGradient id="paint8_radial_13_2774" cx="0" cy="0" r="1" gradientUnits="userSpaceOnUse" gradientTransform="translate(8.22266 6.13577) rotate(79.4493) scale(18.5971 22.2366)">
<stop offset="0.00414565" stop-color="#6D6D6D" stop-opacity="0.47"/>
<stop offset="1" stop-color="#6A6A6A" stop-opacity="0"/>
</radialGradient>
<radialGradient id="paint9_radial_13_2774" cx="0" cy="0" r="1" gradientUnits="userSpaceOnUse" gradientTransform="translate(8.22266 6.13577) rotate(79.4493) scale(18.5971 22.2366)">
<stop offset="0.00414565" stop-color="#6D6D6D" stop-opacity="0.47"/>
<stop offset="1" stop-color="#6A6A6A" stop-opacity="0"/>
</radialGradient>
<radialGradient id="paint10_radial_13_2774" cx="0" cy="0" r="1" gradientUnits="userSpaceOnUse" gradientTransform="translate(8.22266 6.13577) rotate(79.4493) scale(18.5971 22.2366)">
<stop offset="0.00414565" stop-color="#6D6D6D" stop-opacity="0.47"/>
<stop offset="1" stop-color="#6A6A6A" stop-opacity="0"/>
</radialGradient>
<radialGradient id="paint11_radial_13_2774" cx="0" cy="0" r="1" gradientUnits="userSpaceOnUse" gradientTransform="translate(8.22266 6.13577) rotate(79.4493) scale(18.5971 22.2366)">
<stop offset="0.00414565" stop-color="#6D6D6D" stop-opacity="0.47"/>
<stop offset="1" stop-color="#6A6A6A" stop-opacity="0"/>
</radialGradient>
<radialGradient id="paint12_radial_13_2774" cx="0" cy="0" r="1" gradientUnits="userSpaceOnUse" gradientTransform="translate(8.22266 6.13577) rotate(79.4493) scale(18.5971 22.2366)">
<stop offset="0.00414565" stop-color="#6D6D6D" stop-opacity="0.47"/>
<stop offset="1" stop-color="#6A6A6A" stop-opacity="0"/>
</radialGradient>
<radialGradient id="paint13_radial_13_2774" cx="0" cy="0" r="1" gradientUnits="userSpaceOnUse" gradientTransform="translate(8.22266 6.13577) rotate(79.4493) scale(18.5971 22.2366)">
<stop offset="0.00414565" stop-color="#6D6D6D" stop-opacity="0.47"/>
<stop offset="1" stop-color="#6A6A6A" stop-opacity="0"/>
</radialGradient>
<radialGradient id="paint14_radial_13_2774" cx="0" cy="0" r="1" gradientUnits="userSpaceOnUse" gradientTransform="translate(8.22266 6.13577) rotate(79.4493) scale(18.5971 22.2366)">
<stop offset="0.00414565" stop-color="#6D6D6D" stop-opacity="0.47"/>
<stop offset="1" stop-color="#6A6A6A" stop-opacity="0"/>
</radialGradient>
<radialGradient id="paint15_radial_13_2774" cx="0" cy="0" r="1" gradientUnits="userSpaceOnUse" gradientTransform="translate(8.22266 6.13577) rotate(79.4493) scale(18.5971 22.2366)">
<stop offset="0.00414565" stop-color="#6D6D6D" stop-opacity="0.47"/>
<stop offset="1" stop-color="#6A6A6A" stop-opacity="0"/>
</radialGradient>
<radialGradient id="paint16_radial_13_2774" cx="0" cy="0" r="1" gradientUnits="userSpaceOnUse" gradientTransform="translate(11.114 11.006) rotate(63.0929) scale(5.31545 2.73075)">
<stop offset="0.00414565" stop-color="#5E5E5E" stop-opacity="0.19"/>
<stop offset="1" stop-color="white"/>
</radialGradient>
</defs>
</svg>
