<svg width="24" height="24" viewBox="0 0 24 24" fill="none" xmlns="http://www.w3.org/2000/svg">
<path fill-rule="evenodd" clip-rule="evenodd" d="M12 20C7.58172 20 4 16.4183 4 12C4 7.58172 7.58172 4 12 4C16.4183 4 20 7.58172 20 12C20 16.4183 16.4183 20 12 20ZM12 19C15.866 19 19 15.866 19 12C19 8.13401 15.866 5 12 5C8.13401 5 5 8.13401 5 12C5 15.866 8.13401 19 12 19ZM10.7423 13.9429L15.9576 8.48201C16.2437 8.18245 16.7184 8.17153 17.018 8.45761C17.3175 8.74369 17.3285 9.21844 17.0424 9.51799L11.3122 15.518C11.0274 15.8162 10.5552 15.8286 10.2552 15.5455L6.98533 12.4608C6.68404 12.1765 6.67021 11.7019 6.95446 11.4006C7.2387 11.0993 7.71337 11.0854 8.01467 11.3697L10.7423 13.9429Z" fill="black"/>
</svg>
