<svg width="24" height="24" viewBox="0 0 24 24" fill="none" xmlns="http://www.w3.org/2000/svg">
<path fill-rule="evenodd" clip-rule="evenodd" d="M20.7917 20.3022C21.5111 19.8914 21.7613 18.9752 21.3505 18.2558L13.3025 4.16078C13.1696 3.92789 12.9766 3.73491 12.7437 3.60194C12.0243 3.19117 11.1081 3.44137 10.6973 4.16078L2.64929 18.2558C2.51994 18.4824 2.4519 18.7387 2.4519 18.9996C2.4519 19.828 3.12348 20.4996 3.9519 20.4996H20.0479C20.3088 20.4996 20.5652 20.4316 20.7917 20.3022ZM11.5657 4.65663C11.7026 4.41683 12.008 4.33342 12.2478 4.47035C12.3255 4.51467 12.3898 4.579 12.4341 4.65663L20.4821 18.7517C20.6191 18.9915 20.5357 19.2969 20.2959 19.4338C20.2203 19.4769 20.1349 19.4996 20.0479 19.4996H3.9519C3.67576 19.4996 3.4519 19.2757 3.4519 18.9996C3.4519 18.9126 3.47458 18.8272 3.5177 18.7517L11.5657 4.65663ZM11.4448 15.6216L10.8586 8.49606L13.1428 8.51609L12.5569 15.6216H11.4448ZM12.9109 16.3836H11.0909V18.2776H12.9109V16.3836Z" fill="black"/>
</svg>
