<svg width="24" height="24" viewBox="0 0 24 24" fill="none" xmlns="http://www.w3.org/2000/svg">
<path fill-rule="evenodd" clip-rule="evenodd" d="M12.8683 4.4096L20.9163 18.5046C21.1902 18.9842 21.0234 19.595 20.5438 19.8689C20.3927 19.9551 20.2218 20.0005 20.0479 20.0005H3.9519C3.39962 20.0005 2.9519 19.5528 2.9519 19.0005C2.9519 18.8266 2.99726 18.6557 3.08349 18.5046L11.1315 4.4096C11.4054 3.92999 12.0162 3.76319 12.4958 4.03703C12.651 4.12569 12.7797 4.25434 12.8683 4.4096ZM11.5069 15.4225H12.4949L13.0019 9.01348L10.9999 9.00048L11.5069 15.4225ZM11.0909 18.1785V16.3845H12.9109V18.1785H11.0909Z" fill="black"/>
</svg>
