<svg width="24" height="24" viewBox="0 0 24 24" fill="none" xmlns="http://www.w3.org/2000/svg">
<circle cx="12" cy="12" r="8" fill="#6EEDAC"/>
<path fill-rule="evenodd" clip-rule="evenodd" d="M10.2972 10.0491C10.2972 10.8221 9.74714 11.4488 9.06854 11.4488C8.38995 11.4488 7.83984 10.8221 7.83984 10.0491C7.83984 9.27608 8.38995 8.64941 9.06854 8.64941C9.74714 8.64941 10.2972 9.27608 10.2972 10.0491ZM16.16 10.0491C16.16 10.8221 15.6099 11.4488 14.9313 11.4488C14.2527 11.4488 13.7026 10.8221 13.7026 10.0491C13.7026 9.27608 14.2527 8.64941 14.9313 8.64941C15.6099 8.64941 16.16 9.27608 16.16 10.0491ZM16.4746 13.8806C15.4494 16.9882 13.3636 17.1981 12.006 17.1981C10.6484 17.1981 8.45541 16.8899 7.54231 13.873C7.40624 13.485 7.64202 13.082 8.08771 13.082H15.914C16.32 13.0821 16.6417 13.3942 16.4746 13.8806Z" fill="#56BE8A"/>
</svg>
