<svg width="24" height="24" viewBox="0 0 24 24" fill="none" xmlns="http://www.w3.org/2000/svg">
<circle cx="12" cy="12" r="8" fill="#EF8351"/>
<path fill-rule="evenodd" clip-rule="evenodd" d="M10.2972 10.0491C10.2972 10.8221 9.74714 11.4488 9.06854 11.4488C8.38995 11.4488 7.83984 10.8221 7.83984 10.0491C7.83984 9.27608 8.38995 8.64941 9.06854 8.64941C9.74714 8.64941 10.2972 9.27608 10.2972 10.0491ZM11.9915 13.9665C13.4101 13.9665 14.059 14.4694 14.5446 16.0129C14.5446 16.0129 14.7353 16.4466 15.4294 16.3078C16.1235 16.1689 15.88 15.4406 15.88 15.4406C15.2903 13.8104 14.2385 12.5973 11.9915 12.5973C9.74452 12.5973 8.66533 13.741 8.09301 15.4406C8.09301 15.4406 7.94525 16.1942 8.59618 16.3078C9.24711 16.4214 9.42837 16.0129 9.42837 16.0129C9.87825 14.4464 10.5729 13.9665 11.9915 13.9665ZM14.9313 11.4488C15.6099 11.4488 16.16 10.8221 16.16 10.0491C16.16 9.27608 15.6099 8.64941 14.9313 8.64941C14.2527 8.64941 13.7026 9.27608 13.7026 10.0491C13.7026 10.8221 14.2527 11.4488 14.9313 11.4488Z" fill="#DE5135"/>
</svg>
