<svg width="24" height="24" viewBox="0 0 24 24" fill="none" xmlns="http://www.w3.org/2000/svg">
<circle cx="12" cy="12" r="8" fill="#FBE086"/>
<path fill-rule="evenodd" clip-rule="evenodd" d="M10.2972 10.0491C10.2972 10.8221 9.74714 11.4488 9.06854 11.4488C8.38995 11.4488 7.83984 10.8221 7.83984 10.0491C7.83984 9.27608 8.38995 8.64941 9.06854 8.64941C9.74714 8.64941 10.2972 9.27608 10.2972 10.0491ZM16.16 10.0491C16.16 10.8221 15.6099 11.4488 14.9313 11.4488C14.2527 11.4488 13.7026 10.8221 13.7026 10.0491C13.7026 9.27608 14.2527 8.64941 14.9313 8.64941C15.6099 8.64941 16.16 9.27608 16.16 10.0491ZM8.28146 13.457C7.84556 13.457 7.49219 13.8104 7.49219 14.2463C7.49219 14.6822 7.84556 15.0356 8.28146 15.0356H15.7185C16.1544 15.0356 16.5078 14.6822 16.5078 14.2463C16.5078 13.8104 16.1544 13.457 15.7185 13.457H8.28146Z" fill="#ECAC4C"/>
</svg>
