<svg width="24" height="24" viewBox="0 0 24 24" fill="none" xmlns="http://www.w3.org/2000/svg">
<path d="M9.99648 2.53418C9.38647 3.35254 8.80553 3.61325 7.99932 3.61325C7.19306 3.61325 6.64968 3.29888 5.99682 2.53418C5.39756 3.45986 4.80587 3.61325 3.99966 3.61325C3.19345 3.61325 2.60711 3.4062 1.99716 2.53418C1.40865 3.43303 0.806209 3.61325 0 3.61325V24.0001H1.99716H11.9274H21.9975H24V3.61325C23.1937 3.61325 22.6504 3.29888 21.9975 2.53418C21.3982 3.45986 20.8065 3.61325 20.0003 3.61325C19.1941 3.61325 18.6078 3.4062 17.9978 2.53418C17.4093 3.43303 16.8069 3.61325 16.0007 3.61325C15.1944 3.61325 14.601 3.32571 13.9982 2.53418C13.4383 3.4062 12.8072 3.61325 12.001 3.61325C11.2615 3.57878 10.7238 3.29927 10.0963 2.63913L9.99648 2.53418Z" fill="black"/>
</svg>
