<svg width="24" height="24" viewBox="0 0 24 24" fill="none" xmlns="http://www.w3.org/2000/svg">
<path d="M21.1077 2C20.4395 2.99011 19.3174 3.61318 18.1081 3.61318C16.8988 3.61318 15.7766 2.98902 15.1085 2C14.4402 2.99011 13.3181 3.61318 12.1088 3.61318C10.8996 3.61318 9.77735 2.98902 9.10921 2C8.44097 2.99011 7.31885 3.61318 6.10958 3.61318C4.90024 3.61318 3.77809 2.98902 3.10995 2C2.44171 2.99011 1.31959 3.61318 0.110322 3.61318C0.0735479 3.61318 0.0378251 3.60998 0.00105056 3.60891L0 24H24V3.6111C22.8327 3.57483 21.7568 2.96028 21.1085 2.00005L21.1077 2Z" fill="black"/>
</svg>
