<svg width="25" height="25" viewBox="0 0 25 25" fill="none" xmlns="http://www.w3.org/2000/svg">
<path d="M10.3236 3.00781C9.71362 3.82617 9.13268 4.08688 8.32647 4.08688C7.52021 4.08688 6.97683 3.77251 6.32397 3.00781C5.72471 3.93349 5.13302 4.08688 4.32681 4.08688C3.5206 4.08688 2.93426 3.87983 2.32431 3.00781C1.7358 3.90666 1.13336 4.08688 0.327148 4.08688V24.4737H2.32431H12.2546H22.3247H24.3271V4.08688C23.5209 4.08688 22.9775 3.77251 22.3247 3.00781C21.7254 3.93349 21.1337 4.08688 20.3275 4.08688C19.5213 4.08688 18.9349 3.87983 18.325 3.00781C17.7365 3.90666 17.134 4.08688 16.3278 4.08688C15.5216 4.08688 14.9281 3.79934 14.3253 3.00781C13.7655 3.87983 13.1344 4.08688 12.3282 4.08688C11.5887 4.05241 11.051 3.77291 10.4235 3.11276L10.3236 3.00781Z" fill="black"/>
</svg>
