<svg xmlns="http://www.w3.org/2000/svg" width="30" height="31" viewBox="0 0 30 31">
  <path d="M14.1525424,26.5480226 L14.1525424,6.23728814 L14.1525424,6.23728814 L5.5540842,14.8357463 C5.38548035,15.0043502 5.11490056,15.0129769 4.93589904,14.8554556 L4.3447047,14.3352045 C4.15731142,14.1702985 4.13908195,13.8847034 4.30398803,13.6973101 C4.31033292,13.6901 4.31690601,13.683094 4.32369729,13.6763027 L14.6804037,3.31959629 C14.8569119,3.14308813 15.1430881,3.14308813 15.3195963,3.31959629 L25.6763027,13.6763027 C25.8528109,13.8528109 25.8528109,14.1389871 25.6763027,14.3154953 C25.6695114,14.3222866 25.6625054,14.3288597 25.6552953,14.3352045 L25.064101,14.8554556 C24.8850994,15.0129769 24.6145196,15.0043502 24.4459158,14.8357463 L15.8474576,6.23728814 L15.8474576,6.23728814 L15.8474576,26.5480226 C15.8474576,26.7976428 15.6451005,27 15.3954802,27 L14.6045198,27 C14.3548995,27 14.1525424,26.7976428 14.1525424,26.5480226 Z"/>
</svg>
