<svg xmlns="http://www.w3.org/2000/svg" width="30" height="31" viewBox="0 0 30 31">
  <path fill="#0A0A0A" d="M14.6045198,2 L14.4646847,2.00664674 C13.7283851,2.07700448 13.1525424,2.69724331 13.1525424,3.4519774 L13.152,21.348 L6.26119099,14.4571469 C5.71955112,13.915507 4.85031353,13.8877936 4.27527115,14.3938309 L3.61659051,14.9773979 C3.04955806,15.5444304 3.04955806,16.4637716 3.61659051,17.0308041 L13.9732969,27.3875105 C14.5403294,27.9545429 15.4596706,27.9545429 16.0267031,27.3875105 L26.436103,16.9751966 C26.9764863,16.3613169 26.9179241,15.4438427 26.3159232,14.9140819 L25.7247289,14.3938309 L25.605982,14.2997343 C25.0352441,13.8937729 24.2443396,13.9516164 23.738809,14.4571469 L16.847,21.348 L16.8474576,3.4519774 C16.8474576,2.65007243 16.1973852,2 15.3954802,2 L14.6045198,2 Z"/>
</svg>
