<svg xmlns="http://www.w3.org/2000/svg" width="30" height="31" viewBox="0 0 30 31">
  <path d="M15.8474576,3.4519774 L15.8474576,23.7627119 L15.8474576,23.7627119 L24.4459158,15.1642537 C24.6145196,14.9956498 24.8850994,14.9870231 25.064101,15.1445444 L25.6552953,15.6647955 C25.8426886,15.8297015 25.8609181,16.1152966 25.696012,16.3026899 C25.6896671,16.3099 25.683094,16.316906 25.6763027,16.3236973 L15.3195963,26.6804037 C15.1430881,26.8569119 14.8569119,26.8569119 14.6804037,26.6804037 L4.32369729,16.3236973 C4.14718914,16.1471891 4.14718914,15.8610129 4.32369729,15.6845047 C4.33048857,15.6777134 4.3374946,15.6711403 4.3447047,15.6647955 L4.93589904,15.1445444 C5.11490056,14.9870231 5.38548035,14.9956498 5.5540842,15.1642537 L14.1525424,23.7627119 L14.1525424,23.7627119 L14.1525424,3.4519774 C14.1525424,3.20235718 14.3548995,3 14.6045198,3 L15.3954802,3 C15.6451005,3 15.8474576,3.20235718 15.8474576,3.4519774 Z"/>
</svg>
