<svg xmlns="http://www.w3.org/2000/svg" width="30" height="31" viewBox="0 0 30 31">
  <path d="M4.45369665,1.61761623 C4.7898247,1.61761623 5.03891959,1.89072027 5.0329173,2.22084604 C5.04792302,2.54496951 4.74780869,2.8210747 4.43268864,2.8210747 L4.43268864,2.8210747 L2.70703125,2.8210747 C2.59899009,2.8210747 2.49395008,2.82707698 2.38891006,2.83007812 C2.3793064,2.83127858 2.3724638,2.8321189 2.36833422,2.83259909 C2.34089177,2.83908155 2.31388148,2.84508384 2.28687119,2.85108613 C2.22384718,2.86609184 2.15782203,2.8840987 2.09479802,2.90510671 C2.0957984,2.90410633 2.08779535,2.90644055 2.07668001,2.91010861 L2.04200229,2.92146339 C2.00926543,2.93961986 1.98300543,2.953125 1.95674543,2.96700529 L1.8787157,3.01014672 C1.8366997,3.03415587 1.80068598,3.06116616 1.76167111,3.0851753 C1.7466654,3.09417873 1.72865854,3.10618331 1.71365282,3.11818788 C1.73466082,3.10018102 1.75266768,3.0851753 1.77367569,3.07016959 C1.74066311,3.07016959 1.66263338,3.16320503 1.64162538,3.18421303 C1.59960937,3.2232279 1.55759337,3.2652439 1.51857851,3.31026105 C1.51457698,3.31526296 1.50490663,3.32459985 1.49379129,3.33560404 L1.48600229,3.34346339 C1.48957329,3.33646637 1.48848833,3.33876754 1.48512845,3.34454233 L1.46755907,3.37328506 C1.42854421,3.43330793 1.38952934,3.49333079 1.35351562,3.5563548 C1.33850991,3.58636623 1.26648247,3.67940168 1.2754859,3.7154154 C1.30849848,3.63138338 1.31450076,3.62237995 1.29049162,3.68240282 C1.28749047,3.69740854 1.28148819,3.70941311 1.27848704,3.72141768 C1.26948361,3.74542683 1.26348133,3.76943598 1.2544779,3.79644627 C1.23346989,3.85947027 1.21846418,3.92549543 1.2064596,3.99152058 L1.2064596,3.99152058 L1.20400229,4.01046339 L1.2064596,3.99452172 C1.20796018,4.0065263 1.2064596,4.02153201 1.20458389,4.03653773 L1.20045732,4.07855373 C1.19745617,4.12056974 1.19745617,4.16258575 1.19745617,4.20460175 L1.19700229,7.06446339 L1.58160252,7.06769245 L1.58160252,7.06769245 L23.2760023,7.06746339 L23.2768674,4.2076029 C23.2768674,4.19139672 23.2790282,4.12225038 23.2768674,4.06758155 L23.2750023,4.05546339 L23.2708651,4.03353659 C23.2678639,4.02003144 23.2656131,4.0065263 23.2633622,3.99302115 L23.2558594,3.95250572 C23.2468559,3.90148628 23.2318502,3.8474657 23.2168445,3.79644627 L23.2168445,3.79644627 L23.1870023,3.70246339 C23.1877454,3.71560747 23.1845762,3.71363872 23.1825595,3.70273857 L23.1808308,3.67940168 L23.1808308,3.67940168 L23.1840023,3.68846339 L23.1815991,3.67776905 L23.1815991,3.67776905 L23.1800023,3.66746339 L23.1800023,3.67746339 L23.1654499,3.64338796 L23.1654499,3.64338796 L23.1478182,3.60737424 C23.1378144,3.58936738 23.0797923,3.47399009 23.0342194,3.40085112 L23.0240023,3.38646339 L23.0181916,3.38169351 L22.9917588,3.35227706 C22.9737519,3.33126905 22.9587462,3.31026105 22.9407393,3.29225419 C22.9107279,3.25624047 22.8777153,3.22622904 22.8447027,3.19321646 C22.8056879,3.15720274 22.766673,3.12118902 22.7276582,3.08817645 L22.7280023,3.08846339 L22.7389958,3.09551258 C22.7486662,3.10251524 22.7556688,3.10818407 22.7546684,3.10918445 C22.7546684,3.1066835 22.6879764,3.05207936 22.7056915,3.06868291 L22.7270023,3.08746339 L22.7073171,3.07383765 L22.7073171,3.07383765 L22.6916444,3.0641673 C22.6016101,3.00714558 22.5115758,2.95612614 22.4155393,2.91110899 L22.4250023,2.91546339 L22.3969766,2.90677401 L22.3969766,2.90677401 L22.3735232,2.89910442 C22.3225038,2.88109756 22.2714844,2.86609184 22.2204649,2.85408727 C22.1604421,2.83908155 22.1004192,2.83007812 22.0403963,2.81807355 L22.0890023,2.82646339 L22.0722974,2.82818852 C22.0621824,2.82729929 22.0509559,2.82552083 22.0405075,2.82396468 L22.0133861,2.8210747 C21.9653678,2.81807355 21.9203506,2.81807355 21.8723323,2.81807355 L19.8855755,2.81807355 C19.5494474,2.81807355 19.3003525,2.54196837 19.2883479,2.21784489 C19.2733422,1.89372142 19.5734566,1.61761623 19.8885766,1.61761623 L19.8885766,1.61761623 L21.6862614,1.61761623 C21.97137,1.61761623 22.2564787,1.62661966 22.5385861,1.6986471 C23.0187691,1.81869284 23.4839463,2.1008003 23.814072,2.47594322 C24.2582412,2.98613758 24.4773247,3.61037538 24.4773247,4.28863377 L24.4773247,4.28863377 L24.4777458,13.5202778 C26.3231557,14.9419521 27.4214463,17.1911995 27.4214463,19.5304843 C27.4214463,23.4208165 24.4773247,27.0621313 20.0235444,27.0621313 C17.0848107,27.0621313 14.6871009,25.4767961 13.3958978,23.28064 L2.7310404,23.2798685 C1.97775343,23.2798685 1.25147675,23.0397771 0.723275534,22.4785633 C0.231088034,21.9563643 0.00600228658,21.2901105 0.00600228658,20.5788396 L0.00600228658,20.5788396 L0.00600228658,4.48370808 C0.00600228658,4.12357088 0.0150057165,3.76943598 0.129049162,3.42130335 C0.330125762,2.80907012 0.74728468,2.2808689 1.30849848,1.95974657 C1.73466082,1.71665396 2.20584032,1.61761623 2.69502668,1.61761623 L2.69502668,1.61761623 Z M19.9239875,13.1988373 C16.3255924,13.1988373 13.5586474,16.0959989 13.5586474,19.5304843 C13.5586474,22.9364637 16.4065584,25.8621313 20.0235444,25.8621313 C23.5797872,25.8621313 26.2214463,23.008226 26.2214463,19.5304843 C26.2214463,17.4566359 25.2421533,15.5898194 23.6835862,14.4295 C23.5813464,14.3949573 23.4911915,14.3292504 23.4217837,14.2457954 C22.4339204,13.585627 21.237293,13.1988373 19.9239875,13.1988373 Z M19.8855755,15.1287633 C20.2096989,15.1137576 20.4858041,15.413872 20.4858041,15.728992 L20.4858041,15.728992 L20.4850023,19.2754634 L20.7228944,19.5134337 C21.2090796,19.9981183 21.6952649,20.482803 22.1814501,20.9674876 L23.6400057,22.4215415 C23.877096,22.6586319 23.8590892,23.0307736 23.6430069,23.2708651 C23.4239234,23.5109566 23.0157679,23.4929497 22.7936833,23.2708651 L22.7936833,23.2708651 L21.6292397,22.1094226 C21.0740282,21.5572123 20.5218178,21.0050019 19.9666063,20.4527915 C19.8105469,20.2997332 19.6574886,20.1466749 19.5044303,19.9936166 C19.3753811,19.8675686 19.2943502,19.7145103 19.2853468,19.5254383 C19.2823457,19.47742 19.2853468,19.4324028 19.2853468,19.3843845 L19.2853468,19.3843845 L19.2853468,15.728992 C19.2853468,15.3928639 19.561452,15.1437691 19.8855755,15.1287633 Z M22.8987233,8.26814977 L1.19700229,8.26746339 L1.19745617,19.0422542 C1.19745617,19.3168588 1.1959556,19.5922137 1.19520532,19.8675686 L1.19745617,20.692883 C1.20045732,20.7198933 1.20045732,20.7469036 1.20045732,20.776915 C1.20345846,20.8069264 1.2064596,20.8339367 1.2064596,20.860947 L1.2064596,20.860947 C1.23046875,20.9839939 1.26348133,21.0980373 1.29949505,21.2150819 L1.29949505,21.2150819 L1.30100229,21.2214634 L1.32650534,21.2694777 L1.32650534,21.2694777 L1.35351562,21.3231231 C1.38052591,21.3681402 1.4075362,21.4131574 1.43454649,21.4581745 C1.43754764,21.4611757 1.45180307,21.4859351 1.46643364,21.5095691 L1.47000229,21.5154634 L1.47956364,21.5272008 C1.50057165,21.55121 1.52232994,21.5759694 1.54446337,21.6003537 L1.61161395,21.6712557 C1.6566311,21.719274 1.70765053,21.76129 1.75566883,21.803306 L1.74900229,21.7974634 L1.75866997,21.803306 C1.77067454,21.8108089 1.78192883,21.8183117 1.79280797,21.8258146 L1.82469512,21.8483232 C1.8787157,21.8843369 1.93573742,21.9173495 1.99576029,21.9473609 C2.01976944,21.9593655 2.04377858,21.9683689 2.06778773,21.9803735 L2.05700229,21.9744634 L2.15782203,22.0062583 L2.15782203,22.0062583 L2.26286204,22.0403963 C2.27786776,22.0433975 2.32063405,22.0569026 2.3630252,22.0677818 L2.39300229,22.0744634 L2.39507908,22.0736451 L2.42492378,22.0734089 C2.4609375,22.0734089 2.49395008,22.0794112 2.5299638,22.0794112 L2.5299638,22.0794112 L2.5929878,22.0794112 C2.81207127,22.0824123 3.02815358,22.0794112 3.24723704,22.0794112 L3.24723704,22.0794112 L12.8236525,22.0792981 C12.5211166,21.2680308 12.3586474,20.4055572 12.3586474,19.5304843 C12.3586474,15.640152 15.464086,11.9988373 19.9239875,11.9988373 C21.1613704,11.9988373 22.2892664,12.2791326 23.2731796,12.7672747 L23.2735328,12.4743077 L23.2735328,12.4743077 L23.2768674,11.7974943 L23.2768674,11.7974943 L23.2760023,8.26946339 L22.8987233,8.26814977 L22.8987233,8.26814977 Z M16.1431498,5.49209223 C15.8070217,5.49209223 15.5579268,5.21598704 15.5429211,4.89186357 C15.5279154,4.56774009 15.8280297,4.29163491 16.1431498,4.29163491 L16.1431498,4.29163491 L16.8750023,4.29146339 L16.8754287,0.654249238 C16.8754287,0.349032965 17.096643,0.116744474 17.3793597,0.0645876048 L17.4756574,0.0540205793 C17.7997809,0.0390148628 18.0758861,0.339129192 18.0758861,0.654249238 L18.0758861,0.654249238 L18.0750023,4.29146339 L18.7751524,4.29163491 C19.0776677,4.29163491 19.3096861,4.51528011 19.3640038,4.79629516 L19.3753811,4.89186357 C19.3903868,5.21598704 19.0902725,5.49209223 18.7751524,5.49209223 L18.7751524,5.49209223 Z M6.95064787,0.00900342988 C7.27477134,-0.00600228659 7.55087652,0.294112043 7.55087652,0.609232088 L7.55087652,0.609232088 L7.55000229,4.29146339 L8.25314405,4.29163491 C8.5556593,4.29163491 8.78767769,4.51528011 8.84199538,4.79629516 L8.85337271,4.89186357 C8.86837843,5.21598704 8.5682641,5.49209223 8.25314405,5.49209223 L8.25314405,5.49209223 L5.62114139,5.49209223 C5.28501334,5.49209223 5.03591845,5.21598704 5.02091273,4.89186357 C5.00590701,4.56774009 5.30602134,4.29163491 5.62114139,4.29163491 L5.62114139,4.29163491 L6.35000229,4.29146339 L6.35041921,0.609232088 C6.35041921,0.306716845 6.57406441,0.0746984566 6.85507946,0.0203807641 Z M15.1497713,1.61761623 C15.4858994,1.61761623 15.7349943,1.89372142 15.75,2.21784489 C15.7650057,2.54196837 15.4648914,2.81807355 15.1497713,2.81807355 L15.1497713,2.81807355 L9.4205888,2.81807355 C9.08446075,2.81807355 8.83536585,2.54196837 8.82036014,2.21784489 C8.80535442,1.89372142 9.10546875,1.61761623 9.4205888,1.61761623 L9.4205888,1.61761623 Z" transform="translate(2 2)"/>
</svg>
