<svg xmlns="http://www.w3.org/2000/svg" xmlns:xlink="http://www.w3.org/1999/xlink" width="21" height="21" viewBox="0 0 21 21">
  <defs>
    <path id="clouds-a" d="M9.0400778,8.49251261 C10.4603572,8.49266667 11.7370097,9.37803747 12.2469091,10.7014693 L12.4345042,11.2318794 L12.9819385,11.1650956 L13.0727024,11.1579645 L13.2686189,11.1520571 C14.9199138,11.1523333 16.2723333,12.5046244 16.2720003,14.1719028 C16.2720003,15.8399762 14.9199763,17.192 13.252,17.192 L4.29233333,17.192 C2.62435706,17.192 1.27233333,15.8399763 1.27233333,14.172 C1.27233333,12.5040237 2.62435706,11.152 4.29233333,11.152 C4.5035397,11.152 4.71291104,11.1741499 4.9181628,11.2179782 L5.58748884,11.3845486 L5.756818,10.8477105 C6.18016127,9.57180949 7.32108574,8.6543331 8.66138715,8.51199065 L8.84172267,8.49743775 L9.0400778,8.49251261 Z M12.3010976,3.143 C13.8919112,3.143 15.2890139,4.09082827 15.910316,5.48737829 L15.986908,5.6720407 L16.0454309,5.83733333 L16.1948213,5.8191086 L16.3049053,5.81000048 L16.5254309,5.80266667 C18.4695046,5.80266667 20.0458091,7.37885414 20.0454533,9.32233333 C20.0454533,10.9112149 18.9928392,12.2541361 17.5468908,12.6918541 C17.3806648,12.7421741 17.2216897,12.8114471 17.1067272,12.7463761 C16.9917646,12.6813052 16.9594416,12.6126765 16.9170336,12.518853 C16.2860425,11.1228495 14.8822417,10.1523333 13.252,10.1523333 L13.102,10.156 L13.0072832,9.95332358 C12.2574482,8.4590199 10.7279974,7.49266667 9.02766667,7.49266667 L8.8169004,7.49774587 L8.58533065,7.51453543 C7.24616322,7.64761355 6.05921068,8.37963432 5.33071615,9.46687131 C5.27733374,9.54654154 5.22641308,9.62811914 5.17807467,9.71150822 C5.09916596,9.84763442 5.02845038,10.0347961 4.91556988,10.1099346 C4.80268938,10.1850732 4.57643577,10.1615651 4.50757665,10.1578231 C4.43582511,10.1539239 4.25300403,10.1790559 4.19519763,10.1099346 C4.13739123,10.0408134 4.09993903,9.95010946 4.08428174,9.84489042 C4.05891014,9.67438993 4.04576428,9.49989753 4.04576428,9.32233333 C4.04576428,7.37821469 5.62164564,5.80233333 7.56576428,5.80233333 C7.73078352,5.80233333 7.89438822,5.81393427 8.05575003,5.83674963 L8.29600703,5.87933517 L8.52543095,5.93633333 L8.55340697,5.84763866 C9.03841087,4.38571071 10.3441012,3.32149176 11.8986156,3.16336946 L12.1027425,3.14792514 L12.3010976,3.143 Z"/>
  </defs>
  <g fill="none" fill-rule="evenodd" transform="translate(-.369 -.532)">
    <mask id="clouds-b" fill="#fff">
      <use xlink:href="#clouds-a"/>
    </mask>
    <use fill="#000" fill-rule="nonzero" xlink:href="#clouds-a"/>
    <g mask="url(#clouds-b)">
      <rect width="21" height="21" fill="#000" transform="translate(.369 .532)"/>
    </g>
  </g>
</svg>
