<svg xmlns="http://www.w3.org/2000/svg" width="21" height="22" viewBox="0 0 21 22">
  <path d="M9.39857143,5.19642857 C11.1771208,5.19642857 12.7296828,6.30218556 13.347654,7.90611503 L13.347654,7.90611503 L13.411,8.084 L13.452565,8.07727671 C13.5311081,8.06695007 13.609697,8.05914875 13.6883654,8.05392909 L13.6883654,8.05392909 L13.9246429,8.04607143 C16.0076804,8.04607143 17.6960714,9.73421189 17.6960714,11.8171429 C17.6960714,13.9001271 16.0076271,15.5885714 13.9246429,15.5885714 L13.9246429,15.5885714 L4.325,15.5885714 C2.24201574,15.5885714 0.553571429,13.9001271 0.553571429,11.8171429 C0.553571429,9.73415859 2.24201574,8.04571429 4.325,8.04571429 C4.59020948,8.04571429 4.85200894,8.07368084 5.10740294,8.12821625 L5.10740294,8.12821625 L5.354,8.189 L5.3831886,8.0942557 C5.92542897,6.4598021 7.42509993,5.28932442 9.18604807,5.20170551 L9.18604807,5.20170551 Z M9.39857143,6.08928571 C7.76914442,6.08928571 6.38691097,7.26543765 6.11016827,8.85479524 C6.06034291,9.14094665 5.75484949,9.30407045 5.48934118,9.18629723 C5.12295785,9.02377824 4.72933519,8.93857143 4.325,8.93857143 C2.73512712,8.93857143 1.44642857,10.22727 1.44642857,11.8171429 C1.44642857,13.4070157 2.73512712,14.6957143 4.325,14.6957143 L4.325,14.6957143 L13.9246429,14.6957143 C15.5145157,14.6957143 16.8032143,13.4070157 16.8032143,11.8171429 C16.8032143,10.2273529 15.5145987,8.93892857 13.9246429,8.93892857 C13.6867521,8.93892857 13.4475315,8.97112246 13.2041294,9.03376752 C12.9599518,9.09661214 12.712215,8.94491391 12.6571895,8.69885636 C12.3184142,7.18395561 10.9700674,6.08928571 9.39857143,6.08928571 Z M13.9771429,3.38821429 C16.0604843,3.38821429 17.7492857,5.07701574 17.7492857,7.16035714 C17.7492857,7.67077727 17.647502,8.16790807 17.4526154,8.62885009 C17.3566007,8.85594231 17.0946707,8.96220159 16.8675785,8.86618684 C16.6404863,8.77017208 16.534227,8.50824213 16.6302417,8.28114991 C16.7788405,7.92968697 16.8564286,7.55073223 16.8564286,7.16035714 C16.8564286,5.57012712 15.5673729,4.28107143 13.9771429,4.28107143 C13.1145153,4.28107143 12.3148415,4.66210797 11.7708769,5.31021566 C11.6123704,5.49906852 11.3307801,5.52366913 11.1419272,5.36516264 C10.9530743,5.20665616 10.9284737,4.92506578 11.0869802,4.73621291 C11.7988598,3.88804261 12.8478394,3.38821429 13.9771429,3.38821429 Z M20.2978571,6.43642857 C20.5444128,6.43642857 20.7442857,6.63630145 20.7442857,6.88285714 C20.7442857,7.10201776 20.5863615,7.28429319 20.3781032,7.32209315 L20.2978571,7.32928571 L18.4653571,7.32928571 C18.2188015,7.32928571 18.0189286,7.12941283 18.0189286,6.88285714 C18.0189286,6.66369653 18.1768528,6.4814211 18.385111,6.44362113 L18.4653571,6.43642857 L20.2978571,6.43642857 Z M19.2421012,2.7632559 C19.3946498,2.91580445 19.4137184,3.15128683 19.2993069,3.32456884 L19.2421012,3.39460124 L18.0824584,4.5542441 C17.9081172,4.7285853 17.6254542,4.7285853 17.451113,4.5542441 C17.2985645,4.40169555 17.2794959,4.16621317 17.3939073,3.99293116 L17.451113,3.92289876 L18.6107559,2.7632559 C18.7850971,2.5889147 19.06776,2.5889147 19.2421012,2.7632559 Z M10.469094,1.95843239 L10.5360986,2.01915648 L11.6075272,3.20665648 C11.7726922,3.38971443 11.7581872,3.67200495 11.5751292,3.83717002 C11.4149535,3.98168945 11.1788029,3.98864895 11.0116203,3.86549619 L10.9446157,3.80477209 L9.87318713,2.61727209 C9.70802206,2.43421414 9.72252711,2.15192362 9.90558506,1.98675856 C10.0657608,1.84223913 10.3019114,1.83527962 10.469094,1.95843239 Z M14.8371429,0.65 C15.0563035,0.65 15.2385789,0.807924251 15.2763789,1.01618247 L15.2835714,1.09642857 L15.2835714,2.47107143 C15.2835714,2.71762712 15.0836985,2.9175 14.8371429,2.9175 C14.6179822,2.9175 14.4357068,2.75957575 14.3979068,2.55131753 L14.3907143,2.47107143 L14.3907143,1.09642857 C14.3907143,0.84987288 14.5905872,0.65 14.8371429,0.65 Z" transform="translate(-.2 2)"/>
</svg>
