<svg xmlns="http://www.w3.org/2000/svg" xmlns:xlink="http://www.w3.org/1999/xlink" width="21" height="21" viewBox="0 0 21 21">
  <defs>
    <path id="cloudy-moon-a" d="M9.8185,4.55 C11.6110962,4.55 13.184134,5.62434398 13.8739342,7.20396572 L13.9555111,7.40400893 L14.019,7.583 L14.0775849,7.57473772 L14.2007427,7.56053552 L14.3239925,7.55033673 L14.570875,7.542125 C16.7477097,7.542125 18.512125,9.30627845 18.512125,11.483 C18.512125,13.5917538 16.8562095,15.3135679 14.7736988,15.4191219 L14.570875,15.42425 L4.49125,15.42425 C2.31447186,15.42425 0.55,13.6597781 0.55,11.483 C0.55,9.30622186 2.31447186,7.54175 4.49125,7.54175 C4.72880378,7.54175 4.96373826,7.56322137 5.19408509,7.60524535 L5.42282979,7.65408617 L5.584,7.698 L5.61338827,7.60040832 C6.15282237,5.94735014 7.62741535,4.74374144 9.38281852,4.57129951 L9.60365914,4.55515701 L9.8185,4.55 Z M14.5921928,1.0297075 C14.5921928,4.17754715 16.873098,5.65087924 19.5350725,5.18667366 C19.7018541,5.15758962 19.7617791,5.30271461 19.7345475,5.41531372 C19.6119164,5.92237735 19.3925892,6.38941586 19.0979434,6.79697352 C18.7036934,7.34230491 18.1745953,7.78114353 17.5618614,8.06688122 C16.7630786,7.3662403 15.7165483,6.942125 14.570875,6.942125 L14.414,6.947 L14.3453266,6.79515757 C13.8341623,5.73729077 12.9786166,4.90633498 11.9440521,4.42217061 C11.9492854,3.86803376 12.0724188,3.33729121 12.2899045,2.85563662 C12.5094213,2.36948359 12.8250609,1.93333972 13.2155365,1.57348455 C13.5366857,1.27751935 13.9084565,1.03315847 14.3190061,0.855022199 C14.4541994,0.796362233 14.5921928,0.819775741 14.5921928,1.0297075 Z"/>
  </defs>
  <g fill="none" fill-rule="evenodd" transform="translate(.5 2)">
    <mask id="cloudy-moon-b" fill="#fff">
      <use xlink:href="#cloudy-moon-a"/>
    </mask>
    <use fill="#979797" fill-rule="nonzero" xlink:href="#cloudy-moon-a"/>
    <g mask="url(#cloudy-moon-b)">
      <rect width="21" height="21" fill="#000" transform="translate(-.5 -2)"/>
    </g>
  </g>
</svg>
