<svg xmlns="http://www.w3.org/2000/svg" width="21" height="22" viewBox="0 0 21 22">
  <path d="M14.1103115,12.2078055 C14.5923636,12.1977014 15.2142053,12.2873968 15.8342076,12.5740662 C16.9393261,13.085038 17.6227431,14.0744908 17.6378985,15.5809093 C17.6530756,17.0894704 17.0248274,18.1085379 15.982852,18.6714024 C15.3761663,18.9991279 14.7786098,19.1109923 14.3567131,19.115539 C14.0888704,19.1183792 13.8694156,18.9035751 13.866547,18.6357324 C13.8636785,18.3678896 14.0784826,18.1484348 14.3463253,18.1455663 L14.4490194,18.1392346 C14.5144013,18.1329663 14.5997304,18.1215518 14.7000332,18.1027748 C14.9820045,18.049989 15.2633293,17.9576025 15.5218322,17.8179619 C16.2534291,17.4227607 16.6794277,16.7317578 16.6679476,15.5906676 C16.6566821,14.4709056 16.2021759,13.8128704 15.4271189,13.4545086 C15.0301023,13.2709407 14.6166282,13.1932575 14.2876307,13.1793982 L4.72984615,13.1780385 C4.46198805,13.1780385 4.24484615,12.9608966 4.24484615,12.6930385 C4.24484615,12.4549424 4.41641506,12.2569183 4.64266679,12.2158525 L4.72984615,12.2080385 L14.1103115,12.2078055 Z M12.2202308,13.8215769 C12.4683422,13.8215769 12.8128452,13.8654842 13.1698847,14.0019993 C13.8265123,14.2530628 14.2581154,14.7481369 14.2581154,15.4940769 C14.2581154,16.233951 13.8342072,16.7368557 13.1851063,17.0105471 C12.8301646,17.1602073 12.4865317,17.2175064 12.2392737,17.2272222 C11.9716222,17.2377393 11.7461219,17.0292907 11.7356048,16.7616391 C11.7250876,16.4939876 11.9335363,16.2684873 12.2011878,16.2579701 C12.342151,16.2524311 12.5808498,16.2126293 12.8082398,16.1167509 C13.1296918,15.9812117 13.2881154,15.7932654 13.2881154,15.4940769 C13.2881154,15.2009545 13.1373867,15.0280598 12.8234614,14.9080296 C12.6432277,14.8391167 12.4549705,14.8059347 12.3151408,14.7954184 L12.2202308,14.7915769 L4.72984615,14.7915769 C4.46198805,14.7915769 4.24484615,14.574435 4.24484615,14.3065769 C4.24484615,14.0684808 4.41641506,13.8704568 4.64266679,13.8293909 L4.72984615,13.8215769 L12.2202308,13.8215769 Z M18.5200022,9.31966846 C18.761531,9.31692898 19.0731526,9.35800825 19.3926586,9.48938911 C19.9912783,9.73554153 20.3783077,10.2301135 20.3783077,10.9618462 C20.3783077,11.6821833 20.0437156,12.1660016 19.5070053,12.3762987 C19.3005781,12.4571823 19.0947044,12.4884632 18.9035854,12.4889258 L18.74,12.481 L17.1547897,12.4881887 C16.9166954,12.4891051 16.7180125,12.3182996 16.6760761,12.0922076 L16.667923,12.0050589 C16.6670103,11.7669646 16.8378158,11.5682817 17.0639078,11.5263454 L17.1510564,11.5181959 L18.8360881,11.5165277 C18.9320263,11.5237537 19.0521153,11.5127332 19.1531293,11.4731532 C19.3204695,11.4075849 19.4083077,11.2805715 19.4083077,10.9618462 C19.4083077,10.6545163 19.281515,10.4924921 19.0237645,10.3865051 C18.881952,10.3281918 18.7302719,10.3002729 18.6123928,10.2921511 L18.5310035,10.2896061 C18.2660549,10.2954815 18.0441613,10.0831976 18.0382341,9.81540512 C18.0329656,9.57736732 18.2001106,9.37559532 18.4253982,9.32953301 L18.5200022,9.31966846 Z M9.69505769,0.688192308 C11.5341157,0.688192308 13.1385185,1.83628969 13.7695021,3.49904211 L13.818,3.638 L13.8389991,3.63575198 C13.9199424,3.62511146 14.0009394,3.6170725 14.0820243,3.61169367 L14.3255769,3.60359615 C16.4722427,3.60359615 18.2123077,5.34366113 18.2123077,7.49032692 C18.2123077,7.75818503 17.9951658,7.97532692 17.7273077,7.97532692 C17.4594496,7.97532692 17.2423077,7.75818503 17.2423077,7.49032692 C17.2423077,5.87937733 15.9365265,4.57359615 14.3255769,4.57359615 C14.0846519,4.57359615 13.8422668,4.60621591 13.5954823,4.66973149 C13.3302078,4.73800589 13.0610666,4.57320094 13.0012868,4.30588401 C12.6575656,2.76886625 11.289506,1.65819231 9.69505769,1.65819231 C8.04184014,1.65819231 6.63940212,2.85153646 6.3586185,4.4641014 C6.30448823,4.77497628 5.97260018,4.95219398 5.68415195,4.82424516 C5.31288479,4.65955981 4.91407785,4.57323077 4.50440385,4.57323077 C2.89345426,4.57323077 1.58767308,5.87901195 1.58767308,7.48996154 C1.58767308,9.04337721 2.80184971,10.313033 4.33301542,10.4017413 L4.50440385,10.4066923 L4.73167308,10.4066923 L4.78567308,10.4111923 L15.0377115,10.4114423 C15.6935397,10.4114423 16.0601024,10.1940425 16.2623416,9.82572848 C16.3597159,9.64839237 16.405818,9.46377273 16.4196411,9.32381263 L16.4281674,9.15246829 C16.440949,8.93561167 16.4115082,8.66470842 16.3091599,8.41824443 C16.1266487,7.9787408 15.7596214,7.72759615 15.0519615,7.72759615 C14.3423043,7.72759615 13.9677213,7.98121983 13.7769318,8.42411957 C13.6900705,8.62575985 13.6517728,8.84228561 13.6454078,9.03065966 L13.6469663,9.17730763 C13.6715855,9.44403194 13.4753205,9.68021251 13.2085962,9.70483171 C12.9715079,9.72671543 12.758553,9.57407339 12.6968658,9.35255376 L12.6791381,9.24087379 L12.6775667,9.21432517 C12.6601234,8.86470899 12.7092848,8.45075823 12.886073,8.04036119 C13.2281741,7.24620565 13.9498135,6.75759615 15.0519615,6.75759615 C16.1561069,6.75759615 16.8737924,7.24868468 17.2049891,8.04623634 C17.344791,8.38289184 17.398929,8.72275884 17.4011294,9.02965193 L17.3908244,9.3501282 C17.3743741,9.62381087 17.2972013,9.95639885 17.1125959,10.2925984 C16.7649831,10.925664 16.1387793,11.3255112 15.2355096,11.3760105 L15.0377115,11.3814423 L4.72984615,11.3814423 L4.67467308,11.3761923 L4.50440385,11.3766923 C2.35773805,11.3766923 0.617673077,9.63662733 0.617673077,7.48996154 C0.617673077,5.34329574 2.35773805,3.60323077 4.50440385,3.60323077 C4.81677608,3.60323077 5.12456136,3.64087708 5.42314123,3.71401577 L5.537,3.745 L5.55352884,3.69247207 C6.10694203,1.99656632 7.65971396,0.780987804 9.48346389,0.693271296 L9.69505769,0.688192308 Z" transform="translate(0 .5)"/>
</svg>
