<svg xmlns="http://www.w3.org/2000/svg" width="21" height="22" viewBox="0 0 21 22">
  <path d="M9.09200426,-0.185894341 C7.14121371,-0.0950948385 5.48062344,1.20854801 4.89684048,3.02573777 L4.877,3.09 L4.72776985,3.04864875 C4.41034034,2.97089127 4.08313187,2.93086957 3.75104348,2.93086957 C1.46881724,2.93086957 -0.381130435,4.78081724 -0.381130435,7.06304348 C-0.381130435,9.34526971 1.46881724,11.1952174 3.75104348,11.1952174 L14.268913,11.1952174 C16.5511393,11.1952174 18.401087,9.34526971 18.401087,7.06304348 C18.401087,4.78087563 16.5511977,2.93126087 14.268913,2.93126087 L14.0100351,2.93987013 L13.880806,2.95056227 L13.705,2.972 L13.6527869,2.82019817 C12.9868537,1.04003047 11.2741739,-0.190956522 9.30991304,-0.190956522 L9.09200426,-0.185894341 Z M9.30991304,0.787304348 C11.0317261,0.787304348 12.5090452,1.9866818 12.880225,3.6464861 C12.9405139,3.91607959 13.2119472,4.08228809 13.4794809,4.01343223 C13.746165,3.94479504 14.0082675,3.90952174 14.268913,3.90952174 C16.0109516,3.90952174 17.4228261,5.3211867 17.4228261,7.06304348 C17.4228261,8.80499115 16.0108607,10.2169565 14.268913,10.2169565 L3.75104348,10.2169565 C2.0090958,10.2169565 0.597130435,8.80499115 0.597130435,7.06304348 C0.597130435,5.3210958 2.0090958,3.90913043 3.75104348,3.90913043 C4.19405421,3.90913043 4.62532773,4.00248746 5.02675643,4.18055175 C5.31766118,4.30959023 5.65237571,4.13086328 5.70696697,3.81734087 C6.01018072,2.07595778 7.52462779,0.787304348 9.30991304,0.787304348 Z" transform="translate(1.5 5)"/>
</svg>
