<svg xmlns="http://www.w3.org/2000/svg" width="21" height="22" viewBox="0 0 21 22">
  <path d="M9.02766667,4.99266667 C10.6876461,4.99266667 12.136704,6.02470653 12.713477,7.52170736 L12.713477,7.52170736 L12.772,7.687 L12.9213903,7.66877527 L13.0314743,7.65966715 L13.252,7.65233333 C15.1960737,7.65233333 16.7723781,9.2285208 16.7720002,11.172 C16.7720002,13.1161186 15.1961187,14.692 13.252,14.692 L13.252,14.692 L4.29233333,14.692 C2.34821469,14.692 0.772333333,13.1161186 0.772333333,11.172 C0.772333333,9.22788135 2.34821469,7.652 4.29233333,7.652 C4.53986218,7.652 4.78420835,7.67810212 5.02257608,7.72900183 L5.02257608,7.72900183 L5.252,7.786 L5.27997602,7.69730532 C5.78606704,6.17181529 7.18575993,5.07936946 8.82931154,4.99759181 L8.82931154,4.99759181 Z M9.02766667,5.826 C7.50686812,5.826 6.21678358,6.92374181 5.95849038,8.40714222 C5.91198671,8.67421687 5.62685953,8.82646575 5.37905177,8.71654408 C5.037094,8.56485969 4.66971285,8.48533333 4.29233333,8.48533333 C2.80845198,8.48533333 1.60566667,9.68811865 1.60566667,11.172 C1.60566667,12.6558814 2.80845198,13.8586667 4.29233333,13.8586667 L4.29233333,13.8586667 L13.252,13.8586667 C14.7358814,13.8586667 15.9386668,12.6558813 15.9386668,11.171919 C15.9389552,9.68870943 14.7358232,8.48566667 13.252,8.48566667 C13.0299686,8.48566667 12.8066961,8.51571429 12.5795207,8.57418301 C12.3516217,8.632838 12.1204007,8.49125299 12.0690435,8.26159927 C11.7528533,6.8476919 10.4943963,5.826 9.02766667,5.826 Z M13.1863333,0.851333333 C14.8463127,0.851333333 16.2953706,1.88337319 16.8721437,3.38037403 L16.931,3.546 L16.9700607,3.54012493 C17.0433676,3.53048673 17.1167172,3.5232055 17.190141,3.51833382 L17.4106667,3.511 C19.3547853,3.511 20.9306667,5.08688135 20.9306667,7.031 C20.9306667,8.97511865 19.3547853,10.551 17.4106667,10.551 C17.180548,10.551 16.994,10.364452 16.994,10.1343333 C16.994,9.90421469 17.180548,9.71766667 17.4106667,9.71766667 C18.894548,9.71766667 20.0973333,8.51488135 20.0973333,7.031 C20.0973333,5.54711865 18.894548,4.34433333 17.4106667,4.34433333 C17.1886353,4.34433333 16.9653627,4.37438096 16.7381874,4.43284968 C16.5102883,4.49150467 16.2790674,4.34991965 16.2277102,4.12026593 C15.9115199,2.70635857 14.6530629,1.68466667 13.1863333,1.68466667 C11.6655348,1.68466667 10.3754502,2.78240848 10.1171571,4.26580889 C10.0706534,4.53288354 9.78552619,4.68513242 9.53771844,4.57521075 C9.19576066,4.42352636 8.82837951,4.344 8.451,4.344 C7.45425808,4.344 6.55448139,4.89105465 6.08757511,5.75169089 C5.97784116,5.95396064 5.72491219,6.02897573 5.52264244,5.91924178 C5.32037269,5.80950783 5.2453576,5.55657886 5.35509155,5.35430911 C5.96632868,4.22763154 7.14556788,3.51066667 8.451,3.51066667 C8.69852885,3.51066667 8.94287501,3.53676879 9.18124274,3.5876685 L9.411,3.645 L9.43864269,3.55597199 C9.94473371,2.03048196 11.3444266,0.938036129 12.9879782,0.856258476 L13.1863333,0.851333333 Z" transform="translate(-.336 2.5)"/>
</svg>
