<svg xmlns="http://www.w3.org/2000/svg" xmlns:xlink="http://www.w3.org/1999/xlink" width="21" height="21" viewBox="0 0 21 21">
  <defs>
    <path id="cloudy-sun-a" d="M9.18604807,7.20170551 C7.42509993,7.28932442 5.92542897,8.4598021 5.3831886,10.0942557 L5.354,10.189 L5.10740294,10.1282163 C4.85200894,10.0736808 4.59020948,10.0457143 4.325,10.0457143 C2.24201574,10.0457143 0.553571429,11.7341586 0.553571429,13.8171429 C0.553571429,15.9001271 2.24201574,17.5885714 4.325,17.5885714 L13.9246429,17.5885714 C16.0076271,17.5885714 17.6960714,15.9001271 17.6960714,13.8171429 C17.6960714,11.7342119 16.0076804,10.0460714 13.9246429,10.0460714 L13.6883654,10.0539291 C13.609697,10.0591488 13.5311081,10.0669501 13.452565,10.0772767 L13.411,10.084 L13.347654,9.90611503 C12.7296828,8.30218556 11.1771208,7.19642857 9.39857143,7.19642857 L9.18604807,7.20170551 Z"/>
  </defs>
  <g fill="none" fill-rule="evenodd" transform="translate(-.2)">
    <path fill="#C8A218" fill-rule="nonzero" d="M13.9771429 5.38821429C16.0604843 5.38821429 17.7492857 7.07701574 17.7492857 9.16035714 17.7492857 9.67077727 17.7035974 10.0784941 17.5087108 10.5394361 17.4126961 10.7665283 17.1507661 10.8727876 16.9236739 10.7767729 16.3613963 10.24219 15.4279207 9.40274097 13.7763819 9.5823644 13.3812051 8.06890213 11.9236795 7.27129266 11.2696077 7.02558073 11.150464 6.9808226 11.1282587 7.00153939 11.0950014 6.9201002 11.0617441 6.83866101 11.1411808 6.74207107 11.232757 6.64114606 11.8225972 5.99109074 12.9996077 5.38821429 13.9771429 5.38821429zM9.90558506 3.98675856C10.0657608 3.84223913 10.3019114 3.83527962 10.469094 3.95843239L10.5360986 4.01915648 11.6075272 5.20665648C11.7726922 5.38971443 11.7581872 5.67200495 11.5751292 5.83717002 11.4149535 5.98168945 11.1788029 5.98864895 11.0116203 5.86549619L10.9446157 5.80477209 9.87318713 4.61727209C9.70802206 4.43421414 9.72252711 4.15192362 9.90558506 3.98675856zM14.8371429 2.65C15.0563035 2.65 15.2385789 2.80792425 15.2763789 3.01618247L15.2835714 3.09642857 15.2835714 4.47107143C15.2835714 4.71762712 15.0836985 4.9175 14.8371429 4.9175 14.6179822 4.9175 14.4357068 4.75957575 14.3979068 4.55131753L14.3907143 4.47107143 14.3907143 3.09642857C14.3907143 2.84987288 14.5905872 2.65 14.8371429 2.65zM18.6107559 4.7632559C18.7850971 4.5889147 19.06776 4.5889147 19.2421012 4.7632559 19.3946498 4.91580445 19.4137184 5.15128683 19.2993069 5.32456884L19.2421012 5.39460124 18.0824584 6.5542441C17.9081172 6.7285853 17.6254542 6.7285853 17.451113 6.5542441 17.2985645 6.40169555 17.2794959 6.16621317 17.3939073 5.99293116L17.451113 5.92289876 18.6107559 4.7632559zM20.2978571 8.43642857C20.5444128 8.43642857 20.7442857 8.63630145 20.7442857 8.88285714 20.7442857 9.10201776 20.5863615 9.28429319 20.3781032 9.32209315L20.2978571 9.32928571 18.4653571 9.32928571C18.2188015 9.32928571 18.0189286 9.12941283 18.0189286 8.88285714 18.0189286 8.66369653 18.1768528 8.4814211 18.385111 8.44362113L18.4653571 8.43642857 20.2978571 8.43642857z"/>
    <mask id="cloudy-sun-b" fill="#fff">
      <use xlink:href="#cloudy-sun-a"/>
    </mask>
    <use fill="#000" fill-rule="nonzero" xlink:href="#cloudy-sun-a"/>
    <g mask="url(#cloudy-sun-b)">
      <rect width="21" height="21" fill="#000" transform="translate(.2)"/>
    </g>
  </g>
</svg>
