<svg xmlns="http://www.w3.org/2000/svg" width="21" height="22" viewBox="0 0 21 22">
  <path d="M9.8185,3.55 C11.6857877,3.55 13.3148393,4.71573782 13.9555111,6.40400893 L13.9555111,6.40400893 L14.019,6.583 L14.0775849,6.57473772 C14.1596654,6.56394487 14.2417894,6.55579169 14.3239925,6.55033673 L14.3239925,6.55033673 L14.570875,6.542125 C16.7477097,6.542125 18.512125,8.30627845 18.512125,10.483 C18.512125,12.6597781 16.7476531,14.42425 14.570875,14.42425 L14.570875,14.42425 L4.49125,14.42425 C2.31447186,14.42425 0.55,12.6597781 0.55,10.483 C0.55,8.30622186 2.31447186,6.54175 4.49125,6.54175 C4.80798837,6.54175 5.12007022,6.57992133 5.42282979,6.65408617 L5.42282979,6.65408617 L5.584,6.698 L5.61338827,6.60040832 C6.17529879,4.87847272 7.75192164,3.64422101 9.60365914,3.55515701 L9.60365914,3.55515701 Z M9.8185,4.45 C8.09844086,4.45 6.63934011,5.69155886 6.34720462,7.3693186 C6.29698065,7.65775922 5.98904329,7.82218801 5.72141091,7.70347261 C5.33433979,7.531777 4.91844971,7.44175 4.49125,7.44175 C2.81152814,7.44175 1.45,8.80327814 1.45,10.483 C1.45,12.1627219 2.81152814,13.52425 4.49125,13.52425 L4.49125,13.52425 L14.570875,13.52425 C16.2505969,13.52425 17.612125,12.1627219 17.612125,10.483 C17.612125,8.80336462 16.2506834,7.442125 14.570875,7.442125 C14.3194611,7.442125 14.0667168,7.47613888 13.8096624,7.54229766 C13.5635314,7.60564504 13.3138127,7.45273323 13.258347,7.20470721 C12.9007282,5.60554362 11.4774009,4.45 9.8185,4.45 Z M15.137363,0.55007133 C15.3863324,0.545637888 15.5857973,0.742447234 15.5951202,0.981586366 L15.5859627,1.15256378 L15.5852394,1.26831389 C15.5834389,1.40836917 15.5722451,1.5150475 15.5375006,1.63244993 C15.0004673,3.44709586 16.5525794,4.8678113 18.4804445,4.69258647 L18.7096035,4.66680942 L18.769371,4.66467015 C19.0523213,4.65980043 19.2676449,4.90313737 19.2292697,5.17695622 C19.1038082,6.07216352 18.6841115,6.89248472 18.0443747,7.5176039 C17.8666197,7.69129729 17.5817145,7.68800471 17.4080211,7.51024971 C17.2343277,7.33249471 17.2376203,7.04758949 17.4153753,6.8738961 C17.747641,6.54922252 18.0035491,6.15728829 18.1661583,5.72570472 L18.206,5.605 L18.0832934,5.60597405 C15.8535053,5.56364421 14.0738999,3.80516952 14.6272971,1.55137524 L14.64,1.502 L14.5669028,1.51511971 C13.6143279,1.71219656 12.8022768,2.33922767 12.37121,3.21364235 L12.2901476,3.39176964 C12.1942463,3.62104933 11.9306351,3.7291739 11.7013554,3.63327261 C11.4720757,3.53737133 11.3639511,3.27376006 11.4598524,3.04448036 C12.0769085,1.56922973 13.5119713,0.579014962 15.137363,0.55007133 Z" transform="translate(.5 3)"/>
</svg>
