<svg xmlns="http://www.w3.org/2000/svg" xmlns:xlink="http://www.w3.org/1999/xlink" width="21" height="21" viewBox="0 0 21 21">
  <defs>
    <path id="cloudy-wind-a" d="M2.9237867,12.1595792 L14.106661,12.2783185 C14.5887131,12.2682143 15.2105548,12.3579098 15.8305571,12.6445792 C16.9356756,13.1555509 17.6190926,14.1450037 17.6342481,15.6514223 C17.6494251,17.1599834 17.0211769,18.1790509 15.9792015,18.7419154 C15.3725158,19.0696408 14.7749593,19.1815052 14.3530626,19.1860236 C14.0852199,19.1888921 13.8657651,18.974088 13.8628966,18.7062453 C13.8600281,18.4384026 14.0748321,18.2189477 14.3426749,18.2160792 L14.4453689,18.2097476 C14.5107509,18.2034793 14.5960799,18.1920648 14.6963827,18.1732878 C14.9783541,18.1205019 15.2596788,18.0281155 15.5181817,17.8884749 C16.2497786,17.4932736 16.6757772,16.8022708 16.6642971,15.6611805 C16.6530317,14.5414186 16.1985255,13.8833834 15.4234685,13.5250216 C15.0264518,13.3414537 14.6129777,13.2637704 14.2839802,13.2499111 L2.9237867,13.1295792 C2.65592859,13.1295792 2.4387867,12.9124373 2.4387867,12.6445792 C2.4387867,12.4064831 2.6103556,12.2084591 2.83660733,12.1673932 L2.9237867,12.1595792 Z M12.1631748,13.7647008 C12.4112862,13.7647008 12.7557892,13.808608 13.1128287,13.9451232 C13.7694563,14.1961866 14.2010594,14.6912607 14.2010594,15.4372008 C14.2010594,16.1770748 13.7771512,16.6799795 13.1280503,16.953671 C12.7731086,17.1033311 12.4294757,17.1606302 12.1822177,17.170346 C11.9145661,17.1808632 11.6890659,16.9724145 11.6785487,16.704763 C11.6680316,16.4371114 11.8764802,16.2116111 12.1441318,16.201094 C12.285095,16.195555 12.5237938,16.1557531 12.7511838,16.0598748 C13.0726358,15.9243355 13.2310594,15.7363893 13.2310594,15.4372008 C13.2310594,15.1440783 13.0803307,14.9711837 12.7664054,14.8511534 C12.5861716,14.7822405 12.3979145,14.7490586 12.2580848,14.7385423 L12.1631748,14.7347008 L4.67279014,14.7347008 C4.40493203,14.7347008 4.18779014,14.5175589 4.18779014,14.2497008 C4.18779014,14.0116047 4.35935904,13.8135807 4.58561077,13.7725148 L4.67279014,13.7647008 L12.1631748,13.7647008 Z M18.9078339,9.70462597 C19.1493628,9.70188649 19.4609844,9.74296576 19.7804903,9.87434661 C20.37911,10.120499 20.7661394,10.615071 20.7661394,11.3468037 C20.7661394,12.0671408 20.4315473,12.5509591 19.8948371,12.7612562 C19.6884098,12.8421398 19.4825362,12.8734207 19.2914171,12.8738833 L19.1278317,12.8659575 L17.5426215,12.8731462 C17.3045271,12.8740626 17.1058443,12.7032571 17.0639079,12.4771651 L17.0557547,12.3900165 C17.054842,12.1519221 17.2256475,11.9532392 17.4517395,11.9113029 L17.5388882,11.9031534 L19.2239198,11.9014852 C19.3198581,11.9087112 19.439947,11.8976907 19.5409611,11.8581107 C19.7083013,11.7925424 19.7961394,11.665529 19.7961394,11.3468037 C19.7961394,11.0394738 19.6693467,10.8774496 19.4115962,10.7714626 C19.2697837,10.7131493 19.1181036,10.6852304 19.0002245,10.6771086 L18.9188352,10.6745636 C18.6538867,10.680439 18.431993,10.4681551 18.4260659,10.2003626 C18.4207973,9.96232483 18.5879424,9.76055282 18.81323,9.71449052 L18.9078339,9.70462597 Z M9.99871949,1.32552996 C11.7913157,1.32552996 13.3643535,2.39987394 14.0541537,3.97949568 L14.1357305,4.17953889 L14.1992195,4.35852996 L14.2578044,4.35026768 L14.3809622,4.33606548 L14.3809622,4.33606548 L14.504212,4.32586669 L14.7510945,4.31765496 C16.9279292,4.31765496 18.6923445,6.08180841 18.6923445,8.25852996 C18.6923445,9.60672803 18.0154924,10.7967652 16.983042,11.5073876 C17.0329477,11.4399626 17.0779505,11.3683609 17.1190574,11.2934978 C17.2728952,11.0133315 17.3521271,10.7356732 17.3837843,10.4925217 L17.397286,10.3510276 L17.4075909,10.0305513 C17.4053906,9.72365821 17.3512525,9.38379121 17.2114506,9.04713571 C16.880254,8.24958404 16.1625685,7.75849552 15.0584231,7.75849552 C13.956275,7.75849552 13.2346357,8.24710502 12.8925345,9.04126056 C12.7410018,9.39302945 12.6832356,9.74740923 12.6808082,10.0616481 L12.6840282,10.2152245 L12.6855996,10.2417732 L12.7033274,10.3534531 C12.7650145,10.5749728 12.9779695,10.7276148 13.2150577,10.7057311 C13.452146,10.6838473 13.6335627,10.494804 13.6536597,10.2657355 L13.6534278,10.178207 L13.6518693,10.031559 C13.6582343,9.84318498 13.6965321,9.62665921 13.7833934,9.42501894 C13.9741828,8.9821192 14.3487658,8.72849552 15.0584231,8.72849552 C15.7660829,8.72849552 16.1331102,8.97964017 16.3156214,9.4191438 C16.3975001,9.61631499 16.4327179,9.82912731 16.4369857,10.017396 L16.4346289,10.1533677 L16.4261026,10.324712 C16.4122795,10.4646721 16.3661774,10.6492917 16.2688031,10.8266278 C16.0849493,11.1614588 15.7652909,11.3715672 15.2159573,11.4070016 L15.0441731,11.4123417 L2.31627702,11.4190278 C1.35354096,10.700452 0.730219493,9.55231713 0.730219493,8.25852996 C0.730219493,6.08175182 2.49469136,4.31727996 4.67146949,4.31727996 C4.90902327,4.31727996 5.14395776,4.33875133 5.37430458,4.38077531 L5.60304928,4.42961613 L5.76421949,4.47352996 L5.79360776,4.37593828 C6.33304187,2.7228801 7.80763484,1.5192714 9.56303802,1.34682947 L9.78387863,1.33068697 L9.99871949,1.32552996 Z"/>
  </defs>
  <g fill="none" fill-rule="evenodd" transform="translate(0 -.5)">
    <mask id="cloudy-wind-b" fill="#fff">
      <use xlink:href="#cloudy-wind-a"/>
    </mask>
    <use fill="#000" fill-rule="nonzero" xlink:href="#cloudy-wind-a"/>
    <g mask="url(#cloudy-wind-b)">
      <rect width="21" height="21" fill="#000" transform="translate(0 .5)"/>
    </g>
  </g>
</svg>
