<svg xmlns="http://www.w3.org/2000/svg" width="21" height="22" viewBox="0 0 21 22">
  <path d="M7.79434783,12.373913 C8.09450258,12.373913 8.33782609,12.6172365 8.33782609,12.9173913 C8.33782609,13.1875306 8.14073405,13.4116366 7.88250282,13.4537564 L7.79434783,13.4608696 L1.35347826,13.4608696 C1.05332351,13.4608696 0.81,13.2175461 0.81,12.9173913 C0.81,12.647252 1.00709204,12.4231461 1.26532326,12.3810263 L1.35347826,12.373913 L7.79434783,12.373913 Z M19.3669565,12.1956522 C19.6671113,12.1956522 19.9104348,12.4389757 19.9104348,12.7391304 C19.9104348,13.0092697 19.7133427,13.2333757 19.4551115,13.2754955 L19.3669565,13.2826087 L10.1304348,13.2826087 C9.83028003,13.2826087 9.58695652,13.0392852 9.58695652,12.7391304 C9.58695652,12.4689912 9.78404856,12.2448852 10.0422798,12.2027654 L10.1304348,12.1956522 L19.3669565,12.1956522 Z M6.57043478,10.4565217 C6.87058954,10.4565217 7.11391304,10.6998452 7.11391304,11 C7.11391304,11.2701393 6.916821,11.4942452 6.65858978,11.536365 L6.57043478,11.5434783 L3.60869565,11.5434783 C3.3085409,11.5434783 3.06521739,11.3001548 3.06521739,11 C3.06521739,10.7298607 3.26230943,10.5057548 3.52054066,10.463635 L3.60869565,10.4565217 L6.57043478,10.4565217 Z M19.233913,10.4565217 C19.5340678,10.4565217 19.7773913,10.6998452 19.7773913,11 C19.7773913,11.2701393 19.5802993,11.4942452 19.322068,11.536365 L19.233913,11.5434783 L11,11.5434783 C10.6998452,11.5434783 10.4565217,11.3001548 10.4565217,11 C10.4565217,10.7298607 10.6536138,10.5057548 10.911845,10.463635 L11,10.4565217 L19.233913,10.4565217 Z M18.7447826,8.7173913 C19.0449374,8.7173913 19.2882609,8.96071481 19.2882609,9.26086957 C19.2882609,9.53100885 19.0911688,9.75511481 18.8329376,9.79723461 L18.7447826,9.80434783 L1.43478261,9.80434783 C1.13462785,9.80434783 0.891304348,9.56102432 0.891304348,9.26086957 C0.891304348,8.99073029 1.08839639,8.76662432 1.34662761,8.72450452 L1.43478261,8.7173913 L18.7447826,8.7173913 Z M10.9730435,6.97826087 C11.2731982,6.97826087 11.5165217,7.22158438 11.5165217,7.52173913 C11.5165217,7.79187841 11.3194297,8.01598438 11.0611985,8.05810418 L10.9730435,8.06521739 L2.30434783,8.06521739 C2.00419307,8.06521739 1.76086957,7.82189389 1.76086957,7.52173913 C1.76086957,7.25159985 1.9579616,7.02749388 2.21619283,6.98537408 L2.30434783,6.97826087 L10.9730435,6.97826087 Z M20.2591304,6.54347826 C20.5592852,6.54347826 20.8026087,6.78680177 20.8026087,7.08695652 C20.8026087,7.3570958 20.6055167,7.58120177 20.3472854,7.62332157 L20.2591304,7.63043478 L13.6086957,7.63043478 C13.3085409,7.63043478 13.0652174,7.38711128 13.0652174,7.08695652 C13.0652174,6.81681724 13.2623094,6.59271127 13.5205407,6.55059147 L13.6086957,6.54347826 L20.2591304,6.54347826 Z M10.1995652,4.8726087 C10.49972,4.8726087 10.7430435,5.1159322 10.7430435,5.41608696 C10.7430435,5.68622624 10.5459514,5.9103322 10.2877202,5.952452 L10.1995652,5.95956522 L5.99434783,5.95956522 C5.69419307,5.95956522 5.45086957,5.71624171 5.45086957,5.41608696 C5.45086957,5.14594768 5.6479616,4.92184171 5.90619283,4.87972191 L5.99434783,4.8726087 L10.1995652,4.8726087 Z M15.0491304,4.8726087 C15.3492852,4.8726087 15.5926087,5.1159322 15.5926087,5.41608696 C15.5926087,5.68622624 15.3955167,5.9103322 15.1372854,5.952452 L15.0491304,5.95956522 L12.0873913,5.95956522 C11.7872365,5.95956522 11.543913,5.71624171 11.543913,5.41608696 C11.543913,5.14594768 11.7410051,4.92184171 11.9992363,4.87972191 L12.0873913,4.8726087 L15.0491304,4.8726087 Z M10.9730435,3.06521739 C11.2731982,3.06521739 11.5165217,3.3085409 11.5165217,3.60869565 C11.5165217,3.87883493 11.3194297,4.1029409 11.0611985,4.1450607 L10.9730435,4.15217391 L2.73913043,4.15217391 C2.43897568,4.15217391 2.19565217,3.90885041 2.19565217,3.60869565 C2.19565217,3.33855637 2.39274421,3.1144504 2.65097544,3.0723306 L2.73913043,3.06521739 L10.9730435,3.06521739 Z M19.1791304,3.06521739 C19.4792852,3.06521739 19.7226087,3.3085409 19.7226087,3.60869565 C19.7226087,3.87883493 19.5255167,4.1029409 19.2672854,4.1450607 L19.1791304,4.15217391 L16.2173913,4.15217391 C15.9172365,4.15217391 15.673913,3.90885041 15.673913,3.60869565 C15.673913,3.33855637 15.8710051,3.1144504 16.1292363,3.0723306 L16.2173913,3.06521739 L19.1791304,3.06521739 Z M19.666087,1.32608696 C19.9662417,1.32608696 20.2095652,1.56941046 20.2095652,1.86956522 C20.2095652,2.1397045 20.0124732,2.36381046 19.754242,2.40593027 L19.666087,2.41304348 L14.0434783,2.41304348 C13.7433235,2.41304348 13.5,2.16971997 13.5,1.86956522 C13.5,1.59942594 13.697092,1.37531997 13.9553233,1.33320017 L14.0434783,1.32608696 L19.666087,1.32608696 Z M8.95478261,0.891304348 C9.25493736,0.891304348 9.49826087,1.13462785 9.49826087,1.43478261 C9.49826087,1.70492189 9.30116883,1.92902786 9.04293761,1.97114766 L8.95478261,1.97826087 L2.30434783,1.97826087 C2.00419307,1.97826087 1.76086957,1.73493736 1.76086957,1.43478261 C1.76086957,1.16464333 1.9579616,0.940537361 2.21619283,0.898417561 L2.30434783,0.891304348 L8.95478261,0.891304348 Z" transform="translate(-.252 3)"/>
</svg>
