<svg xmlns="http://www.w3.org/2000/svg" width="30" height="31" viewBox="0 0 30 31">
  <g transform="rotate(10 8.785 20.215)">
    <path d="M15.8822144,0.592316667 C16.1775334,0.592316667 16.4215963,0.811769686 16.4602226,1.09649512 L16.4655478,1.17565 L16.4647778,3.59722222 L16.6538826,3.64104294 C17.560288,3.86739886 18.4252136,4.209031 19.239334,4.66206817 L19.5422294,4.83717165 L19.7065556,4.93888889 L21.4185222,3.22739021 C21.6026077,3.04330468 21.8791183,3.00797514 22.0986802,3.12140157 L22.1780546,3.17090942 L22.2434801,3.22739021 L24.8503837,5.83429382 C25.0574799,6.04139004 25.0763068,6.36546179 24.9068645,6.59382629 L24.8503837,6.65925173 L23.1381111,8.37044444 L23.2406022,8.53554447 C23.7214302,9.3368178 24.091337,10.1900621 24.3464515,11.0859518 L24.4367309,11.4238913 L24.4797778,11.6122222 L26.9021278,11.6122261 C27.1705995,11.6122261 27.396711,11.7935922 27.4646239,12.0404863 L27.480136,12.1164046 L27.4854611,12.1955594 L27.4854611,15.8822183 C27.4854611,16.1775373 27.2660081,16.4216002 26.9812827,16.4602265 L26.9021278,16.4655517 L24.4797778,16.4647778 L24.4367334,16.6538824 C24.210362,17.5602911 23.8686288,18.4253086 23.4155364,19.2393087 L23.2404147,19.5421485 L23.1381111,19.7065556 L24.8503915,21.418526 C25.034477,21.6026116 25.0698065,21.8791222 24.9563801,22.098684 L24.9068722,22.1780585 L24.8503915,22.243484 L22.2434878,24.8503876 C22.0363916,25.0574838 21.7123199,25.0763107 21.4839554,24.9068684 L21.4185299,24.8503876 L19.7065556,23.1381111 L19.5421669,23.2403831 C18.741123,23.7211714 17.8878052,24.091143 16.9918584,24.3462695 L16.653899,24.4365507 L16.4655556,24.4797778 L16.4655556,26.9021317 C16.4655556,27.1706034 16.2841894,27.3967148 16.0372953,27.4646278 L15.9613771,27.4801399 L15.8822222,27.485465 L12.1955633,27.485465 C11.9002444,27.485465 11.6561815,27.266012 11.6175551,26.9812865 L11.61223,26.9021317 L11.6122222,24.4797778 L11.423979,24.4364102 C10.5177219,24.2101806 9.65281339,23.8685829 8.83866371,23.4155349 L8.53575528,23.2404253 L8.37044444,23.1381111 L6.65925562,24.8503876 C6.4751701,25.0344731 6.19865946,25.0698026 5.97909762,24.9563762 L5.89972316,24.9068684 L5.83429771,24.8503876 L3.2273941,22.243484 C3.02029788,22.0363877 3.00147095,21.712316 3.17091331,21.4839515 L3.2273941,21.418526 L4.93888889,19.7065556 L4.83735633,19.5420264 C4.35650702,18.7407134 3.9866182,17.8874654 3.73160778,16.9916925 L3.64137145,16.6538026 L3.59722222,16.4647778 L1.17565,16.4655517 C0.907178247,16.4655517 0.681066823,16.2841855 0.613153897,16.0372914 L0.597641812,15.9613732 L0.592316667,15.8822183 L0.592316667,12.1955594 C0.592316667,11.9002405 0.811769686,11.6561776 1.09649512,11.6175513 L1.17565,11.6122261 L3.59722222,11.6122222 L3.64122694,11.4238835 C3.86757867,10.5174325 4.20927897,9.65240445 4.66230071,8.83844056 L4.83739418,8.53561656 L4.93888889,8.37044444 L3.22739021,6.65925173 C3.04330468,6.47516621 3.00797514,6.19865557 3.12140157,5.97909374 L3.17090942,5.89971927 L3.22739021,5.83429382 L5.83429382,3.22739021 C6.04139004,3.02029399 6.36546179,3.00146706 6.59382629,3.17090942 L6.65925173,3.22739021 L8.37044444,4.93888889 L8.53562966,4.83736774 C9.33672477,4.35650065 10.1900405,3.98649022 11.0859508,3.73133914 L11.4238949,3.64104933 L11.6122222,3.59722222 L11.6122261,1.17565 C11.6122261,0.907178247 11.7935922,0.681066823 12.0404863,0.613153897 L12.1164046,0.597641812 L12.1955594,0.592316667 L15.8822144,0.592316667 Z M15.2736811,2.00415421 L12.8040811,2.00415421 L12.8040887,4.74625168 L12.3357312,4.83221878 C11.1426777,5.05157145 10.0249908,5.49159627 9.0077809,6.14189744 L8.73287007,6.32445795 L8.34091922,6.59469278 L6.40217652,4.65592537 L4.65592537,6.40217652 L6.59469659,8.34091541 L6.32447567,8.73284609 C5.63613507,9.7314957 5.15706192,10.8329956 4.89769956,12.0121713 L4.83241959,12.3356716 L4.74644224,12.8040849 L2.00415421,12.8040811 L2.00415421,15.2729189 L4.74643462,15.2736773 L4.83240469,15.742051 C5.05157044,16.9346682 5.49154728,18.0523332 6.14188238,19.0698834 L6.32445414,19.344896 L6.59468897,19.7368468 L4.65592537,21.6748235 L6.40217652,23.4210746 L8.3409116,21.4830694 L8.73282284,21.753277 C9.73199863,22.4417977 10.8335435,22.9208874 12.0122948,23.1801088 L12.3356677,23.2453464 L12.8040811,23.3313238 L12.8040811,26.0728458 L15.2729189,26.0728458 L15.2736735,23.3313238 L15.7420357,23.2453558 C16.9351675,23.0260196 18.0528751,22.586029 19.0700055,21.935834 L19.3448922,21.7533043 L19.736843,21.4830694 L21.6748235,23.4210746 L23.4210746,21.6748235 L21.4830656,19.7368468 L21.7532904,19.3449106 C22.4417486,18.346166 22.9208634,17.2446754 23.1802454,16.0655665 L23.2455303,15.7420858 L23.3315185,15.2736811 L26.0728458,15.2729189 L26.0728458,12.8040811 L23.3315143,12.8040887 L23.2455481,12.3357358 C23.0262185,11.142972 22.5862369,10.0252776 21.9360287,9.00770263 L21.7534948,8.73268332 L21.48326,8.34073248 L23.4210746,6.40217652 L21.6748235,4.65592537 L19.7370374,6.59450985 L19.3451436,6.32431438 C18.3459315,5.63593303 17.2443674,5.15686498 16.0655012,4.8975106 L15.7420945,4.83223285 L15.2736811,4.7462555 L15.2736811,2.00415421 Z"/>
    <path d="M14,8.69555558 C16.9295638,8.69555558 19.3044444,11.0704362 19.3044444,14 C19.3044444,16.9295638 16.9295638,19.3044444 14,19.3044444 C11.0704362,19.3044444 8.69555558,16.9295638 8.69555558,14 C8.69555558,11.0704362 11.0704362,8.69555558 14,8.69555558 Z M14,10.1397332 C11.8680335,10.1397332 10.1397332,11.8680335 10.1397332,14 C10.1397332,16.1319665 11.8680335,17.8602668 14,17.8602668 C16.1319665,17.8602668 17.8602668,16.1319665 17.8602668,14 C17.8602668,11.8680335 16.1319665,10.1397332 14,10.1397332 Z"/>
  </g>
</svg>
