<svg xmlns="http://www.w3.org/2000/svg" xmlns:xlink="http://www.w3.org/1999/xlink" width="21" height="21" viewBox="0 0 21 21">
  <defs>
    <path id="hail-a" d="M9.79991123,0.630567903 C7.91552565,0.721201641 6.31111405,1.97720698 5.73929829,3.72950043 L5.714,3.811 L5.56876983,3.77133667 C5.2605105,3.69582552 4.94275473,3.65696 4.62026,3.65696 C2.40396474,3.65696 0.60746,5.45346474 0.60746,7.66976 C0.60746,9.88605526 2.40396474,11.68256 4.62026,11.68256 L14.83428,11.68256 C17.0505753,11.68256 18.84708,9.88605526 18.84708,7.66976 C18.84708,5.45352145 17.050632,3.65734 14.83428,3.65734 L14.5828807,3.66570055 C14.4991776,3.67125427 14.415559,3.67955488 14.3319892,3.69054242 L14.287,3.697 L14.228475,3.52963872 C13.5765095,1.81160235 11.918747,0.62532 10.01854,0.62532 L9.79991123,0.630567903 Z M8.34198,16.324792 C7.8539105,16.324792 7.458252,16.7204505 7.458252,17.20852 C7.458252,17.6965895 7.8539105,18.092248 8.34198,18.092248 C8.8300495,18.092248 9.225708,17.6965895 9.225708,17.20852 C9.225708,16.7204505 8.8300495,16.324792 8.34198,16.324792 Z M5.57102,18.724492 C5.0829505,18.724492 4.687292,19.1201505 4.687292,19.60822 C4.687292,20.0962895 5.0829505,20.491948 5.57102,20.491948 C6.0590895,20.491948 6.454748,20.0962895 6.454748,19.60822 C6.454748,19.1201505 6.0590895,18.724492 5.57102,18.724492 Z M11.11256,18.724492 C10.6244905,18.724492 10.228832,19.1201505 10.228832,19.60822 C10.228832,20.0962895 10.6244905,20.491948 11.11256,20.491948 C11.6006295,20.491948 11.996288,20.0962895 11.996288,19.60822 C11.996288,19.1201505 11.6006295,18.724492 11.11256,18.724492 Z M13.88352,16.324792 C13.3954505,16.324792 12.999792,16.7204505 12.999792,17.20852 C12.999792,17.6965895 13.3954505,18.092248 13.88352,18.092248 C14.3715895,18.092248 14.767248,17.6965895 14.767248,17.20852 C14.767248,16.7204505 14.3715895,16.324792 13.88352,16.324792 Z"/>
  </defs>
  <g fill="none" fill-rule="evenodd" transform="translate(.5)">
    <path fill="#1282A2" fill-rule="nonzero" d="M5.57102 12.33388C5.80420689 12.33388 5.99814795 12.5019114 6.03836711 12.7234981L6.04602 12.80888 6.04602 17.84388C6.04602 18.1062153 5.83335526 18.31888 5.57102 18.31888 5.33783311 18.31888 5.14389205 18.1508486 5.10367289 17.9292619L5.09602 17.84388 5.09602 12.80888C5.09602 12.5465447 5.30868474 12.33388 5.57102 12.33388zM8.34198 12.33388C8.57516689 12.33388 8.76910795 12.5019114 8.80932711 12.7234981L8.81698 12.80888 8.81698 15.32638C8.81698 15.5887153 8.60431526 15.80138 8.34198 15.80138 8.10879311 15.80138 7.91485205 15.6333486 7.87463289 15.4117619L7.86698 15.32638 7.86698 12.80888C7.86698 12.5465447 8.07964474 12.33388 8.34198 12.33388zM11.11256 12.33388C11.3457469 12.33388 11.539688 12.5019114 11.5799071 12.7234981L11.58756 12.80888 11.58756 17.84388C11.58756 18.1062153 11.3748953 18.31888 11.11256 18.31888 10.8793731 18.31888 10.685432 18.1508486 10.6452129 17.9292619L10.63756 17.84388 10.63756 12.80888C10.63756 12.5465447 10.8502247 12.33388 11.11256 12.33388zM13.88352 12.33388C14.1167069 12.33388 14.310648 12.5019114 14.3508671 12.7234981L14.35852 12.80888 14.35852 15.32638C14.35852 15.5887153 14.1458553 15.80138 13.88352 15.80138 13.6503331 15.80138 13.456392 15.6333486 13.4161729 15.4117619L13.40852 15.32638 13.40852 12.80888C13.40852 12.5465447 13.6211847 12.33388 13.88352 12.33388z"/>
    <mask id="hail-b" fill="#fff">
      <use xlink:href="#hail-a"/>
    </mask>
    <use fill="#000" fill-rule="nonzero" xlink:href="#hail-a"/>
    <g mask="url(#hail-b)">
      <rect width="21" height="21" fill="#000" transform="translate(-.5)"/>
    </g>
  </g>
</svg>
