<svg xmlns="http://www.w3.org/2000/svg" xmlns:xlink="http://www.w3.org/1999/xlink" width="21" height="21" viewBox="0 0 21 21">
  <defs>
    <path id="lightning-sun-a" d="M7.79520585,4.8333678 C6.27898495,4.90842814 4.98773033,5.91113919 4.52084765,7.31132368 L4.49571552,7.39248811 L4.28338922,7.3404166 C4.06348853,7.29369785 3.83807257,7.26973979 3.6097205,7.26973979 C1.81621835,7.26973979 0.362425094,8.7161764 0.362425094,10.5006029 C0.362425094,12.2850293 1.81621835,13.7314659 3.6097205,13.7314659 L11.8752558,13.7314659 C13.668758,13.7314659 15.1225512,12.2850293 15.1225512,10.5006029 C15.1225512,8.71622206 13.6688039,7.27004574 11.8752558,7.27004574 L11.6718149,7.27677715 C11.6040795,7.28124867 11.5364125,7.28793182 11.4687849,7.29677832 L11.4329963,7.30253795 L11.3784538,7.15014954 C10.846365,5.77611411 9.50956983,4.82884721 7.97819384,4.82884721 L7.79520585,4.8333678 Z"/>
  </defs>
  <g fill="none" fill-rule="evenodd" transform="translate(1.445)">
    <path fill="#DEB317" fill-rule="nonzero" d="M8.77531274 14.1512343L6.53687307 14.1512343C6.37407066 14.1512343 6.23060291 14.257549 6.18409432 14.4126558L5.28670061 17.4054762 5.27350509 17.4688932C5.24628257 17.699738 5.44625002 17.9055771 5.68921718 17.8726387L6.96297168 17.6479164 5.83692279 19.9319163C5.70364667 20.3152137 6.20321456 20.5974428 6.46623003 20.2874412L9.5524436 16.8231342 9.59073696 16.7691903C9.72093728 16.5464357 9.57937469 16.2495016 9.30697321 16.2229515L8.06667721 16.2229515 9.0779476 14.7255613C9.24702229 14.4828431 9.07228492 14.1512343 8.77531274 14.1512343zM11.9204597 3.27980747C13.7142693 3.27980747 15.1683701 4.72655003 15.1683701 6.51128245 15.1683701 6.94854316 15.1290313 7.29782121 14.961229 7.6926956 14.8785579 7.88723829 14.6530295 7.97826724 14.4574974 7.89601445 13.9733622 7.43805431 13.169616 6.71892497 11.7475994 6.87280266 11.4073422 5.5762676 10.1523758 4.89298091 9.58920341 4.68248729 9.48661769 4.64414443 9.46749829 4.66189184 9.43886296 4.59212547 9.41022762 4.52235911 9.47862455 4.43961357 9.55747402 4.35315432 10.0653413 3.79627257 11.0787771 3.27980747 11.9204597 3.27980747zM17.3627545 5.89111583C17.5750452 5.89111583 17.7471408 6.06234058 17.7471408 6.27355701 17.7471408 6.46130495 17.6111641 6.61745452 17.4318485 6.64983655L17.3627545 6.65599819 15.7849257 6.65599819C15.572635 6.65599819 15.4005394 6.48477344 15.4005394 6.27355701 15.4005394 6.08580907 15.5365162 5.9296595 15.7158318 5.89727747L15.7849257 5.89111583 17.3627545 5.89111583zM16.453722 2.74442547C16.5850702 2.87510897 16.6014887 3.07683924 16.5029776 3.22528444L16.453722 3.28527897 15.4552402 4.27870817C15.305128 4.42806074 15.061748 4.42806074 14.9116359 4.27870817 14.7802877 4.14802467 14.7638692 3.9462944 14.8623803 3.79784921L14.9116359 3.73785467 15.9101177 2.74442547C16.0602299 2.5950729 16.3036098 2.5950729 16.453722 2.74442547zM8.89994086 2.05495872L8.95763349 2.10697913 9.8801606 3.12427266C10.0223719 3.28109259 10.0098827 3.52292192 9.85226516 3.66441358 9.71434983 3.78821879 9.51101815 3.79418077 9.3670697 3.68867971L9.30937706 3.6366593 8.38684996 2.61936577C8.24463866 2.46254584 8.25712787 2.22071652 8.41474539 2.07922485 8.55266073 1.95541965 8.7559924 1.94945766 8.89994086 2.05495872zM12.6609414.934066256C12.8496442.934066256 13.006588 1.06935495 13.0391347 1.24776315L13.0453277 1.31650743 13.0453277 2.49412031C13.0453277 2.70533674 12.8732321 2.87656149 12.6609414 2.87656149 12.4722386 2.87656149 12.3152948 2.7412728 12.2827481 2.5628646L12.2765551 2.49412031 12.2765551 1.31650743C12.2765551 1.105291 12.4486507.934066256 12.6609414.934066256z"/>
    <mask id="lightning-sun-b" fill="#fff">
      <use xlink:href="#lightning-sun-a"/>
    </mask>
    <use fill="#000" fill-rule="nonzero" xlink:href="#lightning-sun-a"/>
    <g mask="url(#lightning-sun-b)">
      <rect width="21" height="21" fill="#000" transform="translate(-1.445)"/>
    </g>
  </g>
</svg>
