<svg xmlns="http://www.w3.org/2000/svg" xmlns:xlink="http://www.w3.org/1999/xlink" width="21" height="21" viewBox="0 0 21 21">
  <defs>
    <path id="lightning-a" d="M9.31600448,0.450955704 C7.43992909,0.538277059 5.84294804,1.791983 5.2815257,3.53957286 L5.26786995,3.58360393 L5.14189871,3.5490488 C4.83646786,3.47423143 4.52162296,3.43572174 4.20208471,3.43572174 C2.00614991,3.43572174 0.226148388,5.21572326 0.226148388,7.41165806 C0.226148388,9.60759286 2.00614991,11.3875944 4.20208471,11.3875944 L14.2745816,11.3875944 C16.4705164,11.3875944 18.250518,9.60759286 18.250518,7.41165806 C18.250518,5.21577856 16.4705718,3.43609647 14.2745816,3.43609647 L14.0254577,3.44437998 L13.9011065,3.45466716 L13.7474481,3.47284021 L13.7020938,3.34190582 C13.0616677,1.62991911 11.4145943,0.446087434 9.5255674,0.446087434 L9.31600448,0.450955704 Z"/>
  </defs>
  <g fill="none" fill-rule="evenodd" transform="translate(1 1)">
    <path fill="#DEB317" fill-rule="nonzero" d="M10.5338362,11.7836921 L7.85759634,11.7836921 C7.67015182,11.7836921 7.50496525,11.9068095 7.45140208,12.0864381 L6.42438949,15.4303931 L6.40988555,15.4982319 C6.37460431,15.7678724 6.606121,16.0099153 6.88785397,15.9714971 L8.3345035,15.6694309 L7.08208048,18.4697768 C6.92862073,18.913714 7.50384427,19.2405933 7.80669137,18.8815478 L11.5505134,14.5828793 L11.5918955,14.5249991 C11.7464592,14.2665108 11.58339,13.9186779 11.2678684,13.8877444 L9.99395364,13.8877444 L10.8823027,12.4488808 C11.0769824,12.1677633 10.8757825,11.7836921 10.5338362,11.7836921 Z"/>
    <mask id="lightning-b" fill="#fff">
      <use xlink:href="#lightning-a"/>
    </mask>
    <use fill="#000" fill-rule="nonzero" xlink:href="#lightning-a"/>
    <g mask="url(#lightning-b)">
      <rect width="21" height="21" fill="#000" transform="translate(-1 -1)"/>
    </g>
  </g>
</svg>
