<svg xmlns="http://www.w3.org/2000/svg" width="21" height="22" viewBox="0 0 21 22">
  <path d="M8.71748333,4.64483333 C10.300711,4.64483333 11.6836497,5.62476927 12.2411356,7.04860422 L12.2411356,7.04860422 L12.296,7.201 L12.4134747,7.18728285 L12.519059,7.17854936 L12.7306,7.17151667 C14.5950479,7.17151667 16.1062667,8.68251114 16.1062667,10.5468667 C16.1062667,12.4112684 14.5950017,13.9225333 12.7306,13.9225333 L12.7306,13.9225333 L10.10425,13.9217833 L9.457,14.855 L10.7529285,14.9828731 C11.0692703,15.013887 11.233668,15.3607444 11.0824654,15.6209504 L11.0824654,15.6209504 L11.037995,15.6839638 L7.1984117,20.2360471 C6.89296988,20.5981689 6.31281797,20.2684889 6.46759252,19.8207482 L6.46759252,19.8207482 L7.348,17.271 L6.2960609,17.4152466 C6.01390132,17.4537229 5.78167763,17.2132762 5.81329135,16.9436198 L5.81329135,16.9436198 L5.8286154,16.8695406 L6.70625,13.9217833 L4.21891667,13.9225333 C2.41666166,13.9225333 0.94439337,12.5103402 0.848244656,10.7320868 L0.84325,10.5468667 C0.84325,8.68246494 2.35451494,7.1712 4.21891667,7.1712 C4.45630496,7.1712 4.69064374,7.19623339 4.91924409,7.24504631 L4.91924409,7.24504631 L5.11,7.292 L5.13340337,7.21715915 C5.62276169,5.76760269 6.95580789,4.73053916 8.52070756,4.64989337 L8.52070756,4.64989337 Z M9.064,13.923 L7.599,13.923 L6.836,16.478 L7.92220577,16.3305868 C8.21164529,16.2911177 8.44597212,16.5442129 8.40282227,16.8186602 L8.40282227,16.8186602 L8.38400748,16.8938351 L8.027,17.926 L9.86,15.754 L8.65075488,15.6358769 C8.35323311,15.6067081 8.18488362,15.2942849 8.30190652,15.0359032 L8.30190652,15.0359032 L8.34101456,14.9670288 L9.064,13.923 Z M8.71748333,5.49983333 C7.28819624,5.49983333 6.07571433,6.53154253 5.83296313,7.92568392 C5.78525037,8.19970251 5.49270988,8.35590986 5.23845912,8.24313023 C4.91759958,8.10080452 4.57295543,8.0262 4.21891667,8.0262 C2.8267184,8.0262 1.69825,9.1546684 1.69825,10.5468667 C1.69825,11.9390649 2.8267184,13.0675333 4.21891667,13.0675333 L4.21891667,13.0675333 L12.7306,13.0675333 C14.1227983,13.0675333 15.2512667,11.9390649 15.2512667,10.5468667 C15.2512667,9.15474301 14.1228729,8.02651667 12.7306,8.02651667 C12.5224208,8.02651667 12.312951,8.05470674 12.0996376,8.10960777 C11.8658132,8.16978779 11.6285804,8.02452156 11.575888,7.78889685 C11.2787243,6.46007048 10.0959635,5.49983333 8.71748333,5.49983333 Z M13.6859833,3.31135 C15.5507017,3.31135 17.0622833,4.8229316 17.0622833,6.68765 C17.0622833,7.14448011 16.971177,7.58946073 16.7967358,8.00204551 C16.7047921,8.21950902 16.453968,8.32126291 16.2365045,8.22931918 C16.019041,8.13737545 15.9172871,7.88655133 16.0092308,7.66908782 C16.1393467,7.3613402 16.2072833,7.02952498 16.2072833,6.68765 C16.2072833,5.29513506 15.0784983,4.16635 13.6859833,4.16635 C12.9305783,4.16635 12.2303763,4.49998925 11.7540164,5.06754918 C11.6022306,5.24839469 11.3325797,5.27195222 11.1517342,5.12016642 C10.9708886,4.96838061 10.9473311,4.69872965 11.0991169,4.51788415 C11.7362722,3.75874426 12.6752095,3.31135 13.6859833,3.31135 Z M19.29035,6.0141 C19.5264517,6.0141 19.71785,6.20549827 19.71785,6.4416 C19.71785,6.6514682 19.5666217,6.82601516 19.3671937,6.8622124 L19.29035,6.8691 L17.6655333,6.8691 C17.4294316,6.8691 17.2380333,6.67770173 17.2380333,6.4416 C17.2380333,6.2317318 17.3892616,6.05718484 17.5886897,6.0209876 L17.6655333,6.0141 L19.29035,6.0141 Z M18.3766847,2.76685841 C18.5227427,2.9129614 18.540968,3.13846214 18.4313821,3.30438011 L18.3765916,3.3714347 L17.3483749,4.3993347 C17.1814001,4.56625812 16.9107221,4.56621643 16.7437986,4.39924159 C16.5977406,4.2531386 16.5795153,4.02763786 16.6891012,3.86171989 L16.7438917,3.7946653 L17.7721084,2.7667653 C17.9390833,2.59984188 18.2097613,2.59988357 18.3766847,2.76685841 Z M10.5943233,2.04979406 L10.6584782,2.10795306 L11.6084782,3.16118639 C11.766614,3.33650633 11.7526836,3.60682566 11.5773636,3.7649615 C11.4239587,3.90333037 11.1978198,3.90996096 11.0377434,3.79200594 L10.9735885,3.73384694 L10.0235885,2.68061361 C9.86545265,2.50529367 9.87938312,2.23497434 10.0547031,2.0768385 C10.208108,1.93846963 10.4342469,1.93183904 10.5943233,2.04979406 Z M14.4485167,0.883783333 C14.6583849,0.883783333 14.8329318,1.0350116 14.8691291,1.23443967 L14.8760167,1.31128333 L14.8760167,2.52981667 C14.8760167,2.7659184 14.6846184,2.95731667 14.4485167,2.95731667 C14.2386485,2.95731667 14.0641015,2.8060884 14.0279043,2.60666033 L14.0210167,2.52981667 L14.0210167,1.31128333 C14.0210167,1.0751816 14.2124149,0.883783333 14.4485167,0.883783333 Z" transform="translate(.445)"/>
</svg>
