<svg xmlns="http://www.w3.org/2000/svg" width="21" height="22" viewBox="0 0 21 22">
  <path d="M10.6504167,0.825833333 C12.6458006,0.825833333 14.3856085,2.07631775 15.0620921,3.88469368 L15.0620921,3.88469368 L15.11,4.023 L15.2723097,4.00380376 L15.4036622,3.99293739 L15.6668125,3.9841875 C17.9864425,3.9841875 19.8666042,5.86407022 19.8666042,8.18358333 C19.8666042,10.5031549 17.986384,12.383375 15.6668125,12.383375 L15.6668125,12.383375 L12.3034167,12.3828333 L11.47,13.586 L13.1231253,13.7482887 C13.5061737,13.7858424 13.7041426,14.2081175 13.5164997,14.5219265 L13.5164997,14.5219265 L13.466261,14.5921941 L8.66678184,20.2822982 C8.29912038,20.7181855 7.60078937,20.3213485 7.78709208,19.7824014 L7.78709208,19.7824014 L8.899,16.565 L7.55129784,16.749448 C7.2092693,16.7960883 6.92820416,16.5022442 6.97103617,16.1748961 L6.97103617,16.1748961 L6.9886442,16.0925387 L8.09441667,12.3828333 L5.02720833,12.383375 C2.77792685,12.383375 0.941772847,10.615381 0.832556242,8.39320304 L0.827416667,8.18358333 C0.827416667,5.86401181 2.70763681,3.98379167 5.02720833,3.98379167 C5.3647374,3.98379167 5.69730887,4.02446955 6.01993626,4.10349933 L6.01993626,4.10349933 L6.153,4.14 L6.1674246,4.09348987 C6.76045645,2.24750625 8.4473516,0.923213469 10.4290548,0.830975699 L10.4290548,0.830975699 Z M11.051,12.384 L9.167,12.384 L8.202,15.621 L9.58932716,15.4328436 C9.94016294,15.3850024 10.2237283,15.6942643 10.1667083,16.0272736 L10.1667083,16.0272736 L10.1451996,16.1108277 L9.663,17.504 L12.048,14.677 L10.4992705,14.5251488 C10.1386381,14.4897927 9.93567301,14.108697 10.0823661,13.7964432 L10.0823661,13.7964432 L10.126435,13.7200539 L11.051,12.384 Z M10.6504167,1.855 C8.8541381,1.855 7.33034921,3.15160245 7.02526812,4.90370981 C6.96783609,5.233547 6.61570402,5.42157437 6.30966144,5.28582111 C5.9060868,5.10680493 5.47255165,5.01295833 5.02720833,5.01295833 C3.27602986,5.01295833 1.85658333,6.43240486 1.85658333,8.18358333 C1.85658333,9.93476181 3.27602986,11.3542083 5.02720833,11.3542083 L5.02720833,11.3542083 L15.6668125,11.3542083 C17.417991,11.3542083 18.8374375,9.93476181 18.8374375,8.18358333 C18.8374375,6.43249746 17.4180836,5.01335417 15.6668125,5.01335417 C15.4048694,5.01335417 15.1413827,5.04881374 14.8731764,5.11784269 C14.5917211,5.1902816 14.3061632,5.01542411 14.2427371,4.73180176 C13.8692718,3.06177779 12.3828375,1.855 10.6504167,1.855 Z"/>
</svg>
