<svg xmlns="http://www.w3.org/2000/svg" width="21" height="22" viewBox="0 0 21 22">
  <path d="M4.95188573,0.0248796334 C1.9743927,0.935206443 -0.0974,3.69019264 -0.0974,6.85025 C-0.0974,10.7943424 3.10030763,13.99205 7.0444,13.99205 C10.6144735,13.99205 13.6176486,11.3539418 14.1087653,7.84801365 C14.1470317,7.57484161 13.9580193,7.32883224 13.6964253,7.28542248 L13.5998978,7.27830267 C13.4961788,7.27413245 13.4364653,7.27709285 13.3366614,7.31036658 C7.48671764,9.26068591 4.38932055,6.45856594 5.58791612,0.603303963 C5.66399708,0.231640698 5.3146789,-0.0860392995 4.95188573,0.0248796334 Z M4.456,1.284 L4.43211473,1.45952625 C3.71492182,7.11087965 7.1110019,10.0707739 12.8552439,8.50129982 L12.96,8.471 L12.9152404,8.63456455 C12.1471197,11.1759028 9.79057884,12.99205 7.0444,12.99205 C3.65259237,12.99205 0.9026,10.2420576 0.9026,6.85025 C0.9026,4.47268797 2.26667524,2.3616006 4.32270262,1.3466383 L4.456,1.284 Z" transform="translate(3.5 3.5)"/>
</svg>
