<svg xmlns="http://www.w3.org/2000/svg" width="21" height="22" viewBox="0 0 21 22">
  <path d="M10.5,2.63891068 C14.8406757,2.63891068 18.3610893,6.15915173 18.3610893,10.5 C18.3610893,14.8394677 14.8394677,18.3610893 10.5,18.3610893 C6.16191297,18.3610893 2.63891068,14.838087 2.63891068,10.5 C2.63891068,6.16053235 6.16053235,2.63891068 10.5,2.63891068 Z M10.2950639,9.04447921 C10.9024513,8.92043895 11.5368126,9.18267603 11.8738743,9.71254496 C12.3201431,10.412969 12.1118417,11.3527067 11.4114176,11.7983197 C10.7103205,12.2445885 9.77125591,12.0362872 9.32495258,11.3358631 C8.98721791,10.8053246 9.01890319,10.121071 9.38764663,9.62221776 L8.14926317,7.67726646 C7.76905712,7.08066516 8.67643644,6.50359967 9.05596944,7.09952791 L10.2943529,9.04447921 L10.2950639,9.04447921 Z M10.3658484,10.1561216 C10.1602393,10.2869027 10.1015973,10.5518424 10.2323699,10.7574515 C10.363151,10.9630606 10.6280907,11.0217026 10.8336998,10.89093 C11.0393089,10.7601489 11.0979509,10.4952092 10.9671783,10.2896001 C10.8363972,10.083991 10.5714575,10.025349 10.3651754,10.1561216 L10.3658484,10.1561216 Z M15.7326714,7.47840512 C15.9281675,7.81613978 15.8122194,8.24825722 15.4744779,8.44308025 C15.1367432,8.63790328 14.7046257,8.52262824 14.5098027,8.18488667 C14.3149797,7.84715201 14.4302547,7.41503457 14.7679963,7.22021154 C15.1057379,7.02538851 15.5378484,7.14066355 15.7326714,7.47907817 L15.7326714,7.47840512 Z M15.7326714,13.5206975 C15.5378484,13.8584321 15.105731,13.9743871 14.7679963,13.7795641 C14.4302616,13.584068 14.3143066,13.1526236 14.5098027,12.814889 C14.7046257,12.4771543 15.1367432,12.3611993 15.4744779,12.5566954 C15.8122125,12.7515184 15.9281675,13.1836359 15.7326714,13.5213705 L15.7326714,13.5206975 Z M10.5001139,16.5421888 C10.1104678,16.5421888 9.79361509,16.2260264 9.79361509,15.83569 C9.79361509,15.4460439 10.1097775,15.1291912 10.5001139,15.1291912 C10.88976,15.1291912 11.2066127,15.4453536 11.2066127,15.83569 C11.2066127,16.2253361 10.8904503,16.5421888 10.5001139,16.5421888 Z M5.26755637,13.5206975 C5.07206029,13.1829628 5.18800838,12.7508454 5.52574995,12.5560223 C5.86348461,12.3611993 6.29560205,12.4764744 6.49042508,12.8142159 C6.68524811,13.1519506 6.56997307,13.584068 6.2322315,13.7788911 C5.89448993,13.9737141 5.46237939,13.858439 5.26755637,13.5200244 L5.26755637,13.5206975 Z M5.26755637,7.47840512 C5.46237939,7.14067045 5.89449683,7.02471546 6.2322315,7.21953848 C6.56996617,7.41503457 6.68592116,7.84647895 6.49042508,8.18421362 C6.29560205,8.52194829 5.86348461,8.63790328 5.52574995,8.4424072 C5.18801528,8.24758417 5.07206029,7.81546673 5.26755637,7.47773206 L5.26755637,7.47840512 Z M10.5001139,4.45691378 C10.88976,4.45691378 11.2066127,4.77307623 11.2066127,5.16341259 C11.2066127,5.55305865 10.8904503,5.86991141 10.5001139,5.86991141 C10.1104678,5.86991141 9.79361509,5.55374896 9.79361509,5.16341259 C9.79361509,4.77376654 10.1097775,4.45691378 10.5001139,4.45691378 L10.5001139,4.45691378 Z M10.5001139,3.86907943 C6.83628816,3.86907943 3.87002171,6.83534589 3.87002171,10.4991716 C3.87002171,14.164378 6.83490754,17.1292638 10.5001139,17.1292638 C14.1639396,17.1292638 17.1302061,14.1629974 17.1302061,10.4991716 C17.1302061,6.83655393 14.1627316,3.86907943 10.5001139,3.86907943 Z"/>
</svg>
