<svg xmlns="http://www.w3.org/2000/svg" width="21" height="22" viewBox="0 0 21 22">
  <path stroke="#000" stroke-width=".2" d="M4.55818713,12.3539519 C4.76166046,12.3539519 4.92660819,12.5188996 4.92660819,12.722373 L4.92660819,13.4592151 C4.92660819,13.6626884 4.76166046,13.8276361 4.55818713,13.8276361 L4.26345029,13.8276361 C4.05997696,13.8276361 3.89502924,13.6626884 3.89502924,13.4592151 L3.89502924,12.722373 C3.89502924,12.5188996 4.05997696,12.3539519 4.26345029,12.3539519 L4.55818713,12.3539519 Z M4.42105263,0.184210526 C6.76062872,0.184210526 8.65789474,1.98162044 8.65789474,4.20775623 C8.65789474,5.14834688 8.23007014,5.81646433 7.21528782,6.78882416 C7.16529326,6.83672873 7.05131217,6.94450984 6.94969289,7.04044446 L6.94969289,7.04044446 L6.53419137,7.43692661 C5.4198715,8.53110121 4.97368421,9.30730445 4.97368421,10.4903047 L4.97368421,10.4903047 L4.97368421,10.6551247 C4.97368421,10.858598 4.80873649,11.0235457 4.60526316,11.0235457 L4.60526316,11.0235457 L4.23684211,11.0235457 C4.03336878,11.0235457 3.86842105,10.858598 3.86842105,10.6551247 L3.86842105,10.6551247 L3.86842105,10.4903047 C3.86842105,9.09804975 4.45026734,8.13340985 5.76482447,6.82577145 L5.76482447,6.82577145 L6.42537097,6.17307579 C6.50713974,6.09042209 6.57888055,6.01617082 6.64733971,5.94320777 L6.64733971,5.94320777 L6.73377956,5.84966338 C7.29484354,5.23267476 7.55263158,4.74549203 7.55263158,4.20775623 C7.55263158,2.56663441 6.16358181,1.25069252 4.42105263,1.25069252 C2.81776105,1.25069252 1.48505636,2.3903681 1.31032491,3.88018362 L1.31032491,3.88018362 L1.29608785,3.93274499 C1.26739432,3.99816639 1.20211705,4.04293629 1.12736842,4.04293629 L1.12736842,4.04293629 L0.358739162,4.04268168 L0.358739162,4.04268168 L0.349084036,4.04191855 C0.247909453,4.03123901 0.174548725,3.94056333 0.185228264,3.83938875 C0.403394808,1.77254781 2.23133081,0.184210526 4.42105263,0.184210526 Z" transform="translate(5.579 3.5)"/>
</svg>
