<svg xmlns="http://www.w3.org/2000/svg" xmlns:xlink="http://www.w3.org/1999/xlink" width="21" height="21" viewBox="0 0 21 21">
  <defs>
    <path id="rain-a" d="M10.8585147,0.842559766 C8.77094971,0.936687717 6.99428369,2.33512465 6.37779458,4.28285943 L6.363,4.331 L6.20419937,4.28707968 C5.86619573,4.20428237 5.51777931,4.16166667 5.16416667,4.16166667 C2.73401836,4.16166667 0.764166667,6.13151836 0.764166667,8.56166667 C0.764166667,10.991815 2.73401836,12.9616667 5.16416667,12.9616667 L16.36375,12.9616667 C18.7938983,12.9616667 20.76375,10.991815 20.76375,8.56166667 C20.76375,6.13158054 18.7939605,4.16208333 16.36375,4.16208333 L16.0880929,4.17125061 C15.9963131,4.17734021 15.9046262,4.18644175 15.8129925,4.1984895 L15.764,4.206 L15.7152714,4.06422687 C15.0116638,2.15768625 13.1824041,0.8375 11.0833333,0.8375 L10.8585147,0.842559766 Z"/>
  </defs>
  <g fill="none" fill-rule="evenodd" transform="translate(-.3 .5)">
    <path fill="#346EA4" fill-rule="nonzero" d="M5.00713188 13.3921319C5.21052995 13.1887338 5.54030338 13.1887338 5.74370145 13.3921319 5.92449973 13.5729302 5.94458843 13.8535806 5.80396754 14.0565682L5.74370145 14.1287014 3.81661812 16.0557848C3.61322005 16.2591829 3.28344662 16.2591829 3.08004855 16.0557848 2.89925027 15.8749865 2.87916157 15.5943361 3.01978246 15.3913484L3.08004855 15.3192152 5.00713188 13.3921319zM16.6475486 13.3921319C16.8509466 13.1887338 17.18072 13.1887338 17.3841181 13.3921319 17.5649164 13.5729302 17.5850051 13.8535806 17.4443842 14.0565682L17.3841181 14.1287014 15.4570348 16.0557848C15.2536367 16.2591829 14.9238633 16.2591829 14.7204652 16.0557848 14.5396669 15.8749865 14.5195782 15.5943361 14.6601991 15.3913484L14.7204652 15.3192152 16.6475486 13.3921319zM8.99046522 13.3921319C9.19386329 13.1887338 9.52363671 13.1887338 9.72703478 13.3921319 9.90783307 13.5729302 9.92792176 13.8535806 9.78730088 14.0565682L9.72703478 14.1287014 5.44328478 18.4124514C5.23988671 18.6158495 4.91011329 18.6158495 4.70671522 18.4124514 4.52591693 18.2316532 4.50582824 17.9510027 4.64644912 17.7480151L4.70671522 17.6758819 8.99046522 13.3921319zM13.2742152 13.3921319C13.4776133 13.1887338 13.8073867 13.1887338 14.0107848 13.3921319 14.1915831 13.5729302 14.2116718 13.8535806 14.0710509 14.0565682L14.0107848 14.1287014 9.72703478 18.4124514C9.52363671 18.6158495 9.19386329 18.6158495 8.99046522 18.4124514 8.80966693 18.2316532 8.78957824 17.9510027 8.93019912 17.7480151L8.99046522 17.6758819 13.2742152 13.3921319z"/>
    <mask id="rain-b" fill="#fff">
      <use xlink:href="#rain-a"/>
    </mask>
    <use fill="#000" fill-rule="nonzero" xlink:href="#rain-a"/>
    <g mask="url(#rain-b)">
      <rect width="21" height="21" fill="#000" transform="translate(.3 -.5)"/>
    </g>
  </g>
</svg>
