<svg xmlns="http://www.w3.org/2000/svg" xmlns:xlink="http://www.w3.org/1999/xlink" width="21" height="21" viewBox="0 0 21 21">
  <defs>
    <path id="rain-moon-a" d="M9.62480033,4.16830744 C11.492088,4.16830744 13.1211396,5.33404526 13.7618114,7.02231636 L13.7618114,7.02231636 L13.8253003,7.20130744 L13.8838852,7.19304515 C13.9659658,7.18225231 14.0480897,7.17409913 14.1302928,7.16864416 L14.1302928,7.16864416 L14.3771753,7.16043244 C16.5540101,7.16043244 18.3184253,8.92458588 18.3184253,11.1013074 C18.3184253,13.2780856 16.5539535,15.0425574 14.3771753,15.0425574 L14.3771753,15.0425574 L4.29755033,15.0425574 C2.12077219,15.0425574 0.35630033,13.2780856 0.35630033,11.1013074 C0.35630033,8.9245293 2.12077219,7.16005744 4.29755033,7.16005744 C4.6142887,7.16005744 4.92637055,7.19822876 5.22913011,7.27239361 L5.22913011,7.27239361 L5.39030033,7.31630744 L5.4196886,7.21871575 C5.98159912,5.49678015 7.55822197,4.26252845 9.40995947,4.17346445 L9.40995947,4.17346445 Z M14.4478858,0.992827142 C14.4478858,3.91788321 16.5673634,5.28694246 19.0409407,4.85559033 C19.1959186,4.82856467 19.2516025,4.96341865 19.2262982,5.06804874 C19.1123461,5.5392257 18.9085414,5.97321027 18.6347487,6.35192366 C18.2684012,6.85866004 17.7767492,7.26644053 17.2073806,7.53195557 C16.4651304,6.88090145 15.4926667,6.48680226 14.4280767,6.48680226 L14.2823043,6.49133224 L14.2184912,6.35023623 C13.7435038,5.36723835 12.948508,4.59509219 11.9871632,4.14519382 C11.9920262,3.63027517 12.106445,3.13709511 12.3085384,2.68952889 C12.5125193,2.23778261 12.80582,1.83250616 13.1686603,1.49811919 C13.4670806,1.22310048 13.8125398,0.996033872 14.1940335,0.830504926 C14.3196587,0.775996531 14.4478858,0.797752983 14.4478858,0.992827142 Z"/>
  </defs>
  <g fill="none" fill-rule="evenodd" transform="translate(1)">
    <path fill="#1282A2" fill-rule="nonzero" d="M8.29491792,15.5745529 C8.45852807,15.7381631 8.47897934,15.9907207 8.35627172,16.1765678 L8.29491792,16.2516784 L4.38813792,20.1584584 C4.20115488,20.3454414 3.89799549,20.3454414 3.71101246,20.1584584 C3.54740231,19.9948482 3.52695104,19.7422905 3.64965865,19.5564435 L3.71101246,19.4813329 L7.61779246,15.5745529 C7.80477549,15.3875699 8.10793488,15.3875699 8.29491792,15.5745529 Z M12.2016979,15.5745529 C12.3653081,15.7381631 12.3857593,15.9907207 12.2630517,16.1765678 L12.2016979,16.2516784 L8.29491792,20.1584584 C8.10793488,20.3454414 7.80477549,20.3454414 7.61779246,20.1584584 C7.45418231,19.9948482 7.43373104,19.7422905 7.55643865,19.5564435 L7.61779246,19.4813329 L11.5245725,15.5745529 C11.7115555,15.3875699 12.0147149,15.3875699 12.2016979,15.5745529 Z M4.66211792,15.5745529 C4.82572807,15.7381631 4.84617934,15.9907207 4.72347172,16.1765678 L4.66211792,16.2516784 L2.90461792,18.0091784 C2.71763488,18.1961614 2.41447549,18.1961614 2.22749246,18.0091784 C2.06388231,17.8455682 2.04343104,17.5930105 2.16613865,17.4071635 L2.22749246,17.3320529 L3.98499246,15.5745529 C4.17197549,15.3875699 4.47513488,15.3875699 4.66211792,15.5745529 Z M15.2785579,15.5745529 C15.4421681,15.7381631 15.4626193,15.9907207 15.3399117,16.1765678 L15.2785579,16.2516784 L13.5210579,18.0091784 C13.3340749,18.1961614 13.0309155,18.1961614 12.8439325,18.0091784 C12.6803223,17.8455682 12.659871,17.5930105 12.7825787,17.4071635 L12.8439325,17.3320529 L14.6014325,15.5745529 C14.7884155,15.3875699 15.0915749,15.3875699 15.2785579,15.5745529 Z"/>
    <mask id="rain-moon-b" fill="#fff">
      <use xlink:href="#rain-moon-a"/>
    </mask>
    <use fill="#000" fill-rule="nonzero" xlink:href="#rain-moon-a"/>
    <g mask="url(#rain-moon-b)">
      <rect width="21" height="21" fill="#000" transform="translate(-1)"/>
    </g>
  </g>
</svg>
