<svg xmlns="http://www.w3.org/2000/svg" width="21" height="22" viewBox="0 0 21 22">
  <path d="M8.37388273,15.3389373 C8.53749288,15.5025474 8.55794415,15.7551051 8.43523653,15.9409521 L8.37388273,16.0160627 L4.46710273,19.9228427 C4.2801197,20.1098258 3.9769603,20.1098258 3.78997727,19.9228427 C3.62636712,19.7592326 3.60591585,19.5066749 3.72862347,19.3208279 L3.78997727,19.2457173 L7.69675727,15.3389373 C7.8837403,15.1519542 8.1868997,15.1519542 8.37388273,15.3389373 Z M12.2806627,15.3389373 C12.4442729,15.5025474 12.4647241,15.7551051 12.3420165,15.9409521 L12.2806627,16.0160627 L8.37388273,19.9228427 C8.1868997,20.1098258 7.8837403,20.1098258 7.69675727,19.9228427 C7.53314712,19.7592326 7.51269585,19.5066749 7.63540347,19.3208279 L7.69675727,19.2457173 L11.6035373,15.3389373 C11.7905203,15.1519542 12.0936797,15.1519542 12.2806627,15.3389373 Z M4.74108273,15.3389373 C4.90469288,15.5025474 4.92514415,15.7551051 4.80243653,15.9409521 L4.74108273,16.0160627 L2.98358273,17.7735627 C2.7965997,17.9605458 2.4934403,17.9605458 2.30645727,17.7735627 C2.14284712,17.6099526 2.12239585,17.3573949 2.24510347,17.1715479 L2.30645727,17.0964373 L4.06395727,15.3389373 C4.2509403,15.1519542 4.5540997,15.1519542 4.74108273,15.3389373 Z M15.3575227,15.3389373 C15.5211329,15.5025474 15.5415841,15.7551051 15.4188765,15.9409521 L15.3575227,16.0160627 L13.6000227,17.7735627 C13.4130397,17.9605458 13.1098803,17.9605458 12.9228973,17.7735627 C12.7592871,17.6099526 12.7388359,17.3573949 12.8615435,17.1715479 L12.9228973,17.0964373 L14.6803973,15.3389373 C14.8673803,15.1519542 15.1705397,15.1519542 15.3575227,15.3389373 Z M9.97636,3.72764 C11.8781715,3.72764 13.537332,4.91492262 14.1898478,6.63440999 L14.1898478,6.63440999 L14.247,6.799 L14.2893245,6.7928934 C14.3729733,6.78189569 14.4566718,6.77358734 14.5404557,6.76802842 L14.5404557,6.76802842 L14.7921,6.75966 C17.0105505,6.75966 18.8087,8.55754264 18.8087,10.77588 C18.8087,12.9942739 17.0104939,14.79248 14.7921,14.79248 L14.7921,14.79248 L4.57808,14.79248 C2.35968606,14.79248 0.56148,12.9942739 0.56148,10.77588 C0.56148,8.55748606 2.35968606,6.75928 4.57808,6.75928 C4.90088137,6.75928 5.21893971,6.79818257 5.52749163,6.87376521 L5.52749163,6.87376521 L5.669,6.913 L5.69350592,6.83444043 C6.26580431,5.08066724 7.87156932,3.82360251 9.75754655,3.73289233 L9.75754655,3.73289233 Z M9.97636,4.68524 C8.24450624,4.68524 6.77538167,5.9353282 6.48124271,7.62459399 C6.42780441,7.93149481 6.10015906,8.10644705 5.81539821,7.98013386 C5.42604639,7.80742658 5.00775603,7.71688 4.57808,7.71688 C2.88855394,7.71688 1.51908,9.08635394 1.51908,10.77588 C1.51908,12.4654061 2.88855394,13.83488 4.57808,13.83488 L4.57808,13.83488 L14.7921,13.83488 C16.4816261,13.83488 17.8511,12.4654061 17.8511,10.77588 C17.8511,9.08644233 16.4817145,7.71726 14.7921,7.71726 C14.5393143,7.71726 14.2851003,7.75147168 14.0264208,7.81804871 C13.7645374,7.88545032 13.4988368,7.72275215 13.4398212,7.45885247 C13.0797504,5.84872435 11.6466422,4.68524 9.97636,4.68524 Z M15.8407353,0.742435895 C16.1350724,0.737194582 16.3643814,0.996301819 16.3233972,1.28781874 C16.2999153,1.45484326 16.28816,1.59725666 16.28816,1.73264 C16.28816,3.42958103 17.6165356,4.81647184 19.2900761,4.91010172 L19.5277661,4.91179115 C19.8219129,4.90671965 20.0510172,5.16563016 20.010186,5.45697342 C19.8823461,6.36915085 19.4546949,7.20501969 18.8028477,7.84197255 C18.6137164,8.02678232 18.3105772,8.02327901 18.1257675,7.83414769 C17.9409577,7.64501637 17.944461,7.34187722 18.1335923,7.15706745 C18.4679011,6.8303974 18.7253774,6.43606377 18.8889817,6.00184242 L18.943,5.838 L18.8588889,5.82784843 C16.9290772,5.54198719 15.4332074,3.92434334 15.335627,1.93926418 L15.331,1.754 L15.2677047,1.76547467 C14.3092896,1.96375923 13.492262,2.59463227 13.0585557,3.47440015 L12.9769971,3.65361789 C12.8749581,3.89757149 12.5944757,4.01261603 12.3505221,3.91057706 C12.1065685,3.80853809 11.991524,3.5280557 12.0935629,3.28410211 C12.7223104,1.78089984 14.1845572,0.771927745 15.8407353,0.742435895 Z"/>
</svg>
