<svg xmlns="http://www.w3.org/2000/svg" xmlns:xlink="http://www.w3.org/1999/xlink" width="21" height="21" viewBox="0 0 21 21">
  <defs>
    <path id="rain-a" d="M10.8585147,1.84255977 C8.77094971,1.93668772 6.99428369,3.33512465 6.37779458,5.28285943 L6.363,5.331 L6.20419937,5.28707968 C5.86619573,5.20428237 5.51777931,5.16166667 5.16416667,5.16166667 C2.73401836,5.16166667 0.764166667,7.13151836 0.764166667,9.56166667 C0.764166667,11.991815 2.73401836,13.9616667 5.16416667,13.9616667 L16.36375,13.9616667 C18.7938983,13.9616667 20.76375,11.991815 20.76375,9.56166667 C20.76375,7.13158054 18.7939605,5.16208333 16.36375,5.16208333 L16.0880929,5.17125061 C15.9963131,5.17734021 15.9046262,5.18644175 15.8129925,5.1984895 L15.764,5.206 L15.7152714,5.06422687 C15.0116638,3.15768625 13.1824041,1.8375 11.0833333,1.8375 L10.8585147,1.84255977 Z"/>
  </defs>
  <g fill="none" fill-rule="evenodd" transform="translate(-.3 -.5)">
    <path fill="#1282A2" fill-rule="nonzero" d="M5.00713188 14.3921319C5.21052995 14.1887338 5.54030338 14.1887338 5.74370145 14.3921319 5.92449973 14.5729302 5.94458843 14.8535806 5.80396754 15.0565682L5.74370145 15.1287014 3.81661812 17.0557848C3.61322005 17.2591829 3.28344662 17.2591829 3.08004855 17.0557848 2.89925027 16.8749865 2.87916157 16.5943361 3.01978246 16.3913484L3.08004855 16.3192152 5.00713188 14.3921319zM16.6475486 14.3921319C16.8509466 14.1887338 17.18072 14.1887338 17.3841181 14.3921319 17.5649164 14.5729302 17.5850051 14.8535806 17.4443842 15.0565682L17.3841181 15.1287014 15.4570348 17.0557848C15.2536367 17.2591829 14.9238633 17.2591829 14.7204652 17.0557848 14.5396669 16.8749865 14.5195782 16.5943361 14.6601991 16.3913484L14.7204652 16.3192152 16.6475486 14.3921319zM8.99046522 14.3921319C9.19386329 14.1887338 9.52363671 14.1887338 9.72703478 14.3921319 9.90783307 14.5729302 9.92792176 14.8535806 9.78730088 15.0565682L9.72703478 15.1287014 5.44328478 19.4124514C5.23988671 19.6158495 4.91011329 19.6158495 4.70671522 19.4124514 4.52591693 19.2316532 4.50582824 18.9510027 4.64644912 18.7480151L4.70671522 18.6758819 8.99046522 14.3921319zM13.2742152 14.3921319C13.4776133 14.1887338 13.8073867 14.1887338 14.0107848 14.3921319 14.1915831 14.5729302 14.2116718 14.8535806 14.0710509 15.0565682L14.0107848 15.1287014 9.72703478 19.4124514C9.52363671 19.6158495 9.19386329 19.6158495 8.99046522 19.4124514 8.80966693 19.2316532 8.78957824 18.9510027 8.93019912 18.7480151L8.99046522 18.6758819 13.2742152 14.3921319z"/>
    <mask id="rain-b" fill="#fff">
      <use xlink:href="#rain-a"/>
    </mask>
    <use fill="#000" fill-rule="nonzero" xlink:href="#rain-a"/>
    <g mask="url(#rain-b)">
      <rect width="21" height="21" fill="#000" transform="translate(.3 .5)"/>
    </g>
  </g>
</svg>
