<svg xmlns="http://www.w3.org/2000/svg" xmlns:xlink="http://www.w3.org/1999/xlink" width="21" height="21" viewBox="0 0 21 21">
  <defs>
    <path id="rain-sun-a" d="M8.60947746,4.90748287 C6.93563048,4.99076792 5.51013723,6.10335066 4.99471751,7.65695985 L4.96697265,7.74701784 L4.73257294,7.68924062 C4.48981141,7.63740268 4.24096124,7.61081942 3.98886973,7.61081942 C2.00891539,7.61081942 0.403986025,9.21574879 0.403986025,11.1957031 C0.403986025,13.1756575 2.00891539,14.7805868 3.98886973,14.7805868 L13.1136888,14.7805868 C15.0936431,14.7805868 16.6985725,13.1756575 16.6985725,11.1957031 C16.6985725,9.21579945 15.0936938,7.6111589 13.1136888,7.6111589 L12.8890982,7.6186279 C12.8143209,7.62358938 12.7396193,7.63100483 12.6649611,7.64082068 L12.625452,7.64721142 L12.5652393,7.47812512 C11.9778346,5.95353026 10.5020664,4.90246694 8.81148884,4.90246694 L8.60947746,4.90748287 Z"/>
  </defs>
  <g fill="none" fill-rule="evenodd" transform="translate(.5)">
    <path fill="#346EA4" fill-rule="nonzero" d="M3.02255374 15.3691055C3.20434953 15.1873097 3.49909875 15.1873097 3.68089454 15.3691055 3.83996585 15.5281768 3.85984977 15.7737281 3.74054628 15.9544194L3.68089454 16.0274463 2.08606695 17.6222738C1.90427116 17.8040696 1.60952194 17.8040696 1.42772615 17.6222738 1.26865484 17.4632025 1.24877092 17.2176512 1.36807441 17.0369599L1.42772615 16.9639331 3.02255374 15.3691055zM12.656002 15.3691055C12.8377978 15.1873097 13.132547 15.1873097 13.3143428 15.3691055 13.4734141 15.5281768 13.493298 15.7737281 13.3739946 15.9544194L13.3143428 16.0274463 11.7195152 17.6222738C11.5377194 17.8040696 11.2429702 17.8040696 11.0611744 17.6222738 10.9021031 17.4632025 10.8822192 17.2176512 11.0015227 17.0369599L11.0611744 16.9639331 12.656002 15.3691055zM6.31912147 15.3690895C6.5009261 15.1873025 6.79567532 15.1873168 6.97746227 15.3691215 7.13652585 15.5282005 7.15639782 15.7737528 7.03708555 15.9544383L6.97743025 16.0274623 3.43191301 19.5726347C3.25010838 19.7544216 2.95535916 19.7544073 2.77357222 19.5726027 2.61450863 19.4135236 2.59463666 19.1679714 2.71394894 18.9872859L2.77360423 18.9142619 6.31912147 15.3690895zM9.86427788 15.3691055C10.0460737 15.1873097 10.3408229 15.1873097 10.5226187 15.3691055 10.68169 15.5281768 10.7015739 15.7737281 10.5822704 15.9544194L10.5226187 16.0274463 6.97744626 19.5726187C6.79565047 19.7544145 6.50090125 19.7544145 6.31910546 19.5726187 6.16003415 19.4135474 6.14015023 19.1679961 6.25945372 18.9873048L6.31910546 18.9142779 9.86427788 15.3691055z"/>
    <path fill="#C8A218" fill-rule="nonzero" d="M13.163592,3.18369174 C15.1438858,3.18369174 16.7491546,4.78896058 16.7491546,6.76925439 C16.7491546,7.25442778 16.7057262,7.64197785 16.5204792,8.08012045 C16.4292136,8.29598009 16.1802394,8.3969835 15.9643797,8.30571789 C15.4299139,7.79757695 14.5426104,6.99964927 12.9727611,7.17038805 C12.5971309,5.73178564 11.2116984,4.97362806 10.5899787,4.74006968 C10.4767282,4.69752542 10.4556211,4.7172175 10.4240089,4.6398065 C10.3923966,4.56239551 10.4679041,4.47058317 10.5549507,4.37465017 C11.1156159,3.75674832 12.2344083,3.18369174 13.163592,3.18369174 Z M19.1716669,6.08113325 C19.4060273,6.08113325 19.596014,6.27111989 19.596014,6.50548028 C19.596014,6.71380063 19.4459011,6.88706023 19.2479439,6.92299051 L19.1716669,6.92982731 L17.4298073,6.92982731 C17.1954469,6.92982731 17.0054602,6.73984067 17.0054602,6.50548028 C17.0054602,6.29715993 17.1555731,6.12390033 17.3535303,6.08797005 L17.4298073,6.08113325 L19.1716669,6.08113325 Z M18.1681315,2.58964545 C18.3131346,2.73464855 18.33126,2.95848334 18.2225077,3.12319436 L18.1681315,3.18976278 L17.0658477,4.29204662 C16.9001299,4.45776444 16.6314482,4.45776444 16.4657304,4.29204662 C16.3207273,4.14704352 16.3026019,3.92320873 16.4113542,3.75849771 L16.4657304,3.69192929 L17.5680142,2.58964545 C17.733732,2.42392763 18.0024137,2.42392763 18.1681315,2.58964545 Z M9.82906053,1.82463064 L9.89275089,1.88235117 L10.9111838,3.01111427 C11.0681793,3.18511768 11.0543917,3.45344536 10.8803883,3.61044092 C10.7281353,3.74781204 10.5036653,3.75442731 10.344752,3.63736601 L10.2810617,3.57964548 L9.26262879,2.45088238 C9.10563323,2.27687897 9.11942082,2.00855129 9.29342423,1.85155573 C9.44567721,1.71418461 9.67014722,1.70756934 9.82906053,1.82463064 Z M13.9810541,0.580916798 C14.1893744,0.580916798 14.362634,0.731029696 14.3985643,0.928986912 L14.4054011,1.00526383 L14.4054011,2.3119132 C14.4054011,2.54627359 14.2154145,2.73626023 13.9810541,2.73626023 C13.7727337,2.73626023 13.5994741,2.58614733 13.5635439,2.38819011 L13.5567071,2.3119132 L13.5567071,1.00526383 C13.5567071,0.770903435 13.7466937,0.580916798 13.9810541,0.580916798 Z"/>
    <mask id="rain-sun-b" fill="#fff">
      <use xlink:href="#rain-sun-a"/>
    </mask>
    <use fill="#000" fill-rule="nonzero" xlink:href="#rain-sun-a"/>
    <g mask="url(#rain-sun-b)">
      <rect width="21" height="21" fill="#000" transform="translate(-.5)"/>
    </g>
  </g>
</svg>
