<svg xmlns="http://www.w3.org/2000/svg" width="21" height="22" viewBox="0 0 21 22">
  <path d="M9.72703478,13.3921319 C9.90783307,13.5729302 9.92792176,13.8535806 9.78730088,14.0565682 L9.72703478,14.1287014 L5.44328478,18.4124514 C5.23988671,18.6158495 4.91011329,18.6158495 4.70671522,18.4124514 C4.52591693,18.2316532 4.50582824,17.9510027 4.64644912,17.7480151 L4.70671522,17.6758819 L8.99046522,13.3921319 C9.19386329,13.1887338 9.52363671,13.1887338 9.72703478,13.3921319 Z M14.0107848,13.3921319 C14.1915831,13.5729302 14.2116718,13.8535806 14.0710509,14.0565682 L14.0107848,14.1287014 L9.72703478,18.4124514 C9.52363671,18.6158495 9.19386329,18.6158495 8.99046522,18.4124514 C8.80966693,18.2316532 8.78957824,17.9510027 8.93019912,17.7480151 L8.99046522,17.6758819 L13.2742152,13.3921319 C13.4776133,13.1887338 13.8073867,13.1887338 14.0107848,13.3921319 Z M5.74370145,13.3921319 C5.92449973,13.5729302 5.94458843,13.8535806 5.80396754,14.0565682 L5.74370145,14.1287014 L3.81661812,16.0557848 C3.61322005,16.2591829 3.28344662,16.2591829 3.08004855,16.0557848 C2.89925027,15.8749865 2.87916157,15.5943361 3.01978246,15.3913484 L3.08004855,15.3192152 L5.00713188,13.3921319 C5.21052995,13.1887338 5.54030338,13.1887338 5.74370145,13.3921319 Z M17.3841181,13.3921319 C17.5649164,13.5729302 17.5850051,13.8535806 17.4443842,14.0565682 L17.3841181,14.1287014 L15.4570348,16.0557848 C15.2536367,16.2591829 14.9238633,16.2591829 14.7204652,16.0557848 C14.5396669,15.8749865 14.5195782,15.5943361 14.6601991,15.3913484 L14.7204652,15.3192152 L16.6475486,13.3921319 C16.8509466,13.1887338 17.18072,13.1887338 17.3841181,13.3921319 Z M11.0833333,0.8375 C13.1824041,0.8375 15.0116638,2.15768625 15.7152714,4.06422687 L15.7152714,4.06422687 L15.764,4.206 L15.8129925,4.1984895 C15.9046262,4.18644175 15.9963131,4.17734021 16.0880929,4.17125061 L16.0880929,4.17125061 L16.36375,4.16208333 C18.7939605,4.16208333 20.76375,6.13158054 20.76375,8.56166667 C20.76375,10.991815 18.7938983,12.9616667 16.36375,12.9616667 L16.36375,12.9616667 L5.16416667,12.9616667 C2.73401836,12.9616667 0.764166667,10.991815 0.764166667,8.56166667 C0.764166667,6.13151836 2.73401836,4.16166667 5.16416667,4.16166667 C5.51777931,4.16166667 5.86619573,4.20428237 6.20419937,4.28707968 L6.20419937,4.28707968 L6.363,4.331 L6.37779458,4.28285943 C6.99428369,2.33512465 8.77094971,0.936687717 10.8585147,0.842559766 L10.8585147,0.842559766 Z M11.0833333,1.87916667 C9.18233515,1.87916667 7.56972947,3.25134393 7.24686298,5.10559445 C7.18873339,5.43943775 6.83232441,5.62974886 6.52256471,5.49234677 C6.0951175,5.30274128 5.63589106,5.20333333 5.16416667,5.20333333 C3.30931497,5.20333333 1.80583333,6.70681497 1.80583333,8.56166667 C1.80583333,10.4165184 3.30931497,11.92 5.16416667,11.92 L5.16416667,11.92 L16.36375,11.92 C18.2186017,11.92 19.7220833,10.4165184 19.7220833,8.56166667 C19.7220833,6.70691176 18.2186985,5.20375 16.36375,5.20375 C16.0862108,5.20375 15.8071201,5.24130953 15.5231509,5.31439543 C15.2382771,5.38771417 14.9492509,5.2107329 14.8850544,4.92366575 C14.4898166,3.15628155 12.9167454,1.87916667 11.0833333,1.87916667 Z" transform="translate(-.3 .5)"/>
</svg>
