<svg xmlns="http://www.w3.org/2000/svg" width="21" height="22" viewBox="0 0 21 22">
  <path d="M2.87055506,11.8084174 C2.67526214,12.0036488 2.35867965,12.0035989 2.16344829,11.8083059 C1.98990931,11.6347122 1.97066663,11.3652848 2.1056934,11.1704379 L2.16355977,11.1011992 L2.72915,10.53555 L1.10215,10.53555 C0.826007625,10.53555 0.60215,10.3116924 0.60215,10.03555 C0.60215,9.79009011 0.779025161,9.58594163 1.01227437,9.54360567 L1.10215,9.53555 L2.74515,9.53555 L2.16350403,8.95401167 C1.98993767,8.78044532 1.97065252,8.51102091 2.10564858,8.31615277 L2.16350403,8.24690489 C2.33707038,8.07333853 2.60649478,8.05405338 2.80136292,8.18904944 L2.87061081,8.24690489 L4.15915,9.53555 L8.64315,9.53555 L5.47515,6.36755 L3.66445,6.3681 C3.38830763,6.3681 3.16445,6.14424237 3.16445,5.8681 C3.16445,5.62264011 3.34132516,5.41849163 3.57457437,5.37615567 L3.66445,5.3681 L4.47515,5.36755 L3.31089661,4.20340339 C3.11563446,4.00814124 3.11563446,3.69155876 3.31089661,3.49629661 C3.48446296,3.32273026 3.75388736,3.30344511 3.9487555,3.43844116 L4.01800339,3.49629661 L5.18115,4.65955 L5.1827,3.84985 C5.1827,3.60439011 5.35957516,3.40024163 5.59282437,3.35790567 L5.6827,3.34985 C5.92815989,3.34985 6.13230837,3.52672516 6.17464433,3.75997437 L6.1827,3.84985 L6.18215,5.66055 L9.34915,8.82755 L9.34915,4.34855 L8.06919661,3.06850339 C7.87393446,2.87324124 7.87393446,2.55665876 8.06919661,2.36139661 C8.24276296,2.18783026 8.51218736,2.16854511 8.7070555,2.30354116 L8.77630339,2.36139661 L9.34915,2.93455 L9.35015,1.28755 C9.35015,1.01140763 9.57400763,0.78755 9.85015,0.78755 C10.0956099,0.78755 10.2997584,0.964425161 10.3420943,1.19767437 L10.35015,1.28755 L10.34915,2.93455 L10.9234909,2.36145235 C11.0970299,2.18785864 11.3664512,2.16853101 11.5613406,2.30349634 L11.6305976,2.36134087 C11.8041914,2.53487986 11.823519,2.80430122 11.6885537,2.99919064 L11.6307091,3.06844765 L10.34915,4.34955 L10.34915,8.82855 L13.51615,5.66155 L13.51715,3.84985 C13.51715,3.57370763 13.7410076,3.34985 14.01715,3.34985 C14.2626099,3.34985 14.4667584,3.52672516 14.5090943,3.75997437 L14.51715,3.84985 L14.51615,4.66155 L15.6822966,3.49629661 C15.8775588,3.30103446 16.1941412,3.30103446 16.3894034,3.49629661 C16.5629697,3.66986296 16.5822549,3.93928736 16.4472588,4.1341555 L16.3894034,4.20340339 L15.22415,5.36755 L16.03585,5.3681 C16.2813099,5.3681 16.4854584,5.54497516 16.5277943,5.77822437 L16.53585,5.8681 C16.53585,6.11355989 16.3589748,6.31770837 16.1257256,6.36004433 L16.03585,6.3681 L14.22415,6.36755 L11.05615,9.53555 L15.53515,9.53555 L16.8171966,8.25459661 C17.0124588,8.05933446 17.3290412,8.05933446 17.5243034,8.25459661 C17.6978697,8.42816296 17.7171549,8.69758736 17.5821588,8.8924555 L17.5243034,8.96170339 L16.94915,9.53555 L18.5977,9.53555 C18.8738424,9.53555 19.0977,9.75940763 19.0977,10.03555 C19.0977,10.2810099 18.9208248,10.4851584 18.6875756,10.5274943 L18.5977,10.53555 L16.95015,10.53555 L17.5243034,11.1093966 C17.6978697,11.282963 17.7171549,11.5523874 17.5821588,11.7472555 L17.5243034,11.8165034 C17.350737,11.9900697 17.0813126,12.0093549 16.8864445,11.8743588 L16.8171966,11.8165034 L15.53615,10.53555 L11.05715,10.53555 L14.22415,13.70255 L16.03585,13.70255 C16.3119924,13.70255 16.53585,13.9264076 16.53585,14.20255 C16.53585,14.4480099 16.3589748,14.6521584 16.1257256,14.6944943 L16.03585,14.70255 L15.22315,14.70155 L16.3894034,15.8676966 C16.5846655,16.0629588 16.5846655,16.3795412 16.3894034,16.5748034 C16.215837,16.7483697 15.9464126,16.7676549 15.7515445,16.6326588 L15.6822966,16.5748034 L14.51615,15.40855 L14.51715,16.22125 C14.51715,16.4667099 14.3402748,16.6708584 14.1070256,16.7131943 L14.01715,16.72125 C13.7716901,16.72125 13.5675416,16.5443748 13.5252057,16.3111256 L13.51715,16.22125 L13.51615,14.40855 L10.34915,11.24155 L10.34915,15.72055 L11.6307091,17.0026524 C11.8259405,17.1979453 11.8258906,17.5145278 11.6305976,17.7097591 C11.4570039,17.8832981 11.1875765,17.9025408 10.9927296,17.767514 L10.9234909,17.7096476 L10.34915,17.13555 L10.35015,18.78355 C10.35015,19.0596924 10.1262924,19.28355 9.85015,19.28355 C9.60469011,19.28355 9.40054163,19.1066748 9.35820567,18.8734256 L9.35015,18.78355 L9.34915,17.13555 L8.77630339,17.7097034 C8.60273704,17.8832697 8.33331264,17.9025549 8.1384445,17.7675588 L8.06919661,17.7097034 C7.89563026,17.536137 7.87634511,17.2667126 8.01134116,17.0718445 L8.06919661,17.0025966 L9.34915,15.72155 L9.34915,11.24255 L6.18715,14.40455 L6.18759155,16.2212626 C6.18754801,16.497405 5.9636551,16.7212273 5.68751273,16.7211838 C5.44205284,16.7211451 5.23793225,16.5442377 5.19563306,16.3109819 L5.18759156,16.221105 L5.18715,15.40455 L4.01800339,16.5748034 C3.82274124,16.7700655 3.50615876,16.7700655 3.31089661,16.5748034 C3.13733026,16.401237 3.11804511,16.1318126 3.25304116,15.9369445 L3.31089661,15.8676966 L4.47515,14.70255 L3.66926131,14.7028535 C3.42380142,14.7028535 3.21965294,14.5259784 3.17731698,14.2927292 L3.16926131,14.2028535 C3.16926131,13.9573937 3.34613647,13.7532452 3.57938568,13.7109092 L3.66926131,13.7028535 L5.47515,13.70255 L8.64215,10.53555 L4.14215,10.53555 L2.87055506,11.8084174 Z" transform="translate(.694 .5)"/>
</svg>
