<svg xmlns="http://www.w3.org/2000/svg" width="21" height="21" viewBox="0 0 21 21">
  <g fill="none" fill-rule="evenodd">
    <path fill="#DEB317" fill-rule="nonzero" d="M10.5,5.30903448 C7.63310891,5.30903448 5.30903448,7.63310891 5.30903448,10.5 C5.30903448,13.3668911 7.63310891,15.6909655 10.5,15.6909655 C13.3668911,15.6909655 15.6909655,13.3668911 15.6909655,10.5 C15.6909655,7.63310891 13.3668911,5.30903448 10.5,5.30903448 Z"/>
    <path fill="#DEB317" fill-rule="nonzero" d="M11.8746024,2.14762256 C12.1707838,2.14762256 12.4108862,2.36661371 12.4108862,2.63675299 C12.4108862,2.87987834 12.2164032,3.08157371 11.9615905,3.11948154 L11.8746024,3.12588343 L9.12539755,3.12588343 C8.82921623,3.12588343 8.58911383,2.90689227 8.58911383,2.63675299 C8.58911383,2.39362764 8.78359677,2.19193227 9.03840955,2.15402445 L9.12539755,2.14762256 L11.8746024,2.14762256 Z" transform="rotate(90 10.5 2.637)"/>
    <path fill="#DEB317" fill-rule="nonzero" d="M17.4347577,4.45071428 C17.730939,4.45071428 17.9710415,4.66970544 17.9710415,4.93984472 C17.9710415,5.18297007 17.7765585,5.38466544 17.5217457,5.42257326 L17.4347577,5.42897515 L14.6855528,5.42897515 C14.3893715,5.42897515 14.1492691,5.209984 14.1492691,4.93984472 C14.1492691,4.69671937 14.3437521,4.495024 14.5985648,4.45711618 L14.6855528,4.45071428 L17.4347577,4.45071428 Z" transform="rotate(135 16.06 4.94)"/>
    <path fill="#DEB317" fill-rule="nonzero" d="M19.7378495,10.0108696 C20.0340308,10.0108696 20.2741332,10.2298607 20.2741332,10.5 C20.2741332,10.7431254 20.0796502,10.9448207 19.8248375,10.9827285 L19.7378495,10.9891304 L16.9886446,10.9891304 C16.6924632,10.9891304 16.4523608,10.7701393 16.4523608,10.5 C16.4523608,10.2568746 16.6468438,10.0551793 16.9016566,10.0172715 L16.9886446,10.0108696 L19.7378495,10.0108696 Z" transform="rotate(180 18.363 10.5)"/>
    <path fill="#DEB317" fill-rule="nonzero" d="M17.4347577,15.5710248 C17.730939,15.5710248 17.9710415,15.790016 17.9710415,16.0601553 C17.9710415,16.3032806 17.7765585,16.504976 17.5217457,16.5428838 L17.4347577,16.5492857 L14.6855528,16.5492857 C14.3893715,16.5492857 14.1492691,16.3302946 14.1492691,16.0601553 C14.1492691,15.8170299 14.3437521,15.6153346 14.5985648,15.5774267 L14.6855528,15.5710248 L17.4347577,15.5710248 Z" transform="rotate(-135 16.06 16.06)"/>
    <path fill="#DEB317" fill-rule="nonzero" d="M11.8746024,17.8741166 C12.1707838,17.8741166 12.4108862,18.0931077 12.4108862,18.363247 C12.4108862,18.6063724 12.2164032,18.8080677 11.9615905,18.8459756 L11.8746024,18.8523774 L9.12539755,18.8523774 C8.82921623,18.8523774 8.58911383,18.6333863 8.58911383,18.363247 C8.58911383,18.1201217 8.78359677,17.9184263 9.03840955,17.8805185 L9.12539755,17.8741166 L11.8746024,17.8741166 Z" transform="rotate(-90 10.5 18.363)"/>
    <path fill="#DEB317" fill-rule="nonzero" d="M6.31444716,15.5710248 C6.61062849,15.5710248 6.85073089,15.790016 6.85073089,16.0601553 C6.85073089,16.3032806 6.65624794,16.504976 6.40143517,16.5428838 L6.31444716,16.5492857 L3.56524227,16.5492857 C3.26906095,16.5492857 3.02895855,16.3302946 3.02895855,16.0601553 C3.02895855,15.8170299 3.22344149,15.6153346 3.47825427,15.5774267 L3.56524227,15.5710248 L6.31444716,15.5710248 Z" transform="rotate(-45 4.94 16.06)"/>
    <path fill="#DEB317" fill-rule="nonzero" d="M4.01135544,10.0108696 C4.30753676,10.0108696 4.54763916,10.2298607 4.54763916,10.5 C4.54763916,10.7431254 4.35315622,10.9448207 4.09834344,10.9827285 L4.01135544,10.9891304 L1.26215055,10.9891304 C0.965969224,10.9891304 0.725866821,10.7701393 0.725866821,10.5 C0.725866821,10.2568746 0.920349767,10.0551793 1.17516254,10.0172715 L1.26215055,10.0108696 L4.01135544,10.0108696 Z"/>
    <path fill="#DEB317" fill-rule="nonzero" d="M6.31444716,4.45071428 C6.61062849,4.45071428 6.85073089,4.66970544 6.85073089,4.93984472 C6.85073089,5.18297007 6.65624794,5.38466544 6.40143517,5.42257326 L6.31444716,5.42897515 L3.56524227,5.42897515 C3.26906095,5.42897515 3.02895855,5.209984 3.02895855,4.93984472 C3.02895855,4.69671937 3.22344149,4.495024 3.47825427,4.45711618 L3.56524227,4.45071428 L6.31444716,4.45071428 Z" transform="rotate(45 4.94 4.94)"/>
  </g>
</svg>
