<svg xmlns="http://www.w3.org/2000/svg" width="21" height="21" viewBox="0 0 21 21">
  <g fill="none" fill-rule="evenodd">
    <path fill="#000" fill-rule="nonzero" d="M10.5 4.69206522C13.7076338 4.69206522 16.3079348 7.29236619 16.3079348 10.5 16.3079348 13.7076338 13.7076338 16.3079348 10.5 16.3079348 7.29236619 16.3079348 4.69206522 13.7076338 4.69206522 10.5 4.69206522 7.29236619 7.29236619 4.69206522 10.5 4.69206522zM10.5 5.83078665C7.92126467 5.83078665 5.83078665 7.92126467 5.83078665 10.5 5.83078665 13.0787353 7.92126467 15.1692134 10.5 15.1692134 13.0787353 15.1692134 15.1692134 13.0787353 15.1692134 10.5 15.1692134 7.92126467 13.0787353 5.83078665 10.5 5.83078665zM3.51696253 10.0108696C3.71395678 10.0108696 3.87365217 10.2298607 3.87365217 10.5 3.87365217 10.7431254 3.74429891 10.9448207 3.57481945 10.9827285L3.51696253 10.9891304 1.68842877 10.9891304C1.49143452 10.9891304 1.33173913 10.7701393 1.33173913 10.5 1.33173913 10.2568746 1.4610924 10.0551793 1.63057186 10.0172715L1.68842877 10.0108696 3.51696253 10.0108696z"/>
    <path fill="#000" fill-rule="nonzero" d="M5.83002943,4.42663211 C6.02702367,4.42663211 6.18671906,4.64562326 6.18671906,4.91576254 C6.18671906,5.15888789 6.0573658,5.36058327 5.88788634,5.39849109 L5.83002943,5.40489298 L4.00149566,5.40489298 C3.80450141,5.40489298 3.64480602,5.18590182 3.64480602,4.91576254 C3.64480602,4.67263719 3.77415929,4.47094182 3.94363875,4.433034 L4.00149566,4.42663211 L5.83002943,4.42663211 Z" transform="rotate(45 4.916 4.916)"/>
    <path fill="#000" fill-rule="nonzero" d="M11.4142669,2.11356522 C11.6112611,2.11356522 11.7709565,2.33255637 11.7709565,2.60269565 C11.7709565,2.845821 11.6416033,3.04751637 11.4721238,3.0854242 L11.4142669,3.09182609 L9.58573312,3.09182609 C9.38873887,3.09182609 9.22904348,2.87283493 9.22904348,2.60269565 C9.22904348,2.3595703 9.35839674,2.15787493 9.52787621,2.11996711 L9.58573312,2.11356522 L11.4142669,2.11356522 Z" transform="rotate(90 10.5 2.603)"/>
    <path fill="#000" fill-rule="nonzero" d="M16.9985043,4.42663211 C17.1954986,4.42663211 17.355194,4.64562326 17.355194,4.91576254 C17.355194,5.15888789 17.2258407,5.36058327 17.0563613,5.39849109 L16.9985043,5.40489298 L15.1699706,5.40489298 C14.9729763,5.40489298 14.8132809,5.18590182 14.8132809,4.91576254 C14.8132809,4.67263719 14.9426342,4.47094182 15.1121137,4.433034 L15.1699706,4.42663211 L16.9985043,4.42663211 Z" transform="rotate(135 16.084 4.916)"/>
    <path fill="#000" fill-rule="nonzero" d="M19.3115712,10.0108696 C19.5085655,10.0108696 19.6682609,10.2298607 19.6682609,10.5 C19.6682609,10.7431254 19.5389076,10.9448207 19.3694281,10.9827285 L19.3115712,10.9891304 L17.4830375,10.9891304 C17.2860432,10.9891304 17.1263478,10.7701393 17.1263478,10.5 C17.1263478,10.2568746 17.2557011,10.0551793 17.4251806,10.0172715 L17.4830375,10.0108696 L19.3115712,10.0108696 Z" transform="rotate(180 18.397 10.5)"/>
    <path fill="#000" fill-rule="nonzero" d="M16.9985043,15.595107 C17.1954986,15.595107 17.355194,15.8140982 17.355194,16.0842375 C17.355194,16.3273628 17.2258407,16.5290582 17.0563613,16.566966 L16.9985043,16.5733679 L15.1699706,16.5733679 C14.9729763,16.5733679 14.8132809,16.3543767 14.8132809,16.0842375 C14.8132809,15.8411121 14.9426342,15.6394167 15.1121137,15.6015089 L15.1699706,15.595107 L16.9985043,15.595107 Z" transform="rotate(-135 16.084 16.084)"/>
    <path fill="#000" fill-rule="nonzero" d="M11.4142669,17.9081739 C11.6112611,17.9081739 11.7709565,18.1271651 11.7709565,18.3973043 C11.7709565,18.6404297 11.6416033,18.8421251 11.4721238,18.8800329 L11.4142669,18.8864348 L9.58573312,18.8864348 C9.38873887,18.8864348 9.22904348,18.6674436 9.22904348,18.3973043 C9.22904348,18.154179 9.35839674,17.9524836 9.52787621,17.9145758 L9.58573312,17.9081739 L11.4142669,17.9081739 Z" transform="rotate(-90 10.5 18.397)"/>
    <path fill="#000" fill-rule="nonzero" d="M5.83002943,15.595107 C6.02702367,15.595107 6.18671906,15.8140982 6.18671906,16.0842375 C6.18671906,16.3273628 6.0573658,16.5290582 5.88788634,16.566966 L5.83002943,16.5733679 L4.00149566,16.5733679 C3.80450141,16.5733679 3.64480602,16.3543767 3.64480602,16.0842375 C3.64480602,15.8411121 3.77415929,15.6394167 3.94363875,15.6015089 L4.00149566,15.595107 L5.83002943,15.595107 Z" transform="rotate(-45 4.916 16.084)"/>
  </g>
</svg>
