<svg xmlns="http://www.w3.org/2000/svg" width="21" height="21" viewBox="0 0 21 21">
  <path d="M9.80150603,13.8059091 L9.87446988,13.8641115 L11.8904112,15.8306115 C12.0741164,16.0098113 12.0777687,16.3040038 11.8985689,16.487709 C11.7417691,16.648451 11.496928,16.6713401 11.3150996,16.5545009 L11.2414714,16.4958668 L9.554,14.849 L7.88047625,16.523411 C7.7216931,16.6821942 7.47658666,16.7020421 7.29622269,16.5829547 L7.2233281,16.523411 C7.06454495,16.3646279 7.04469706,16.1195214 7.16378442,15.9391575 L7.2233281,15.8662629 L9.22142593,13.8681651 C9.37881703,13.7107739 9.62134427,13.6897168 9.80150603,13.8059091 Z M9.47156304,4.51330652 C12.0894823,4.51330652 14.2116087,6.6354329 14.2116087,9.25335217 C14.2116087,10.1050555 13.9828265,10.9254722 13.5567717,11.6498503 C13.4732868,11.7917912 13.3209136,11.8789457 13.1562413,11.8789457 L13.1562413,11.8789457 L5.78725652,11.8789457 C5.62251199,11.8789457 5.47008328,11.7917154 5.38662359,11.6496759 C4.96068085,10.9247663 4.73188913,10.1047978 4.73188913,9.25335217 C4.73188913,6.63537448 6.85370218,4.51330652 9.47156304,4.51330652 Z M9.47156304,5.44265435 C7.36699181,5.44265435 5.66123696,7.14861412 5.66123696,9.25335217 C5.66123696,9.76618245 5.76448121,10.2644079 5.96085167,10.7278151 L5.96085167,10.7278151 L6.063,10.949 L12.879,10.949 L12.9827006,10.7280023 C13.1463097,10.3420016 13.2452649,9.93153218 13.2737053,9.50854848 L13.2737053,9.50854848 L13.2822609,9.25335217 C13.2822609,7.14869753 11.5762177,5.44265435 9.47156304,5.44265435 Z M17.7171087,8.78867826 C17.973741,8.78867826 18.1817826,8.99671986 18.1817826,9.25335217 C18.1817826,9.48146979 18.0174041,9.67119474 17.8006344,9.71053957 L17.7171087,9.71802609 L15.3350043,9.71802609 C15.078372,9.71802609 14.8703304,9.50998449 14.8703304,9.25335217 C14.8703304,9.02523456 15.034709,8.83550961 15.2514786,8.79616478 L15.3350043,8.78867826 L17.7171087,8.78867826 Z M3.60849348,8.78867826 C3.86512579,8.78867826 4.07316739,8.99671986 4.07316739,9.25335217 C4.07316739,9.48146979 3.90878885,9.67119474 3.6920192,9.71053957 L3.60849348,9.71802609 L1.22638913,9.71802609 C0.969756815,9.71802609 0.761715217,9.50998449 0.761715217,9.25335217 C0.761715217,9.02523456 0.926093763,8.83550961 1.14286341,8.79616478 L1.22638913,8.78867826 L3.60849348,8.78867826 Z M3.89725774,3.0348779 L3.97015234,3.09442158 L5.65450234,4.77877158 C5.83596879,4.96023803 5.83596879,5.25445328 5.65450234,5.43591973 C5.49571919,5.59470287 5.25061275,5.61455076 5.07024878,5.49546341 L4.99735419,5.43591973 L3.31300419,3.75156973 C3.13153774,3.57010328 3.13153774,3.27588803 3.31300419,3.09442158 C3.47178733,2.93563843 3.71689377,2.91579054 3.89725774,3.0348779 Z M15.6304936,3.09442158 C15.7892768,3.25320472 15.8091247,3.49831116 15.6900373,3.67867513 L15.6304936,3.75156973 L13.9461436,5.43591973 C13.7646772,5.61738618 13.4704619,5.61738618 13.2889955,5.43591973 C13.1302123,5.27713658 13.1103645,5.03203014 13.2294518,4.85166617 L13.2889955,4.77877158 L14.9733455,3.09442158 C15.1548119,2.91295513 15.4490272,2.91295513 15.6304936,3.09442158 Z M9.47193478,0.543504348 C9.7000524,0.543504348 9.88977734,0.707882894 9.92912218,0.924652537 L9.9366087,1.00817826 L9.9366087,3.38991087 C9.9366087,3.64654319 9.7285671,3.85458478 9.47193478,3.85458478 C9.24381717,3.85458478 9.05409222,3.69020624 9.01474739,3.47343659 L9.00726087,3.38991087 L9.00726087,1.00817826 C9.00726087,0.751545945 9.21530247,0.543504348 9.47193478,0.543504348 Z" transform="translate(.95 1.85)"/>
</svg>
