<svg xmlns="http://www.w3.org/2000/svg" width="21" height="21" viewBox="0 0 21 21">
  <path d="M9.431856.291816C9.6690874.291816 9.86548485.466646955 9.89923289.694493413L9.904356.764316 9.904356 3.186162C9.904356 3.44711654 9.69281054 3.658662 9.431856 3.658662 9.1946246 3.658662 8.99822715 3.48383104 8.96447911 3.25598459L8.959356 3.186162 8.959356.764316C8.959356.503361456 9.17090146.291816 9.431856.291816zM17.816274 8.675856C18.0772285 8.675856 18.288774 8.88740146 18.288774 9.148356 18.288774 9.3855874 18.113943 9.58198485 17.8860966 9.61573289L17.816274 9.620856 15.39405 9.620856C15.1330955 9.620856 14.92155 9.40931054 14.92155 9.148356 14.92155 8.9111246 15.096381 8.71472715 15.3242274 8.68097911L15.39405 8.675856 17.816274 8.675856zM3.47004 8.675856C3.73099454 8.675856 3.94254 8.88740146 3.94254 9.148356 3.94254 9.3855874 3.76770904 9.58198485 3.53986259 9.61573289L3.47004 9.620856 1.047816 9.620856C.786861456 9.620856.575316 9.40931054.575316 9.148356.575316 8.9111246.750146955 8.71472715.977993413 8.68097911L1.047816 8.675856 3.47004 8.675856zM3.16957405 2.88569605C3.33359425 2.72167584 3.58820031 2.70345138 3.7723507 2.83102265L3.83778995 2.88569605 5.55050795 4.59841405C5.73503068 4.78293677 5.73503068 5.08210723 5.55050795 5.26662995 5.38648775 5.43065016 5.13188169 5.44887462 4.9477313 5.32130335L4.88229205 5.26662995 3.16957405 3.55391195C2.98505132 3.36938923 2.98505132 3.07021877 3.16957405 2.88569605zM15.0263 2.88569605C15.2108228 2.70117332 15.5099932 2.70117332 15.694516 2.88569605 15.8585362 3.04971625 15.8767606 3.30432231 15.7491894 3.4884727L15.694516 3.55391195 13.981798 5.26662995C13.7972752 5.45115268 13.4981048 5.45115268 13.313582 5.26662995 13.1495618 5.10260975 13.1313374 4.84800369 13.2589086 4.6638533L13.313582 4.59841405 15.0263 2.88569605zM9.431856 4.328478C12.0938665 4.328478 14.251734 6.48634546 14.251734 9.148356 14.251734 10.0144038 14.0190986 10.8486381 13.5858682 11.5852162 13.5009772 11.7295477 13.3460378 11.81817 13.178592 11.81817L13.178592 11.81817 5.685498 11.81817C5.51797883 11.81817 5.36298289 11.7294706 5.27811757 11.5850388 4.84500105 10.8479203 4.612356 10.0141418 4.612356 9.148356 4.612356 6.48628605 6.76990485 4.328478 9.431856 4.328478zM9.431856 5.273478C7.29183936 5.273478 5.557356 7.00816973 5.557356 9.148356 5.557356 9.68913702 5.67025964 10.2139469 5.88459244 10.6998622L5.88459244 10.6998622 5.966352 10.872792 12.896604 10.872792 12.9795574 10.7000274C13.1632339 10.2837435 13.272411 9.83853613 13.299856 9.37915779L13.299856 9.37915779 13.306734 9.148356C13.306734 7.00825454 11.5719575 5.273478 9.431856 5.273478zM11.1899151 14.0349443C11.3716475 13.8476728 11.6707843 13.8431826 11.8580557 14.0249151 12.0266 14.1884743 12.0470915 14.447131 11.9170214 14.6337476L11.8680849 14.6930557 9.84654091 16.7762137C9.68270648 16.9450416 9.42352129 16.9652801 9.23688811 16.8346087L9.17759448 16.7854591 7.04113848 14.7023011C6.85429995 14.5201236 6.85052142 14.220977 7.03269891 14.0341385 7.19665865 13.8659838 7.45536336 13.8461077 7.64167 13.9766214L7.70086152 14.0256989 9.497628 15.77772 11.1899151 14.0349443z" transform="translate(1.05 1.95)"/>
</svg>
