<svg xmlns="http://www.w3.org/2000/svg" width="21" height="22" viewBox="0 0 21 22">
  <path d="M4.599325,0.6549 C5.72880058,0.6549 6.644425,1.57035851 6.644425,2.7 L6.644425,2.7 L6.644,11.76 L6.78436547,11.8601076 C7.61547687,12.4918069 8.14248396,13.4560912 8.20511332,14.5188126 L8.20511332,14.5188126 L8.2114,14.7326 C8.2114,16.727671 6.59397102,18.3451 4.5989,18.3451 C2.60382898,18.3451 0.9864,16.727671 0.9864,14.7326 C0.9864,13.5860232 1.52701173,12.5338044 2.41381611,11.8600431 L2.41381611,11.8600431 L2.553,11.76 L2.5538,2.7 C2.5538,1.62175026 3.38842236,0.738570065 4.44668868,0.660508745 L4.44668868,0.660508745 Z M4.599325,1.5049 C3.93914142,1.5049 3.4038,2.03995053 3.4038,2.7 L3.4038,2.7 L3.4038,11.99135 C3.4038,12.1414988 3.32457305,12.2805051 3.19538419,12.3570224 C2.35917282,12.8523022 1.8364,13.7466067 1.8364,14.7326 C1.8364,16.258229 3.07327102,17.4951 4.5989,17.4951 C6.12452898,17.4951 7.3614,16.258229 7.3614,14.7326 C7.3614,13.7466833 6.83868912,12.8523118 6.00276808,12.3569793 C5.87362038,12.2804517 5.794425,12.1414686 5.794425,11.99135 L5.794425,11.99135 L5.794425,2.7 C5.794425,2.03983504 5.25939302,1.5049 4.599325,1.5049 Z M4.599325,7.13615 C4.95845,7.13615 5.25,7.427275 5.25,7.786825 L5.25,7.786825 L5.25,12.525575 C6.204125,12.8065 6.901125,13.687525 6.90155,14.733025 C6.90155,16.004625 5.870925,17.03525 4.599325,17.03525 C3.327725,17.03525 2.2971,16.004625 2.2971,14.733025 C2.2971,13.687525 2.9941,12.8065 3.94865,12.525575 L3.94865,12.525575 L3.94865,7.786825 C3.94865,7.4277 4.2402,7.13615 4.599325,7.13615 Z" transform="translate(6 1)"/>
</svg>
