<svg xmlns="http://www.w3.org/2000/svg" width="21" height="22" viewBox="0 0 21 22">
  <path d="M4.2827,0.6549 C5.41217558,0.6549 6.3278,1.57035851 6.3278,2.7 L6.3278,2.7 L6.327,11.76 L6.46781624,11.8600673 C7.29925685,12.4917795 7.82627598,13.4561164 7.88856196,14.5188176 L7.88856196,14.5188176 L7.89477521,14.7326 C7.89477521,16.727671 6.27734605,18.3451 4.282275,18.3451 C2.28720398,18.3451 0.669775,16.727671 0.669775,14.7326 C0.669775,13.5860232 1.21038673,12.5338044 2.09719111,11.8600431 L2.09719111,11.8600431 L2.237,11.76 L2.237175,2.7 C2.237175,1.62175026 3.07179736,0.738570065 4.13006368,0.660508745 L4.13006368,0.660508745 Z M4.2827,1.5049 C3.62251642,1.5049 3.087175,2.03995053 3.087175,2.7 L3.087175,2.7 L3.087175,11.99135 C3.087175,12.1414988 3.00794805,12.2805051 2.87875919,12.3570224 C2.04254782,12.8523022 1.519775,13.7466067 1.519775,14.7326 C1.519775,16.258229 2.75664602,17.4951 4.282275,17.4951 C5.80790403,17.4951 7.04477543,16.2582289 7.04477543,14.7324454 C7.04513381,13.7466093 6.52247815,12.8523324 5.68621581,12.3570224 C5.55702695,12.2805051 5.4778,12.1414988 5.4778,11.99135 L5.4778,11.99135 L5.4778,2.7 C5.4778,2.03983504 4.94276802,1.5049 4.2827,1.5049 Z M4.2827,12.430375 C5.55418376,12.430375 6.584925,13.4611162 6.584925,14.7326 C6.584925,16.0040838 5.55418376,17.034825 4.2827,17.034825 C3.01121624,17.034825 1.980475,16.0040838 1.980475,14.7326 C1.980475,13.4611162 3.01121624,12.430375 4.2827,12.430375 Z" transform="translate(6.282 1)"/>
</svg>
