<svg xmlns="http://www.w3.org/2000/svg" xmlns:xlink="http://www.w3.org/1999/xlink" width="21" height="21" viewBox="0 0 21 21">
  <defs>
    <path id="temperature-a" d="M10.599325,1.6549 C11.7288006,1.6549 12.644425,2.57035851 12.644425,3.7 L12.644425,3.7 L12.644,12.76 L12.7843655,12.8601076 C13.6154769,13.4918069 14.142484,14.4560912 14.2051133,15.5188126 L14.2051133,15.5188126 L14.2114,15.7326 C14.2114,17.727671 12.593971,19.3451 10.5989,19.3451 C8.60382898,19.3451 6.9864,17.727671 6.9864,15.7326 C6.9864,14.5860232 7.52701173,13.5338044 8.41381611,12.8600431 L8.41381611,12.8600431 L8.553,12.76 L8.5538,3.7 C8.5538,2.62175026 9.38842236,1.73857007 10.4466887,1.66050875 L10.4466887,1.66050875 Z M10.599325,2.5049 C9.93914142,2.5049 9.4038,3.03995053 9.4038,3.7 L9.4038,3.7 L9.4038,12.99135 C9.4038,13.1414988 9.32457305,13.2805051 9.19538419,13.3570224 C8.35917282,13.8523022 7.8364,14.7466067 7.8364,15.7326 C7.8364,17.258229 9.07327102,18.4951 10.5989,18.4951 C12.124529,18.4951 13.3614,17.258229 13.3614,15.7326 C13.3614,14.7466833 12.8386891,13.8523118 12.0027681,13.3569793 C11.8736204,13.2804517 11.794425,13.1414686 11.794425,12.99135 L11.794425,12.99135 L11.794425,3.7 C11.794425,3.03983504 11.259393,2.5049 10.599325,2.5049 Z M10.599325,8.13615 C10.95845,8.13615 11.25,8.427275 11.25,8.786825 L11.25,8.786825 L11.25,13.525575 C12.204125,13.8065 12.901125,14.687525 12.90155,15.733025 C12.90155,17.004625 11.870925,18.03525 10.599325,18.03525 C9.327725,18.03525 8.2971,17.004625 8.2971,15.733025 C8.2971,14.687525 8.9941,13.8065 9.94865,13.525575 L9.94865,13.525575 L9.94865,8.786825 C9.94865,8.4277 10.2402,8.13615 10.599325,8.13615 Z"/>
  </defs>
  <g fill="none" fill-rule="evenodd">
    <mask id="temperature-b" fill="#fff">
      <use xlink:href="#temperature-a"/>
    </mask>
    <use fill="#000" fill-rule="nonzero" xlink:href="#temperature-a"/>
    <g fill="#000" mask="url(#temperature-b)">
      <rect width="21" height="21"/>
    </g>
  </g>
</svg>
