<svg xmlns="http://www.w3.org/2000/svg" width="21" height="22" viewBox="0 0 21 22">
  <g transform="translate(7 2)">
    <path d="M3.32683868,-0.339491255 C2.26857236,-0.261429935 1.43395,0.621750261 1.43395,1.7 L1.433,10.76 L1.29396611,10.8600431 C0.407161729,11.5338044 -0.13345,12.5860232 -0.13345,13.7326 C-0.13345,15.727671 1.48397898,17.3451 3.47905,17.3451 C5.47412105,17.3451 7.09155021,15.727671 7.09155021,13.7326 L7.08533696,13.5188176 C7.02305098,12.4561164 6.49603185,11.4917795 5.66459124,10.8600673 L5.524,10.76 L5.524575,1.7 C5.524575,0.570358514 4.60895058,-0.3451 3.479475,-0.3451 L3.32683868,-0.339491255 Z M3.479475,0.5049 C4.13954302,0.5049 4.674575,1.03983504 4.674575,1.7 L4.674575,10.99135 C4.674575,11.1414988 4.75380195,11.2805051 4.88299081,11.3570224 C5.71925315,11.8523324 6.24190881,12.7466093 6.24155043,13.7324454 C6.24155043,15.2582289 5.00467903,16.4951 3.47905,16.4951 C1.95342102,16.4951 0.71655,15.258229 0.71655,13.7326 C0.71655,12.7466067 1.23932282,11.8523022 2.07553419,11.3570224 C2.20472305,11.2805051 2.28395,11.1414988 2.28395,10.99135 L2.28395,1.7 C2.28395,1.03995053 2.81929142,0.5049 3.479475,0.5049 Z"/>
    <path d="M4.130575,11.525575 L4.130575,1.8462 C4.130575,1.48665 3.839025,1.195525 3.4799,1.195525 C3.120775,1.195525 2.829225,1.487075 2.829225,1.8462 L2.829225,11.525575 C1.874675,11.8065 1.177675,12.687525 1.177675,13.733025 C1.177675,15.004625 2.2083,16.03525 3.4799,16.03525 C4.7515,16.03525 5.782125,15.004625 5.782125,13.733025 C5.7817,12.687525 5.0847,11.8065 4.130575,11.525575 Z"/>
  </g>
</svg>
