<svg xmlns="http://www.w3.org/2000/svg" width="21" height="21" viewBox="0 0 21 21">
  <path fill="#A63446" d="M4.479475,0.6549 C5.60895058,0.6549 6.524575,1.57035851 6.524575,2.7 L6.524575,2.7 L6.524,11.76 L6.66459124,11.8600673 C7.49603185,12.4917795 8.02305098,13.4561164 8.08533696,14.5188176 L8.08533696,14.5188176 L8.09155021,14.7326 C8.09155021,16.727671 6.47412105,18.3451 4.47905,18.3451 C2.48397898,18.3451 0.86655,16.727671 0.86655,14.7326 C0.86655,13.5860232 1.40716173,12.5338044 2.29396611,11.8600431 L2.29396611,11.8600431 L2.433,11.76 L2.43395,2.7 C2.43395,1.62175026 3.26857236,0.738570065 4.32683868,0.660508745 L4.32683868,0.660508745 Z M4.479475,1.5049 C3.81929142,1.5049 3.28395,2.03995053 3.28395,2.7 L3.28395,2.7 L3.28395,11.99135 C3.28395,12.1414988 3.20472305,12.2805051 3.07553419,12.3570224 C2.23932282,12.8523022 1.71655,13.7466067 1.71655,14.7326 C1.71655,16.258229 2.95342102,17.4951 4.47905,17.4951 C6.00467903,17.4951 7.24155043,16.2582289 7.24155043,14.7324454 C7.24190881,13.7466093 6.71925315,12.8523324 5.88299081,12.3570224 C5.75380195,12.2805051 5.674575,12.1414988 5.674575,11.99135 L5.674575,11.99135 L5.674575,2.7 C5.674575,2.03983504 5.13954302,1.5049 4.479475,1.5049 Z M4.4799,2.195525 C4.839025,2.195525 5.130575,2.48665 5.130575,2.8462 L5.130575,2.8462 L5.130575,12.525575 C6.0847,12.8065 6.7817,13.687525 6.782125,14.733025 C6.782125,16.004625 5.7515,17.03525 4.4799,17.03525 C3.2083,17.03525 2.177675,16.004625 2.177675,14.733025 C2.177675,13.687525 2.874675,12.8065 3.829225,12.525575 L3.829225,12.525575 L3.829225,2.8462 C3.829225,2.487075 4.120775,2.195525 4.4799,2.195525 Z" transform="translate(6 1)"/>
</svg>
