<svg xmlns="http://www.w3.org/2000/svg" width="21" height="22" viewBox="0 0 21 22">
  <path d="M9.38678194,0.741723329 C9.55300086,0.833125087 9.68979431,0.96991854 9.78119607,1.13613746 L17.3959334,14.9839387 C17.6620481,15.4678824 17.4854629,16.0759247 17.0015193,16.3420394 C16.8538929,16.4232174 16.6881498,16.465782 16.519676,16.465782 L1.29020128,16.465782 C0.737916534,16.465782 0.290201284,16.0180668 0.290201284,15.465782 C0.290201284,15.2973082 0.332765903,15.1315652 0.413943873,14.9839387 L8.02868125,1.13613746 C8.29479594,0.65219385 8.90283834,0.475608631 9.38678194,0.741723329 Z M8.4083529,2.93216291 C8.24324636,3.02428187 8.10701762,3.16051061 8.01489866,3.32561715 L2.03069721,14.051214 C1.75644047,14.5427695 1.93259593,15.163583 2.42415145,15.4378398 C2.57595664,15.5225374 2.74690249,15.5669997 2.9207372,15.5669997 L14.8891401,15.5669997 C15.4520287,15.5669997 15.9083401,15.1106884 15.9083401,14.5477998 C15.9083401,14.373965 15.8638778,14.2030192 15.7791801,14.051214 L9.79497865,3.32561715 C9.52072191,2.83406163 8.89990842,2.65790617 8.4083529,2.93216291 Z M9.10309087,12.3944442 C9.33505047,12.3944442 9.52309089,12.5824846 9.52309089,12.8144442 L9.52309089,13.5374413 C9.52309089,13.769401 9.33505047,13.9574414 9.10309087,13.9574414 L8.70692872,13.9574414 C8.47496912,13.9574414 8.28692871,13.769401 8.28692871,13.5374413 L8.28692871,12.8144442 C8.28692871,12.5824846 8.47496912,12.3944442 8.70692872,12.3944442 L9.10309087,12.3944442 Z M9.10309087,6.09381367 C9.33505047,6.09381367 9.52309089,6.28185408 9.52309089,6.51381369 L9.52309089,11.0107782 C9.52309089,11.2427378 9.33505047,11.4307782 9.10309087,11.4307782 L8.70692872,11.4307782 C8.47496912,11.4307782 8.28692871,11.2427378 8.28692871,11.0107782 L8.28692871,6.51381369 C8.28692871,6.28185408 8.47496912,6.09381367 8.70692872,6.09381367 L9.10309087,6.09381367 Z" transform="translate(1.609 2.198)"/>
</svg>
