<svg xmlns="http://www.w3.org/2000/svg" width="21" height="22" viewBox="0 0 21 22">
  <path d="M12.354271,6.90297733 C12.8833246,6.91673851 13.5272382,7.03229844 14.1688917,7.32897872 C15.4538383,7.92309728 16.2476152,9.0723295 16.2652586,10.8260392 C16.2829339,12.5829179 15.5529548,13.7670008 14.341398,14.4214714 C13.6353602,14.8028659 12.9394063,14.9331506 12.4494513,14.9384292 C12.1536014,14.9415663 11.9111992,14.7043011 11.9080307,14.4084513 C11.9048623,14.1126014 12.1421274,13.8701992 12.4379773,13.8670307 C12.5112959,13.8662455 12.6604796,13.8533635 12.8585988,13.816275 C13.1925007,13.7537676 13.5256884,13.6443495 13.8321714,13.4787905 C14.7008949,13.0095149 15.207476,12.1878009 15.1938843,10.8368179 C15.1805376,9.51019567 14.6396077,8.72703591 13.7192356,8.30148505 C13.23917,8.07951794 12.7395263,7.9883583 12.3458208,7.97482799 L1.15814286,7.97414286 C0.862276027,7.97414286 0.622428571,7.7342954 0.622428571,7.43842857 C0.622428571,7.17214842 0.81670501,6.95124397 1.07124722,6.90972588 L1.15814286,6.90271429 L12.354271,6.90297733 Z M9.94385714,8.79528571 C10.2311832,8.79528571 10.6316154,8.84632119 11.0458951,9.00472223 C11.80436,9.29472355 12.301,9.86439878 12.301,10.7238571 C12.301,11.5766152 11.8128596,12.155722 11.0627083,12.4720211 C10.6507458,12.6457239 10.2512747,12.7123337 9.96489133,12.7235869 C9.66925265,12.7352038 9.42017282,12.5049586 9.40855596,12.2093199 C9.3969391,11.9136812 9.62718427,11.6646014 9.92282296,11.6529845 C10.0917968,11.6463449 10.3753613,11.5990619 10.6464345,11.4847646 C11.0346761,11.3210637 11.2295714,11.0898491 11.2295714,10.7238571 C11.2295714,10.3645655 11.0431757,10.1507586 10.6632478,10.0054921 C10.4392844,9.91985899 10.2057047,9.88057425 10.0368258,9.86985803 L9.94385714,9.86671429 L1.15814286,9.86671429 C0.862276027,9.86671429 0.622428571,9.62686683 0.622428571,9.331 C0.622428571,9.06471985 0.81670501,8.8438154 1.07124722,8.80229731 L1.15814286,8.79528571 L9.94385714,8.79528571 Z M17.32486,4.04555974 C17.6126776,4.04225383 17.9741229,4.08990108 18.3440196,4.24200257 C19.0345079,4.52593137 19.4795714,5.09466322 19.4795714,5.93842857 C19.4795714,6.76960688 19.0955524,7.32489617 18.4786539,7.56661312 C18.2408227,7.65980159 18.0032046,7.69588027 17.7827275,7.69642036 L17.594,7.688 L15.7316333,7.69556746 C15.4653551,7.6965923 15.2437045,7.50316751 15.2012071,7.24878698 L15.1938571,7.16191897 C15.1928363,6.89564079 15.3862611,6.67399025 15.6406416,6.63149281 L15.7275096,6.62414682 L17.7013197,6.62209667 C17.8183825,6.63091378 17.9639245,6.61755745 18.0877747,6.56902974 C18.2966798,6.48717526 18.4081429,6.32600027 18.4081429,5.93842857 C18.4081429,5.56344392 18.2505278,5.36203292 17.9365519,5.232926 C17.7663256,5.16292896 17.5850351,5.12951906 17.4434967,5.11981508 L17.3455904,5.11678069 C17.0527741,5.12327289 16.8076781,4.88879148 16.8011312,4.5929971 C16.7952389,4.32678215 16.9845797,4.10163285 17.2381408,4.05449244 L17.32486,4.04555974 Z M13.2657143,0.509714286 C14.5472489,0.509714286 15.3770587,1.07752579 15.7604475,2.00076063 C15.927194,2.40230144 15.9889061,2.8083251 15.9880633,3.17230211 L15.9794715,3.39126132 L15.9770294,3.49582704 C15.9605272,3.81599735 15.8718737,4.2094625 15.6536344,4.60691566 C15.2495424,5.34284001 14.5204293,5.80627665 13.4645362,5.86133152 L13.249,5.86685714 L1.15857143,5.86685714 C0.862704598,5.86685714 0.622857143,5.62700969 0.622857143,5.33114286 C0.622857143,5.06486271 0.817133582,4.84395826 1.07167579,4.80244017 L1.15857143,4.79542857 L13.249,4.79542857 C14.0303553,4.79542857 14.4714417,4.53383051 14.7144728,4.09122719 C14.836113,3.86969845 14.890929,3.63928673 14.9048343,3.46858519 L14.9130111,3.2875303 C14.9282727,3.02859669 14.8932291,2.70613819 14.7709454,2.41166794 C14.5517895,1.88392063 14.1093047,1.58114286 13.2657143,1.58114286 C12.4199177,1.58114286 11.9686936,1.88665888 11.7397381,2.41815743 C11.6359904,2.65899808 11.5903364,2.91686733 11.58277,3.14156841 L11.5847019,3.3161638 C11.6119259,3.61237628 11.3951384,3.8732532 11.1005239,3.90044671 C10.8353709,3.92492087 10.5975453,3.75177039 10.5328076,3.50212159 L10.5156377,3.3870784 L10.5138265,3.356481 C10.4935971,2.95102324 10.5506973,2.47022627 10.7557261,1.99427114 C11.1518153,1.07478754 11.9863858,0.509714286 13.2657143,0.509714286 Z" transform="translate(.5 2.722)"/>
</svg>
